MidiFile(type=1, ticks_per_beat=480, tracks=[
  MidiTrack([
    MetaMessage('time_signature', numerator=4, denominator=4, clocks_per_click=24, notated_32nd_notes_per_beat=8, time=0),
    MetaMessage('key_signature', key='G', time=0),
    MetaMessage('set_tempo', tempo=666667, time=0),
    Message('control_change', channel=0, control=121, value=0, time=0),
    Message('program_change', channel=0, program=0, time=0),
    Message('control_change', channel=0, control=7, value=100, time=0),
    Message('control_change', channel=0, control=10, value=64, time=0),
    Message('control_change', channel=0, control=91, value=0, time=0),
    Message('control_change', channel=0, control=93, value=0, time=0),
    MetaMessage('midi_port', port=0, time=0),
    Message('note_on', channel=0, note=67, velocity=80, time=7920),
    Message('note_on', channel=0, note=67, velocity=0, time=113),
    Message('note_on', channel=0, note=66, velocity=80, time=7),
    Message('note_on', channel=0, note=66, velocity=0, time=113),
    Message('note_on', channel=0, note=67, velocity=80, time=7),
    Message('note_on', channel=0, note=67, velocity=0, time=227),
    Message('note_on', channel=0, note=71, velocity=80, time=13),
    Message('note_on', channel=0, note=71, velocity=0, time=113),
    Message('note_on', channel=0, note=72, velocity=80, time=7),
    Message('note_on', channel=0, note=72, velocity=0, time=113),
    Message('note_on', channel=0, note=71, velocity=80, time=7),
    Message('note_on', channel=0, note=71, velocity=0, time=911),
    Message('note_on', channel=0, note=66, velocity=80, time=289),
    Message('note_on', channel=0, note=66, velocity=0, time=113),
    Message('note_on', channel=0, note=67, velocity=80, time=7),
    Message('note_on', channel=0, note=67, velocity=0, time=113),
    Message('note_on', channel=0, note=66, velocity=80, time=7),
    Message('note_on', channel=0, note=66, velocity=0, time=227),
    Message('note_on', channel=0, note=67, velocity=80, time=13),
    Message('note_on', channel=0, note=67, velocity=0, time=113),
    Message('note_on', channel=0, note=69, velocity=80, time=7),
    Message('note_on', channel=0, note=69, velocity=0, time=113),
    Message('note_on', channel=0, note=67, velocity=80, time=7),
    Message('note_on', channel=0, note=67, velocity=0, time=911),
    Message('note_on', channel=0, note=66, velocity=80, time=289),
    Message('note_on', channel=0, note=66, velocity=0, time=113),
    Message('note_on', channel=0, note=64, velocity=80, time=7),
    Message('note_on', channel=0, note=64, velocity=0, time=113),
    Message('note_on', channel=0, note=66, velocity=80, time=7),
    Message('note_on', channel=0, note=66, velocity=0, time=227),
    Message('note_on', channel=0, note=71, velocity=80, time=13),
    Message('note_on', channel=0, note=71, velocity=0, time=113),
    Message('note_on', channel=0, note=72, velocity=80, time=7),
    Message('note_on', channel=0, note=72, velocity=0, time=113),
    Message('note_on', channel=0, note=71, velocity=80, time=7),
    Message('note_on', channel=0, note=71, velocity=0, time=911),
    Message('note_on', channel=0, note=66, velocity=80, time=289),
    Message('note_on', channel=0, note=66, velocity=0, time=113),
    Message('note_on', channel=0, note=64, velocity=80, time=7),
    Message('note_on', channel=0, note=64, velocity=0, time=113),
    Message('note_on', channel=0, note=66, velocity=80, time=7),
    Message('note_on', channel=0, note=66, velocity=0, time=455),
    Message('note_on', channel=0, note=67, velocity=80, time=1225),
    Message('note_on', channel=0, note=67, velocity=0, time=113),
    Message('note_on', channel=0, note=66, velocity=80, time=7),
    Message('note_on', channel=0, note=66, velocity=0, time=113),
    Message('note_on', channel=0, note=67, velocity=80, time=7),
    Message('note_on', channel=0, note=67, velocity=0, time=227),
    Message('note_on', channel=0, note=71, velocity=80, time=13),
    Message('note_on', channel=0, note=71, velocity=0, time=113),
    Message('note_on', channel=0, note=72, velocity=80, time=7),
    Message('note_on', channel=0, note=72, velocity=0, time=113),
    Message('note_on', channel=0, note=71, velocity=80, time=7),
    Message('note_on', channel=0, note=71, velocity=0, time=911),
    Message('note_on', channel=0, note=66, velocity=80, time=289),
    Message('note_on', channel=0, note=66, velocity=0, time=113),
    Message('note_on', channel=0, note=67, velocity=80, time=7),
    Message('note_on', channel=0, note=67, velocity=0, time=113),
    Message('note_on', channel=0, note=66, velocity=80, time=7),
    Message('note_on', channel=0, note=66, velocity=0, time=227),
    Message('note_on', channel=0, note=67, velocity=80, time=13),
    Message('note_on', channel=0, note=67, velocity=0, time=113),
    Message('note_on', channel=0, note=69, velocity=80, time=7),
    Message('note_on', channel=0, note=69, velocity=0, time=113),
    Message('note_on', channel=0, note=67, velocity=80, time=7),
    Message('note_on', channel=0, note=67, velocity=0, time=911),
    Message('note_on', channel=0, note=66, velocity=80, time=289),
    Message('note_on', channel=0, note=66, velocity=0, time=113),
    Message('note_on', channel=0, note=64, velocity=80, time=7),
    Message('note_on', channel=0, note=64, velocity=0, time=113),
    Message('note_on', channel=0, note=66, velocity=80, time=7),
    Message('note_on', channel=0, note=66, velocity=0, time=227),
    Message('note_on', channel=0, note=71, velocity=80, time=13),
    Message('note_on', channel=0, note=71, velocity=0, time=113),
    Message('note_on', channel=0, note=72, velocity=80, time=7),
    Message('note_on', channel=0, note=72, velocity=0, time=113),
    Message('note_on', channel=0, note=71, velocity=80, time=7),
    Message('note_on', channel=0, note=71, velocity=0, time=911),
    Message('note_on', channel=0, note=66, velocity=80, time=289),
    Message('note_on', channel=0, note=66, velocity=0, time=113),
    Message('note_on', channel=0, note=64, velocity=80, time=7),
    Message('note_on', channel=0, note=64, velocity=0, time=113),
    Message('note_on', channel=0, note=66, velocity=80, time=7),
    Message('note_on', channel=0, note=66, velocity=0, time=455),
    Message('note_on', channel=0, note=76, velocity=80, time=985),
    Message('note_on', channel=0, note=76, velocity=0, time=683),
    Message('note_on', channel=0, note=71, velocity=80, time=37),
    Message('note_on', channel=0, note=71, velocity=0, time=683),
    Message('note_on', channel=0, note=74, velocity=80, time=517),
    Message('note_on', channel=0, note=74, velocity=0, time=683),
    Message('note_on', channel=0, note=71, velocity=80, time=37),
    Message('note_on', channel=0, note=71, velocity=0, time=683),
    Message('note_on', channel=0, note=78, velocity=80, time=517),
    Message('note_on', channel=0, note=78, velocity=0, time=683),
    Message('note_on', channel=0, note=71, velocity=80, time=37),
    Message('note_on', channel=0, note=71, velocity=0, time=683),
    Message('note_on', channel=0, note=78, velocity=80, time=517),
    Message('note_on', channel=0, note=78, velocity=0, time=683),
    Message('note_on', channel=0, note=69, velocity=80, time=37),
    Message('note_on', channel=0, note=69, velocity=0, time=683),
    Message('note_on', channel=0, note=71, velocity=80, time=517),
    Message('note_on', channel=0, note=79, velocity=80, time=0),
    Message('note_on', channel=0, note=71, velocity=0, time=683),
    Message('note_on', channel=0, note=79, velocity=0, time=0),
    Message('note_on', channel=0, note=67, velocity=80, time=37),
    Message('note_on', channel=0, note=76, velocity=80, time=0),
    Message('note_on', channel=0, note=67, velocity=0, time=683),
    Message('note_on', channel=0, note=76, velocity=0, time=0),
    Message('note_on', channel=0, note=71, velocity=80, time=517),
    Message('note_on', channel=0, note=79, velocity=80, time=0),
    Message('note_on', channel=0, note=71, velocity=0, time=683),
    Message('note_on', channel=0, note=79, velocity=0, time=0),
    Message('note_on', channel=0, note=67, velocity=80, time=37),
    Message('note_on', channel=0, note=74, velocity=80, time=0),
    Message('note_on', channel=0, note=67, velocity=0, time=683),
    Message('note_on', channel=0, note=74, velocity=0, time=0),
    Message('note_on', channel=0, note=71, velocity=80, time=517),
    Message('note_on', channel=0, note=78, velocity=80, time=0),
    Message('note_on', channel=0, note=71, velocity=0, time=683),
    Message('note_on', channel=0, note=78, velocity=0, time=0),
    Message('note_on', channel=0, note=66, velocity=80, time=37),
    Message('note_on', channel=0, note=74, velocity=80, time=0),
    Message('note_on', channel=0, note=66, velocity=0, time=683),
    Message('note_on', channel=0, note=74, velocity=0, time=0),
    Message('note_on', channel=0, note=69, velocity=80, time=517),
    Message('note_on', channel=0, note=78, velocity=80, time=0),
    Message('note_on', channel=0, note=69, velocity=0, time=683),
    Message('note_on', channel=0, note=78, velocity=0, time=0),
    Message('note_on', channel=0, note=66, velocity=80, time=37),
    Message('note_on', channel=0, note=74, velocity=80, time=0),
    Message('note_on', channel=0, note=66, velocity=0, time=683),
    Message('note_on', channel=0, note=74, velocity=0, time=0),
    Message('note_on', channel=0, note=71, velocity=80, time=517),
    Message('note_on', channel=0, note=71, velocity=0, time=113),
    Message('note_on', channel=0, note=76, velocity=80, time=7),
    Message('note_on', channel=0, note=76, velocity=0, time=113),
    Message('note_on', channel=0, note=83, velocity=80, time=7),
    Message('note_on', channel=0, note=83, velocity=0, time=113),
    Message('note_on', channel=0, note=71, velocity=80, time=7),
    Message('note_on', channel=0, note=71, velocity=0, time=113),
    Message('note_on', channel=0, note=76, velocity=80, time=7),
    Message('note_on', channel=0, note=76, velocity=0, time=113),
    Message('note_on', channel=0, note=83, velocity=80, time=7),
    Message('note_on', channel=0, note=83, velocity=0, time=113),
    Message('note_on', channel=0, note=71, velocity=80, time=7),
    Message('note_on', channel=0, note=71, velocity=0, time=113),
    Message('note_on', channel=0, note=76, velocity=80, time=7),
    Message('note_on', channel=0, note=76, velocity=0, time=113),
    Message('note_on', channel=0, note=83, velocity=80, time=7),
    Message('note_on', channel=0, note=83, velocity=0, time=113),
    Message('note_on', channel=0, note=71, velocity=80, time=7),
    Message('note_on', channel=0, note=71, velocity=0, time=113),
    Message('note_on', channel=0, note=76, velocity=80, time=7),
    Message('note_on', channel=0, note=76, velocity=0, time=113),
    Message('note_on', channel=0, note=83, velocity=80, time=7),
    Message('note_on', channel=0, note=83, velocity=0, time=113),
    Message('note_on', channel=0, note=71, velocity=80, time=7),
    Message('note_on', channel=0, note=71, velocity=0, time=113),
    Message('note_on', channel=0, note=76, velocity=80, time=7),
    Message('note_on', channel=0, note=76, velocity=0, time=113),
    Message('note_on', channel=0, note=72, velocity=80, time=7),
    Message('note_on', channel=0, note=72, velocity=0, time=113),
    Message('note_on', channel=0, note=76, velocity=80, time=7),
    Message('note_on', channel=0, note=76, velocity=0, time=113),
    Message('note_on', channel=0, note=71, velocity=80, time=7),
    Message('note_on', channel=0, note=71, velocity=0, time=113),
    Message('note_on', channel=0, note=74, velocity=80, time=7),
    Message('note_on', channel=0, note=74, velocity=0, time=113),
    Message('note_on', channel=0, note=83, velocity=80, time=7),
    Message('note_on', channel=0, note=83, velocity=0, time=113),
    Message('note_on', channel=0, note=71, velocity=80, time=7),
    Message('note_on', channel=0, note=71, velocity=0, time=113),
    Message('note_on', channel=0, note=74, velocity=80, time=7),
    Message('note_on', channel=0, note=74, velocity=0, time=113),
    Message('note_on', channel=0, note=83, velocity=80, time=7),
    Message('note_on', channel=0, note=83, velocity=0, time=113),
    Message('note_on', channel=0, note=71, velocity=80, time=7),
    Message('note_on', channel=0, note=71, velocity=0, time=113),
    Message('note_on', channel=0, note=74, velocity=80, time=7),
    Message('note_on', channel=0, note=74, velocity=0, time=113),
    Message('note_on', channel=0, note=83, velocity=80, time=7),
    Message('note_on', channel=0, note=83, velocity=0, time=113),
    Message('note_on', channel=0, note=71, velocity=80, time=7),
    Message('note_on', channel=0, note=71, velocity=0, time=113),
    Message('note_on', channel=0, note=74, velocity=80, time=7),
    Message('note_on', channel=0, note=74, velocity=0, time=113),
    Message('note_on', channel=0, note=83, velocity=80, time=7),
    Message('note_on', channel=0, note=83, velocity=0, time=113),
    Message('note_on', channel=0, note=71, velocity=80, time=7),
    Message('note_on', channel=0, note=71, velocity=0, time=113),
    Message('note_on', channel=0, note=74, velocity=80, time=7),
    Message('note_on', channel=0, note=74, velocity=0, time=113),
    Message('note_on', channel=0, note=69, velocity=80, time=7),
    Message('note_on', channel=0, note=69, velocity=0, time=113),
    Message('note_on', channel=0, note=74, velocity=80, time=7),
    Message('note_on', channel=0, note=74, velocity=0, time=113),
    Message('note_on', channel=0, note=66, velocity=80, time=7),
    Message('note_on', channel=0, note=66, velocity=0, time=113),
    Message('note_on', channel=0, note=71, velocity=80, time=7),
    Message('note_on', channel=0, note=71, velocity=0, time=113),
    Message('note_on', channel=0, note=78, velocity=80, time=7),
    Message('note_on', channel=0, note=78, velocity=0, time=113),
    Message('note_on', channel=0, note=66, velocity=80, time=7),
    Message('note_on', channel=0, note=66, velocity=0, time=113),
    Message('note_on', channel=0, note=71, velocity=80, time=7),
    Message('note_on', channel=0, note=71, velocity=0, time=113),
    Message('note_on', channel=0, note=78, velocity=80, time=7),
    Message('note_on', channel=0, note=78, velocity=0, time=113),
    Message('note_on', channel=0, note=66, velocity=80, time=7),
    Message('note_on', channel=0, note=66, velocity=0, time=113),
    Message('note_on', channel=0, note=71, velocity=80, time=7),
    Message('note_on', channel=0, note=71, velocity=0, time=113),
    Message('note_on', channel=0, note=78, velocity=80, time=7),
    Message('note_on', channel=0, note=78, velocity=0, time=113),
    Message('note_on', channel=0, note=66, velocity=80, time=7),
    Message('note_on', channel=0, note=66, velocity=0, time=113),
    Message('note_on', channel=0, note=71, velocity=80, time=7),
    Message('note_on', channel=0, note=71, velocity=0, time=113),
    Message('note_on', channel=0, note=78, velocity=80, time=7),
    Message('note_on', channel=0, note=78, velocity=0, time=113),
    Message('note_on', channel=0, note=66, velocity=80, time=7),
    Message('note_on', channel=0, note=66, velocity=0, time=113),
    Message('note_on', channel=0, note=71, velocity=80, time=7),
    Message('note_on', channel=0, note=71, velocity=0, time=113),
    Message('note_on', channel=0, note=67, velocity=80, time=7),
    Message('note_on', channel=0, note=67, velocity=0, time=113),
    Message('note_on', channel=0, note=71, velocity=80, time=7),
    Message('note_on', channel=0, note=71, velocity=0, time=113),
    Message('note_on', channel=0, note=69, velocity=80, time=7),
    Message('note_on', channel=0, note=69, velocity=0, time=113),
    Message('note_on', channel=0, note=74, velocity=80, time=7),
    Message('note_on', channel=0, note=74, velocity=0, time=113),
    Message('note_on', channel=0, note=81, velocity=80, time=7),
    Message('note_on', channel=0, note=81, velocity=0, time=113),
    Message('note_on', channel=0, note=69, velocity=80, time=7),
    Message('note_on', channel=0, note=69, velocity=0, time=113),
    Message('note_on', channel=0, note=74, velocity=80, time=7),
    Message('note_on', channel=0, note=74, velocity=0, time=113),
    Message('note_on', channel=0, note=81, velocity=80, time=7),
    Message('note_on', channel=0, note=81, velocity=0, time=113),
    Message('note_on', channel=0, note=69, velocity=80, time=7),
    Message('note_on', channel=0, note=69, velocity=0, time=113),
    Message('note_on', channel=0, note=74, velocity=80, time=7),
    Message('note_on', channel=0, note=74, velocity=0, time=113),
    Message('note_on', channel=0, note=81, velocity=80, time=7),
    Message('note_on', channel=0, note=81, velocity=0, time=113),
    Message('note_on', channel=0, note=69, velocity=80, time=7),
    Message('note_on', channel=0, note=69, velocity=0, time=113),
    Message('note_on', channel=0, note=74, velocity=80, time=7),
    Message('note_on', channel=0, note=74, velocity=0, time=113),
    Message('note_on', channel=0, note=81, velocity=80, time=7),
    Message('note_on', channel=0, note=81, velocity=0, time=113),
    Message('note_on', channel=0, note=69, velocity=80, time=7),
    Message('note_on', channel=0, note=69, velocity=0, time=113),
    Message('note_on', channel=0, note=74, velocity=80, time=7),
    Message('note_on', channel=0, note=74, velocity=0, time=113),
    Message('note_on', channel=0, note=67, velocity=80, time=7),
    Message('note_on', channel=0, note=67, velocity=0, time=113),
    Message('note_on', channel=0, note=74, velocity=80, time=7),
    Message('note_on', channel=0, note=74, velocity=0, time=113),
    Message('note_on', channel=0, note=71, velocity=80, time=7),
    Message('note_on', channel=0, note=71, velocity=0, time=113),
    Message('note_on', channel=0, note=76, velocity=80, time=7),
    Message('note_on', channel=0, note=76, velocity=0, time=113),
    Message('note_on', channel=0, note=83, velocity=80, time=7),
    Message('note_on', channel=0, note=83, velocity=0, time=113),
    Message('note_on', channel=0, note=71, velocity=80, time=7),
    Message('note_on', channel=0, note=71, velocity=0, time=113),
    Message('note_on', channel=0, note=76, velocity=80, time=7),
    Message('note_on', channel=0, note=76, velocity=0, time=113),
    Message('note_on', channel=0, note=83, velocity=80, time=7),
    Message('note_on', channel=0, note=83, velocity=0, time=113),
    Message('note_on', channel=0, note=71, velocity=80, time=7),
    Message('note_on', channel=0, note=71, velocity=0, time=113),
    Message('note_on', channel=0, note=76, velocity=80, time=7),
    Message('note_on', channel=0, note=76, velocity=0, time=113),
    Message('note_on', channel=0, note=83, velocity=80, time=7),
    Message('note_on', channel=0, note=83, velocity=0, time=113),
    Message('note_on', channel=0, note=71, velocity=80, time=7),
    Message('note_on', channel=0, note=71, velocity=0, time=113),
    Message('note_on', channel=0, note=76, velocity=80, time=7),
    Message('note_on', channel=0, note=76, velocity=0, time=113),
    Message('note_on', channel=0, note=83, velocity=80, time=7),
    Message('note_on', channel=0, note=83, velocity=0, time=113),
    Message('note_on', channel=0, note=71, velocity=80, time=7),
    Message('note_on', channel=0, note=71, velocity=0, time=113),
    Message('note_on', channel=0, note=76, velocity=80, time=7),
    Message('note_on', channel=0, note=76, velocity=0, time=113),
    Message('note_on', channel=0, note=72, velocity=80, time=7),
    Message('note_on', channel=0, note=72, velocity=0, time=113),
    Message('note_on', channel=0, note=76, velocity=80, time=7),
    Message('note_on', channel=0, note=76, velocity=0, time=113),
    Message('note_on', channel=0, note=71, velocity=80, time=7),
    Message('note_on', channel=0, note=71, velocity=0, time=113),
    Message('note_on', channel=0, note=74, velocity=80, time=7),
    Message('note_on', channel=0, note=74, velocity=0, time=113),
    Message('note_on', channel=0, note=83, velocity=80, time=7),
    Message('note_on', channel=0, note=83, velocity=0, time=113),
    Message('note_on', channel=0, note=71, velocity=80, time=7),
    Message('note_on', channel=0, note=71, velocity=0, time=113),
    Message('note_on', channel=0, note=74, velocity=80, time=7),
    Message('note_on', channel=0, note=74, velocity=0, time=113),
    Message('note_on', channel=0, note=83, velocity=80, time=7),
    Message('note_on', channel=0, note=83, velocity=0, time=113),
    Message('note_on', channel=0, note=71, velocity=80, time=7),
    Message('note_on', channel=0, note=71, velocity=0, time=113),
    Message('note_on', channel=0, note=74, velocity=80, time=7),
    Message('note_on', channel=0, note=74, velocity=0, time=113),
    Message('note_on', channel=0, note=83, velocity=80, time=7),
    Message('note_on', channel=0, note=83, velocity=0, time=113),
    Message('note_on', channel=0, note=71, velocity=80, time=7),
    Message('note_on', channel=0, note=71, velocity=0, time=113),
    Message('note_on', channel=0, note=74, velocity=80, time=7),
    Message('note_on', channel=0, note=74, velocity=0, time=113),
    Message('note_on', channel=0, note=83, velocity=80, time=7),
    Message('note_on', channel=0, note=83, velocity=0, time=113),
    Message('note_on', channel=0, note=71, velocity=80, time=7),
    Message('note_on', channel=0, note=71, velocity=0, time=113),
    Message('note_on', channel=0, note=74, velocity=80, time=7),
    Message('note_on', channel=0, note=74, velocity=0, time=113),
    Message('note_on', channel=0, note=69, velocity=80, time=7),
    Message('note_on', channel=0, note=69, velocity=0, time=113),
    Message('note_on', channel=0, note=74, velocity=80, time=7),
    Message('note_on', channel=0, note=74, velocity=0, time=113),
    Message('note_on', channel=0, note=66, velocity=80, time=7),
    Message('note_on', channel=0, note=66, velocity=0, time=113),
    Message('note_on', channel=0, note=71, velocity=80, time=7),
    Message('note_on', channel=0, note=71, velocity=0, time=113),
    Message('note_on', channel=0, note=78, velocity=80, time=7),
    Message('note_on', channel=0, note=78, velocity=0, time=113),
    Message('note_on', channel=0, note=66, velocity=80, time=7),
    Message('note_on', channel=0, note=66, velocity=0, time=113),
    Message('note_on', channel=0, note=71, velocity=80, time=7),
    Message('note_on', channel=0, note=71, velocity=0, time=113),
    Message('note_on', channel=0, note=78, velocity=80, time=7),
    Message('note_on', channel=0, note=78, velocity=0, time=113),
    Message('note_on', channel=0, note=66, velocity=80, time=7),
    Message('note_on', channel=0, note=66, velocity=0, time=113),
    Message('note_on', channel=0, note=71, velocity=80, time=7),
    Message('note_on', channel=0, note=71, velocity=0, time=113),
    Message('note_on', channel=0, note=78, velocity=80, time=7),
    Message('note_on', channel=0, note=78, velocity=0, time=113),
    Message('note_on', channel=0, note=66, velocity=80, time=7),
    Message('note_on', channel=0, note=66, velocity=0, time=113),
    Message('note_on', channel=0, note=71, velocity=80, time=7),
    Message('note_on', channel=0, note=71, velocity=0, time=113),
    Message('note_on', channel=0, note=78, velocity=80, time=7),
    Message('note_on', channel=0, note=78, velocity=0, time=113),
    Message('note_on', channel=0, note=66, velocity=80, time=7),
    Message('note_on', channel=0, note=66, velocity=0, time=113),
    Message('note_on', channel=0, note=71, velocity=80, time=7),
    Message('note_on', channel=0, note=71, velocity=0, time=113),
    Message('note_on', channel=0, note=67, velocity=80, time=7),
    Message('note_on', channel=0, note=67, velocity=0, time=113),
    Message('note_on', channel=0, note=71, velocity=80, time=7),
    Message('note_on', channel=0, note=71, velocity=0, time=113),
    Message('note_on', channel=0, note=69, velocity=80, time=7),
    Message('note_on', channel=0, note=69, velocity=0, time=113),
    Message('note_on', channel=0, note=74, velocity=80, time=7),
    Message('note_on', channel=0, note=74, velocity=0, time=113),
    Message('note_on', channel=0, note=81, velocity=80, time=7),
    Message('note_on', channel=0, note=81, velocity=0, time=113),
    Message('note_on', channel=0, note=69, velocity=80, time=7),
    Message('note_on', channel=0, note=69, velocity=0, time=113),
    Message('note_on', channel=0, note=74, velocity=80, time=7),
    Message('note_on', channel=0, note=74, velocity=0, time=113),
    Message('note_on', channel=0, note=81, velocity=80, time=7),
    Message('note_on', channel=0, note=81, velocity=0, time=113),
    Message('note_on', channel=0, note=69, velocity=80, time=7),
    Message('note_on', channel=0, note=69, velocity=0, time=113),
    Message('note_on', channel=0, note=74, velocity=80, time=7),
    Message('note_on', channel=0, note=74, velocity=0, time=113),
    Message('note_on', channel=0, note=81, velocity=80, time=7),
    Message('note_on', channel=0, note=81, velocity=0, time=113),
    Message('note_on', channel=0, note=69, velocity=80, time=7),
    Message('note_on', channel=0, note=69, velocity=0, time=113),
    Message('note_on', channel=0, note=74, velocity=80, time=7),
    Message('note_on', channel=0, note=74, velocity=0, time=113),
    Message('note_on', channel=0, note=81, velocity=80, time=7),
    Message('note_on', channel=0, note=81, velocity=0, time=113),
    Message('note_on', channel=0, note=69, velocity=80, time=7),
    Message('note_on', channel=0, note=69, velocity=0, time=113),
    Message('note_on', channel=0, note=74, velocity=80, time=7),
    Message('note_on', channel=0, note=74, velocity=0, time=113),
    Message('note_on', channel=0, note=79, velocity=80, time=7),
    Message('note_on', channel=0, note=79, velocity=0, time=227),
    Message('note_on', channel=0, note=79, velocity=80, time=253),
    Message('note_on', channel=0, note=79, velocity=0, time=113),
    Message('note_on', channel=0, note=78, velocity=80, time=7),
    Message('note_on', channel=0, note=78, velocity=0, time=113),
    Message('note_on', channel=0, note=79, velocity=80, time=7),
    Message('note_on', channel=0, note=79, velocity=0, time=227),
    Message('note_on', channel=0, note=83, velocity=80, time=13),
    Message('note_on', channel=0, note=83, velocity=0, time=113),
    Message('note_on', channel=0, note=84, velocity=80, time=7),
    Message('note_on', channel=0, note=84, velocity=0, time=113),
    Message('note_on', channel=0, note=83, velocity=80, time=7),
    Message('note_on', channel=0, note=83, velocity=0, time=911),
    Message('note_on', channel=0, note=78, velocity=80, time=289),
    Message('note_on', channel=0, note=78, velocity=0, time=113),
    Message('note_on', channel=0, note=79, velocity=80, time=7),
    Message('note_on', channel=0, note=79, velocity=0, time=113),
    Message('note_on', channel=0, note=78, velocity=80, time=7),
    Message('note_on', channel=0, note=78, velocity=0, time=227),
    Message('note_on', channel=0, note=79, velocity=80, time=13),
    Message('note_on', channel=0, note=79, velocity=0, time=113),
    Message('note_on', channel=0, note=81, velocity=80, time=7),
    Message('note_on', channel=0, note=81, velocity=0, time=113),
    Message('note_on', channel=0, note=79, velocity=80, time=7),
    Message('note_on', channel=0, note=79, velocity=0, time=911),
    Message('note_on', channel=0, note=78, velocity=80, time=289),
    Message('note_on', channel=0, note=78, velocity=0, time=113),
    Message('note_on', channel=0, note=76, velocity=80, time=7),
    Message('note_on', channel=0, note=76, velocity=0, time=113),
    Message('note_on', channel=0, note=78, velocity=80, time=7),
    Message('note_on', channel=0, note=78, velocity=0, time=227),
    Message('note_on', channel=0, note=83, velocity=80, time=13),
    Message('note_on', channel=0, note=83, velocity=0, time=113),
    Message('note_on', channel=0, note=84, velocity=80, time=7),
    Message('note_on', channel=0, note=84, velocity=0, time=113),
    Message('note_on', channel=0, note=83, velocity=80, time=7),
    Message('note_on', channel=0, note=83, velocity=0, time=911),
    Message('note_on', channel=0, note=78, velocity=80, time=289),
    Message('note_on', channel=0, note=78, velocity=0, time=113),
    Message('note_on', channel=0, note=76, velocity=80, time=7),
    Message('note_on', channel=0, note=76, velocity=0, time=113),
    Message('note_on', channel=0, note=78, velocity=80, time=7),
    Message('note_on', channel=0, note=78, velocity=0, time=455),
    Message('note_on', channel=0, note=76, velocity=80, time=1225),
    Message('note_on', channel=0, note=79, velocity=80, time=0),
    Message('note_on', channel=0, note=76, velocity=0, time=113),
    Message('note_on', channel=0, note=79, velocity=0, time=0),
    Message('note_on', channel=0, note=78, velocity=80, time=7),
    Message('note_on', channel=0, note=78, velocity=0, time=113),
    Message('note_on', channel=0, note=79, velocity=80, time=7),
    Message('note_on', channel=0, note=79, velocity=0, time=227),
    Message('note_on', channel=0, note=83, velocity=80, time=13),
    Message('note_on', channel=0, note=83, velocity=0, time=113),
    Message('note_on', channel=0, note=84, velocity=80, time=7),
    Message('note_on', channel=0, note=84, velocity=0, time=113),
    Message('note_on', channel=0, note=76, velocity=80, time=7),
    Message('note_on', channel=0, note=83, velocity=80, time=0),
    Message('note_on', channel=0, note=76, velocity=0, time=911),
    Message('note_on', channel=0, note=83, velocity=0, time=0),
    Message('note_on', channel=0, note=74, velocity=80, time=289),
    Message('note_on', channel=0, note=78, velocity=80, time=0),
    Message('note_on', channel=0, note=74, velocity=0, time=113),
    Message('note_on', channel=0, note=78, velocity=0, time=0),
    Message('note_on', channel=0, note=79, velocity=80, time=7),
    Message('note_on', channel=0, note=79, velocity=0, time=113),
    Message('note_on', channel=0, note=78, velocity=80, time=7),
    Message('note_on', channel=0, note=78, velocity=0, time=227),
    Message('note_on', channel=0, note=79, velocity=80, time=13),
    Message('note_on', channel=0, note=79, velocity=0, time=113),
    Message('note_on', channel=0, note=81, velocity=80, time=7),
    Message('note_on', channel=0, note=81, velocity=0, time=113),
    Message('note_on', channel=0, note=74, velocity=80, time=7),
    Message('note_on', channel=0, note=79, velocity=80, time=0),
    Message('note_on', channel=0, note=74, velocity=0, time=911),
    Message('note_on', channel=0, note=79, velocity=0, time=0),
    Message('note_on', channel=0, note=74, velocity=80, time=289),
    Message('note_on', channel=0, note=78, velocity=80, time=0),
    Message('note_on', channel=0, note=74, velocity=0, time=113),
    Message('note_on', channel=0, note=78, velocity=0, time=0),
    Message('note_on', channel=0, note=76, velocity=80, time=7),
    Message('note_on', channel=0, note=76, velocity=0, time=113),
    Message('note_on', channel=0, note=78, velocity=80, time=7),
    Message('note_on', channel=0, note=78, velocity=0, time=227),
    Message('note_on', channel=0, note=83, velocity=80, time=13),
    Message('note_on', channel=0, note=83, velocity=0, time=113),
    Message('note_on', channel=0, note=84, velocity=80, time=7),
    Message('note_on', channel=0, note=84, velocity=0, time=113),
    Message('note_on', channel=0, note=74, velocity=80, time=7),
    Message('note_on', channel=0, note=83, velocity=80, time=0),
    Message('note_on', channel=0, note=74, velocity=0, time=911),
    Message('note_on', channel=0, note=83, velocity=0, time=0),
    Message('note_on', channel=0, note=74, velocity=80, time=289),
    Message('note_on', channel=0, note=78, velocity=80, time=0),
    Message('note_on', channel=0, note=74, velocity=0, time=113),
    Message('note_on', channel=0, note=78, velocity=0, time=0),
    Message('note_on', channel=0, note=76, velocity=80, time=7),
    Message('note_on', channel=0, note=76, velocity=0, time=113),
    Message('note_on', channel=0, note=74, velocity=80, time=7),
    Message('note_on', channel=0, note=78, velocity=80, time=0),
    Message('note_on', channel=0, note=74, velocity=0, time=911),
    Message('note_on', channel=0, note=78, velocity=0, time=0),
    Message('note_on', channel=0, note=88, velocity=80, time=529),
    Message('note_on', channel=0, note=88, velocity=0, time=683),
    Message('note_on', channel=0, note=83, velocity=80, time=37),
    Message('note_on', channel=0, note=83, velocity=0, time=683),
    Message('note_on', channel=0, note=88, velocity=80, time=277),
    Message('note_on', channel=0, note=88, velocity=0, time=113),
    Message('note_on', channel=0, note=83, velocity=80, time=7),
    Message('note_on', channel=0, note=83, velocity=0, time=113),
    Message('note_on', channel=0, note=86, velocity=80, time=7),
    Message('note_on', channel=0, note=86, velocity=0, time=683),
    Message('note_on', channel=0, note=83, velocity=80, time=37),
    Message('note_on', channel=0, note=83, velocity=0, time=683),
    Message('note_on', channel=0, note=90, velocity=80, time=517),
    Message('note_on', channel=0, note=90, velocity=0, time=683),
    Message('note_on', channel=0, note=83, velocity=80, time=37),
    Message('note_on', channel=0, note=83, velocity=0, time=683),
    Message('note_on', channel=0, note=86, velocity=80, time=277),
    Message('note_on', channel=0, note=86, velocity=0, time=113),
    Message('note_on', channel=0, note=88, velocity=80, time=7),
    Message('note_on', channel=0, note=88, velocity=0, time=113),
    Message('note_on', channel=0, note=90, velocity=80, time=7),
    Message('note_on', channel=0, note=90, velocity=0, time=683),
    Message('note_on', channel=0, note=81, velocity=80, time=37),
    Message('note_on', channel=0, note=81, velocity=0, time=683),
    Message('note_on', channel=0, note=83, velocity=80, time=517),
    Message('note_on', channel=0, note=91, velocity=80, time=0),
    Message('note_on', channel=0, note=83, velocity=0, time=683),
    Message('note_on', channel=0, note=91, velocity=0, time=0),
    Message('note_on', channel=0, note=79, velocity=80, time=37),
    Message('note_on', channel=0, note=88, velocity=80, time=0),
    Message('note_on', channel=0, note=79, velocity=0, time=683),
    Message('note_on', channel=0, note=88, velocity=0, time=0),
    Message('note_on', channel=0, note=83, velocity=80, time=517),
    Message('note_on', channel=0, note=91, velocity=80, time=0),
    Message('note_on', channel=0, note=83, velocity=0, time=683),
    Message('note_on', channel=0, note=91, velocity=0, time=0),
    Message('note_on', channel=0, note=79, velocity=80, time=37),
    Message('note_on', channel=0, note=86, velocity=80, time=0),
    Message('note_on', channel=0, note=79, velocity=0, time=683),
    Message('note_on', channel=0, note=86, velocity=0, time=0),
    Message('note_on', channel=0, note=83, velocity=80, time=517),
    Message('note_on', channel=0, note=90, velocity=80, time=0),
    Message('note_on', channel=0, note=83, velocity=0, time=683),
    Message('note_on', channel=0, note=90, velocity=0, time=0),
    Message('note_on', channel=0, note=78, velocity=80, time=37),
    Message('note_on', channel=0, note=86, velocity=80, time=0),
    Message('note_on', channel=0, note=78, velocity=0, time=683),
    Message('note_on', channel=0, note=86, velocity=0, time=0),
    Message('note_on', channel=0, note=81, velocity=80, time=517),
    Message('note_on', channel=0, note=90, velocity=80, time=0),
    Message('note_on', channel=0, note=81, velocity=0, time=683),
    Message('note_on', channel=0, note=90, velocity=0, time=0),
    Message('note_on', channel=0, note=78, velocity=80, time=37),
    Message('note_on', channel=0, note=86, velocity=80, time=0),
    Message('note_on', channel=0, note=78, velocity=0, time=683),
    Message('note_on', channel=0, note=86, velocity=0, time=0),
    Message('note_on', channel=0, note=83, velocity=80, time=517),
    Message('note_on', channel=0, note=83, velocity=0, time=113),
    Message('note_on', channel=0, note=88, velocity=80, time=7),
    Message('note_on', channel=0, note=88, velocity=0, time=113),
    Message('note_on', channel=0, note=95, velocity=80, time=7),
    Message('note_on', channel=0, note=95, velocity=0, time=113),
    Message('note_on', channel=0, note=83, velocity=80, time=7),
    Message('note_on', channel=0, note=83, velocity=0, time=113),
    Message('note_on', channel=0, note=88, velocity=80, time=7),
    Message('note_on', channel=0, note=88, velocity=0, time=113),
    Message('note_on', channel=0, note=95, velocity=80, time=7),
    Message('note_on', channel=0, note=95, velocity=0, time=113),
    Message('note_on', channel=0, note=83, velocity=80, time=7),
    Message('note_on', channel=0, note=83, velocity=0, time=113),
    Message('note_on', channel=0, note=88, velocity=80, time=7),
    Message('note_on', channel=0, note=88, velocity=0, time=113),
    Message('note_on', channel=0, note=95, velocity=80, time=7),
    Message('note_on', channel=0, note=95, velocity=0, time=113),
    Message('note_on', channel=0, note=83, velocity=80, time=7),
    Message('note_on', channel=0, note=83, velocity=0, time=113),
    Message('note_on', channel=0, note=88, velocity=80, time=7),
    Message('note_on', channel=0, note=88, velocity=0, time=113),
    Message('note_on', channel=0, note=95, velocity=80, time=7),
    Message('note_on', channel=0, note=95, velocity=0, time=113),
    Message('note_on', channel=0, note=83, velocity=80, time=7),
    Message('note_on', channel=0, note=83, velocity=0, time=113),
    Message('note_on', channel=0, note=88, velocity=80, time=7),
    Message('note_on', channel=0, note=88, velocity=0, time=113),
    Message('note_on', channel=0, note=84, velocity=80, time=7),
    Message('note_on', channel=0, note=84, velocity=0, time=113),
    Message('note_on', channel=0, note=88, velocity=80, time=7),
    Message('note_on', channel=0, note=88, velocity=0, time=113),
    Message('note_on', channel=0, note=83, velocity=80, time=7),
    Message('note_on', channel=0, note=83, velocity=0, time=113),
    Message('note_on', channel=0, note=86, velocity=80, time=7),
    Message('note_on', channel=0, note=86, velocity=0, time=113),
    Message('note_on', channel=0, note=95, velocity=80, time=7),
    Message('note_on', channel=0, note=95, velocity=0, time=113),
    Message('note_on', channel=0, note=83, velocity=80, time=7),
    Message('note_on', channel=0, note=83, velocity=0, time=113),
    Message('note_on', channel=0, note=86, velocity=80, time=7),
    Message('note_on', channel=0, note=86, velocity=0, time=113),
    Message('note_on', channel=0, note=95, velocity=80, time=7),
    Message('note_on', channel=0, note=95, velocity=0, time=113),
    Message('note_on', channel=0, note=83, velocity=80, time=7),
    Message('note_on', channel=0, note=83, velocity=0, time=113),
    Message('note_on', channel=0, note=86, velocity=80, time=7),
    Message('note_on', channel=0, note=86, velocity=0, time=113),
    Message('note_on', channel=0, note=95, velocity=80, time=7),
    Message('note_on', channel=0, note=95, velocity=0, time=113),
    Message('note_on', channel=0, note=83, velocity=80, time=7),
    Message('note_on', channel=0, note=83, velocity=0, time=113),
    Message('note_on', channel=0, note=86, velocity=80, time=7),
    Message('note_on', channel=0, note=86, velocity=0, time=113),
    Message('note_on', channel=0, note=95, velocity=80, time=7),
    Message('note_on', channel=0, note=95, velocity=0, time=113),
    Message('note_on', channel=0, note=83, velocity=80, time=7),
    Message('note_on', channel=0, note=83, velocity=0, time=113),
    Message('note_on', channel=0, note=86, velocity=80, time=7),
    Message('note_on', channel=0, note=86, velocity=0, time=113),
    Message('note_on', channel=0, note=81, velocity=80, time=7),
    Message('note_on', channel=0, note=81, velocity=0, time=113),
    Message('note_on', channel=0, note=86, velocity=80, time=7),
    Message('note_on', channel=0, note=86, velocity=0, time=113),
    Message('note_on', channel=0, note=78, velocity=80, time=7),
    Message('note_on', channel=0, note=78, velocity=0, time=113),
    Message('note_on', channel=0, note=83, velocity=80, time=7),
    Message('note_on', channel=0, note=83, velocity=0, time=113),
    Message('note_on', channel=0, note=90, velocity=80, time=7),
    Message('note_on', channel=0, note=90, velocity=0, time=113),
    Message('note_on', channel=0, note=78, velocity=80, time=7),
    Message('note_on', channel=0, note=78, velocity=0, time=113),
    Message('note_on', channel=0, note=83, velocity=80, time=7),
    Message('note_on', channel=0, note=83, velocity=0, time=113),
    Message('note_on', channel=0, note=90, velocity=80, time=7),
    Message('note_on', channel=0, note=90, velocity=0, time=113),
    Message('note_on', channel=0, note=78, velocity=80, time=7),
    Message('note_on', channel=0, note=78, velocity=0, time=113),
    Message('note_on', channel=0, note=83, velocity=80, time=7),
    Message('note_on', channel=0, note=83, velocity=0, time=113),
    Message('note_on', channel=0, note=90, velocity=80, time=7),
    Message('note_on', channel=0, note=90, velocity=0, time=113),
    Message('note_on', channel=0, note=78, velocity=80, time=7),
    Message('note_on', channel=0, note=78, velocity=0, time=113),
    Message('note_on', channel=0, note=83, velocity=80, time=7),
    Message('note_on', channel=0, note=83, velocity=0, time=113),
    Message('note_on', channel=0, note=90, velocity=80, time=7),
    Message('note_on', channel=0, note=90, velocity=0, time=113),
    Message('note_on', channel=0, note=78, velocity=80, time=7),
    Message('note_on', channel=0, note=78, velocity=0, time=113),
    Message('note_on', channel=0, note=83, velocity=80, time=7),
    Message('note_on', channel=0, note=83, velocity=0, time=113),
    Message('note_on', channel=0, note=79, velocity=80, time=7),
    Message('note_on', channel=0, note=79, velocity=0, time=113),
    Message('note_on', channel=0, note=83, velocity=80, time=7),
    Message('note_on', channel=0, note=83, velocity=0, time=113),
    Message('note_on', channel=0, note=81, velocity=80, time=7),
    Message('note_on', channel=0, note=81, velocity=0, time=113),
    Message('note_on', channel=0, note=86, velocity=80, time=7),
    Message('note_on', channel=0, note=86, velocity=0, time=113),
    Message('note_on', channel=0, note=93, velocity=80, time=7),
    Message('note_on', channel=0, note=93, velocity=0, time=113),
    Message('note_on', channel=0, note=81, velocity=80, time=7),
    Message('note_on', channel=0, note=81, velocity=0, time=113),
    Message('note_on', channel=0, note=86, velocity=80, time=7),
    Message('note_on', channel=0, note=86, velocity=0, time=113),
    Message('note_on', channel=0, note=93, velocity=80, time=7),
    Message('note_on', channel=0, note=93, velocity=0, time=113),
    Message('note_on', channel=0, note=81, velocity=80, time=7),
    Message('note_on', channel=0, note=81, velocity=0, time=113),
    Message('note_on', channel=0, note=86, velocity=80, time=7),
    Message('note_on', channel=0, note=86, velocity=0, time=113),
    Message('note_on', channel=0, note=93, velocity=80, time=7),
    Message('note_on', channel=0, note=93, velocity=0, time=113),
    Message('note_on', channel=0, note=81, velocity=80, time=7),
    Message('note_on', channel=0, note=81, velocity=0, time=113),
    Message('note_on', channel=0, note=86, velocity=80, time=7),
    Message('note_on', channel=0, note=86, velocity=0, time=113),
    Message('note_on', channel=0, note=93, velocity=80, time=7),
    Message('note_on', channel=0, note=93, velocity=0, time=113),
    Message('note_on', channel=0, note=81, velocity=80, time=7),
    Message('note_on', channel=0, note=81, velocity=0, time=113),
    Message('note_on', channel=0, note=86, velocity=80, time=7),
    Message('note_on', channel=0, note=86, velocity=0, time=113),
    Message('note_on', channel=0, note=79, velocity=80, time=7),
    Message('note_on', channel=0, note=79, velocity=0, time=113),
    Message('note_on', channel=0, note=86, velocity=80, time=7),
    Message('note_on', channel=0, note=86, velocity=0, time=113),
    Message('note_on', channel=0, note=83, velocity=80, time=7),
    Message('note_on', channel=0, note=83, velocity=0, time=113),
    Message('note_on', channel=0, note=88, velocity=80, time=7),
    Message('note_on', channel=0, note=88, velocity=0, time=113),
    Message('note_on', channel=0, note=95, velocity=80, time=7),
    Message('note_on', channel=0, note=95, velocity=0, time=113),
    Message('note_on', channel=0, note=83, velocity=80, time=7),
    Message('note_on', channel=0, note=83, velocity=0, time=113),
    Message('note_on', channel=0, note=88, velocity=80, time=7),
    Message('note_on', channel=0, note=88, velocity=0, time=113),
    Message('note_on', channel=0, note=95, velocity=80, time=7),
    Message('note_on', channel=0, note=95, velocity=0, time=113),
    Message('note_on', channel=0, note=83, velocity=80, time=7),
    Message('note_on', channel=0, note=83, velocity=0, time=113),
    Message('note_on', channel=0, note=88, velocity=80, time=7),
    Message('note_on', channel=0, note=88, velocity=0, time=113),
    Message('note_on', channel=0, note=95, velocity=80, time=7),
    Message('note_on', channel=0, note=95, velocity=0, time=113),
    Message('note_on', channel=0, note=83, velocity=80, time=7),
    Message('note_on', channel=0, note=83, velocity=0, time=113),
    Message('note_on', channel=0, note=88, velocity=80, time=7),
    Message('note_on', channel=0, note=88, velocity=0, time=113),
    Message('note_on', channel=0, note=95, velocity=80, time=7),
    Message('note_on', channel=0, note=95, velocity=0, time=113),
    Message('note_on', channel=0, note=83, velocity=80, time=7),
    Message('note_on', channel=0, note=83, velocity=0, time=113),
    Message('note_on', channel=0, note=88, velocity=80, time=7),
    Message('note_on', channel=0, note=88, velocity=0, time=113),
    Message('note_on', channel=0, note=84, velocity=80, time=7),
    Message('note_on', channel=0, note=84, velocity=0, time=113),
    Message('note_on', channel=0, note=88, velocity=80, time=7),
    Message('note_on', channel=0, note=88, velocity=0, time=113),
    Message('note_on', channel=0, note=83, velocity=80, time=7),
    Message('note_on', channel=0, note=83, velocity=0, time=113),
    Message('note_on', channel=0, note=86, velocity=80, time=7),
    Message('note_on', channel=0, note=86, velocity=0, time=113),
    Message('note_on', channel=0, note=95, velocity=80, time=7),
    Message('note_on', channel=0, note=95, velocity=0, time=113),
    Message('note_on', channel=0, note=83, velocity=80, time=7),
    Message('note_on', channel=0, note=83, velocity=0, time=113),
    Message('note_on', channel=0, note=86, velocity=80, time=7),
    Message('note_on', channel=0, note=86, velocity=0, time=113),
    Message('note_on', channel=0, note=95, velocity=80, time=7),
    Message('note_on', channel=0, note=95, velocity=0, time=113),
    Message('note_on', channel=0, note=83, velocity=80, time=7),
    Message('note_on', channel=0, note=83, velocity=0, time=113),
    Message('note_on', channel=0, note=86, velocity=80, time=7),
    Message('note_on', channel=0, note=86, velocity=0, time=113),
    Message('note_on', channel=0, note=95, velocity=80, time=7),
    Message('note_on', channel=0, note=95, velocity=0, time=113),
    Message('note_on', channel=0, note=83, velocity=80, time=7),
    Message('note_on', channel=0, note=83, velocity=0, time=113),
    Message('note_on', channel=0, note=86, velocity=80, time=7),
    Message('note_on', channel=0, note=86, velocity=0, time=113),
    Message('note_on', channel=0, note=95, velocity=80, time=7),
    Message('note_on', channel=0, note=95, velocity=0, time=113),
    Message('note_on', channel=0, note=83, velocity=80, time=7),
    Message('note_on', channel=0, note=83, velocity=0, time=113),
    Message('note_on', channel=0, note=86, velocity=80, time=7),
    Message('note_on', channel=0, note=86, velocity=0, time=113),
    Message('note_on', channel=0, note=81, velocity=80, time=7),
    Message('note_on', channel=0, note=81, velocity=0, time=113),
    Message('note_on', channel=0, note=86, velocity=80, time=7),
    Message('note_on', channel=0, note=86, velocity=0, time=113),
    Message('note_on', channel=0, note=78, velocity=80, time=7),
    Message('note_on', channel=0, note=78, velocity=0, time=113),
    Message('note_on', channel=0, note=83, velocity=80, time=7),
    Message('note_on', channel=0, note=83, velocity=0, time=113),
    Message('note_on', channel=0, note=90, velocity=80, time=7),
    Message('note_on', channel=0, note=90, velocity=0, time=113),
    Message('note_on', channel=0, note=78, velocity=80, time=7),
    Message('note_on', channel=0, note=78, velocity=0, time=113),
    Message('note_on', channel=0, note=83, velocity=80, time=7),
    Message('note_on', channel=0, note=83, velocity=0, time=113),
    Message('note_on', channel=0, note=90, velocity=80, time=7),
    Message('note_on', channel=0, note=90, velocity=0, time=113),
    Message('note_on', channel=0, note=78, velocity=80, time=7),
    Message('note_on', channel=0, note=78, velocity=0, time=113),
    Message('note_on', channel=0, note=83, velocity=80, time=7),
    Message('note_on', channel=0, note=83, velocity=0, time=113),
    Message('note_on', channel=0, note=90, velocity=80, time=7),
    Message('note_on', channel=0, note=90, velocity=0, time=113),
    Message('note_on', channel=0, note=78, velocity=80, time=7),
    Message('note_on', channel=0, note=78, velocity=0, time=113),
    Message('note_on', channel=0, note=83, velocity=80, time=7),
    Message('note_on', channel=0, note=83, velocity=0, time=113),
    Message('note_on', channel=0, note=90, velocity=80, time=7),
    Message('note_on', channel=0, note=90, velocity=0, time=113),
    Message('note_on', channel=0, note=78, velocity=80, time=7),
    Message('note_on', channel=0, note=78, velocity=0, time=113),
    Message('note_on', channel=0, note=83, velocity=80, time=7),
    Message('note_on', channel=0, note=83, velocity=0, time=113),
    Message('note_on', channel=0, note=79, velocity=80, time=7),
    Message('note_on', channel=0, note=79, velocity=0, time=113),
    Message('note_on', channel=0, note=83, velocity=80, time=7),
    Message('note_on', channel=0, note=83, velocity=0, time=113),
    Message('note_on', channel=0, note=81, velocity=80, time=7),
    Message('note_on', channel=0, note=81, velocity=0, time=113),
    Message('note_on', channel=0, note=86, velocity=80, time=7),
    Message('note_on', channel=0, note=86, velocity=0, time=113),
    Message('note_on', channel=0, note=93, velocity=80, time=7),
    Message('note_on', channel=0, note=93, velocity=0, time=113),
    Message('note_on', channel=0, note=81, velocity=80, time=7),
    Message('note_on', channel=0, note=81, velocity=0, time=113),
    Message('note_on', channel=0, note=86, velocity=80, time=7),
    Message('note_on', channel=0, note=86, velocity=0, time=113),
    Message('note_on', channel=0, note=93, velocity=80, time=7),
    Message('note_on', channel=0, note=93, velocity=0, time=113),
    Message('note_on', channel=0, note=81, velocity=80, time=7),
    Message('note_on', channel=0, note=81, velocity=0, time=113),
    Message('note_on', channel=0, note=86, velocity=80, time=7),
    Message('note_on', channel=0, note=86, velocity=0, time=113),
    Message('note_on', channel=0, note=93, velocity=80, time=7),
    Message('note_on', channel=0, note=93, velocity=0, time=113),
    Message('note_on', channel=0, note=81, velocity=80, time=7),
    Message('note_on', channel=0, note=81, velocity=0, time=113),
    Message('note_on', channel=0, note=86, velocity=80, time=7),
    Message('note_on', channel=0, note=86, velocity=0, time=113),
    Message('note_on', channel=0, note=93, velocity=80, time=7),
    Message('note_on', channel=0, note=93, velocity=0, time=113),
    Message('note_on', channel=0, note=81, velocity=80, time=7),
    Message('note_on', channel=0, note=81, velocity=0, time=113),
    Message('note_on', channel=0, note=86, velocity=80, time=7),
    Message('note_on', channel=0, note=86, velocity=0, time=113),
    Message('note_on', channel=0, note=93, velocity=80, time=7),
    Message('note_on', channel=0, note=93, velocity=0, time=113),
    Message('note_on', channel=0, note=86, velocity=80, time=7),
    Message('note_on', channel=0, note=86, velocity=0, time=113),
    Message('note_on', channel=0, note=91, velocity=80, time=7),
    Message('note_on', channel=0, note=91, velocity=0, time=113),
    Message('note_on', channel=0, note=79, velocity=80, time=7),
    Message('note_on', channel=0, note=79, velocity=0, time=113),
    Message('note_on', channel=0, note=83, velocity=80, time=7),
    Message('note_on', channel=0, note=83, velocity=0, time=113),
    Message('note_on', channel=0, note=88, velocity=80, time=7),
    Message('note_on', channel=0, note=88, velocity=0, time=113),
    Message('note_on', channel=0, note=79, velocity=80, time=7),
    Message('note_on', channel=0, note=79, velocity=0, time=113),
    Message('note_on', channel=0, note=83, velocity=80, time=7),
    Message('note_on', channel=0, note=83, velocity=0, time=113),
    Message('note_on', channel=0, note=91, velocity=80, time=7),
    Message('note_on', channel=0, note=91, velocity=0, time=113),
    Message('note_on', channel=0, note=79, velocity=80, time=7),
    Message('note_on', channel=0, note=79, velocity=0, time=113),
    Message('note_on', channel=0, note=83, velocity=80, time=7),
    Message('note_on', channel=0, note=83, velocity=0, time=113),
    Message('note_on', channel=0, note=88, velocity=80, time=7),
    Message('note_on', channel=0, note=88, velocity=0, time=113),
    Message('note_on', channel=0, note=79, velocity=80, time=7),
    Message('note_on', channel=0, note=79, velocity=0, time=113),
    Message('note_on', channel=0, note=83, velocity=80, time=7),
    Message('note_on', channel=0, note=83, velocity=0, time=113),
    Message('note_on', channel=0, note=91, velocity=80, time=7),
    Message('note_on', channel=0, note=91, velocity=0, time=113),
    Message('note_on', channel=0, note=79, velocity=80, time=7),
    Message('note_on', channel=0, note=79, velocity=0, time=113),
    Message('note_on', channel=0, note=93, velocity=80, time=7),
    Message('note_on', channel=0, note=93, velocity=0, time=113),
    Message('note_on', channel=0, note=79, velocity=80, time=7),
    Message('note_on', channel=0, note=79, velocity=0, time=113),
    Message('note_on', channel=0, note=91, velocity=80, time=7),
    Message('note_on', channel=0, note=91, velocity=0, time=113),
    Message('note_on', channel=0, note=79, velocity=80, time=7),
    Message('note_on', channel=0, note=79, velocity=0, time=113),
    Message('note_on', channel=0, note=83, velocity=80, time=7),
    Message('note_on', channel=0, note=83, velocity=0, time=113),
    Message('note_on', channel=0, note=86, velocity=80, time=7),
    Message('note_on', channel=0, note=86, velocity=0, time=113),
    Message('note_on', channel=0, note=79, velocity=80, time=7),
    Message('note_on', channel=0, note=79, velocity=0, time=113),
    Message('note_on', channel=0, note=83, velocity=80, time=7),
    Message('note_on', channel=0, note=83, velocity=0, time=113),
    Message('note_on', channel=0, note=91, velocity=80, time=7),
    Message('note_on', channel=0, note=91, velocity=0, time=113),
    Message('note_on', channel=0, note=79, velocity=80, time=7),
    Message('note_on', channel=0, note=79, velocity=0, time=113),
    Message('note_on', channel=0, note=83, velocity=80, time=7),
    Message('note_on', channel=0, note=83, velocity=0, time=113),
    Message('note_on', channel=0, note=86, velocity=80, time=7),
    Message('note_on', channel=0, note=86, velocity=0, time=113),
    Message('note_on', channel=0, note=79, velocity=80, time=7),
    Message('note_on', channel=0, note=79, velocity=0, time=113),
    Message('note_on', channel=0, note=83, velocity=80, time=7),
    Message('note_on', channel=0, note=83, velocity=0, time=113),
    Message('note_on', channel=0, note=91, velocity=80, time=7),
    Message('note_on', channel=0, note=91, velocity=0, time=113),
    Message('note_on', channel=0, note=79, velocity=80, time=7),
    Message('note_on', channel=0, note=79, velocity=0, time=113),
    Message('note_on', channel=0, note=86, velocity=80, time=7),
    Message('note_on', channel=0, note=86, velocity=0, time=113),
    Message('note_on', channel=0, note=88, velocity=80, time=7),
    Message('note_on', channel=0, note=88, velocity=0, time=113),
    Message('note_on', channel=0, note=90, velocity=80, time=7),
    Message('note_on', channel=0, note=90, velocity=0, time=113),
    Message('note_on', channel=0, note=78, velocity=80, time=7),
    Message('note_on', channel=0, note=78, velocity=0, time=113),
    Message('note_on', channel=0, note=83, velocity=80, time=7),
    Message('note_on', channel=0, note=83, velocity=0, time=113),
    Message('note_on', channel=0, note=86, velocity=80, time=7),
    Message('note_on', channel=0, note=86, velocity=0, time=113),
    Message('note_on', channel=0, note=78, velocity=80, time=7),
    Message('note_on', channel=0, note=78, velocity=0, time=113),
    Message('note_on', channel=0, note=83, velocity=80, time=7),
    Message('note_on', channel=0, note=83, velocity=0, time=113),
    Message('note_on', channel=0, note=90, velocity=80, time=7),
    Message('note_on', channel=0, note=90, velocity=0, time=113),
    Message('note_on', channel=0, note=78, velocity=80, time=7),
    Message('note_on', channel=0, note=78, velocity=0, time=113),
    Message('note_on', channel=0, note=83, velocity=80, time=7),
    Message('note_on', channel=0, note=83, velocity=0, time=113),
    Message('note_on', channel=0, note=86, velocity=80, time=7),
    Message('note_on', channel=0, note=86, velocity=0, time=113),
    Message('note_on', channel=0, note=78, velocity=80, time=7),
    Message('note_on', channel=0, note=78, velocity=0, time=113),
    Message('note_on', channel=0, note=83, velocity=80, time=7),
    Message('note_on', channel=0, note=83, velocity=0, time=113),
    Message('note_on', channel=0, note=90, velocity=80, time=7),
    Message('note_on', channel=0, note=90, velocity=0, time=113),
    Message('note_on', channel=0, note=78, velocity=80, time=7),
    Message('note_on', channel=0, note=78, velocity=0, time=113),
    Message('note_on', channel=0, note=88, velocity=80, time=7),
    Message('note_on', channel=0, note=88, velocity=0, time=113),
    Message('note_on', channel=0, note=78, velocity=80, time=7),
    Message('note_on', channel=0, note=78, velocity=0, time=113),
    Message('note_on', channel=0, note=90, velocity=80, time=7),
    Message('note_on', channel=0, note=90, velocity=0, time=113),
    Message('note_on', channel=0, note=78, velocity=80, time=7),
    Message('note_on', channel=0, note=78, velocity=0, time=113),
    Message('note_on', channel=0, note=81, velocity=80, time=7),
    Message('note_on', channel=0, note=81, velocity=0, time=113),
    Message('note_on', channel=0, note=86, velocity=80, time=7),
    Message('note_on', channel=0, note=86, velocity=0, time=113),
    Message('note_on', channel=0, note=78, velocity=80, time=7),
    Message('note_on', channel=0, note=78, velocity=0, time=113),
    Message('note_on', channel=0, note=81, velocity=80, time=7),
    Message('note_on', channel=0, note=81, velocity=0, time=113),
    Message('note_on', channel=0, note=90, velocity=80, time=7),
    Message('note_on', channel=0, note=90, velocity=0, time=113),
    Message('note_on', channel=0, note=78, velocity=80, time=7),
    Message('note_on', channel=0, note=78, velocity=0, time=113),
    Message('note_on', channel=0, note=81, velocity=80, time=7),
    Message('note_on', channel=0, note=81, velocity=0, time=113),
    Message('note_on', channel=0, note=86, velocity=80, time=7),
    Message('note_on', channel=0, note=86, velocity=0, time=113),
    Message('note_on', channel=0, note=78, velocity=80, time=7),
    Message('note_on', channel=0, note=78, velocity=0, time=113),
    Message('note_on', channel=0, note=81, velocity=80, time=7),
    Message('note_on', channel=0, note=81, velocity=0, time=113),
    Message('note_on', channel=0, note=90, velocity=80, time=7),
    Message('note_on', channel=0, note=90, velocity=0, time=113),
    Message('note_on', channel=0, note=78, velocity=80, time=7),
    Message('note_on', channel=0, note=78, velocity=0, time=113),
    Message('note_on', channel=0, note=88, velocity=80, time=7),
    Message('note_on', channel=0, note=88, velocity=0, time=113),
    Message('note_on', channel=0, note=78, velocity=80, time=7),
    Message('note_on', channel=0, note=78, velocity=0, time=113),
    Message('note_on', channel=0, note=91, velocity=80, time=7),
    Message('note_on', channel=0, note=91, velocity=0, time=113),
    Message('note_on', channel=0, note=79, velocity=80, time=7),
    Message('note_on', channel=0, note=79, velocity=0, time=113),
    Message('note_on', channel=0, note=83, velocity=80, time=7),
    Message('note_on', channel=0, note=83, velocity=0, time=113),
    Message('note_on', channel=0, note=88, velocity=80, time=7),
    Message('note_on', channel=0, note=88, velocity=0, time=113),
    Message('note_on', channel=0, note=79, velocity=80, time=7),
    Message('note_on', channel=0, note=79, velocity=0, time=113),
    Message('note_on', channel=0, note=83, velocity=80, time=7),
    Message('note_on', channel=0, note=83, velocity=0, time=113),
    Message('note_on', channel=0, note=91, velocity=80, time=7),
    Message('note_on', channel=0, note=91, velocity=0, time=113),
    Message('note_on', channel=0, note=79, velocity=80, time=7),
    Message('note_on', channel=0, note=79, velocity=0, time=113),
    Message('note_on', channel=0, note=83, velocity=80, time=7),
    Message('note_on', channel=0, note=83, velocity=0, time=113),
    Message('note_on', channel=0, note=88, velocity=80, time=7),
    Message('note_on', channel=0, note=88, velocity=0, time=113),
    Message('note_on', channel=0, note=79, velocity=80, time=7),
    Message('note_on', channel=0, note=79, velocity=0, time=113),
    Message('note_on', channel=0, note=83, velocity=80, time=7),
    Message('note_on', channel=0, note=83, velocity=0, time=113),
    Message('note_on', channel=0, note=91, velocity=80, time=7),
    Message('note_on', channel=0, note=91, velocity=0, time=113),
    Message('note_on', channel=0, note=79, velocity=80, time=7),
    Message('note_on', channel=0, note=79, velocity=0, time=113),
    Message('note_on', channel=0, note=93, velocity=80, time=7),
    Message('note_on', channel=0, note=93, velocity=0, time=113),
    Message('note_on', channel=0, note=79, velocity=80, time=7),
    Message('note_on', channel=0, note=79, velocity=0, time=113),
    Message('note_on', channel=0, note=91, velocity=80, time=7),
    Message('note_on', channel=0, note=91, velocity=0, time=113),
    Message('note_on', channel=0, note=79, velocity=80, time=7),
    Message('note_on', channel=0, note=79, velocity=0, time=113),
    Message('note_on', channel=0, note=83, velocity=80, time=7),
    Message('note_on', channel=0, note=83, velocity=0, time=113),
    Message('note_on', channel=0, note=86, velocity=80, time=7),
    Message('note_on', channel=0, note=86, velocity=0, time=113),
    Message('note_on', channel=0, note=79, velocity=80, time=7),
    Message('note_on', channel=0, note=79, velocity=0, time=113),
    Message('note_on', channel=0, note=83, velocity=80, time=7),
    Message('note_on', channel=0, note=83, velocity=0, time=113),
    Message('note_on', channel=0, note=91, velocity=80, time=7),
    Message('note_on', channel=0, note=91, velocity=0, time=113),
    Message('note_on', channel=0, note=79, velocity=80, time=7),
    Message('note_on', channel=0, note=79, velocity=0, time=113),
    Message('note_on', channel=0, note=83, velocity=80, time=7),
    Message('note_on', channel=0, note=83, velocity=0, time=113),
    Message('note_on', channel=0, note=86, velocity=80, time=7),
    Message('note_on', channel=0, note=86, velocity=0, time=113),
    Message('note_on', channel=0, note=79, velocity=80, time=7),
    Message('note_on', channel=0, note=79, velocity=0, time=113),
    Message('note_on', channel=0, note=83, velocity=80, time=7),
    Message('note_on', channel=0, note=83, velocity=0, time=113),
    Message('note_on', channel=0, note=91, velocity=80, time=7),
    Message('note_on', channel=0, note=91, velocity=0, time=113),
    Message('note_on', channel=0, note=79, velocity=80, time=7),
    Message('note_on', channel=0, note=79, velocity=0, time=113),
    Message('note_on', channel=0, note=86, velocity=80, time=7),
    Message('note_on', channel=0, note=86, velocity=0, time=113),
    Message('note_on', channel=0, note=88, velocity=80, time=7),
    Message('note_on', channel=0, note=88, velocity=0, time=113),
    Message('note_on', channel=0, note=90, velocity=80, time=7),
    Message('note_on', channel=0, note=90, velocity=0, time=113),
    Message('note_on', channel=0, note=78, velocity=80, time=7),
    Message('note_on', channel=0, note=78, velocity=0, time=113),
    Message('note_on', channel=0, note=83, velocity=80, time=7),
    Message('note_on', channel=0, note=83, velocity=0, time=113),
    Message('note_on', channel=0, note=86, velocity=80, time=7),
    Message('note_on', channel=0, note=86, velocity=0, time=113),
    Message('note_on', channel=0, note=78, velocity=80, time=7),
    Message('note_on', channel=0, note=78, velocity=0, time=113),
    Message('note_on', channel=0, note=83, velocity=80, time=7),
    Message('note_on', channel=0, note=83, velocity=0, time=113),
    Message('note_on', channel=0, note=90, velocity=80, time=7),
    Message('note_on', channel=0, note=90, velocity=0, time=113),
    Message('note_on', channel=0, note=78, velocity=80, time=7),
    Message('note_on', channel=0, note=78, velocity=0, time=113),
    Message('note_on', channel=0, note=83, velocity=80, time=7),
    Message('note_on', channel=0, note=83, velocity=0, time=113),
    Message('note_on', channel=0, note=86, velocity=80, time=7),
    Message('note_on', channel=0, note=86, velocity=0, time=113),
    Message('note_on', channel=0, note=78, velocity=80, time=7),
    Message('note_on', channel=0, note=78, velocity=0, time=113),
    Message('note_on', channel=0, note=83, velocity=80, time=7),
    Message('note_on', channel=0, note=83, velocity=0, time=113),
    Message('note_on', channel=0, note=90, velocity=80, time=7),
    Message('note_on', channel=0, note=90, velocity=0, time=113),
    Message('note_on', channel=0, note=78, velocity=80, time=7),
    Message('note_on', channel=0, note=78, velocity=0, time=113),
    Message('note_on', channel=0, note=88, velocity=80, time=7),
    Message('note_on', channel=0, note=88, velocity=0, time=113),
    Message('note_on', channel=0, note=78, velocity=80, time=7),
    Message('note_on', channel=0, note=78, velocity=0, time=113),
    Message('note_on', channel=0, note=90, velocity=80, time=7),
    Message('note_on', channel=0, note=90, velocity=0, time=113),
    Message('note_on', channel=0, note=78, velocity=80, time=7),
    Message('note_on', channel=0, note=78, velocity=0, time=113),
    Message('note_on', channel=0, note=81, velocity=80, time=7),
    Message('note_on', channel=0, note=81, velocity=0, time=113),
    Message('note_on', channel=0, note=86, velocity=80, time=7),
    Message('note_on', channel=0, note=86, velocity=0, time=113),
    Message('note_on', channel=0, note=78, velocity=80, time=7),
    Message('note_on', channel=0, note=78, velocity=0, time=113),
    Message('note_on', channel=0, note=81, velocity=80, time=7),
    Message('note_on', channel=0, note=81, velocity=0, time=113),
    Message('note_on', channel=0, note=90, velocity=80, time=7),
    Message('note_on', channel=0, note=90, velocity=0, time=113),
    Message('note_on', channel=0, note=78, velocity=80, time=7),
    Message('note_on', channel=0, note=78, velocity=0, time=113),
    Message('note_on', channel=0, note=81, velocity=80, time=7),
    Message('note_on', channel=0, note=81, velocity=0, time=113),
    Message('note_on', channel=0, note=86, velocity=80, time=7),
    Message('note_on', channel=0, note=86, velocity=0, time=113),
    Message('note_on', channel=0, note=78, velocity=80, time=7),
    Message('note_on', channel=0, note=78, velocity=0, time=113),
    Message('note_on', channel=0, note=81, velocity=80, time=7),
    Message('note_on', channel=0, note=81, velocity=0, time=113),
    Message('note_on', channel=0, note=90, velocity=80, time=7),
    Message('note_on', channel=0, note=90, velocity=0, time=113),
    Message('note_on', channel=0, note=78, velocity=80, time=7),
    Message('note_on', channel=0, note=78, velocity=0, time=113),
    Message('note_on', channel=0, note=88, velocity=80, time=7),
    Message('note_on', channel=0, note=88, velocity=0, time=113),
    Message('note_on', channel=0, note=78, velocity=80, time=7),
    Message('note_on', channel=0, note=78, velocity=0, time=113),
    Message('note_on', channel=0, note=88, velocity=80, time=7),
    Message('note_on', channel=0, note=88, velocity=0, time=113),
    Message('note_on', channel=0, note=76, velocity=80, time=7),
    Message('note_on', channel=0, note=76, velocity=0, time=113),
    Message('note_on', channel=0, note=79, velocity=80, time=7),
    Message('note_on', channel=0, note=79, velocity=0, time=113),
    Message('note_on', channel=0, note=83, velocity=80, time=7),
    Message('note_on', channel=0, note=83, velocity=0, time=113),
    Message('note_on', channel=0, note=76, velocity=80, time=7),
    Message('note_on', channel=0, note=76, velocity=0, time=113),
    Message('note_on', channel=0, note=79, velocity=80, time=7),
    Message('note_on', channel=0, note=79, velocity=0, time=113),
    Message('note_on', channel=0, note=88, velocity=80, time=7),
    Message('note_on', channel=0, note=88, velocity=0, time=113),
    Message('note_on', channel=0, note=76, velocity=80, time=7),
    Message('note_on', channel=0, note=76, velocity=0, time=113),
    Message('note_on', channel=0, note=79, velocity=80, time=7),
    Message('note_on', channel=0, note=79, velocity=0, time=113),
    Message('note_on', channel=0, note=83, velocity=80, time=7),
    Message('note_on', channel=0, note=83, velocity=0, time=113),
    Message('note_on', channel=0, note=76, velocity=80, time=7),
    Message('note_on', channel=0, note=76, velocity=0, time=113),
    Message('note_on', channel=0, note=79, velocity=80, time=7),
    Message('note_on', channel=0, note=79, velocity=0, time=113),
    Message('note_on', channel=0, note=88, velocity=80, time=7),
    Message('note_on', channel=0, note=88, velocity=0, time=113),
    Message('note_on', channel=0, note=76, velocity=80, time=7),
    Message('note_on', channel=0, note=76, velocity=0, time=113),
    Message('note_on', channel=0, note=83, velocity=80, time=7),
    Message('note_on', channel=0, note=83, velocity=0, time=113),
    Message('note_on', channel=0, note=76, velocity=80, time=7),
    Message('note_on', channel=0, note=76, velocity=0, time=113),
    Message('note_on', channel=0, note=86, velocity=80, time=7),
    Message('note_on', channel=0, note=86, velocity=0, time=113),
    Message('note_on', channel=0, note=74, velocity=80, time=7),
    Message('note_on', channel=0, note=74, velocity=0, time=113),
    Message('note_on', channel=0, note=79, velocity=80, time=7),
    Message('note_on', channel=0, note=79, velocity=0, time=113),
    Message('note_on', channel=0, note=83, velocity=80, time=7),
    Message('note_on', channel=0, note=83, velocity=0, time=113),
    Message('note_on', channel=0, note=74, velocity=80, time=7),
    Message('note_on', channel=0, note=74, velocity=0, time=113),
    Message('note_on', channel=0, note=79, velocity=80, time=7),
    Message('note_on', channel=0, note=79, velocity=0, time=113),
    Message('note_on', channel=0, note=86, velocity=80, time=7),
    Message('note_on', channel=0, note=86, velocity=0, time=113),
    Message('note_on', channel=0, note=74, velocity=80, time=7),
    Message('note_on', channel=0, note=74, velocity=0, time=113),
    Message('note_on', channel=0, note=79, velocity=80, time=7),
    Message('note_on', channel=0, note=79, velocity=0, time=113),
    Message('note_on', channel=0, note=83, velocity=80, time=7),
    Message('note_on', channel=0, note=83, velocity=0, time=113),
    Message('note_on', channel=0, note=74, velocity=80, time=7),
    Message('note_on', channel=0, note=74, velocity=0, time=113),
    Message('note_on', channel=0, note=79, velocity=80, time=7),
    Message('note_on', channel=0, note=79, velocity=0, time=113),
    Message('note_on', channel=0, note=86, velocity=80, time=7),
    Message('note_on', channel=0, note=86, velocity=0, time=113),
    Message('note_on', channel=0, note=74, velocity=80, time=7),
    Message('note_on', channel=0, note=74, velocity=0, time=113),
    Message('note_on', channel=0, note=83, velocity=80, time=7),
    Message('note_on', channel=0, note=83, velocity=0, time=113),
    Message('note_on', channel=0, note=74, velocity=80, time=7),
    Message('note_on', channel=0, note=74, velocity=0, time=113),
    Message('note_on', channel=0, note=86, velocity=80, time=7),
    Message('note_on', channel=0, note=86, velocity=0, time=113),
    Message('note_on', channel=0, note=74, velocity=80, time=7),
    Message('note_on', channel=0, note=74, velocity=0, time=113),
    Message('note_on', channel=0, note=78, velocity=80, time=7),
    Message('note_on', channel=0, note=78, velocity=0, time=113),
    Message('note_on', channel=0, note=83, velocity=80, time=7),
    Message('note_on', channel=0, note=83, velocity=0, time=113),
    Message('note_on', channel=0, note=74, velocity=80, time=7),
    Message('note_on', channel=0, note=74, velocity=0, time=113),
    Message('note_on', channel=0, note=78, velocity=80, time=7),
    Message('note_on', channel=0, note=78, velocity=0, time=113),
    Message('note_on', channel=0, note=86, velocity=80, time=7),
    Message('note_on', channel=0, note=86, velocity=0, time=113),
    Message('note_on', channel=0, note=74, velocity=80, time=7),
    Message('note_on', channel=0, note=74, velocity=0, time=113),
    Message('note_on', channel=0, note=78, velocity=80, time=7),
    Message('note_on', channel=0, note=78, velocity=0, time=113),
    Message('note_on', channel=0, note=83, velocity=80, time=7),
    Message('note_on', channel=0, note=83, velocity=0, time=113),
    Message('note_on', channel=0, note=74, velocity=80, time=7),
    Message('note_on', channel=0, note=74, velocity=0, time=113),
    Message('note_on', channel=0, note=78, velocity=80, time=7),
    Message('note_on', channel=0, note=78, velocity=0, time=113),
    Message('note_on', channel=0, note=86, velocity=80, time=7),
    Message('note_on', channel=0, note=86, velocity=0, time=113),
    Message('note_on', channel=0, note=74, velocity=80, time=7),
    Message('note_on', channel=0, note=74, velocity=0, time=113),
    Message('note_on', channel=0, note=83, velocity=80, time=7),
    Message('note_on', channel=0, note=83, velocity=0, time=113),
    Message('note_on', channel=0, note=74, velocity=80, time=7),
    Message('note_on', channel=0, note=74, velocity=0, time=113),
    Message('note_on', channel=0, note=86, velocity=80, time=7),
    Message('note_on', channel=0, note=86, velocity=0, time=113),
    Message('note_on', channel=0, note=74, velocity=80, time=7),
    Message('note_on', channel=0, note=74, velocity=0, time=113),
    Message('note_on', channel=0, note=78, velocity=80, time=7),
    Message('note_on', channel=0, note=78, velocity=0, time=113),
    Message('note_on', channel=0, note=81, velocity=80, time=7),
    Message('note_on', channel=0, note=81, velocity=0, time=113),
    Message('note_on', channel=0, note=74, velocity=80, time=7),
    Message('note_on', channel=0, note=74, velocity=0, time=113),
    Message('note_on', channel=0, note=78, velocity=80, time=7),
    Message('note_on', channel=0, note=78, velocity=0, time=113),
    Message('note_on', channel=0, note=86, velocity=80, time=7),
    Message('note_on', channel=0, note=86, velocity=0, time=113),
    Message('note_on', channel=0, note=74, velocity=80, time=7),
    Message('note_on', channel=0, note=74, velocity=0, time=113),
    Message('note_on', channel=0, note=78, velocity=80, time=7),
    Message('note_on', channel=0, note=78, velocity=0, time=113),
    Message('note_on', channel=0, note=81, velocity=80, time=7),
    Message('note_on', channel=0, note=81, velocity=0, time=113),
    Message('note_on', channel=0, note=74, velocity=80, time=7),
    Message('note_on', channel=0, note=74, velocity=0, time=113),
    Message('note_on', channel=0, note=78, velocity=80, time=7),
    Message('note_on', channel=0, note=78, velocity=0, time=113),
    Message('note_on', channel=0, note=86, velocity=80, time=7),
    Message('note_on', channel=0, note=86, velocity=0, time=113),
    Message('note_on', channel=0, note=74, velocity=80, time=7),
    Message('note_on', channel=0, note=74, velocity=0, time=113),
    Message('note_on', channel=0, note=81, velocity=80, time=7),
    Message('note_on', channel=0, note=81, velocity=0, time=113),
    Message('note_on', channel=0, note=74, velocity=80, time=7),
    Message('note_on', channel=0, note=74, velocity=0, time=113),
    Message('note_on', channel=0, note=88, velocity=80, time=7),
    Message('note_on', channel=0, note=88, velocity=0, time=113),
    Message('note_on', channel=0, note=76, velocity=80, time=7),
    Message('note_on', channel=0, note=76, velocity=0, time=113),
    Message('note_on', channel=0, note=79, velocity=80, time=7),
    Message('note_on', channel=0, note=79, velocity=0, time=113),
    Message('note_on', channel=0, note=83, velocity=80, time=7),
    Message('note_on', channel=0, note=83, velocity=0, time=113),
    Message('note_on', channel=0, note=76, velocity=80, time=7),
    Message('note_on', channel=0, note=76, velocity=0, time=113),
    Message('note_on', channel=0, note=79, velocity=80, time=7),
    Message('note_on', channel=0, note=79, velocity=0, time=113),
    Message('note_on', channel=0, note=88, velocity=80, time=7),
    Message('note_on', channel=0, note=88, velocity=0, time=113),
    Message('note_on', channel=0, note=76, velocity=80, time=7),
    Message('note_on', channel=0, note=76, velocity=0, time=113),
    Message('note_on', channel=0, note=79, velocity=80, time=7),
    Message('note_on', channel=0, note=79, velocity=0, time=113),
    Message('note_on', channel=0, note=83, velocity=80, time=7),
    Message('note_on', channel=0, note=83, velocity=0, time=113),
    Message('note_on', channel=0, note=76, velocity=80, time=7),
    Message('note_on', channel=0, note=76, velocity=0, time=113),
    Message('note_on', channel=0, note=79, velocity=80, time=7),
    Message('note_on', channel=0, note=79, velocity=0, time=113),
    Message('note_on', channel=0, note=88, velocity=80, time=7),
    Message('note_on', channel=0, note=88, velocity=0, time=113),
    Message('note_on', channel=0, note=76, velocity=80, time=7),
    Message('note_on', channel=0, note=76, velocity=0, time=113),
    Message('note_on', channel=0, note=83, velocity=80, time=7),
    Message('note_on', channel=0, note=83, velocity=0, time=113),
    Message('note_on', channel=0, note=76, velocity=80, time=7),
    Message('note_on', channel=0, note=76, velocity=0, time=113),
    Message('note_on', channel=0, note=86, velocity=80, time=7),
    Message('note_on', channel=0, note=86, velocity=0, time=113),
    Message('note_on', channel=0, note=74, velocity=80, time=7),
    Message('note_on', channel=0, note=74, velocity=0, time=113),
    Message('note_on', channel=0, note=79, velocity=80, time=7),
    Message('note_on', channel=0, note=79, velocity=0, time=113),
    Message('note_on', channel=0, note=83, velocity=80, time=7),
    Message('note_on', channel=0, note=83, velocity=0, time=113),
    Message('note_on', channel=0, note=74, velocity=80, time=7),
    Message('note_on', channel=0, note=74, velocity=0, time=113),
    Message('note_on', channel=0, note=79, velocity=80, time=7),
    Message('note_on', channel=0, note=79, velocity=0, time=113),
    Message('note_on', channel=0, note=86, velocity=80, time=7),
    Message('note_on', channel=0, note=86, velocity=0, time=113),
    Message('note_on', channel=0, note=74, velocity=80, time=7),
    Message('note_on', channel=0, note=74, velocity=0, time=113),
    Message('note_on', channel=0, note=79, velocity=80, time=7),
    Message('note_on', channel=0, note=79, velocity=0, time=113),
    Message('note_on', channel=0, note=83, velocity=80, time=7),
    Message('note_on', channel=0, note=83, velocity=0, time=113),
    Message('note_on', channel=0, note=74, velocity=80, time=7),
    Message('note_on', channel=0, note=74, velocity=0, time=113),
    Message('note_on', channel=0, note=79, velocity=80, time=7),
    Message('note_on', channel=0, note=79, velocity=0, time=113),
    Message('note_on', channel=0, note=86, velocity=80, time=7),
    Message('note_on', channel=0, note=86, velocity=0, time=113),
    Message('note_on', channel=0, note=74, velocity=80, time=7),
    Message('note_on', channel=0, note=74, velocity=0, time=113),
    Message('note_on', channel=0, note=83, velocity=80, time=7),
    Message('note_on', channel=0, note=83, velocity=0, time=113),
    Message('note_on', channel=0, note=74, velocity=80, time=7),
    Message('note_on', channel=0, note=74, velocity=0, time=113),
    Message('note_on', channel=0, note=86, velocity=80, time=7),
    Message('note_on', channel=0, note=86, velocity=0, time=113),
    Message('note_on', channel=0, note=74, velocity=80, time=7),
    Message('note_on', channel=0, note=74, velocity=0, time=113),
    Message('note_on', channel=0, note=78, velocity=80, time=7),
    Message('note_on', channel=0, note=78, velocity=0, time=113),
    Message('note_on', channel=0, note=83, velocity=80, time=7),
    Message('note_on', channel=0, note=83, velocity=0, time=113),
    Message('note_on', channel=0, note=74, velocity=80, time=7),
    Message('note_on', channel=0, note=74, velocity=0, time=113),
    Message('note_on', channel=0, note=78, velocity=80, time=7),
    Message('note_on', channel=0, note=78, velocity=0, time=113),
    Message('note_on', channel=0, note=86, velocity=80, time=7),
    Message('note_on', channel=0, note=86, velocity=0, time=113),
    Message('note_on', channel=0, note=74, velocity=80, time=7),
    Message('note_on', channel=0, note=74, velocity=0, time=113),
    Message('note_on', channel=0, note=78, velocity=80, time=7),
    Message('note_on', channel=0, note=78, velocity=0, time=113),
    Message('note_on', channel=0, note=83, velocity=80, time=7),
    Message('note_on', channel=0, note=83, velocity=0, time=113),
    Message('note_on', channel=0, note=74, velocity=80, time=7),
    Message('note_on', channel=0, note=74, velocity=0, time=113),
    Message('note_on', channel=0, note=78, velocity=80, time=7),
    Message('note_on', channel=0, note=78, velocity=0, time=113),
    Message('note_on', channel=0, note=86, velocity=80, time=7),
    Message('note_on', channel=0, note=86, velocity=0, time=113),
    Message('note_on', channel=0, note=74, velocity=80, time=7),
    Message('note_on', channel=0, note=74, velocity=0, time=113),
    Message('note_on', channel=0, note=83, velocity=80, time=7),
    Message('note_on', channel=0, note=83, velocity=0, time=113),
    Message('note_on', channel=0, note=74, velocity=80, time=7),
    Message('note_on', channel=0, note=74, velocity=0, time=113),
    Message('note_on', channel=0, note=86, velocity=80, time=7),
    Message('note_on', channel=0, note=86, velocity=0, time=113),
    Message('note_on', channel=0, note=74, velocity=80, time=7),
    Message('note_on', channel=0, note=74, velocity=0, time=113),
    Message('note_on', channel=0, note=78, velocity=80, time=7),
    Message('note_on', channel=0, note=78, velocity=0, time=113),
    Message('note_on', channel=0, note=81, velocity=80, time=7),
    Message('note_on', channel=0, note=81, velocity=0, time=113),
    Message('note_on', channel=0, note=74, velocity=80, time=7),
    Message('note_on', channel=0, note=74, velocity=0, time=113),
    Message('note_on', channel=0, note=78, velocity=80, time=7),
    Message('note_on', channel=0, note=78, velocity=0, time=113),
    Message('note_on', channel=0, note=86, velocity=80, time=7),
    Message('note_on', channel=0, note=86, velocity=0, time=113),
    Message('note_on', channel=0, note=74, velocity=80, time=7),
    Message('note_on', channel=0, note=74, velocity=0, time=113),
    Message('note_on', channel=0, note=78, velocity=80, time=7),
    Message('note_on', channel=0, note=78, velocity=0, time=113),
    Message('note_on', channel=0, note=81, velocity=80, time=7),
    Message('note_on', channel=0, note=81, velocity=0, time=113),
    Message('note_on', channel=0, note=74, velocity=80, time=7),
    Message('note_on', channel=0, note=74, velocity=0, time=113),
    Message('note_on', channel=0, note=78, velocity=80, time=7),
    Message('note_on', channel=0, note=78, velocity=0, time=113),
    Message('note_on', channel=0, note=86, velocity=80, time=7),
    Message('note_on', channel=0, note=86, velocity=0, time=113),
    Message('note_on', channel=0, note=74, velocity=80, time=7),
    Message('note_on', channel=0, note=74, velocity=0, time=113),
    Message('note_on', channel=0, note=81, velocity=80, time=7),
    Message('note_on', channel=0, note=81, velocity=0, time=113),
    Message('note_on', channel=0, note=74, velocity=80, time=7),
    Message('note_on', channel=0, note=74, velocity=0, time=113),
    Message('note_on', channel=0, note=71, velocity=80, time=7),
    Message('note_on', channel=0, note=76, velocity=80, time=0),
    Message('note_on', channel=0, note=83, velocity=80, time=0),
    Message('note_on', channel=0, note=71, velocity=0, time=341),
    Message('note_on', channel=0, note=76, velocity=0, time=0),
    Message('note_on', channel=0, note=83, velocity=0, time=0),
    Message('note_on', channel=0, note=71, velocity=80, time=19),
    Message('note_on', channel=0, note=76, velocity=80, time=0),
    Message('note_on', channel=0, note=79, velocity=80, time=0),
    Message('note_on', channel=0, note=71, velocity=0, time=341),
    Message('note_on', channel=0, note=76, velocity=0, time=0),
    Message('note_on', channel=0, note=79, velocity=0, time=0),
    Message('note_on', channel=0, note=71, velocity=80, time=19),
    Message('note_on', channel=0, note=76, velocity=80, time=0),
    Message('note_on', channel=0, note=83, velocity=80, time=0),
    Message('note_on', channel=0, note=71, velocity=0, time=227),
    Message('note_on', channel=0, note=76, velocity=0, time=0),
    Message('note_on', channel=0, note=83, velocity=0, time=0),
    Message('note_on', channel=0, note=76, velocity=80, time=13),
    Message('note_on', channel=0, note=76, velocity=0, time=113),
    Message('note_on', channel=0, note=71, velocity=80, time=7),
    Message('note_on', channel=0, note=71, velocity=0, time=113),
    Message('note_on', channel=0, note=76, velocity=80, time=7),
    Message('note_on', channel=0, note=76, velocity=0, time=113),
    Message('note_on', channel=0, note=71, velocity=80, time=7),
    Message('note_on', channel=0, note=71, velocity=0, time=113),
    Message('note_on', channel=0, note=71, velocity=80, time=7),
    Message('note_on', channel=0, note=76, velocity=80, time=0),
    Message('note_on', channel=0, note=83, velocity=80, time=0),
    Message('note_on', channel=0, note=71, velocity=0, time=227),
    Message('note_on', channel=0, note=76, velocity=0, time=0),
    Message('note_on', channel=0, note=83, velocity=0, time=0),
    Message('note_on', channel=0, note=84, velocity=80, time=13),
    Message('note_on', channel=0, note=84, velocity=0, time=227),
    Message('note_on', channel=0, note=71, velocity=80, time=13),
    Message('note_on', channel=0, note=74, velocity=80, time=0),
    Message('note_on', channel=0, note=83, velocity=80, time=0),
    Message('note_on', channel=0, note=71, velocity=0, time=341),
    Message('note_on', channel=0, note=74, velocity=0, time=0),
    Message('note_on', channel=0, note=83, velocity=0, time=0),
    Message('note_on', channel=0, note=71, velocity=80, time=19),
    Message('note_on', channel=0, note=74, velocity=80, time=0),
    Message('note_on', channel=0, note=79, velocity=80, time=0),
    Message('note_on', channel=0, note=71, velocity=0, time=341),
    Message('note_on', channel=0, note=74, velocity=0, time=0),
    Message('note_on', channel=0, note=79, velocity=0, time=0),
    Message('note_on', channel=0, note=71, velocity=80, time=19),
    Message('note_on', channel=0, note=74, velocity=80, time=0),
    Message('note_on', channel=0, note=83, velocity=80, time=0),
    Message('note_on', channel=0, note=71, velocity=0, time=227),
    Message('note_on', channel=0, note=74, velocity=0, time=0),
    Message('note_on', channel=0, note=83, velocity=0, time=0),
    Message('note_on', channel=0, note=74, velocity=80, time=13),
    Message('note_on', channel=0, note=74, velocity=0, time=113),
    Message('note_on', channel=0, note=71, velocity=80, time=7),
    Message('note_on', channel=0, note=71, velocity=0, time=113),
    Message('note_on', channel=0, note=74, velocity=80, time=7),
    Message('note_on', channel=0, note=74, velocity=0, time=113),
    Message('note_on', channel=0, note=71, velocity=80, time=7),
    Message('note_on', channel=0, note=71, velocity=0, time=113),
    Message('note_on', channel=0, note=71, velocity=80, time=7),
    Message('note_on', channel=0, note=74, velocity=80, time=0),
    Message('note_on', channel=0, note=83, velocity=80, time=0),
    Message('note_on', channel=0, note=71, velocity=0, time=227),
    Message('note_on', channel=0, note=74, velocity=0, time=0),
    Message('note_on', channel=0, note=83, velocity=0, time=0),
    Message('note_on', channel=0, note=81, velocity=80, time=13),
    Message('note_on', channel=0, note=81, velocity=0, time=227),
    Message('note_on', channel=0, note=66, velocity=80, time=13),
    Message('note_on', channel=0, note=71, velocity=80, time=0),
    Message('note_on', channel=0, note=78, velocity=80, time=0),
    Message('note_on', channel=0, note=66, velocity=0, time=227),
    Message('note_on', channel=0, note=71, velocity=0, time=0),
    Message('note_on', channel=0, note=78, velocity=0, time=0),
    Message('note_on', channel=0, note=66, velocity=80, time=13),
    Message('note_on', channel=0, note=71, velocity=80, time=0),
    Message('note_on', channel=0, note=78, velocity=80, time=0),
    Message('note_on', channel=0, note=66, velocity=0, time=113),
    Message('note_on', channel=0, note=71, velocity=0, time=0),
    Message('note_on', channel=0, note=78, velocity=0, time=0),
    Message('note_on', channel=0, note=66, velocity=80, time=7),
    Message('note_on', channel=0, note=71, velocity=80, time=0),
    Message('note_on', channel=0, note=78, velocity=80, time=0),
    Message('note_on', channel=0, note=66, velocity=0, time=341),
    Message('note_on', channel=0, note=71, velocity=0, time=0),
    Message('note_on', channel=0, note=78, velocity=0, time=0),
    Message('note_on', channel=0, note=66, velocity=80, time=19),
    Message('note_on', channel=0, note=71, velocity=80, time=0),
    Message('note_on', channel=0, note=78, velocity=80, time=0),
    Message('note_on', channel=0, note=66, velocity=0, time=227),
    Message('note_on', channel=0, note=71, velocity=0, time=0),
    Message('note_on', channel=0, note=78, velocity=0, time=0),
    Message('note_on', channel=0, note=66, velocity=80, time=493),
    Message('note_on', channel=0, note=71, velocity=80, time=0),
    Message('note_on', channel=0, note=78, velocity=80, time=0),
    Message('note_on', channel=0, note=66, velocity=0, time=227),
    Message('note_on', channel=0, note=71, velocity=0, time=0),
    Message('note_on', channel=0, note=78, velocity=0, time=0),
    Message('note_on', channel=0, note=67, velocity=80, time=13),
    Message('note_on', channel=0, note=71, velocity=80, time=0),
    Message('note_on', channel=0, note=79, velocity=80, time=0),
    Message('note_on', channel=0, note=67, velocity=0, time=227),
    Message('note_on', channel=0, note=71, velocity=0, time=0),
    Message('note_on', channel=0, note=79, velocity=0, time=0),
    Message('note_on', channel=0, note=69, velocity=80, time=13),
    Message('note_on', channel=0, note=74, velocity=80, time=0),
    Message('note_on', channel=0, note=78, velocity=80, time=0),
    Message('note_on', channel=0, note=81, velocity=80, time=0),
    Message('note_on', channel=0, note=69, velocity=0, time=341),
    Message('note_on', channel=0, note=74, velocity=0, time=0),
    Message('note_on', channel=0, note=78, velocity=0, time=0),
    Message('note_on', channel=0, note=81, velocity=0, time=0),
    Message('note_on', channel=0, note=69, velocity=80, time=19),
    Message('note_on', channel=0, note=74, velocity=80, time=0),
    Message('note_on', channel=0, note=78, velocity=80, time=0),
    Message('note_on', channel=0, note=81, velocity=80, time=0),
    Message('note_on', channel=0, note=69, velocity=0, time=341),
    Message('note_on', channel=0, note=74, velocity=0, time=0),
    Message('note_on', channel=0, note=78, velocity=0, time=0),
    Message('note_on', channel=0, note=81, velocity=0, time=0),
    Message('note_on', channel=0, note=69, velocity=80, time=19),
    Message('note_on', channel=0, note=74, velocity=80, time=0),
    Message('note_on', channel=0, note=78, velocity=80, time=0),
    Message('note_on', channel=0, note=81, velocity=80, time=0),
    Message('note_on', channel=0, note=69, velocity=0, time=227),
    Message('note_on', channel=0, note=74, velocity=0, time=0),
    Message('note_on', channel=0, note=78, velocity=0, time=0),
    Message('note_on', channel=0, note=81, velocity=0, time=0),
    Message('note_on', channel=0, note=69, velocity=80, time=493),
    Message('note_on', channel=0, note=74, velocity=80, time=0),
    Message('note_on', channel=0, note=78, velocity=80, time=0),
    Message('note_on', channel=0, note=81, velocity=80, time=0),
    Message('note_on', channel=0, note=69, velocity=0, time=227),
    Message('note_on', channel=0, note=74, velocity=0, time=0),
    Message('note_on', channel=0, note=78, velocity=0, time=0),
    Message('note_on', channel=0, note=81, velocity=0, time=0),
    Message('note_on', channel=0, note=67, velocity=80, time=13),
    Message('note_on', channel=0, note=74, velocity=80, time=0),
    Message('note_on', channel=0, note=79, velocity=80, time=0),
    Message('note_on', channel=0, note=67, velocity=0, time=227),
    Message('note_on', channel=0, note=74, velocity=0, time=0),
    Message('note_on', channel=0, note=79, velocity=0, time=0),
    Message('note_on', channel=0, note=71, velocity=80, time=13),
    Message('note_on', channel=0, note=76, velocity=80, time=0),
    Message('note_on', channel=0, note=83, velocity=80, time=0),
    Message('note_on', channel=0, note=71, velocity=0, time=341),
    Message('note_on', channel=0, note=76, velocity=0, time=0),
    Message('note_on', channel=0, note=83, velocity=0, time=0),
    Message('note_on', channel=0, note=71, velocity=80, time=19),
    Message('note_on', channel=0, note=76, velocity=80, time=0),
    Message('note_on', channel=0, note=79, velocity=80, time=0),
    Message('note_on', channel=0, note=71, velocity=0, time=341),
    Message('note_on', channel=0, note=76, velocity=0, time=0),
    Message('note_on', channel=0, note=79, velocity=0, time=0),
    Message('note_on', channel=0, note=71, velocity=80, time=19),
    Message('note_on', channel=0, note=76, velocity=80, time=0),
    Message('note_on', channel=0, note=83, velocity=80, time=0),
    Message('note_on', channel=0, note=71, velocity=0, time=227),
    Message('note_on', channel=0, note=76, velocity=0, time=0),
    Message('note_on', channel=0, note=83, velocity=0, time=0),
    Message('note_on', channel=0, note=76, velocity=80, time=13),
    Message('note_on', channel=0, note=76, velocity=0, time=113),
    Message('note_on', channel=0, note=71, velocity=80, time=7),
    Message('note_on', channel=0, note=71, velocity=0, time=113),
    Message('note_on', channel=0, note=76, velocity=80, time=7),
    Message('note_on', channel=0, note=76, velocity=0, time=113),
    Message('note_on', channel=0, note=71, velocity=80, time=7),
    Message('note_on', channel=0, note=71, velocity=0, time=113),
    Message('note_on', channel=0, note=71, velocity=80, time=7),
    Message('note_on', channel=0, note=76, velocity=80, time=0),
    Message('note_on', channel=0, note=83, velocity=80, time=0),
    Message('note_on', channel=0, note=71, velocity=0, time=227),
    Message('note_on', channel=0, note=76, velocity=0, time=0),
    Message('note_on', channel=0, note=83, velocity=0, time=0),
    Message('note_on', channel=0, note=84, velocity=80, time=13),
    Message('note_on', channel=0, note=84, velocity=0, time=227),
    Message('note_on', channel=0, note=71, velocity=80, time=13),
    Message('note_on', channel=0, note=74, velocity=80, time=0),
    Message('note_on', channel=0, note=83, velocity=80, time=0),
    Message('note_on', channel=0, note=71, velocity=0, time=341),
    Message('note_on', channel=0, note=74, velocity=0, time=0),
    Message('note_on', channel=0, note=83, velocity=0, time=0),
    Message('note_on', channel=0, note=71, velocity=80, time=19),
    Message('note_on', channel=0, note=74, velocity=80, time=0),
    Message('note_on', channel=0, note=79, velocity=80, time=0),
    Message('note_on', channel=0, note=71, velocity=0, time=341),
    Message('note_on', channel=0, note=74, velocity=0, time=0),
    Message('note_on', channel=0, note=79, velocity=0, time=0),
    Message('note_on', channel=0, note=71, velocity=80, time=19),
    Message('note_on', channel=0, note=74, velocity=80, time=0),
    Message('note_on', channel=0, note=83, velocity=80, time=0),
    Message('note_on', channel=0, note=71, velocity=0, time=227),
    Message('note_on', channel=0, note=74, velocity=0, time=0),
    Message('note_on', channel=0, note=83, velocity=0, time=0),
    Message('note_on', channel=0, note=74, velocity=80, time=13),
    Message('note_on', channel=0, note=74, velocity=0, time=113),
    Message('note_on', channel=0, note=71, velocity=80, time=7),
    Message('note_on', channel=0, note=71, velocity=0, time=113),
    Message('note_on', channel=0, note=74, velocity=80, time=7),
    Message('note_on', channel=0, note=74, velocity=0, time=113),
    Message('note_on', channel=0, note=71, velocity=80, time=7),
    Message('note_on', channel=0, note=71, velocity=0, time=113),
    Message('note_on', channel=0, note=71, velocity=80, time=7),
    Message('note_on', channel=0, note=74, velocity=80, time=0),
    Message('note_on', channel=0, note=83, velocity=80, time=0),
    Message('note_on', channel=0, note=71, velocity=0, time=227),
    Message('note_on', channel=0, note=74, velocity=0, time=0),
    Message('note_on', channel=0, note=83, velocity=0, time=0),
    Message('note_on', channel=0, note=81, velocity=80, time=13),
    Message('note_on', channel=0, note=81, velocity=0, time=227),
    Message('note_on', channel=0, note=66, velocity=80, time=13),
    Message('note_on', channel=0, note=71, velocity=80, time=0),
    Message('note_on', channel=0, note=78, velocity=80, time=0),
    Message('note_on', channel=0, note=66, velocity=0, time=227),
    Message('note_on', channel=0, note=71, velocity=0, time=0),
    Message('note_on', channel=0, note=78, velocity=0, time=0),
    Message('note_on', channel=0, note=66, velocity=80, time=13),
    Message('note_on', channel=0, note=71, velocity=80, time=0),
    Message('note_on', channel=0, note=78, velocity=80, time=0),
    Message('note_on', channel=0, note=66, velocity=0, time=113),
    Message('note_on', channel=0, note=71, velocity=0, time=0),
    Message('note_on', channel=0, note=78, velocity=0, time=0),
    Message('note_on', channel=0, note=66, velocity=80, time=7),
    Message('note_on', channel=0, note=71, velocity=80, time=0),
    Message('note_on', channel=0, note=78, velocity=80, time=0),
    Message('note_on', channel=0, note=66, velocity=0, time=341),
    Message('note_on', channel=0, note=71, velocity=0, time=0),
    Message('note_on', channel=0, note=78, velocity=0, time=0),
    Message('note_on', channel=0, note=66, velocity=80, time=19),
    Message('note_on', channel=0, note=71, velocity=80, time=0),
    Message('note_on', channel=0, note=78, velocity=80, time=0),
    Message('note_on', channel=0, note=66, velocity=0, time=227),
    Message('note_on', channel=0, note=71, velocity=0, time=0),
    Message('note_on', channel=0, note=78, velocity=0, time=0),
    Message('note_on', channel=0, note=66, velocity=80, time=493),
    Message('note_on', channel=0, note=71, velocity=80, time=0),
    Message('note_on', channel=0, note=78, velocity=80, time=0),
    Message('note_on', channel=0, note=66, velocity=0, time=227),
    Message('note_on', channel=0, note=71, velocity=0, time=0),
    Message('note_on', channel=0, note=78, velocity=0, time=0),
    Message('note_on', channel=0, note=67, velocity=80, time=13),
    Message('note_on', channel=0, note=71, velocity=80, time=0),
    Message('note_on', channel=0, note=79, velocity=80, time=0),
    Message('note_on', channel=0, note=67, velocity=0, time=227),
    Message('note_on', channel=0, note=71, velocity=0, time=0),
    Message('note_on', channel=0, note=79, velocity=0, time=0),
    Message('note_on', channel=0, note=69, velocity=80, time=13),
    Message('note_on', channel=0, note=74, velocity=80, time=0),
    Message('note_on', channel=0, note=78, velocity=80, time=0),
    Message('note_on', channel=0, note=81, velocity=80, time=0),
    Message('note_on', channel=0, note=69, velocity=0, time=341),
    Message('note_on', channel=0, note=74, velocity=0, time=0),
    Message('note_on', channel=0, note=78, velocity=0, time=0),
    Message('note_on', channel=0, note=81, velocity=0, time=0),
    Message('note_on', channel=0, note=69, velocity=80, time=19),
    Message('note_on', channel=0, note=74, velocity=80, time=0),
    Message('note_on', channel=0, note=78, velocity=80, time=0),
    Message('note_on', channel=0, note=81, velocity=80, time=0),
    Message('note_on', channel=0, note=69, velocity=0, time=341),
    Message('note_on', channel=0, note=74, velocity=0, time=0),
    Message('note_on', channel=0, note=78, velocity=0, time=0),
    Message('note_on', channel=0, note=81, velocity=0, time=0),
    Message('note_on', channel=0, note=69, velocity=80, time=19),
    Message('note_on', channel=0, note=74, velocity=80, time=0),
    Message('note_on', channel=0, note=78, velocity=80, time=0),
    Message('note_on', channel=0, note=81, velocity=80, time=0),
    Message('note_on', channel=0, note=69, velocity=0, time=227),
    Message('note_on', channel=0, note=74, velocity=0, time=0),
    Message('note_on', channel=0, note=78, velocity=0, time=0),
    Message('note_on', channel=0, note=81, velocity=0, time=0),
    Message('note_on', channel=0, note=69, velocity=80, time=493),
    Message('note_on', channel=0, note=74, velocity=80, time=0),
    Message('note_on', channel=0, note=78, velocity=80, time=0),
    Message('note_on', channel=0, note=81, velocity=80, time=0),
    Message('note_on', channel=0, note=69, velocity=0, time=227),
    Message('note_on', channel=0, note=74, velocity=0, time=0),
    Message('note_on', channel=0, note=78, velocity=0, time=0),
    Message('note_on', channel=0, note=81, velocity=0, time=0),
    Message('note_on', channel=0, note=67, velocity=80, time=13),
    Message('note_on', channel=0, note=74, velocity=80, time=0),
    Message('note_on', channel=0, note=79, velocity=80, time=0),
    Message('note_on', channel=0, note=67, velocity=0, time=227),
    Message('note_on', channel=0, note=74, velocity=0, time=0),
    Message('note_on', channel=0, note=79, velocity=0, time=0),
    Message('note_on', channel=0, note=67, velocity=80, time=253),
    Message('note_on', channel=0, note=71, velocity=80, time=0),
    Message('note_on', channel=0, note=76, velocity=80, time=0),
    Message('note_on', channel=0, note=67, velocity=0, time=341),
    Message('note_on', channel=0, note=71, velocity=0, time=0),
    Message('note_on', channel=0, note=76, velocity=0, time=0),
    Message('note_on', channel=0, note=71, velocity=80, time=19),
    Message('note_on', channel=0, note=76, velocity=80, time=0),
    Message('note_on', channel=0, note=79, velocity=80, time=0),
    Message('note_on', channel=0, note=71, velocity=0, time=341),
    Message('note_on', channel=0, note=76, velocity=0, time=0),
    Message('note_on', channel=0, note=79, velocity=0, time=0),
    Message('note_on', channel=0, note=76, velocity=80, time=19),
    Message('note_on', channel=0, note=79, velocity=80, time=0),
    Message('note_on', channel=0, note=83, velocity=80, time=0),
    Message('note_on', channel=0, note=76, velocity=0, time=341),
    Message('note_on', channel=0, note=79, velocity=0, time=0),
    Message('note_on', channel=0, note=83, velocity=0, time=0),
    Message('note_on', channel=0, note=79, velocity=80, time=19),
    Message('note_on', channel=0, note=83, velocity=80, time=0),
    Message('note_on', channel=0, note=88, velocity=80, time=0),
    Message('note_on', channel=0, note=79, velocity=0, time=341),
    Message('note_on', channel=0, note=83, velocity=0, time=0),
    Message('note_on', channel=0, note=88, velocity=0, time=0),
    Message('note_on', channel=0, note=83, velocity=80, time=499),
    Message('note_on', channel=0, note=86, velocity=80, time=0),
    Message('note_on', channel=0, note=91, velocity=80, time=0),
    Message('note_on', channel=0, note=83, velocity=0, time=341),
    Message('note_on', channel=0, note=86, velocity=0, time=0),
    Message('note_on', channel=0, note=91, velocity=0, time=0),
    Message('note_on', channel=0, note=79, velocity=80, time=19),
    Message('note_on', channel=0, note=83, velocity=80, time=0),
    Message('note_on', channel=0, note=86, velocity=80, time=0),
    Message('note_on', channel=0, note=79, velocity=0, time=341),
    Message('note_on', channel=0, note=83, velocity=0, time=0),
    Message('note_on', channel=0, note=86, velocity=0, time=0),
    Message('note_on', channel=0, note=74, velocity=80, time=19),
    Message('note_on', channel=0, note=79, velocity=80, time=0),
    Message('note_on', channel=0, note=83, velocity=80, time=0),
    Message('note_on', channel=0, note=74, velocity=0, time=341),
    Message('note_on', channel=0, note=79, velocity=0, time=0),
    Message('note_on', channel=0, note=83, velocity=0, time=0),
    Message('note_on', channel=0, note=71, velocity=80, time=19),
    Message('note_on', channel=0, note=74, velocity=80, time=0),
    Message('note_on', channel=0, note=79, velocity=80, time=0),
    Message('note_on', channel=0, note=71, velocity=0, time=341),
    Message('note_on', channel=0, note=74, velocity=0, time=0),
    Message('note_on', channel=0, note=79, velocity=0, time=0),
    Message('note_on', channel=0, note=67, velocity=80, time=19),
    Message('note_on', channel=0, note=71, velocity=80, time=0),
    Message('note_on', channel=0, note=74, velocity=80, time=0),
    Message('note_on', channel=0, note=67, velocity=0, time=227),
    Message('note_on', channel=0, note=71, velocity=0, time=0),
    Message('note_on', channel=0, note=74, velocity=0, time=0),
    Message('note_on', channel=0, note=66, velocity=80, time=253),
    Message('note_on', channel=0, note=71, velocity=80, time=0),
    Message('note_on', channel=0, note=74, velocity=80, time=0),
    Message('note_on', channel=0, note=66, velocity=0, time=341),
    Message('note_on', channel=0, note=71, velocity=0, time=0),
    Message('note_on', channel=0, note=74, velocity=0, time=0),
    Message('note_on', channel=0, note=71, velocity=80, time=19),
    Message('note_on', channel=0, note=74, velocity=80, time=0),
    Message('note_on', channel=0, note=78, velocity=80, time=0),
    Message('note_on', channel=0, note=71, velocity=0, time=341),
    Message('note_on', channel=0, note=74, velocity=0, time=0),
    Message('note_on', channel=0, note=78, velocity=0, time=0),
    Message('note_on', channel=0, note=74, velocity=80, time=19),
    Message('note_on', channel=0, note=78, velocity=80, time=0),
    Message('note_on', channel=0, note=83, velocity=80, time=0),
    Message('note_on', channel=0, note=74, velocity=0, time=341),
    Message('note_on', channel=0, note=78, velocity=0, time=0),
    Message('note_on', channel=0, note=83, velocity=0, time=0),
    Message('note_on', channel=0, note=78, velocity=80, time=19),
    Message('note_on', channel=0, note=83, velocity=80, time=0),
    Message('note_on', channel=0, note=86, velocity=80, time=0),
    Message('note_on', channel=0, note=78, velocity=0, time=341),
    Message('note_on', channel=0, note=83, velocity=0, time=0),
    Message('note_on', channel=0, note=86, velocity=0, time=0),
    Message('note_on', channel=0, note=83, velocity=80, time=19),
    Message('note_on', channel=0, note=86, velocity=80, time=0),
    Message('note_on', channel=0, note=90, velocity=80, time=0),
    Message('note_on', channel=0, note=83, velocity=0, time=227),
    Message('note_on', channel=0, note=86, velocity=0, time=0),
    Message('note_on', channel=0, note=90, velocity=0, time=0),
    Message('note_on', channel=0, note=81, velocity=80, time=253),
    Message('note_on', channel=0, note=86, velocity=80, time=0),
    Message('note_on', channel=0, note=90, velocity=80, time=0),
    Message('note_on', channel=0, note=81, velocity=0, time=341),
    Message('note_on', channel=0, note=86, velocity=0, time=0),
    Message('note_on', channel=0, note=90, velocity=0, time=0),
    Message('note_on', channel=0, note=78, velocity=80, time=19),
    Message('note_on', channel=0, note=81, velocity=80, time=0),
    Message('note_on', channel=0, note=86, velocity=80, time=0),
    Message('note_on', channel=0, note=78, velocity=0, time=341),
    Message('note_on', channel=0, note=81, velocity=0, time=0),
    Message('note_on', channel=0, note=86, velocity=0, time=0),
    Message('note_on', channel=0, note=74, velocity=80, time=19),
    Message('note_on', channel=0, note=78, velocity=80, time=0),
    Message('note_on', channel=0, note=81, velocity=80, time=0),
    Message('note_on', channel=0, note=74, velocity=0, time=341),
    Message('note_on', channel=0, note=78, velocity=0, time=0),
    Message('note_on', channel=0, note=81, velocity=0, time=0),
    Message('note_on', channel=0, note=69, velocity=80, time=19),
    Message('note_on', channel=0, note=74, velocity=80, time=0),
    Message('note_on', channel=0, note=78, velocity=80, time=0),
    Message('note_on', channel=0, note=69, velocity=0, time=341),
    Message('note_on', channel=0, note=74, velocity=0, time=0),
    Message('note_on', channel=0, note=78, velocity=0, time=0),
    Message('note_on', channel=0, note=66, velocity=80, time=19),
    Message('note_on', channel=0, note=69, velocity=80, time=0),
    Message('note_on', channel=0, note=74, velocity=80, time=0),
    Message('note_on', channel=0, note=66, velocity=0, time=227),
    Message('note_on', channel=0, note=69, velocity=0, time=0),
    Message('note_on', channel=0, note=74, velocity=0, time=0),
    Message('note_on', channel=0, note=67, velocity=80, time=253),
    Message('note_on', channel=0, note=71, velocity=80, time=0),
    Message('note_on', channel=0, note=76, velocity=80, time=0),
    Message('note_on', channel=0, note=67, velocity=0, time=341),
    Message('note_on', channel=0, note=71, velocity=0, time=0),
    Message('note_on', channel=0, note=76, velocity=0, time=0),
    Message('note_on', channel=0, note=71, velocity=80, time=19),
    Message('note_on', channel=0, note=76, velocity=80, time=0),
    Message('note_on', channel=0, note=79, velocity=80, time=0),
    Message('note_on', channel=0, note=71, velocity=0, time=341),
    Message('note_on', channel=0, note=76, velocity=0, time=0),
    Message('note_on', channel=0, note=79, velocity=0, time=0),
    Message('note_on', channel=0, note=76, velocity=80, time=19),
    Message('note_on', channel=0, note=79, velocity=80, time=0),
    Message('note_on', channel=0, note=83, velocity=80, time=0),
    Message('note_on', channel=0, note=76, velocity=0, time=341),
    Message('note_on', channel=0, note=79, velocity=0, time=0),
    Message('note_on', channel=0, note=83, velocity=0, time=0),
    Message('note_on', channel=0, note=79, velocity=80, time=19),
    Message('note_on', channel=0, note=83, velocity=80, time=0),
    Message('note_on', channel=0, note=88, velocity=80, time=0),
    Message('note_on', channel=0, note=79, velocity=0, time=341),
    Message('note_on', channel=0, note=83, velocity=0, time=0),
    Message('note_on', channel=0, note=88, velocity=0, time=0),
    Message('note_on', channel=0, note=83, velocity=80, time=19),
    Message('note_on', channel=0, note=88, velocity=80, time=0),
    Message('note_on', channel=0, note=91, velocity=80, time=0),
    Message('note_on', channel=0, note=83, velocity=0, time=227),
    Message('note_on', channel=0, note=88, velocity=0, time=0),
    Message('note_on', channel=0, note=91, velocity=0, time=0),
    Message('note_on', channel=0, note=83, velocity=80, time=253),
    Message('note_on', channel=0, note=86, velocity=80, time=0),
    Message('note_on', channel=0, note=91, velocity=80, time=0),
    Message('note_on', channel=0, note=83, velocity=0, time=341),
    Message('note_on', channel=0, note=86, velocity=0, time=0),
    Message('note_on', channel=0, note=91, velocity=0, time=0),
    Message('note_on', channel=0, note=79, velocity=80, time=19),
    Message('note_on', channel=0, note=83, velocity=80, time=0),
    Message('note_on', channel=0, note=86, velocity=80, time=0),
    Message('note_on', channel=0, note=79, velocity=0, time=341),
    Message('note_on', channel=0, note=83, velocity=0, time=0),
    Message('note_on', channel=0, note=86, velocity=0, time=0),
    Message('note_on', channel=0, note=74, velocity=80, time=19),
    Message('note_on', channel=0, note=79, velocity=80, time=0),
    Message('note_on', channel=0, note=83, velocity=80, time=0),
    Message('note_on', channel=0, note=74, velocity=0, time=341),
    Message('note_on', channel=0, note=79, velocity=0, time=0),
    Message('note_on', channel=0, note=83, velocity=0, time=0),
    Message('note_on', channel=0, note=71, velocity=80, time=19),
    Message('note_on', channel=0, note=74, velocity=80, time=0),
    Message('note_on', channel=0, note=79, velocity=80, time=0),
    Message('note_on', channel=0, note=71, velocity=0, time=341),
    Message('note_on', channel=0, note=74, velocity=0, time=0),
    Message('note_on', channel=0, note=79, velocity=0, time=0),
    Message('note_on', channel=0, note=67, velocity=80, time=19),
    Message('note_on', channel=0, note=71, velocity=80, time=0),
    Message('note_on', channel=0, note=74, velocity=80, time=0),
    Message('note_on', channel=0, note=67, velocity=0, time=227),
    Message('note_on', channel=0, note=71, velocity=0, time=0),
    Message('note_on', channel=0, note=74, velocity=0, time=0),
    Message('note_on', channel=0, note=66, velocity=80, time=253),
    Message('note_on', channel=0, note=71, velocity=80, time=0),
    Message('note_on', channel=0, note=74, velocity=80, time=0),
    Message('note_on', channel=0, note=66, velocity=0, time=341),
    Message('note_on', channel=0, note=71, velocity=0, time=0),
    Message('note_on', channel=0, note=74, velocity=0, time=0),
    Message('note_on', channel=0, note=71, velocity=80, time=19),
    Message('note_on', channel=0, note=74, velocity=80, time=0),
    Message('note_on', channel=0, note=78, velocity=80, time=0),
    Message('note_on', channel=0, note=71, velocity=0, time=341),
    Message('note_on', channel=0, note=74, velocity=0, time=0),
    Message('note_on', channel=0, note=78, velocity=0, time=0),
    Message('note_on', channel=0, note=74, velocity=80, time=19),
    Message('note_on', channel=0, note=78, velocity=80, time=0),
    Message('note_on', channel=0, note=83, velocity=80, time=0),
    Message('note_on', channel=0, note=74, velocity=0, time=341),
    Message('note_on', channel=0, note=78, velocity=0, time=0),
    Message('note_on', channel=0, note=83, velocity=0, time=0),
    Message('note_on', channel=0, note=78, velocity=80, time=19),
    Message('note_on', channel=0, note=83, velocity=80, time=0),
    Message('note_on', channel=0, note=86, velocity=80, time=0),
    Message('note_on', channel=0, note=78, velocity=0, time=341),
    Message('note_on', channel=0, note=83, velocity=0, time=0),
    Message('note_on', channel=0, note=86, velocity=0, time=0),
    Message('note_on', channel=0, note=83, velocity=80, time=19),
    Message('note_on', channel=0, note=86, velocity=80, time=0),
    Message('note_on', channel=0, note=90, velocity=80, time=0),
    Message('note_on', channel=0, note=83, velocity=0, time=227),
    Message('note_on', channel=0, note=86, velocity=0, time=0),
    Message('note_on', channel=0, note=90, velocity=0, time=0),
    Message('note_on', channel=0, note=81, velocity=80, time=253),
    Message('note_on', channel=0, note=86, velocity=80, time=0),
    Message('note_on', channel=0, note=90, velocity=80, time=0),
    Message('note_on', channel=0, note=81, velocity=0, time=341),
    Message('note_on', channel=0, note=86, velocity=0, time=0),
    Message('note_on', channel=0, note=90, velocity=0, time=0),
    Message('note_on', channel=0, note=78, velocity=80, time=19),
    Message('note_on', channel=0, note=81, velocity=80, time=0),
    Message('note_on', channel=0, note=86, velocity=80, time=0),
    Message('note_on', channel=0, note=78, velocity=0, time=341),
    Message('note_on', channel=0, note=81, velocity=0, time=0),
    Message('note_on', channel=0, note=86, velocity=0, time=0),
    Message('note_on', channel=0, note=74, velocity=80, time=19),
    Message('note_on', channel=0, note=78, velocity=80, time=0),
    Message('note_on', channel=0, note=81, velocity=80, time=0),
    Message('note_on', channel=0, note=74, velocity=0, time=341),
    Message('note_on', channel=0, note=78, velocity=0, time=0),
    Message('note_on', channel=0, note=81, velocity=0, time=0),
    Message('note_on', channel=0, note=69, velocity=80, time=19),
    Message('note_on', channel=0, note=74, velocity=80, time=0),
    Message('note_on', channel=0, note=78, velocity=80, time=0),
    Message('note_on', channel=0, note=69, velocity=0, time=341),
    Message('note_on', channel=0, note=74, velocity=0, time=0),
    Message('note_on', channel=0, note=78, velocity=0, time=0),
    Message('note_on', channel=0, note=66, velocity=80, time=19),
    Message('note_on', channel=0, note=69, velocity=80, time=0),
    Message('note_on', channel=0, note=74, velocity=80, time=0),
    Message('note_on', channel=0, note=66, velocity=0, time=227),
    Message('note_on', channel=0, note=69, velocity=0, time=0),
    Message('note_on', channel=0, note=74, velocity=0, time=0),
    Message('note_on', channel=0, note=64, velocity=80, time=13),
    Message('note_on', channel=0, note=67, velocity=80, time=0),
    Message('note_on', channel=0, note=64, velocity=0, time=0),
    Message('note_on', channel=0, note=67, velocity=0, time=227),
    Message('note_on', channel=0, note=67, velocity=80, time=13),
    Message('note_on', channel=0, note=67, velocity=0, time=113),
    Message('note_on', channel=0, note=66, velocity=80, time=7),
    Message('note_on', channel=0, note=66, velocity=0, time=113),
    Message('note_on', channel=0, note=67, velocity=80, time=7),
    Message('note_on', channel=0, note=67, velocity=0, time=227),
    Message('note_on', channel=0, note=71, velocity=80, time=13),
    Message('note_on', channel=0, note=71, velocity=0, time=113),
    Message('note_on', channel=0, note=72, velocity=80, time=7),
    Message('note_on', channel=0, note=72, velocity=0, time=113),
    Message('note_on', channel=0, note=71, velocity=80, time=7),
    Message('note_on', channel=0, note=71, velocity=0, time=911),
    Message('note_on', channel=0, note=66, velocity=80, time=289),
    Message('note_on', channel=0, note=66, velocity=0, time=113),
    Message('note_on', channel=0, note=67, velocity=80, time=7),
    Message('note_on', channel=0, note=67, velocity=0, time=113),
    Message('note_on', channel=0, note=66, velocity=80, time=7),
    Message('note_on', channel=0, note=66, velocity=0, time=227),
    Message('note_on', channel=0, note=67, velocity=80, time=13),
    Message('note_on', channel=0, note=67, velocity=0, time=113),
    Message('note_on', channel=0, note=69, velocity=80, time=7),
    Message('note_on', channel=0, note=69, velocity=0, time=113),
    Message('note_on', channel=0, note=67, velocity=80, time=7),
    Message('note_on', channel=0, note=67, velocity=0, time=911),
    Message('note_on', channel=0, note=66, velocity=80, time=289),
    Message('note_on', channel=0, note=66, velocity=0, time=113),
    Message('note_on', channel=0, note=64, velocity=80, time=7),
    Message('note_on', channel=0, note=64, velocity=0, time=113),
    Message('note_on', channel=0, note=66, velocity=80, time=7),
    Message('note_on', channel=0, note=66, velocity=0, time=227),
    Message('note_on', channel=0, note=71, velocity=80, time=13),
    Message('note_on', channel=0, note=71, velocity=0, time=113),
    Message('note_on', channel=0, note=72, velocity=80, time=7),
    Message('note_on', channel=0, note=72, velocity=0, time=113),
    Message('note_on', channel=0, note=71, velocity=80, time=7),
    Message('note_on', channel=0, note=71, velocity=0, time=911),
    Message('note_on', channel=0, note=66, velocity=80, time=289),
    Message('note_on', channel=0, note=66, velocity=0, time=113),
    Message('note_on', channel=0, note=64, velocity=80, time=7),
    Message('note_on', channel=0, note=64, velocity=0, time=113),
    Message('note_on', channel=0, note=66, velocity=80, time=7),
    Message('note_on', channel=0, note=66, velocity=0, time=455),
    Message('note_on', channel=0, note=79, velocity=80, time=1225),
    Message('note_on', channel=0, note=79, velocity=0, time=113),
    Message('note_on', channel=0, note=78, velocity=80, time=7),
    Message('note_on', channel=0, note=78, velocity=0, time=113),
    Message('note_on', channel=0, note=79, velocity=80, time=7),
    Message('note_on', channel=0, note=79, velocity=0, time=227),
    Message('note_on', channel=0, note=83, velocity=80, time=13),
    Message('note_on', channel=0, note=83, velocity=0, time=113),
    Message('note_on', channel=0, note=84, velocity=80, time=7),
    Message('note_on', channel=0, note=84, velocity=0, time=113),
    Message('note_on', channel=0, note=83, velocity=80, time=7),
    Message('note_on', channel=0, note=83, velocity=0, time=911),
    Message('note_on', channel=0, note=78, velocity=80, time=289),
    Message('note_on', channel=0, note=78, velocity=0, time=113),
    Message('note_on', channel=0, note=79, velocity=80, time=7),
    Message('note_on', channel=0, note=79, velocity=0, time=113),
    Message('note_on', channel=0, note=78, velocity=80, time=7),
    Message('note_on', channel=0, note=78, velocity=0, time=227),
    Message('note_on', channel=0, note=79, velocity=80, time=13),
    Message('note_on', channel=0, note=79, velocity=0, time=113),
    Message('note_on', channel=0, note=81, velocity=80, time=7),
    Message('note_on', channel=0, note=81, velocity=0, time=113),
    Message('note_on', channel=0, note=79, velocity=80, time=7),
    Message('note_on', channel=0, note=79, velocity=0, time=911),
    Message('note_on', channel=0, note=78, velocity=80, time=289),
    Message('note_on', channel=0, note=78, velocity=0, time=113),
    Message('note_on', channel=0, note=76, velocity=80, time=7),
    Message('note_on', channel=0, note=76, velocity=0, time=113),
    Message('note_on', channel=0, note=78, velocity=80, time=7),
    Message('note_on', channel=0, note=78, velocity=0, time=227),
    Message('note_on', channel=0, note=83, velocity=80, time=13),
    Message('note_on', channel=0, note=83, velocity=0, time=113),
    Message('note_on', channel=0, note=84, velocity=80, time=7),
    Message('note_on', channel=0, note=84, velocity=0, time=113),
    Message('note_on', channel=0, note=83, velocity=80, time=7),
    Message('note_on', channel=0, note=83, velocity=0, time=911),
    Message('note_on', channel=0, note=74, velocity=80, time=49),
    Message('note_on', channel=0, note=74, velocity=0, time=113),
    Message('note_on', channel=0, note=76, velocity=80, time=7),
    Message('note_on', channel=0, note=76, velocity=0, time=113),
    Message('note_on', channel=0, note=78, velocity=80, time=7),
    Message('note_on', channel=0, note=78, velocity=0, time=113),
    Message('note_on', channel=0, note=76, velocity=80, time=7),
    Message('note_on', channel=0, note=76, velocity=0, time=113),
    Message('note_on', channel=0, note=78, velocity=80, time=7),
    Message('note_on', channel=0, note=78, velocity=0, time=455),
    Message('note_on', channel=0, note=83, velocity=80, time=985),
    Message('note_on', channel=0, note=91, velocity=80, time=0),
    Message('note_on', channel=0, note=83, velocity=0, time=683),
    Message('note_on', channel=0, note=91, velocity=0, time=0),
    Message('note_on', channel=0, note=79, velocity=80, time=37),
    Message('note_on', channel=0, note=88, velocity=80, time=0),
    Message('note_on', channel=0, note=79, velocity=0, time=683),
    Message('note_on', channel=0, note=88, velocity=0, time=0),
    Message('note_on', channel=0, note=83, velocity=80, time=517),
    Message('note_on', channel=0, note=91, velocity=80, time=0),
    Message('note_on', channel=0, note=83, velocity=0, time=683),
    Message('note_on', channel=0, note=91, velocity=0, time=0),
    Message('note_on', channel=0, note=79, velocity=80, time=37),
    Message('note_on', channel=0, note=86, velocity=80, time=0),
    Message('note_on', channel=0, note=79, velocity=0, time=683),
    Message('note_on', channel=0, note=86, velocity=0, time=0),
    Message('note_on', channel=0, note=83, velocity=80, time=517),
    Message('note_on', channel=0, note=90, velocity=80, time=0),
    Message('note_on', channel=0, note=83, velocity=0, time=683),
    Message('note_on', channel=0, note=90, velocity=0, time=0),
    Message('note_on', channel=0, note=78, velocity=80, time=37),
    Message('note_on', channel=0, note=86, velocity=80, time=0),
    Message('note_on', channel=0, note=78, velocity=0, time=683),
    Message('note_on', channel=0, note=86, velocity=0, time=0),
    Message('note_on', channel=0, note=88, velocity=80, time=397),
    Message('note_on', channel=0, note=88, velocity=0, time=113),
    Message('note_on', channel=0, note=81, velocity=80, time=7),
    Message('note_on', channel=0, note=90, velocity=80, time=0),
    Message('note_on', channel=0, note=81, velocity=0, time=683),
    Message('note_on', channel=0, note=90, velocity=0, time=0),
    Message('note_on', channel=0, note=78, velocity=80, time=37),
    Message('note_on', channel=0, note=86, velocity=80, time=0),
    Message('note_on', channel=0, note=78, velocity=0, time=683),
    Message('note_on', channel=0, note=86, velocity=0, time=0),
    Message('note_on', channel=0, note=83, velocity=80, time=517),
    Message('note_on', channel=0, note=91, velocity=80, time=0),
    Message('note_on', channel=0, note=83, velocity=0, time=683),
    Message('note_on', channel=0, note=91, velocity=0, time=0),
    Message('note_on', channel=0, note=79, velocity=80, time=37),
    Message('note_on', channel=0, note=88, velocity=80, time=0),
    Message('note_on', channel=0, note=79, velocity=0, time=683),
    Message('note_on', channel=0, note=88, velocity=0, time=0),
    Message('note_on', channel=0, note=83, velocity=80, time=517),
    Message('note_on', channel=0, note=91, velocity=80, time=0),
    Message('note_on', channel=0, note=83, velocity=0, time=683),
    Message('note_on', channel=0, note=91, velocity=0, time=0),
    Message('note_on', channel=0, note=79, velocity=80, time=37),
    Message('note_on', channel=0, note=86, velocity=80, time=0),
    Message('note_on', channel=0, note=79, velocity=0, time=683),
    Message('note_on', channel=0, note=86, velocity=0, time=0),
    Message('note_on', channel=0, note=83, velocity=80, time=517),
    Message('note_on', channel=0, note=90, velocity=80, time=0),
    Message('note_on', channel=0, note=83, velocity=0, time=683),
    Message('note_on', channel=0, note=90, velocity=0, time=0),
    Message('note_on', channel=0, note=78, velocity=80, time=37),
    Message('note_on', channel=0, note=86, velocity=80, time=0),
    Message('note_on', channel=0, note=78, velocity=0, time=683),
    Message('note_on', channel=0, note=86, velocity=0, time=0),
    Message('note_on', channel=0, note=88, velocity=80, time=397),
    Message('note_on', channel=0, note=88, velocity=0, time=113),
    Message('note_on', channel=0, note=81, velocity=80, time=7),
    Message('note_on', channel=0, note=90, velocity=80, time=0),
    Message('note_on', channel=0, note=81, velocity=0, time=683),
    Message('note_on', channel=0, note=90, velocity=0, time=0),
    Message('note_on', channel=0, note=78, velocity=80, time=37),
    Message('note_on', channel=0, note=86, velocity=80, time=0),
    Message('note_on', channel=0, note=78, velocity=0, time=683),
    Message('note_on', channel=0, note=86, velocity=0, time=0),
    Message('note_on', channel=0, note=83, velocity=80, time=517),
    Message('note_on', channel=0, note=83, velocity=0, time=113),
    Message('note_on', channel=0, note=88, velocity=80, time=7),
    Message('note_on', channel=0, note=88, velocity=0, time=113),
    Message('note_on', channel=0, note=95, velocity=80, time=7),
    Message('note_on', channel=0, note=95, velocity=0, time=113),
    Message('note_on', channel=0, note=83, velocity=80, time=7),
    Message('note_on', channel=0, note=83, velocity=0, time=113),
    Message('note_on', channel=0, note=88, velocity=80, time=7),
    Message('note_on', channel=0, note=88, velocity=0, time=113),
    Message('note_on', channel=0, note=95, velocity=80, time=7),
    Message('note_on', channel=0, note=95, velocity=0, time=113),
    Message('note_on', channel=0, note=83, velocity=80, time=7),
    Message('note_on', channel=0, note=83, velocity=0, time=113),
    Message('note_on', channel=0, note=88, velocity=80, time=7),
    Message('note_on', channel=0, note=88, velocity=0, time=113),
    Message('note_on', channel=0, note=95, velocity=80, time=7),
    Message('note_on', channel=0, note=95, velocity=0, time=113),
    Message('note_on', channel=0, note=83, velocity=80, time=7),
    Message('note_on', channel=0, note=83, velocity=0, time=113),
    Message('note_on', channel=0, note=88, velocity=80, time=7),
    Message('note_on', channel=0, note=88, velocity=0, time=113),
    Message('note_on', channel=0, note=95, velocity=80, time=7),
    Message('note_on', channel=0, note=95, velocity=0, time=113),
    Message('note_on', channel=0, note=83, velocity=80, time=7),
    Message('note_on', channel=0, note=83, velocity=0, time=113),
    Message('note_on', channel=0, note=88, velocity=80, time=7),
    Message('note_on', channel=0, note=88, velocity=0, time=113),
    Message('note_on', channel=0, note=84, velocity=80, time=7),
    Message('note_on', channel=0, note=84, velocity=0, time=113),
    Message('note_on', channel=0, note=88, velocity=80, time=7),
    Message('note_on', channel=0, note=88, velocity=0, time=113),
    Message('note_on', channel=0, note=83, velocity=80, time=7),
    Message('note_on', channel=0, note=83, velocity=0, time=113),
    Message('note_on', channel=0, note=86, velocity=80, time=7),
    Message('note_on', channel=0, note=86, velocity=0, time=113),
    Message('note_on', channel=0, note=95, velocity=80, time=7),
    Message('note_on', channel=0, note=95, velocity=0, time=113),
    Message('note_on', channel=0, note=83, velocity=80, time=7),
    Message('note_on', channel=0, note=83, velocity=0, time=113),
    Message('note_on', channel=0, note=86, velocity=80, time=7),
    Message('note_on', channel=0, note=86, velocity=0, time=113),
    Message('note_on', channel=0, note=95, velocity=80, time=7),
    Message('note_on', channel=0, note=95, velocity=0, time=113),
    Message('note_on', channel=0, note=83, velocity=80, time=7),
    Message('note_on', channel=0, note=83, velocity=0, time=113),
    Message('note_on', channel=0, note=86, velocity=80, time=7),
    Message('note_on', channel=0, note=86, velocity=0, time=113),
    Message('note_on', channel=0, note=95, velocity=80, time=7),
    Message('note_on', channel=0, note=95, velocity=0, time=113),
    Message('note_on', channel=0, note=83, velocity=80, time=7),
    Message('note_on', channel=0, note=83, velocity=0, time=113),
    Message('note_on', channel=0, note=86, velocity=80, time=7),
    Message('note_on', channel=0, note=86, velocity=0, time=113),
    Message('note_on', channel=0, note=95, velocity=80, time=7),
    Message('note_on', channel=0, note=95, velocity=0, time=113),
    Message('note_on', channel=0, note=83, velocity=80, time=7),
    Message('note_on', channel=0, note=83, velocity=0, time=113),
    Message('note_on', channel=0, note=86, velocity=80, time=7),
    Message('note_on', channel=0, note=86, velocity=0, time=113),
    Message('note_on', channel=0, note=81, velocity=80, time=7),
    Message('note_on', channel=0, note=81, velocity=0, time=113),
    Message('note_on', channel=0, note=86, velocity=80, time=7),
    Message('note_on', channel=0, note=86, velocity=0, time=113),
    Message('note_on', channel=0, note=78, velocity=80, time=7),
    Message('note_on', channel=0, note=78, velocity=0, time=113),
    Message('note_on', channel=0, note=83, velocity=80, time=7),
    Message('note_on', channel=0, note=83, velocity=0, time=113),
    Message('note_on', channel=0, note=90, velocity=80, time=7),
    Message('note_on', channel=0, note=90, velocity=0, time=113),
    Message('note_on', channel=0, note=78, velocity=80, time=7),
    Message('note_on', channel=0, note=78, velocity=0, time=113),
    Message('note_on', channel=0, note=83, velocity=80, time=7),
    Message('note_on', channel=0, note=83, velocity=0, time=113),
    Message('note_on', channel=0, note=90, velocity=80, time=7),
    Message('note_on', channel=0, note=90, velocity=0, time=113),
    Message('note_on', channel=0, note=78, velocity=80, time=7),
    Message('note_on', channel=0, note=78, velocity=0, time=113),
    Message('note_on', channel=0, note=83, velocity=80, time=7),
    Message('note_on', channel=0, note=83, velocity=0, time=113),
    Message('note_on', channel=0, note=90, velocity=80, time=7),
    Message('note_on', channel=0, note=90, velocity=0, time=113),
    Message('note_on', channel=0, note=78, velocity=80, time=7),
    Message('note_on', channel=0, note=78, velocity=0, time=113),
    Message('note_on', channel=0, note=83, velocity=80, time=7),
    Message('note_on', channel=0, note=83, velocity=0, time=113),
    Message('note_on', channel=0, note=90, velocity=80, time=7),
    Message('note_on', channel=0, note=90, velocity=0, time=113),
    Message('note_on', channel=0, note=78, velocity=80, time=7),
    Message('note_on', channel=0, note=78, velocity=0, time=113),
    Message('note_on', channel=0, note=83, velocity=80, time=7),
    Message('note_on', channel=0, note=83, velocity=0, time=113),
    Message('note_on', channel=0, note=79, velocity=80, time=7),
    Message('note_on', channel=0, note=79, velocity=0, time=113),
    Message('note_on', channel=0, note=83, velocity=80, time=7),
    Message('note_on', channel=0, note=83, velocity=0, time=113),
    Message('note_on', channel=0, note=81, velocity=80, time=7),
    Message('note_on', channel=0, note=81, velocity=0, time=113),
    Message('note_on', channel=0, note=86, velocity=80, time=7),
    Message('note_on', channel=0, note=86, velocity=0, time=113),
    Message('note_on', channel=0, note=93, velocity=80, time=7),
    Message('note_on', channel=0, note=93, velocity=0, time=113),
    Message('note_on', channel=0, note=81, velocity=80, time=7),
    Message('note_on', channel=0, note=81, velocity=0, time=113),
    Message('note_on', channel=0, note=86, velocity=80, time=7),
    Message('note_on', channel=0, note=86, velocity=0, time=113),
    Message('note_on', channel=0, note=93, velocity=80, time=7),
    Message('note_on', channel=0, note=93, velocity=0, time=113),
    Message('note_on', channel=0, note=81, velocity=80, time=7),
    Message('note_on', channel=0, note=81, velocity=0, time=113),
    Message('note_on', channel=0, note=86, velocity=80, time=7),
    Message('note_on', channel=0, note=86, velocity=0, time=113),
    Message('note_on', channel=0, note=93, velocity=80, time=7),
    Message('note_on', channel=0, note=93, velocity=0, time=113),
    Message('note_on', channel=0, note=81, velocity=80, time=7),
    Message('note_on', channel=0, note=81, velocity=0, time=113),
    Message('note_on', channel=0, note=86, velocity=80, time=7),
    Message('note_on', channel=0, note=86, velocity=0, time=113),
    Message('note_on', channel=0, note=93, velocity=80, time=7),
    Message('note_on', channel=0, note=93, velocity=0, time=113),
    Message('note_on', channel=0, note=81, velocity=80, time=7),
    Message('note_on', channel=0, note=81, velocity=0, time=113),
    Message('note_on', channel=0, note=86, velocity=80, time=7),
    Message('note_on', channel=0, note=86, velocity=0, time=113),
    Message('note_on', channel=0, note=79, velocity=80, time=7),
    Message('note_on', channel=0, note=79, velocity=0, time=113),
    Message('note_on', channel=0, note=86, velocity=80, time=7),
    Message('note_on', channel=0, note=86, velocity=0, time=113),
    Message('note_on', channel=0, note=83, velocity=80, time=7),
    Message('note_on', channel=0, note=83, velocity=0, time=113),
    Message('note_on', channel=0, note=88, velocity=80, time=7),
    Message('note_on', channel=0, note=88, velocity=0, time=113),
    Message('note_on', channel=0, note=95, velocity=80, time=7),
    Message('note_on', channel=0, note=95, velocity=0, time=113),
    Message('note_on', channel=0, note=83, velocity=80, time=7),
    Message('note_on', channel=0, note=83, velocity=0, time=113),
    Message('note_on', channel=0, note=88, velocity=80, time=7),
    Message('note_on', channel=0, note=88, velocity=0, time=113),
    Message('note_on', channel=0, note=95, velocity=80, time=7),
    Message('note_on', channel=0, note=95, velocity=0, time=113),
    Message('note_on', channel=0, note=83, velocity=80, time=7),
    Message('note_on', channel=0, note=83, velocity=0, time=113),
    Message('note_on', channel=0, note=88, velocity=80, time=7),
    Message('note_on', channel=0, note=88, velocity=0, time=113),
    Message('note_on', channel=0, note=95, velocity=80, time=7),
    Message('note_on', channel=0, note=95, velocity=0, time=113),
    Message('note_on', channel=0, note=83, velocity=80, time=7),
    Message('note_on', channel=0, note=83, velocity=0, time=113),
    Message('note_on', channel=0, note=88, velocity=80, time=7),
    Message('note_on', channel=0, note=88, velocity=0, time=113),
    Message('note_on', channel=0, note=95, velocity=80, time=7),
    Message('note_on', channel=0, note=95, velocity=0, time=113),
    Message('note_on', channel=0, note=83, velocity=80, time=7),
    Message('note_on', channel=0, note=83, velocity=0, time=113),
    Message('note_on', channel=0, note=88, velocity=80, time=7),
    Message('note_on', channel=0, note=88, velocity=0, time=113),
    Message('note_on', channel=0, note=84, velocity=80, time=7),
    Message('note_on', channel=0, note=84, velocity=0, time=113),
    Message('note_on', channel=0, note=88, velocity=80, time=7),
    Message('note_on', channel=0, note=88, velocity=0, time=113),
    Message('note_on', channel=0, note=83, velocity=80, time=7),
    Message('note_on', channel=0, note=83, velocity=0, time=113),
    Message('note_on', channel=0, note=86, velocity=80, time=7),
    Message('note_on', channel=0, note=86, velocity=0, time=113),
    Message('note_on', channel=0, note=95, velocity=80, time=7),
    Message('note_on', channel=0, note=95, velocity=0, time=113),
    Message('note_on', channel=0, note=83, velocity=80, time=7),
    Message('note_on', channel=0, note=83, velocity=0, time=113),
    Message('note_on', channel=0, note=86, velocity=80, time=7),
    Message('note_on', channel=0, note=86, velocity=0, time=113),
    Message('note_on', channel=0, note=95, velocity=80, time=7),
    Message('note_on', channel=0, note=95, velocity=0, time=113),
    Message('note_on', channel=0, note=83, velocity=80, time=7),
    Message('note_on', channel=0, note=83, velocity=0, time=113),
    Message('note_on', channel=0, note=86, velocity=80, time=7),
    Message('note_on', channel=0, note=86, velocity=0, time=113),
    Message('note_on', channel=0, note=95, velocity=80, time=7),
    Message('note_on', channel=0, note=95, velocity=0, time=113),
    Message('note_on', channel=0, note=83, velocity=80, time=7),
    Message('note_on', channel=0, note=83, velocity=0, time=113),
    Message('note_on', channel=0, note=86, velocity=80, time=7),
    Message('note_on', channel=0, note=86, velocity=0, time=113),
    Message('note_on', channel=0, note=95, velocity=80, time=7),
    Message('note_on', channel=0, note=95, velocity=0, time=113),
    Message('note_on', channel=0, note=83, velocity=80, time=7),
    Message('note_on', channel=0, note=83, velocity=0, time=113),
    Message('note_on', channel=0, note=86, velocity=80, time=7),
    Message('note_on', channel=0, note=86, velocity=0, time=113),
    Message('note_on', channel=0, note=81, velocity=80, time=7),
    Message('note_on', channel=0, note=81, velocity=0, time=113),
    Message('note_on', channel=0, note=86, velocity=80, time=7),
    Message('note_on', channel=0, note=86, velocity=0, time=113),
    Message('note_on', channel=0, note=78, velocity=80, time=7),
    Message('note_on', channel=0, note=78, velocity=0, time=113),
    Message('note_on', channel=0, note=83, velocity=80, time=7),
    Message('note_on', channel=0, note=83, velocity=0, time=113),
    Message('note_on', channel=0, note=90, velocity=80, time=7),
    Message('note_on', channel=0, note=90, velocity=0, time=113),
    Message('note_on', channel=0, note=78, velocity=80, time=7),
    Message('note_on', channel=0, note=78, velocity=0, time=113),
    Message('note_on', channel=0, note=83, velocity=80, time=7),
    Message('note_on', channel=0, note=83, velocity=0, time=113),
    Message('note_on', channel=0, note=90, velocity=80, time=7),
    Message('note_on', channel=0, note=90, velocity=0, time=113),
    Message('note_on', channel=0, note=78, velocity=80, time=7),
    Message('note_on', channel=0, note=78, velocity=0, time=113),
    Message('note_on', channel=0, note=83, velocity=80, time=7),
    Message('note_on', channel=0, note=83, velocity=0, time=113),
    Message('note_on', channel=0, note=90, velocity=80, time=7),
    Message('note_on', channel=0, note=90, velocity=0, time=113),
    Message('note_on', channel=0, note=78, velocity=80, time=7),
    Message('note_on', channel=0, note=78, velocity=0, time=113),
    Message('note_on', channel=0, note=83, velocity=80, time=7),
    Message('note_on', channel=0, note=83, velocity=0, time=113),
    Message('note_on', channel=0, note=90, velocity=80, time=7),
    Message('note_on', channel=0, note=90, velocity=0, time=113),
    Message('note_on', channel=0, note=78, velocity=80, time=7),
    Message('note_on', channel=0, note=78, velocity=0, time=113),
    Message('note_on', channel=0, note=83, velocity=80, time=7),
    Message('note_on', channel=0, note=83, velocity=0, time=113),
    Message('note_on', channel=0, note=79, velocity=80, time=7),
    Message('note_on', channel=0, note=79, velocity=0, time=113),
    Message('note_on', channel=0, note=83, velocity=80, time=7),
    Message('note_on', channel=0, note=83, velocity=0, time=113),
    Message('note_on', channel=0, note=81, velocity=80, time=7),
    Message('note_on', channel=0, note=81, velocity=0, time=113),
    Message('note_on', channel=0, note=86, velocity=80, time=7),
    Message('note_on', channel=0, note=86, velocity=0, time=113),
    Message('note_on', channel=0, note=93, velocity=80, time=7),
    Message('note_on', channel=0, note=93, velocity=0, time=113),
    Message('note_on', channel=0, note=81, velocity=80, time=7),
    Message('note_on', channel=0, note=81, velocity=0, time=113),
    Message('note_on', channel=0, note=86, velocity=80, time=7),
    Message('note_on', channel=0, note=86, velocity=0, time=113),
    Message('note_on', channel=0, note=93, velocity=80, time=7),
    Message('note_on', channel=0, note=93, velocity=0, time=113),
    Message('note_on', channel=0, note=81, velocity=80, time=7),
    Message('note_on', channel=0, note=81, velocity=0, time=113),
    Message('note_on', channel=0, note=86, velocity=80, time=7),
    Message('note_on', channel=0, note=86, velocity=0, time=113),
    Message('note_on', channel=0, note=93, velocity=80, time=7),
    Message('note_on', channel=0, note=93, velocity=0, time=113),
    Message('note_on', channel=0, note=81, velocity=80, time=7),
    Message('note_on', channel=0, note=81, velocity=0, time=113),
    Message('note_on', channel=0, note=86, velocity=80, time=7),
    Message('note_on', channel=0, note=86, velocity=0, time=113),
    Message('note_on', channel=0, note=93, velocity=80, time=7),
    Message('note_on', channel=0, note=93, velocity=0, time=113),
    Message('note_on', channel=0, note=81, velocity=80, time=7),
    Message('note_on', channel=0, note=81, velocity=0, time=113),
    Message('note_on', channel=0, note=86, velocity=80, time=7),
    Message('note_on', channel=0, note=86, velocity=0, time=113),
    Message('note_on', channel=0, note=91, velocity=80, time=7),
    Message('note_on', channel=0, note=91, velocity=0, time=227),
    Message('note_on', channel=0, note=79, velocity=80, time=13),
    Message('note_on', channel=0, note=83, velocity=80, time=63),
    Message('note_on', channel=0, note=88, velocity=80, time=63),
    Message('note_on', channel=0, note=83, velocity=0, time=1792),
    Message('note_on', channel=0, note=88, velocity=0, time=0),
    Message('note_on', channel=0, note=79, velocity=0, time=1),
    MetaMessage('end_of_track', time=1)]),
  MidiTrack([
    MetaMessage('key_signature', key='G', time=0),
    MetaMessage('midi_port', port=0, time=0),
    Message('note_on', channel=0, note=52, velocity=80, time=0),
    Message('control_change', channel=0, control=64, value=127, time=2),
    Message('note_on', channel=0, note=52, velocity=0, time=225),
    Message('note_on', channel=0, note=59, velocity=80, time=13),
    Message('note_on', channel=0, note=59, velocity=0, time=227),
    Message('note_on', channel=0, note=55, velocity=80, time=13),
    Message('note_on', channel=0, note=64, velocity=80, time=0),
    Message('note_on', channel=0, note=55, velocity=0, time=227),
    Message('note_on', channel=0, note=64, velocity=0, time=0),
    Message('note_on', channel=0, note=59, velocity=80, time=13),
    Message('note_on', channel=0, note=59, velocity=0, time=227),
    Message('note_on', channel=0, note=52, velocity=80, time=13),
    Message('note_on', channel=0, note=52, velocity=0, time=227),
    Message('note_on', channel=0, note=59, velocity=80, time=13),
    Message('note_on', channel=0, note=59, velocity=0, time=227),
    Message('note_on', channel=0, note=55, velocity=80, time=13),
    Message('note_on', channel=0, note=64, velocity=80, time=0),
    Message('note_on', channel=0, note=55, velocity=0, time=227),
    Message('note_on', channel=0, note=64, velocity=0, time=0),
    Message('note_on', channel=0, note=59, velocity=80, time=13),
    Message('note_on', channel=0, note=59, velocity=0, time=227),
    Message('note_on', channel=0, note=50, velocity=80, time=13),
    Message('note_on', channel=0, note=62, velocity=80, time=0),
    Message('control_change', channel=0, control=64, value=0, time=1),
    Message('control_change', channel=0, control=64, value=127, time=1),
    Message('note_on', channel=0, note=50, velocity=0, time=225),
    Message('note_on', channel=0, note=62, velocity=0, time=0),
    Message('note_on', channel=0, note=59, velocity=80, time=13),
    Message('note_on', channel=0, note=59, velocity=0, time=227),
    Message('note_on', channel=0, note=55, velocity=80, time=13),
    Message('note_on', channel=0, note=62, velocity=80, time=0),
    Message('note_on', channel=0, note=55, velocity=0, time=227),
    Message('note_on', channel=0, note=62, velocity=0, time=0),
    Message('note_on', channel=0, note=59, velocity=80, time=13),
    Message('note_on', channel=0, note=59, velocity=0, time=227),
    Message('note_on', channel=0, note=50, velocity=80, time=13),
    Message('note_on', channel=0, note=62, velocity=80, time=0),
    Message('note_on', channel=0, note=50, velocity=0, time=227),
    Message('note_on', channel=0, note=62, velocity=0, time=0),
    Message('note_on', channel=0, note=59, velocity=80, time=13),
    Message('note_on', channel=0, note=59, velocity=0, time=227),
    Message('note_on', channel=0, note=55, velocity=80, time=13),
    Message('note_on', channel=0, note=62, velocity=80, time=0),
    Message('note_on', channel=0, note=55, velocity=0, time=227),
    Message('note_on', channel=0, note=62, velocity=0, time=0),
    Message('note_on', channel=0, note=59, velocity=80, time=13),
    Message('note_on', channel=0, note=59, velocity=0, time=227),
    Message('note_on', channel=0, note=50, velocity=80, time=13),
    Message('note_on', channel=0, note=62, velocity=80, time=0),
    Message('control_change', channel=0, control=64, value=0, time=1),
    Message('control_change', channel=0, control=64, value=127, time=1),
    Message('note_on', channel=0, note=50, velocity=0, time=225),
    Message('note_on', channel=0, note=62, velocity=0, time=0),
    Message('note_on', channel=0, note=59, velocity=80, time=13),
    Message('note_on', channel=0, note=59, velocity=0, time=227),
    Message('note_on', channel=0, note=54, velocity=80, time=13),
    Message('note_on', channel=0, note=62, velocity=80, time=0),
    Message('note_on', channel=0, note=54, velocity=0, time=227),
    Message('note_on', channel=0, note=62, velocity=0, time=0),
    Message('note_on', channel=0, note=59, velocity=80, time=13),
    Message('note_on', channel=0, note=59, velocity=0, time=227),
    Message('note_on', channel=0, note=50, velocity=80, time=13),
    Message('note_on', channel=0, note=62, velocity=80, time=0),
    Message('note_on', channel=0, note=50, velocity=0, time=227),
    Message('note_on', channel=0, note=62, velocity=0, time=0),
    Message('note_on', channel=0, note=59, velocity=80, time=13),
    Message('note_on', channel=0, note=59, velocity=0, time=227),
    Message('note_on', channel=0, note=54, velocity=80, time=13),
    Message('note_on', channel=0, note=62, velocity=80, time=0),
    Message('note_on', channel=0, note=54, velocity=0, time=227),
    Message('note_on', channel=0, note=62, velocity=0, time=0),
    Message('note_on', channel=0, note=59, velocity=80, time=13),
    Message('note_on', channel=0, note=59, velocity=0, time=227),
    Message('note_on', channel=0, note=50, velocity=80, time=13),
    Message('note_on', channel=0, note=62, velocity=80, time=0),
    Message('control_change', channel=0, control=64, value=0, time=1),
    Message('control_change', channel=0, control=64, value=127, time=1),
    Message('note_on', channel=0, note=50, velocity=0, time=225),
    Message('note_on', channel=0, note=62, velocity=0, time=0),
    Message('note_on', channel=0, note=57, velocity=80, time=13),
    Message('note_on', channel=0, note=57, velocity=0, time=227),
    Message('note_on', channel=0, note=54, velocity=80, time=13),
    Message('note_on', channel=0, note=62, velocity=80, time=0),
    Message('note_on', channel=0, note=54, velocity=0, time=227),
    Message('note_on', channel=0, note=62, velocity=0, time=0),
    Message('note_on', channel=0, note=57, velocity=80, time=13),
    Message('note_on', channel=0, note=57, velocity=0, time=227),
    Message('note_on', channel=0, note=50, velocity=80, time=13),
    Message('note_on', channel=0, note=62, velocity=80, time=0),
    Message('note_on', channel=0, note=50, velocity=0, time=227),
    Message('note_on', channel=0, note=62, velocity=0, time=0),
    Message('note_on', channel=0, note=57, velocity=80, time=13),
    Message('note_on', channel=0, note=57, velocity=0, time=227),
    Message('note_on', channel=0, note=54, velocity=80, time=13),
    Message('note_on', channel=0, note=62, velocity=80, time=0),
    Message('note_on', channel=0, note=54, velocity=0, time=227),
    Message('note_on', channel=0, note=62, velocity=0, time=0),
    Message('note_on', channel=0, note=57, velocity=80, time=13),
    Message('note_on', channel=0, note=57, velocity=0, time=227),
    Message('note_on', channel=0, note=52, velocity=80, time=13),
    Message('note_on', channel=0, note=64, velocity=80, time=0),
    Message('control_change', channel=0, control=64, value=0, time=1),
    Message('control_change', channel=0, control=64, value=127, time=1),
    Message('note_on', channel=0, note=52, velocity=0, time=225),
    Message('note_on', channel=0, note=64, velocity=0, time=0),
    Message('note_on', channel=0, note=59, velocity=80, time=13),
    Message('note_on', channel=0, note=59, velocity=0, time=227),
    Message('note_on', channel=0, note=55, velocity=80, time=13),
    Message('note_on', channel=0, note=64, velocity=80, time=0),
    Message('note_on', channel=0, note=55, velocity=0, time=227),
    Message('note_on', channel=0, note=64, velocity=0, time=0),
    Message('note_on', channel=0, note=59, velocity=80, time=13),
    Message('note_on', channel=0, note=59, velocity=0, time=227),
    Message('note_on', channel=0, note=52, velocity=80, time=13),
    Message('note_on', channel=0, note=64, velocity=80, time=0),
    Message('note_on', channel=0, note=52, velocity=0, time=227),
    Message('note_on', channel=0, note=64, velocity=0, time=0),
    Message('note_on', channel=0, note=59, velocity=80, time=13),
    Message('note_on', channel=0, note=59, velocity=0, time=227),
    Message('note_on', channel=0, note=55, velocity=80, time=13),
    Message('note_on', channel=0, note=64, velocity=80, time=0),
    Message('note_on', channel=0, note=55, velocity=0, time=227),
    Message('note_on', channel=0, note=64, velocity=0, time=0),
    Message('note_on', channel=0, note=59, velocity=80, time=13),
    Message('note_on', channel=0, note=59, velocity=0, time=227),
    Message('note_on', channel=0, note=50, velocity=80, time=13),
    Message('note_on', channel=0, note=62, velocity=80, time=0),
    Message('control_change', channel=0, control=64, value=0, time=1),
    Message('control_change', channel=0, control=64, value=127, time=1),
    Message('note_on', channel=0, note=50, velocity=0, time=225),
    Message('note_on', channel=0, note=62, velocity=0, time=0),
    Message('note_on', channel=0, note=59, velocity=80, time=13),
    Message('note_on', channel=0, note=59, velocity=0, time=227),
    Message('note_on', channel=0, note=55, velocity=80, time=13),
    Message('note_on', channel=0, note=62, velocity=80, time=0),
    Message('note_on', channel=0, note=55, velocity=0, time=227),
    Message('note_on', channel=0, note=62, velocity=0, time=0),
    Message('note_on', channel=0, note=59, velocity=80, time=13),
    Message('note_on', channel=0, note=59, velocity=0, time=227),
    Message('note_on', channel=0, note=50, velocity=80, time=13),
    Message('note_on', channel=0, note=62, velocity=80, time=0),
    Message('note_on', channel=0, note=50, velocity=0, time=227),
    Message('note_on', channel=0, note=62, velocity=0, time=0),
    Message('note_on', channel=0, note=59, velocity=80, time=13),
    Message('note_on', channel=0, note=59, velocity=0, time=227),
    Message('note_on', channel=0, note=55, velocity=80, time=13),
    Message('note_on', channel=0, note=62, velocity=80, time=0),
    Message('note_on', channel=0, note=55, velocity=0, time=227),
    Message('note_on', channel=0, note=62, velocity=0, time=0),
    Message('note_on', channel=0, note=59, velocity=80, time=13),
    Message('note_on', channel=0, note=59, velocity=0, time=227),
    Message('note_on', channel=0, note=50, velocity=80, time=13),
    Message('note_on', channel=0, note=62, velocity=80, time=0),
    Message('control_change', channel=0, control=64, value=0, time=1),
    Message('control_change', channel=0, control=64, value=127, time=1),
    Message('note_on', channel=0, note=50, velocity=0, time=225),
    Message('note_on', channel=0, note=62, velocity=0, time=0),
    Message('note_on', channel=0, note=59, velocity=80, time=13),
    Message('note_on', channel=0, note=59, velocity=0, time=227),
    Message('note_on', channel=0, note=54, velocity=80, time=13),
    Message('note_on', channel=0, note=62, velocity=80, time=0),
    Message('note_on', channel=0, note=54, velocity=0, time=227),
    Message('note_on', channel=0, note=62, velocity=0, time=0),
    Message('note_on', channel=0, note=59, velocity=80, time=13),
    Message('note_on', channel=0, note=59, velocity=0, time=227),
    Message('note_on', channel=0, note=50, velocity=80, time=13),
    Message('note_on', channel=0, note=62, velocity=80, time=0),
    Message('note_on', channel=0, note=50, velocity=0, time=227),
    Message('note_on', channel=0, note=62, velocity=0, time=0),
    Message('note_on', channel=0, note=59, velocity=80, time=13),
    Message('note_on', channel=0, note=59, velocity=0, time=227),
    Message('note_on', channel=0, note=54, velocity=80, time=13),
    Message('note_on', channel=0, note=62, velocity=80, time=0),
    Message('note_on', channel=0, note=54, velocity=0, time=227),
    Message('note_on', channel=0, note=62, velocity=0, time=0),
    Message('note_on', channel=0, note=59, velocity=80, time=13),
    Message('note_on', channel=0, note=59, velocity=0, time=227),
    Message('note_on', channel=0, note=50, velocity=80, time=13),
    Message('note_on', channel=0, note=62, velocity=80, time=0),
    Message('control_change', channel=0, control=64, value=0, time=1),
    Message('control_change', channel=0, control=64, value=127, time=1),
    Message('note_on', channel=0, note=50, velocity=0, time=225),
    Message('note_on', channel=0, note=62, velocity=0, time=0),
    Message('note_on', channel=0, note=57, velocity=80, time=13),
    Message('note_on', channel=0, note=57, velocity=0, time=227),
    Message('note_on', channel=0, note=54, velocity=80, time=13),
    Message('note_on', channel=0, note=62, velocity=80, time=0),
    Message('note_on', channel=0, note=54, velocity=0, time=227),
    Message('note_on', channel=0, note=62, velocity=0, time=0),
    Message('note_on', channel=0, note=57, velocity=80, time=13),
    Message('note_on', channel=0, note=57, velocity=0, time=227),
    Message('note_on', channel=0, note=50, velocity=80, time=13),
    Message('note_on', channel=0, note=62, velocity=80, time=0),
    Message('note_on', channel=0, note=50, velocity=0, time=227),
    Message('note_on', channel=0, note=62, velocity=0, time=0),
    Message('note_on', channel=0, note=57, velocity=80, time=13),
    Message('note_on', channel=0, note=57, velocity=0, time=227),
    Message('note_on', channel=0, note=54, velocity=80, time=13),
    Message('note_on', channel=0, note=62, velocity=80, time=0),
    Message('note_on', channel=0, note=54, velocity=0, time=227),
    Message('note_on', channel=0, note=62, velocity=0, time=0),
    Message('note_on', channel=0, note=57, velocity=80, time=13),
    Message('note_on', channel=0, note=57, velocity=0, time=227),
    Message('note_on', channel=0, note=52, velocity=80, time=13),
    Message('note_on', channel=0, note=64, velocity=80, time=0),
    Message('control_change', channel=0, control=64, value=0, time=1),
    Message('control_change', channel=0, control=64, value=127, time=1),
    Message('note_on', channel=0, note=52, velocity=0, time=225),
    Message('note_on', channel=0, note=64, velocity=0, time=0),
    Message('note_on', channel=0, note=59, velocity=80, time=13),
    Message('note_on', channel=0, note=59, velocity=0, time=227),
    Message('note_on', channel=0, note=55, velocity=80, time=13),
    Message('note_on', channel=0, note=64, velocity=80, time=0),
    Message('note_on', channel=0, note=55, velocity=0, time=227),
    Message('note_on', channel=0, note=64, velocity=0, time=0),
    Message('note_on', channel=0, note=59, velocity=80, time=13),
    Message('note_on', channel=0, note=59, velocity=0, time=227),
    Message('note_on', channel=0, note=52, velocity=80, time=13),
    Message('note_on', channel=0, note=64, velocity=80, time=0),
    Message('note_on', channel=0, note=52, velocity=0, time=227),
    Message('note_on', channel=0, note=64, velocity=0, time=0),
    Message('note_on', channel=0, note=59, velocity=80, time=13),
    Message('note_on', channel=0, note=59, velocity=0, time=227),
    Message('note_on', channel=0, note=55, velocity=80, time=13),
    Message('note_on', channel=0, note=64, velocity=80, time=0),
    Message('note_on', channel=0, note=55, velocity=0, time=227),
    Message('note_on', channel=0, note=64, velocity=0, time=0),
    Message('note_on', channel=0, note=59, velocity=80, time=13),
    Message('note_on', channel=0, note=59, velocity=0, time=227),
    Message('note_on', channel=0, note=50, velocity=80, time=13),
    Message('note_on', channel=0, note=62, velocity=80, time=0),
    Message('control_change', channel=0, control=64, value=0, time=1),
    Message('control_change', channel=0, control=64, value=127, time=1),
    Message('note_on', channel=0, note=50, velocity=0, time=225),
    Message('note_on', channel=0, note=62, velocity=0, time=0),
    Message('note_on', channel=0, note=59, velocity=80, time=13),
    Message('note_on', channel=0, note=59, velocity=0, time=227),
    Message('note_on', channel=0, note=55, velocity=80, time=13),
    Message('note_on', channel=0, note=62, velocity=80, time=0),
    Message('note_on', channel=0, note=55, velocity=0, time=227),
    Message('note_on', channel=0, note=62, velocity=0, time=0),
    Message('note_on', channel=0, note=59, velocity=80, time=13),
    Message('note_on', channel=0, note=59, velocity=0, time=227),
    Message('note_on', channel=0, note=50, velocity=80, time=13),
    Message('note_on', channel=0, note=62, velocity=80, time=0),
    Message('note_on', channel=0, note=50, velocity=0, time=227),
    Message('note_on', channel=0, note=62, velocity=0, time=0),
    Message('note_on', channel=0, note=59, velocity=80, time=13),
    Message('note_on', channel=0, note=59, velocity=0, time=227),
    Message('note_on', channel=0, note=55, velocity=80, time=13),
    Message('note_on', channel=0, note=62, velocity=80, time=0),
    Message('note_on', channel=0, note=55, velocity=0, time=227),
    Message('note_on', channel=0, note=62, velocity=0, time=0),
    Message('note_on', channel=0, note=59, velocity=80, time=13),
    Message('note_on', channel=0, note=59, velocity=0, time=227),
    Message('note_on', channel=0, note=50, velocity=80, time=13),
    Message('note_on', channel=0, note=62, velocity=80, time=0),
    Message('control_change', channel=0, control=64, value=0, time=1),
    Message('control_change', channel=0, control=64, value=127, time=1),
    Message('note_on', channel=0, note=50, velocity=0, time=225),
    Message('note_on', channel=0, note=62, velocity=0, time=0),
    Message('note_on', channel=0, note=59, velocity=80, time=13),
    Message('note_on', channel=0, note=59, velocity=0, time=227),
    Message('note_on', channel=0, note=54, velocity=80, time=13),
    Message('note_on', channel=0, note=62, velocity=80, time=0),
    Message('note_on', channel=0, note=54, velocity=0, time=227),
    Message('note_on', channel=0, note=62, velocity=0, time=0),
    Message('note_on', channel=0, note=59, velocity=80, time=13),
    Message('note_on', channel=0, note=59, velocity=0, time=227),
    Message('note_on', channel=0, note=50, velocity=80, time=13),
    Message('note_on', channel=0, note=62, velocity=80, time=0),
    Message('note_on', channel=0, note=50, velocity=0, time=227),
    Message('note_on', channel=0, note=62, velocity=0, time=0),
    Message('note_on', channel=0, note=59, velocity=80, time=13),
    Message('note_on', channel=0, note=59, velocity=0, time=227),
    Message('note_on', channel=0, note=54, velocity=80, time=13),
    Message('note_on', channel=0, note=62, velocity=80, time=0),
    Message('note_on', channel=0, note=54, velocity=0, time=227),
    Message('note_on', channel=0, note=62, velocity=0, time=0),
    Message('note_on', channel=0, note=59, velocity=80, time=13),
    Message('note_on', channel=0, note=59, velocity=0, time=227),
    Message('note_on', channel=0, note=50, velocity=80, time=13),
    Message('note_on', channel=0, note=62, velocity=80, time=0),
    Message('control_change', channel=0, control=64, value=0, time=1),
    Message('control_change', channel=0, control=64, value=127, time=1),
    Message('note_on', channel=0, note=50, velocity=0, time=225),
    Message('note_on', channel=0, note=62, velocity=0, time=0),
    Message('note_on', channel=0, note=57, velocity=80, time=13),
    Message('note_on', channel=0, note=57, velocity=0, time=227),
    Message('note_on', channel=0, note=54, velocity=80, time=13),
    Message('note_on', channel=0, note=62, velocity=80, time=0),
    Message('note_on', channel=0, note=54, velocity=0, time=227),
    Message('note_on', channel=0, note=62, velocity=0, time=0),
    Message('note_on', channel=0, note=57, velocity=80, time=13),
    Message('note_on', channel=0, note=57, velocity=0, time=227),
    Message('note_on', channel=0, note=50, velocity=80, time=13),
    Message('note_on', channel=0, note=62, velocity=80, time=0),
    Message('note_on', channel=0, note=50, velocity=0, time=227),
    Message('note_on', channel=0, note=62, velocity=0, time=0),
    Message('note_on', channel=0, note=57, velocity=80, time=13),
    Message('note_on', channel=0, note=57, velocity=0, time=227),
    Message('note_on', channel=0, note=54, velocity=80, time=13),
    Message('note_on', channel=0, note=62, velocity=80, time=0),
    Message('note_on', channel=0, note=54, velocity=0, time=227),
    Message('note_on', channel=0, note=62, velocity=0, time=0),
    Message('note_on', channel=0, note=57, velocity=80, time=13),
    Message('note_on', channel=0, note=57, velocity=0, time=227),
    Message('note_on', channel=0, note=52, velocity=80, time=13),
    Message('note_on', channel=0, note=64, velocity=80, time=0),
    Message('control_change', channel=0, control=64, value=0, time=1),
    Message('control_change', channel=0, control=64, value=127, time=1),
    Message('note_on', channel=0, note=52, velocity=0, time=225),
    Message('note_on', channel=0, note=64, velocity=0, time=0),
    Message('note_on', channel=0, note=59, velocity=80, time=13),
    Message('note_on', channel=0, note=59, velocity=0, time=227),
    Message('note_on', channel=0, note=55, velocity=80, time=13),
    Message('note_on', channel=0, note=64, velocity=80, time=0),
    Message('note_on', channel=0, note=55, velocity=0, time=227),
    Message('note_on', channel=0, note=64, velocity=0, time=0),
    Message('note_on', channel=0, note=59, velocity=80, time=13),
    Message('note_on', channel=0, note=59, velocity=0, time=227),
    Message('note_on', channel=0, note=52, velocity=80, time=13),
    Message('note_on', channel=0, note=64, velocity=80, time=0),
    Message('note_on', channel=0, note=52, velocity=0, time=227),
    Message('note_on', channel=0, note=64, velocity=0, time=0),
    Message('note_on', channel=0, note=59, velocity=80, time=13),
    Message('note_on', channel=0, note=59, velocity=0, time=227),
    Message('note_on', channel=0, note=55, velocity=80, time=13),
    Message('note_on', channel=0, note=64, velocity=80, time=0),
    Message('note_on', channel=0, note=55, velocity=0, time=227),
    Message('note_on', channel=0, note=64, velocity=0, time=0),
    Message('note_on', channel=0, note=59, velocity=80, time=13),
    Message('note_on', channel=0, note=59, velocity=0, time=227),
    Message('note_on', channel=0, note=50, velocity=80, time=13),
    Message('note_on', channel=0, note=62, velocity=80, time=0),
    Message('control_change', channel=0, control=64, value=0, time=1),
    Message('control_change', channel=0, control=64, value=127, time=1),
    Message('note_on', channel=0, note=50, velocity=0, time=225),
    Message('note_on', channel=0, note=62, velocity=0, time=0),
    Message('note_on', channel=0, note=59, velocity=80, time=13),
    Message('note_on', channel=0, note=59, velocity=0, time=227),
    Message('note_on', channel=0, note=55, velocity=80, time=13),
    Message('note_on', channel=0, note=62, velocity=80, time=0),
    Message('note_on', channel=0, note=55, velocity=0, time=227),
    Message('note_on', channel=0, note=62, velocity=0, time=0),
    Message('note_on', channel=0, note=59, velocity=80, time=13),
    Message('note_on', channel=0, note=59, velocity=0, time=227),
    Message('note_on', channel=0, note=50, velocity=80, time=13),
    Message('note_on', channel=0, note=62, velocity=80, time=0),
    Message('note_on', channel=0, note=50, velocity=0, time=227),
    Message('note_on', channel=0, note=62, velocity=0, time=0),
    Message('note_on', channel=0, note=59, velocity=80, time=13),
    Message('note_on', channel=0, note=59, velocity=0, time=227),
    Message('note_on', channel=0, note=55, velocity=80, time=13),
    Message('note_on', channel=0, note=62, velocity=80, time=0),
    Message('note_on', channel=0, note=55, velocity=0, time=227),
    Message('note_on', channel=0, note=62, velocity=0, time=0),
    Message('note_on', channel=0, note=59, velocity=80, time=13),
    Message('note_on', channel=0, note=59, velocity=0, time=227),
    Message('note_on', channel=0, note=50, velocity=80, time=13),
    Message('note_on', channel=0, note=62, velocity=80, time=0),
    Message('control_change', channel=0, control=64, value=0, time=1),
    Message('control_change', channel=0, control=64, value=127, time=1),
    Message('note_on', channel=0, note=50, velocity=0, time=225),
    Message('note_on', channel=0, note=62, velocity=0, time=0),
    Message('note_on', channel=0, note=59, velocity=80, time=13),
    Message('note_on', channel=0, note=59, velocity=0, time=227),
    Message('note_on', channel=0, note=54, velocity=80, time=13),
    Message('note_on', channel=0, note=62, velocity=80, time=0),
    Message('note_on', channel=0, note=54, velocity=0, time=227),
    Message('note_on', channel=0, note=62, velocity=0, time=0),
    Message('note_on', channel=0, note=59, velocity=80, time=13),
    Message('note_on', channel=0, note=59, velocity=0, time=227),
    Message('note_on', channel=0, note=50, velocity=80, time=13),
    Message('note_on', channel=0, note=62, velocity=80, time=0),
    Message('note_on', channel=0, note=50, velocity=0, time=227),
    Message('note_on', channel=0, note=62, velocity=0, time=0),
    Message('note_on', channel=0, note=59, velocity=80, time=13),
    Message('note_on', channel=0, note=59, velocity=0, time=227),
    Message('note_on', channel=0, note=54, velocity=80, time=13),
    Message('note_on', channel=0, note=62, velocity=80, time=0),
    Message('note_on', channel=0, note=54, velocity=0, time=227),
    Message('note_on', channel=0, note=62, velocity=0, time=0),
    Message('note_on', channel=0, note=59, velocity=80, time=13),
    Message('note_on', channel=0, note=59, velocity=0, time=227),
    Message('note_on', channel=0, note=50, velocity=80, time=13),
    Message('note_on', channel=0, note=62, velocity=80, time=0),
    Message('control_change', channel=0, control=64, value=0, time=1),
    Message('control_change', channel=0, control=64, value=127, time=1),
    Message('note_on', channel=0, note=50, velocity=0, time=225),
    Message('note_on', channel=0, note=62, velocity=0, time=0),
    Message('note_on', channel=0, note=57, velocity=80, time=13),
    Message('note_on', channel=0, note=57, velocity=0, time=227),
    Message('note_on', channel=0, note=54, velocity=80, time=13),
    Message('note_on', channel=0, note=62, velocity=80, time=0),
    Message('note_on', channel=0, note=54, velocity=0, time=227),
    Message('note_on', channel=0, note=62, velocity=0, time=0),
    Message('note_on', channel=0, note=57, velocity=80, time=13),
    Message('note_on', channel=0, note=57, velocity=0, time=227),
    Message('note_on', channel=0, note=50, velocity=80, time=13),
    Message('note_on', channel=0, note=62, velocity=80, time=0),
    Message('note_on', channel=0, note=50, velocity=0, time=227),
    Message('note_on', channel=0, note=62, velocity=0, time=0),
    Message('note_on', channel=0, note=57, velocity=80, time=13),
    Message('note_on', channel=0, note=57, velocity=0, time=227),
    Message('note_on', channel=0, note=54, velocity=80, time=13),
    Message('note_on', channel=0, note=62, velocity=80, time=0),
    Message('note_on', channel=0, note=54, velocity=0, time=227),
    Message('note_on', channel=0, note=62, velocity=0, time=0),
    Message('note_on', channel=0, note=57, velocity=80, time=13),
    Message('note_on', channel=0, note=57, velocity=0, time=227),
    Message('note_on', channel=0, note=52, velocity=80, time=13),
    Message('note_on', channel=0, note=64, velocity=80, time=0),
    Message('control_change', channel=0, control=64, value=0, time=1),
    Message('control_change', channel=0, control=64, value=127, time=1),
    Message('note_on', channel=0, note=52, velocity=0, time=225),
    Message('note_on', channel=0, note=64, velocity=0, time=0),
    Message('note_on', channel=0, note=59, velocity=80, time=13),
    Message('note_on', channel=0, note=59, velocity=0, time=227),
    Message('note_on', channel=0, note=55, velocity=80, time=13),
    Message('note_on', channel=0, note=64, velocity=80, time=0),
    Message('note_on', channel=0, note=55, velocity=0, time=227),
    Message('note_on', channel=0, note=64, velocity=0, time=0),
    Message('note_on', channel=0, note=59, velocity=80, time=13),
    Message('note_on', channel=0, note=59, velocity=0, time=227),
    Message('note_on', channel=0, note=52, velocity=80, time=13),
    Message('note_on', channel=0, note=64, velocity=80, time=0),
    Message('note_on', channel=0, note=52, velocity=0, time=227),
    Message('note_on', channel=0, note=64, velocity=0, time=0),
    Message('note_on', channel=0, note=59, velocity=80, time=13),
    Message('note_on', channel=0, note=59, velocity=0, time=227),
    Message('note_on', channel=0, note=55, velocity=80, time=13),
    Message('note_on', channel=0, note=64, velocity=80, time=0),
    Message('note_on', channel=0, note=55, velocity=0, time=227),
    Message('note_on', channel=0, note=64, velocity=0, time=0),
    Message('note_on', channel=0, note=59, velocity=80, time=13),
    Message('note_on', channel=0, note=59, velocity=0, time=227),
    Message('note_on', channel=0, note=50, velocity=80, time=13),
    Message('note_on', channel=0, note=62, velocity=80, time=0),
    Message('control_change', channel=0, control=64, value=0, time=1),
    Message('control_change', channel=0, control=64, value=127, time=1),
    Message('note_on', channel=0, note=50, velocity=0, time=225),
    Message('note_on', channel=0, note=62, velocity=0, time=0),
    Message('note_on', channel=0, note=59, velocity=80, time=13),
    Message('note_on', channel=0, note=59, velocity=0, time=227),
    Message('note_on', channel=0, note=55, velocity=80, time=13),
    Message('note_on', channel=0, note=62, velocity=80, time=0),
    Message('note_on', channel=0, note=55, velocity=0, time=227),
    Message('note_on', channel=0, note=62, velocity=0, time=0),
    Message('note_on', channel=0, note=59, velocity=80, time=13),
    Message('note_on', channel=0, note=59, velocity=0, time=227),
    Message('note_on', channel=0, note=50, velocity=80, time=13),
    Message('note_on', channel=0, note=62, velocity=80, time=0),
    Message('note_on', channel=0, note=50, velocity=0, time=227),
    Message('note_on', channel=0, note=62, velocity=0, time=0),
    Message('note_on', channel=0, note=59, velocity=80, time=13),
    Message('note_on', channel=0, note=59, velocity=0, time=227),
    Message('note_on', channel=0, note=55, velocity=80, time=13),
    Message('note_on', channel=0, note=62, velocity=80, time=0),
    Message('note_on', channel=0, note=55, velocity=0, time=227),
    Message('note_on', channel=0, note=62, velocity=0, time=0),
    Message('note_on', channel=0, note=59, velocity=80, time=13),
    Message('note_on', channel=0, note=59, velocity=0, time=227),
    Message('note_on', channel=0, note=50, velocity=80, time=13),
    Message('note_on', channel=0, note=62, velocity=80, time=0),
    Message('control_change', channel=0, control=64, value=0, time=1),
    Message('control_change', channel=0, control=64, value=127, time=1),
    Message('note_on', channel=0, note=50, velocity=0, time=225),
    Message('note_on', channel=0, note=62, velocity=0, time=0),
    Message('note_on', channel=0, note=59, velocity=80, time=13),
    Message('note_on', channel=0, note=59, velocity=0, time=227),
    Message('note_on', channel=0, note=54, velocity=80, time=13),
    Message('note_on', channel=0, note=62, velocity=80, time=0),
    Message('note_on', channel=0, note=54, velocity=0, time=227),
    Message('note_on', channel=0, note=62, velocity=0, time=0),
    Message('note_on', channel=0, note=59, velocity=80, time=13),
    Message('note_on', channel=0, note=59, velocity=0, time=227),
    Message('note_on', channel=0, note=50, velocity=80, time=13),
    Message('note_on', channel=0, note=62, velocity=80, time=0),
    Message('note_on', channel=0, note=50, velocity=0, time=227),
    Message('note_on', channel=0, note=62, velocity=0, time=0),
    Message('note_on', channel=0, note=59, velocity=80, time=13),
    Message('note_on', channel=0, note=59, velocity=0, time=227),
    Message('note_on', channel=0, note=54, velocity=80, time=13),
    Message('note_on', channel=0, note=62, velocity=80, time=0),
    Message('note_on', channel=0, note=54, velocity=0, time=227),
    Message('note_on', channel=0, note=62, velocity=0, time=0),
    Message('note_on', channel=0, note=59, velocity=80, time=13),
    Message('note_on', channel=0, note=59, velocity=0, time=227),
    Message('note_on', channel=0, note=50, velocity=80, time=13),
    Message('note_on', channel=0, note=62, velocity=80, time=0),
    Message('control_change', channel=0, control=64, value=0, time=1),
    Message('control_change', channel=0, control=64, value=127, time=1),
    Message('note_on', channel=0, note=50, velocity=0, time=225),
    Message('note_on', channel=0, note=62, velocity=0, time=0),
    Message('note_on', channel=0, note=57, velocity=80, time=13),
    Message('note_on', channel=0, note=57, velocity=0, time=227),
    Message('note_on', channel=0, note=54, velocity=80, time=13),
    Message('note_on', channel=0, note=62, velocity=80, time=0),
    Message('note_on', channel=0, note=54, velocity=0, time=227),
    Message('note_on', channel=0, note=62, velocity=0, time=0),
    Message('note_on', channel=0, note=57, velocity=80, time=13),
    Message('note_on', channel=0, note=57, velocity=0, time=227),
    Message('note_on', channel=0, note=50, velocity=80, time=13),
    Message('note_on', channel=0, note=62, velocity=80, time=0),
    Message('note_on', channel=0, note=50, velocity=0, time=227),
    Message('note_on', channel=0, note=62, velocity=0, time=0),
    Message('note_on', channel=0, note=57, velocity=80, time=13),
    Message('note_on', channel=0, note=57, velocity=0, time=227),
    Message('note_on', channel=0, note=54, velocity=80, time=13),
    Message('note_on', channel=0, note=62, velocity=80, time=0),
    Message('note_on', channel=0, note=54, velocity=0, time=227),
    Message('note_on', channel=0, note=62, velocity=0, time=0),
    Message('note_on', channel=0, note=57, velocity=80, time=13),
    Message('note_on', channel=0, note=57, velocity=0, time=227),
    Message('note_on', channel=0, note=52, velocity=80, time=13),
    Message('note_on', channel=0, note=64, velocity=80, time=0),
    Message('control_change', channel=0, control=64, value=0, time=1),
    Message('control_change', channel=0, control=64, value=127, time=1),
    Message('note_on', channel=0, note=52, velocity=0, time=225),
    Message('note_on', channel=0, note=64, velocity=0, time=0),
    Message('note_on', channel=0, note=59, velocity=80, time=13),
    Message('note_on', channel=0, note=59, velocity=0, time=227),
    Message('note_on', channel=0, note=55, velocity=80, time=13),
    Message('note_on', channel=0, note=64, velocity=80, time=0),
    Message('note_on', channel=0, note=55, velocity=0, time=227),
    Message('note_on', channel=0, note=64, velocity=0, time=0),
    Message('note_on', channel=0, note=59, velocity=80, time=13),
    Message('note_on', channel=0, note=59, velocity=0, time=227),
    Message('note_on', channel=0, note=52, velocity=80, time=13),
    Message('note_on', channel=0, note=64, velocity=80, time=0),
    Message('note_on', channel=0, note=52, velocity=0, time=227),
    Message('note_on', channel=0, note=64, velocity=0, time=0),
    Message('note_on', channel=0, note=59, velocity=80, time=13),
    Message('note_on', channel=0, note=59, velocity=0, time=227),
    Message('note_on', channel=0, note=55, velocity=80, time=13),
    Message('note_on', channel=0, note=64, velocity=80, time=0),
    Message('note_on', channel=0, note=55, velocity=0, time=227),
    Message('note_on', channel=0, note=64, velocity=0, time=0),
    Message('note_on', channel=0, note=59, velocity=80, time=13),
    Message('note_on', channel=0, note=59, velocity=0, time=227),
    Message('note_on', channel=0, note=50, velocity=80, time=13),
    Message('note_on', channel=0, note=62, velocity=80, time=0),
    Message('control_change', channel=0, control=64, value=0, time=1),
    Message('control_change', channel=0, control=64, value=127, time=1),
    Message('note_on', channel=0, note=50, velocity=0, time=225),
    Message('note_on', channel=0, note=62, velocity=0, time=0),
    Message('note_on', channel=0, note=59, velocity=80, time=13),
    Message('note_on', channel=0, note=59, velocity=0, time=227),
    Message('note_on', channel=0, note=55, velocity=80, time=13),
    Message('note_on', channel=0, note=62, velocity=80, time=0),
    Message('note_on', channel=0, note=55, velocity=0, time=227),
    Message('note_on', channel=0, note=62, velocity=0, time=0),
    Message('note_on', channel=0, note=59, velocity=80, time=13),
    Message('note_on', channel=0, note=59, velocity=0, time=227),
    Message('note_on', channel=0, note=50, velocity=80, time=13),
    Message('note_on', channel=0, note=62, velocity=80, time=0),
    Message('note_on', channel=0, note=50, velocity=0, time=227),
    Message('note_on', channel=0, note=62, velocity=0, time=0),
    Message('note_on', channel=0, note=59, velocity=80, time=13),
    Message('note_on', channel=0, note=59, velocity=0, time=227),
    Message('note_on', channel=0, note=55, velocity=80, time=13),
    Message('note_on', channel=0, note=62, velocity=80, time=0),
    Message('note_on', channel=0, note=55, velocity=0, time=227),
    Message('note_on', channel=0, note=62, velocity=0, time=0),
    Message('note_on', channel=0, note=59, velocity=80, time=13),
    Message('note_on', channel=0, note=59, velocity=0, time=227),
    Message('note_on', channel=0, note=50, velocity=80, time=13),
    Message('note_on', channel=0, note=62, velocity=80, time=0),
    Message('control_change', channel=0, control=64, value=0, time=1),
    Message('control_change', channel=0, control=64, value=127, time=1),
    Message('note_on', channel=0, note=50, velocity=0, time=225),
    Message('note_on', channel=0, note=62, velocity=0, time=0),
    Message('note_on', channel=0, note=59, velocity=80, time=13),
    Message('note_on', channel=0, note=59, velocity=0, time=227),
    Message('note_on', channel=0, note=54, velocity=80, time=13),
    Message('note_on', channel=0, note=62, velocity=80, time=0),
    Message('note_on', channel=0, note=54, velocity=0, time=227),
    Message('note_on', channel=0, note=62, velocity=0, time=0),
    Message('note_on', channel=0, note=59, velocity=80, time=13),
    Message('note_on', channel=0, note=59, velocity=0, time=227),
    Message('note_on', channel=0, note=50, velocity=80, time=13),
    Message('note_on', channel=0, note=62, velocity=80, time=0),
    Message('note_on', channel=0, note=50, velocity=0, time=227),
    Message('note_on', channel=0, note=62, velocity=0, time=0),
    Message('note_on', channel=0, note=59, velocity=80, time=13),
    Message('note_on', channel=0, note=59, velocity=0, time=227),
    Message('note_on', channel=0, note=54, velocity=80, time=13),
    Message('note_on', channel=0, note=62, velocity=80, time=0),
    Message('note_on', channel=0, note=54, velocity=0, time=227),
    Message('note_on', channel=0, note=62, velocity=0, time=0),
    Message('note_on', channel=0, note=59, velocity=80, time=13),
    Message('note_on', channel=0, note=59, velocity=0, time=227),
    Message('note_on', channel=0, note=50, velocity=80, time=13),
    Message('note_on', channel=0, note=62, velocity=80, time=0),
    Message('control_change', channel=0, control=64, value=0, time=1),
    Message('control_change', channel=0, control=64, value=127, time=1),
    Message('note_on', channel=0, note=50, velocity=0, time=225),
    Message('note_on', channel=0, note=62, velocity=0, time=0),
    Message('note_on', channel=0, note=57, velocity=80, time=13),
    Message('note_on', channel=0, note=57, velocity=0, time=227),
    Message('note_on', channel=0, note=54, velocity=80, time=13),
    Message('note_on', channel=0, note=62, velocity=80, time=0),
    Message('note_on', channel=0, note=54, velocity=0, time=227),
    Message('note_on', channel=0, note=62, velocity=0, time=0),
    Message('note_on', channel=0, note=57, velocity=80, time=13),
    Message('note_on', channel=0, note=57, velocity=0, time=227),
    Message('note_on', channel=0, note=50, velocity=80, time=13),
    Message('note_on', channel=0, note=62, velocity=80, time=0),
    Message('note_on', channel=0, note=50, velocity=0, time=227),
    Message('note_on', channel=0, note=62, velocity=0, time=0),
    Message('note_on', channel=0, note=57, velocity=80, time=13),
    Message('note_on', channel=0, note=57, velocity=0, time=227),
    Message('note_on', channel=0, note=54, velocity=80, time=13),
    Message('note_on', channel=0, note=62, velocity=80, time=0),
    Message('note_on', channel=0, note=54, velocity=0, time=227),
    Message('note_on', channel=0, note=62, velocity=0, time=0),
    Message('note_on', channel=0, note=57, velocity=80, time=13),
    Message('note_on', channel=0, note=57, velocity=0, time=227),
    Message('note_on', channel=0, note=52, velocity=80, time=13),
    Message('note_on', channel=0, note=64, velocity=80, time=0),
    Message('control_change', channel=0, control=64, value=0, time=1),
    Message('control_change', channel=0, control=64, value=127, time=1),
    Message('note_on', channel=0, note=52, velocity=0, time=225),
    Message('note_on', channel=0, note=64, velocity=0, time=0),
    Message('note_on', channel=0, note=59, velocity=80, time=13),
    Message('note_on', channel=0, note=59, velocity=0, time=227),
    Message('note_on', channel=0, note=55, velocity=80, time=13),
    Message('note_on', channel=0, note=64, velocity=80, time=0),
    Message('note_on', channel=0, note=55, velocity=0, time=227),
    Message('note_on', channel=0, note=64, velocity=0, time=0),
    Message('note_on', channel=0, note=59, velocity=80, time=13),
    Message('note_on', channel=0, note=59, velocity=0, time=227),
    Message('note_on', channel=0, note=52, velocity=80, time=13),
    Message('note_on', channel=0, note=64, velocity=80, time=0),
    Message('note_on', channel=0, note=52, velocity=0, time=227),
    Message('note_on', channel=0, note=64, velocity=0, time=0),
    Message('note_on', channel=0, note=59, velocity=80, time=13),
    Message('note_on', channel=0, note=59, velocity=0, time=227),
    Message('note_on', channel=0, note=55, velocity=80, time=13),
    Message('note_on', channel=0, note=64, velocity=80, time=0),
    Message('note_on', channel=0, note=55, velocity=0, time=227),
    Message('note_on', channel=0, note=64, velocity=0, time=0),
    Message('note_on', channel=0, note=59, velocity=80, time=13),
    Message('note_on', channel=0, note=59, velocity=0, time=227),
    Message('note_on', channel=0, note=50, velocity=80, time=13),
    Message('note_on', channel=0, note=62, velocity=80, time=0),
    Message('control_change', channel=0, control=64, value=0, time=1),
    Message('control_change', channel=0, control=64, value=127, time=1),
    Message('note_on', channel=0, note=50, velocity=0, time=225),
    Message('note_on', channel=0, note=62, velocity=0, time=0),
    Message('note_on', channel=0, note=59, velocity=80, time=13),
    Message('note_on', channel=0, note=59, velocity=0, time=227),
    Message('note_on', channel=0, note=55, velocity=80, time=13),
    Message('note_on', channel=0, note=62, velocity=80, time=0),
    Message('note_on', channel=0, note=55, velocity=0, time=227),
    Message('note_on', channel=0, note=62, velocity=0, time=0),
    Message('note_on', channel=0, note=59, velocity=80, time=13),
    Message('note_on', channel=0, note=59, velocity=0, time=227),
    Message('note_on', channel=0, note=50, velocity=80, time=13),
    Message('note_on', channel=0, note=62, velocity=80, time=0),
    Message('note_on', channel=0, note=50, velocity=0, time=227),
    Message('note_on', channel=0, note=62, velocity=0, time=0),
    Message('note_on', channel=0, note=59, velocity=80, time=13),
    Message('note_on', channel=0, note=59, velocity=0, time=227),
    Message('note_on', channel=0, note=55, velocity=80, time=13),
    Message('note_on', channel=0, note=62, velocity=80, time=0),
    Message('note_on', channel=0, note=55, velocity=0, time=227),
    Message('note_on', channel=0, note=62, velocity=0, time=0),
    Message('note_on', channel=0, note=59, velocity=80, time=13),
    Message('note_on', channel=0, note=59, velocity=0, time=227),
    Message('note_on', channel=0, note=50, velocity=80, time=13),
    Message('note_on', channel=0, note=62, velocity=80, time=0),
    Message('control_change', channel=0, control=64, value=0, time=1),
    Message('control_change', channel=0, control=64, value=127, time=1),
    Message('note_on', channel=0, note=50, velocity=0, time=225),
    Message('note_on', channel=0, note=62, velocity=0, time=0),
    Message('note_on', channel=0, note=59, velocity=80, time=13),
    Message('note_on', channel=0, note=59, velocity=0, time=227),
    Message('note_on', channel=0, note=54, velocity=80, time=13),
    Message('note_on', channel=0, note=62, velocity=80, time=0),
    Message('note_on', channel=0, note=54, velocity=0, time=227),
    Message('note_on', channel=0, note=62, velocity=0, time=0),
    Message('note_on', channel=0, note=59, velocity=80, time=13),
    Message('note_on', channel=0, note=59, velocity=0, time=227),
    Message('note_on', channel=0, note=50, velocity=80, time=13),
    Message('note_on', channel=0, note=62, velocity=80, time=0),
    Message('note_on', channel=0, note=50, velocity=0, time=227),
    Message('note_on', channel=0, note=62, velocity=0, time=0),
    Message('note_on', channel=0, note=59, velocity=80, time=13),
    Message('note_on', channel=0, note=59, velocity=0, time=227),
    Message('note_on', channel=0, note=54, velocity=80, time=13),
    Message('note_on', channel=0, note=62, velocity=80, time=0),
    Message('note_on', channel=0, note=54, velocity=0, time=227),
    Message('note_on', channel=0, note=62, velocity=0, time=0),
    Message('note_on', channel=0, note=59, velocity=80, time=13),
    Message('note_on', channel=0, note=59, velocity=0, time=227),
    Message('note_on', channel=0, note=50, velocity=80, time=13),
    Message('note_on', channel=0, note=62, velocity=80, time=0),
    Message('control_change', channel=0, control=64, value=0, time=1),
    Message('control_change', channel=0, control=64, value=127, time=1),
    Message('note_on', channel=0, note=50, velocity=0, time=225),
    Message('note_on', channel=0, note=62, velocity=0, time=0),
    Message('note_on', channel=0, note=57, velocity=80, time=13),
    Message('note_on', channel=0, note=57, velocity=0, time=227),
    Message('note_on', channel=0, note=54, velocity=80, time=13),
    Message('note_on', channel=0, note=62, velocity=80, time=0),
    Message('note_on', channel=0, note=54, velocity=0, time=227),
    Message('note_on', channel=0, note=62, velocity=0, time=0),
    Message('note_on', channel=0, note=57, velocity=80, time=13),
    Message('note_on', channel=0, note=57, velocity=0, time=227),
    Message('note_on', channel=0, note=50, velocity=80, time=13),
    Message('note_on', channel=0, note=62, velocity=80, time=0),
    Message('note_on', channel=0, note=50, velocity=0, time=227),
    Message('note_on', channel=0, note=62, velocity=0, time=0),
    Message('note_on', channel=0, note=57, velocity=80, time=13),
    Message('note_on', channel=0, note=57, velocity=0, time=227),
    Message('note_on', channel=0, note=54, velocity=80, time=13),
    Message('note_on', channel=0, note=62, velocity=80, time=0),
    Message('note_on', channel=0, note=54, velocity=0, time=227),
    Message('note_on', channel=0, note=62, velocity=0, time=0),
    Message('note_on', channel=0, note=57, velocity=80, time=13),
    Message('note_on', channel=0, note=57, velocity=0, time=227),
    Message('note_on', channel=0, note=52, velocity=80, time=13),
    Message('note_on', channel=0, note=64, velocity=80, time=0),
    Message('control_change', channel=0, control=64, value=0, time=1),
    Message('control_change', channel=0, control=64, value=127, time=1),
    Message('note_on', channel=0, note=52, velocity=0, time=225),
    Message('note_on', channel=0, note=64, velocity=0, time=0),
    Message('note_on', channel=0, note=59, velocity=80, time=13),
    Message('note_on', channel=0, note=59, velocity=0, time=227),
    Message('note_on', channel=0, note=55, velocity=80, time=13),
    Message('note_on', channel=0, note=64, velocity=80, time=0),
    Message('note_on', channel=0, note=55, velocity=0, time=227),
    Message('note_on', channel=0, note=64, velocity=0, time=0),
    Message('note_on', channel=0, note=59, velocity=80, time=13),
    Message('note_on', channel=0, note=59, velocity=0, time=227),
    Message('note_on', channel=0, note=52, velocity=80, time=13),
    Message('note_on', channel=0, note=64, velocity=80, time=0),
    Message('note_on', channel=0, note=52, velocity=0, time=227),
    Message('note_on', channel=0, note=64, velocity=0, time=0),
    Message('note_on', channel=0, note=59, velocity=80, time=13),
    Message('note_on', channel=0, note=59, velocity=0, time=227),
    Message('note_on', channel=0, note=55, velocity=80, time=13),
    Message('note_on', channel=0, note=64, velocity=80, time=0),
    Message('note_on', channel=0, note=55, velocity=0, time=227),
    Message('note_on', channel=0, note=64, velocity=0, time=0),
    Message('note_on', channel=0, note=59, velocity=80, time=13),
    Message('note_on', channel=0, note=59, velocity=0, time=227),
    Message('note_on', channel=0, note=50, velocity=80, time=13),
    Message('note_on', channel=0, note=62, velocity=80, time=0),
    Message('control_change', channel=0, control=64, value=0, time=1),
    Message('control_change', channel=0, control=64, value=127, time=1),
    Message('note_on', channel=0, note=50, velocity=0, time=225),
    Message('note_on', channel=0, note=62, velocity=0, time=0),
    Message('note_on', channel=0, note=59, velocity=80, time=13),
    Message('note_on', channel=0, note=59, velocity=0, time=227),
    Message('note_on', channel=0, note=55, velocity=80, time=13),
    Message('note_on', channel=0, note=62, velocity=80, time=0),
    Message('note_on', channel=0, note=55, velocity=0, time=227),
    Message('note_on', channel=0, note=62, velocity=0, time=0),
    Message('note_on', channel=0, note=59, velocity=80, time=13),
    Message('note_on', channel=0, note=59, velocity=0, time=227),
    Message('note_on', channel=0, note=50, velocity=80, time=13),
    Message('note_on', channel=0, note=62, velocity=80, time=0),
    Message('note_on', channel=0, note=50, velocity=0, time=227),
    Message('note_on', channel=0, note=62, velocity=0, time=0),
    Message('note_on', channel=0, note=59, velocity=80, time=13),
    Message('note_on', channel=0, note=59, velocity=0, time=227),
    Message('note_on', channel=0, note=55, velocity=80, time=13),
    Message('note_on', channel=0, note=62, velocity=80, time=0),
    Message('note_on', channel=0, note=55, velocity=0, time=227),
    Message('note_on', channel=0, note=62, velocity=0, time=0),
    Message('note_on', channel=0, note=59, velocity=80, time=13),
    Message('note_on', channel=0, note=59, velocity=0, time=227),
    Message('note_on', channel=0, note=50, velocity=80, time=13),
    Message('note_on', channel=0, note=62, velocity=80, time=0),
    Message('control_change', channel=0, control=64, value=0, time=1),
    Message('control_change', channel=0, control=64, value=127, time=1),
    Message('note_on', channel=0, note=50, velocity=0, time=225),
    Message('note_on', channel=0, note=62, velocity=0, time=0),
    Message('note_on', channel=0, note=59, velocity=80, time=13),
    Message('note_on', channel=0, note=59, velocity=0, time=227),
    Message('note_on', channel=0, note=54, velocity=80, time=13),
    Message('note_on', channel=0, note=62, velocity=80, time=0),
    Message('note_on', channel=0, note=54, velocity=0, time=227),
    Message('note_on', channel=0, note=62, velocity=0, time=0),
    Message('note_on', channel=0, note=59, velocity=80, time=13),
    Message('note_on', channel=0, note=59, velocity=0, time=227),
    Message('note_on', channel=0, note=50, velocity=80, time=13),
    Message('note_on', channel=0, note=62, velocity=80, time=0),
    Message('note_on', channel=0, note=50, velocity=0, time=227),
    Message('note_on', channel=0, note=62, velocity=0, time=0),
    Message('note_on', channel=0, note=59, velocity=80, time=13),
    Message('note_on', channel=0, note=59, velocity=0, time=227),
    Message('note_on', channel=0, note=54, velocity=80, time=13),
    Message('note_on', channel=0, note=62, velocity=80, time=0),
    Message('note_on', channel=0, note=54, velocity=0, time=227),
    Message('note_on', channel=0, note=62, velocity=0, time=0),
    Message('note_on', channel=0, note=59, velocity=80, time=13),
    Message('note_on', channel=0, note=59, velocity=0, time=227),
    Message('note_on', channel=0, note=50, velocity=80, time=13),
    Message('note_on', channel=0, note=62, velocity=80, time=0),
    Message('control_change', channel=0, control=64, value=0, time=1),
    Message('control_change', channel=0, control=64, value=127, time=1),
    Message('note_on', channel=0, note=50, velocity=0, time=225),
    Message('note_on', channel=0, note=62, velocity=0, time=0),
    Message('note_on', channel=0, note=57, velocity=80, time=13),
    Message('note_on', channel=0, note=57, velocity=0, time=227),
    Message('note_on', channel=0, note=54, velocity=80, time=13),
    Message('note_on', channel=0, note=62, velocity=80, time=0),
    Message('note_on', channel=0, note=54, velocity=0, time=227),
    Message('note_on', channel=0, note=62, velocity=0, time=0),
    Message('note_on', channel=0, note=57, velocity=80, time=13),
    Message('note_on', channel=0, note=57, velocity=0, time=227),
    Message('note_on', channel=0, note=50, velocity=80, time=13),
    Message('note_on', channel=0, note=62, velocity=80, time=0),
    Message('note_on', channel=0, note=50, velocity=0, time=227),
    Message('note_on', channel=0, note=62, velocity=0, time=0),
    Message('note_on', channel=0, note=57, velocity=80, time=13),
    Message('note_on', channel=0, note=57, velocity=0, time=227),
    Message('note_on', channel=0, note=54, velocity=80, time=13),
    Message('note_on', channel=0, note=62, velocity=80, time=0),
    Message('note_on', channel=0, note=54, velocity=0, time=227),
    Message('note_on', channel=0, note=62, velocity=0, time=0),
    Message('note_on', channel=0, note=57, velocity=80, time=13),
    Message('note_on', channel=0, note=57, velocity=0, time=227),
    Message('note_on', channel=0, note=52, velocity=80, time=13),
    Message('note_on', channel=0, note=64, velocity=80, time=0),
    Message('control_change', channel=0, control=64, value=0, time=1),
    Message('control_change', channel=0, control=64, value=127, time=1),
    Message('note_on', channel=0, note=52, velocity=0, time=225),
    Message('note_on', channel=0, note=64, velocity=0, time=0),
    Message('note_on', channel=0, note=59, velocity=80, time=13),
    Message('note_on', channel=0, note=59, velocity=0, time=227),
    Message('note_on', channel=0, note=55, velocity=80, time=13),
    Message('note_on', channel=0, note=64, velocity=80, time=0),
    Message('note_on', channel=0, note=55, velocity=0, time=227),
    Message('note_on', channel=0, note=64, velocity=0, time=0),
    Message('note_on', channel=0, note=59, velocity=80, time=13),
    Message('note_on', channel=0, note=59, velocity=0, time=227),
    Message('note_on', channel=0, note=52, velocity=80, time=13),
    Message('note_on', channel=0, note=64, velocity=80, time=0),
    Message('note_on', channel=0, note=52, velocity=0, time=227),
    Message('note_on', channel=0, note=64, velocity=0, time=0),
    Message('note_on', channel=0, note=59, velocity=80, time=13),
    Message('note_on', channel=0, note=59, velocity=0, time=227),
    Message('note_on', channel=0, note=55, velocity=80, time=13),
    Message('note_on', channel=0, note=64, velocity=80, time=0),
    Message('note_on', channel=0, note=55, velocity=0, time=227),
    Message('note_on', channel=0, note=64, velocity=0, time=0),
    Message('note_on', channel=0, note=59, velocity=80, time=13),
    Message('note_on', channel=0, note=59, velocity=0, time=227),
    Message('note_on', channel=0, note=50, velocity=80, time=13),
    Message('note_on', channel=0, note=62, velocity=80, time=0),
    Message('control_change', channel=0, control=64, value=0, time=1),
    Message('control_change', channel=0, control=64, value=127, time=1),
    Message('note_on', channel=0, note=50, velocity=0, time=225),
    Message('note_on', channel=0, note=62, velocity=0, time=0),
    Message('note_on', channel=0, note=59, velocity=80, time=13),
    Message('note_on', channel=0, note=59, velocity=0, time=227),
    Message('note_on', channel=0, note=55, velocity=80, time=13),
    Message('note_on', channel=0, note=62, velocity=80, time=0),
    Message('note_on', channel=0, note=55, velocity=0, time=227),
    Message('note_on', channel=0, note=62, velocity=0, time=0),
    Message('note_on', channel=0, note=59, velocity=80, time=13),
    Message('note_on', channel=0, note=59, velocity=0, time=227),
    Message('note_on', channel=0, note=50, velocity=80, time=13),
    Message('note_on', channel=0, note=62, velocity=80, time=0),
    Message('note_on', channel=0, note=50, velocity=0, time=227),
    Message('note_on', channel=0, note=62, velocity=0, time=0),
    Message('note_on', channel=0, note=59, velocity=80, time=13),
    Message('note_on', channel=0, note=59, velocity=0, time=227),
    Message('note_on', channel=0, note=55, velocity=80, time=13),
    Message('note_on', channel=0, note=62, velocity=80, time=0),
    Message('note_on', channel=0, note=55, velocity=0, time=227),
    Message('note_on', channel=0, note=62, velocity=0, time=0),
    Message('note_on', channel=0, note=59, velocity=80, time=13),
    Message('note_on', channel=0, note=59, velocity=0, time=227),
    Message('note_on', channel=0, note=50, velocity=80, time=13),
    Message('note_on', channel=0, note=62, velocity=80, time=0),
    Message('control_change', channel=0, control=64, value=0, time=1),
    Message('control_change', channel=0, control=64, value=127, time=1),
    Message('note_on', channel=0, note=50, velocity=0, time=225),
    Message('note_on', channel=0, note=62, velocity=0, time=0),
    Message('note_on', channel=0, note=59, velocity=80, time=13),
    Message('note_on', channel=0, note=59, velocity=0, time=227),
    Message('note_on', channel=0, note=54, velocity=80, time=13),
    Message('note_on', channel=0, note=62, velocity=80, time=0),
    Message('note_on', channel=0, note=54, velocity=0, time=227),
    Message('note_on', channel=0, note=62, velocity=0, time=0),
    Message('note_on', channel=0, note=59, velocity=80, time=13),
    Message('note_on', channel=0, note=59, velocity=0, time=227),
    Message('note_on', channel=0, note=50, velocity=80, time=13),
    Message('note_on', channel=0, note=62, velocity=80, time=0),
    Message('note_on', channel=0, note=50, velocity=0, time=227),
    Message('note_on', channel=0, note=62, velocity=0, time=0),
    Message('note_on', channel=0, note=59, velocity=80, time=13),
    Message('note_on', channel=0, note=59, velocity=0, time=227),
    Message('note_on', channel=0, note=54, velocity=80, time=13),
    Message('note_on', channel=0, note=62, velocity=80, time=0),
    Message('note_on', channel=0, note=54, velocity=0, time=227),
    Message('note_on', channel=0, note=62, velocity=0, time=0),
    Message('note_on', channel=0, note=59, velocity=80, time=13),
    Message('note_on', channel=0, note=59, velocity=0, time=227),
    Message('note_on', channel=0, note=50, velocity=80, time=13),
    Message('note_on', channel=0, note=62, velocity=80, time=0),
    Message('control_change', channel=0, control=64, value=0, time=1),
    Message('control_change', channel=0, control=64, value=127, time=1),
    Message('note_on', channel=0, note=50, velocity=0, time=225),
    Message('note_on', channel=0, note=62, velocity=0, time=0),
    Message('note_on', channel=0, note=57, velocity=80, time=13),
    Message('note_on', channel=0, note=57, velocity=0, time=227),
    Message('note_on', channel=0, note=54, velocity=80, time=13),
    Message('note_on', channel=0, note=62, velocity=80, time=0),
    Message('note_on', channel=0, note=54, velocity=0, time=227),
    Message('note_on', channel=0, note=62, velocity=0, time=0),
    Message('note_on', channel=0, note=57, velocity=80, time=13),
    Message('note_on', channel=0, note=57, velocity=0, time=227),
    Message('note_on', channel=0, note=50, velocity=80, time=13),
    Message('note_on', channel=0, note=62, velocity=80, time=0),
    Message('note_on', channel=0, note=50, velocity=0, time=227),
    Message('note_on', channel=0, note=62, velocity=0, time=0),
    Message('note_on', channel=0, note=57, velocity=80, time=13),
    Message('note_on', channel=0, note=57, velocity=0, time=227),
    Message('note_on', channel=0, note=54, velocity=80, time=13),
    Message('note_on', channel=0, note=62, velocity=80, time=0),
    Message('note_on', channel=0, note=54, velocity=0, time=227),
    Message('note_on', channel=0, note=62, velocity=0, time=0),
    Message('note_on', channel=0, note=57, velocity=80, time=13),
    Message('note_on', channel=0, note=57, velocity=0, time=227),
    Message('note_on', channel=0, note=52, velocity=80, time=13),
    Message('note_on', channel=0, note=64, velocity=80, time=0),
    Message('control_change', channel=0, control=64, value=0, time=1),
    Message('control_change', channel=0, control=64, value=127, time=1),
    Message('note_on', channel=0, note=52, velocity=0, time=225),
    Message('note_on', channel=0, note=64, velocity=0, time=0),
    Message('note_on', channel=0, note=59, velocity=80, time=13),
    Message('note_on', channel=0, note=59, velocity=0, time=227),
    Message('note_on', channel=0, note=55, velocity=80, time=13),
    Message('note_on', channel=0, note=64, velocity=80, time=0),
    Message('note_on', channel=0, note=55, velocity=0, time=227),
    Message('note_on', channel=0, note=64, velocity=0, time=0),
    Message('note_on', channel=0, note=59, velocity=80, time=13),
    Message('note_on', channel=0, note=59, velocity=0, time=227),
    Message('note_on', channel=0, note=52, velocity=80, time=13),
    Message('note_on', channel=0, note=64, velocity=80, time=0),
    Message('note_on', channel=0, note=52, velocity=0, time=227),
    Message('note_on', channel=0, note=64, velocity=0, time=0),
    Message('note_on', channel=0, note=59, velocity=80, time=13),
    Message('note_on', channel=0, note=59, velocity=0, time=227),
    Message('note_on', channel=0, note=55, velocity=80, time=13),
    Message('note_on', channel=0, note=64, velocity=80, time=0),
    Message('note_on', channel=0, note=55, velocity=0, time=227),
    Message('note_on', channel=0, note=64, velocity=0, time=0),
    Message('note_on', channel=0, note=59, velocity=80, time=13),
    Message('note_on', channel=0, note=59, velocity=0, time=227),
    Message('note_on', channel=0, note=50, velocity=80, time=13),
    Message('note_on', channel=0, note=62, velocity=80, time=0),
    Message('control_change', channel=0, control=64, value=0, time=1),
    Message('control_change', channel=0, control=64, value=127, time=1),
    Message('note_on', channel=0, note=50, velocity=0, time=225),
    Message('note_on', channel=0, note=62, velocity=0, time=0),
    Message('note_on', channel=0, note=59, velocity=80, time=13),
    Message('note_on', channel=0, note=59, velocity=0, time=227),
    Message('note_on', channel=0, note=55, velocity=80, time=13),
    Message('note_on', channel=0, note=62, velocity=80, time=0),
    Message('note_on', channel=0, note=55, velocity=0, time=227),
    Message('note_on', channel=0, note=62, velocity=0, time=0),
    Message('note_on', channel=0, note=59, velocity=80, time=13),
    Message('note_on', channel=0, note=59, velocity=0, time=227),
    Message('note_on', channel=0, note=50, velocity=80, time=13),
    Message('note_on', channel=0, note=62, velocity=80, time=0),
    Message('note_on', channel=0, note=50, velocity=0, time=227),
    Message('note_on', channel=0, note=62, velocity=0, time=0),
    Message('note_on', channel=0, note=59, velocity=80, time=13),
    Message('note_on', channel=0, note=59, velocity=0, time=227),
    Message('note_on', channel=0, note=55, velocity=80, time=13),
    Message('note_on', channel=0, note=62, velocity=80, time=0),
    Message('note_on', channel=0, note=55, velocity=0, time=227),
    Message('note_on', channel=0, note=62, velocity=0, time=0),
    Message('note_on', channel=0, note=59, velocity=80, time=13),
    Message('note_on', channel=0, note=59, velocity=0, time=227),
    Message('note_on', channel=0, note=50, velocity=80, time=13),
    Message('note_on', channel=0, note=62, velocity=80, time=0),
    Message('control_change', channel=0, control=64, value=0, time=1),
    Message('control_change', channel=0, control=64, value=127, time=1),
    Message('note_on', channel=0, note=50, velocity=0, time=225),
    Message('note_on', channel=0, note=62, velocity=0, time=0),
    Message('note_on', channel=0, note=59, velocity=80, time=13),
    Message('note_on', channel=0, note=59, velocity=0, time=227),
    Message('note_on', channel=0, note=54, velocity=80, time=13),
    Message('note_on', channel=0, note=62, velocity=80, time=0),
    Message('note_on', channel=0, note=54, velocity=0, time=227),
    Message('note_on', channel=0, note=62, velocity=0, time=0),
    Message('note_on', channel=0, note=59, velocity=80, time=13),
    Message('note_on', channel=0, note=59, velocity=0, time=227),
    Message('note_on', channel=0, note=50, velocity=80, time=13),
    Message('note_on', channel=0, note=62, velocity=80, time=0),
    Message('note_on', channel=0, note=50, velocity=0, time=227),
    Message('note_on', channel=0, note=62, velocity=0, time=0),
    Message('note_on', channel=0, note=59, velocity=80, time=13),
    Message('note_on', channel=0, note=59, velocity=0, time=227),
    Message('note_on', channel=0, note=54, velocity=80, time=13),
    Message('note_on', channel=0, note=62, velocity=80, time=0),
    Message('note_on', channel=0, note=54, velocity=0, time=227),
    Message('note_on', channel=0, note=62, velocity=0, time=0),
    Message('note_on', channel=0, note=59, velocity=80, time=13),
    Message('note_on', channel=0, note=59, velocity=0, time=227),
    Message('note_on', channel=0, note=50, velocity=80, time=13),
    Message('note_on', channel=0, note=62, velocity=80, time=0),
    Message('control_change', channel=0, control=64, value=0, time=1),
    Message('control_change', channel=0, control=64, value=127, time=1),
    Message('note_on', channel=0, note=50, velocity=0, time=225),
    Message('note_on', channel=0, note=62, velocity=0, time=0),
    Message('note_on', channel=0, note=57, velocity=80, time=13),
    Message('note_on', channel=0, note=57, velocity=0, time=227),
    Message('note_on', channel=0, note=54, velocity=80, time=13),
    Message('note_on', channel=0, note=62, velocity=80, time=0),
    Message('note_on', channel=0, note=54, velocity=0, time=227),
    Message('note_on', channel=0, note=62, velocity=0, time=0),
    Message('note_on', channel=0, note=57, velocity=80, time=13),
    Message('note_on', channel=0, note=57, velocity=0, time=227),
    Message('note_on', channel=0, note=50, velocity=80, time=13),
    Message('note_on', channel=0, note=62, velocity=80, time=0),
    Message('note_on', channel=0, note=50, velocity=0, time=227),
    Message('note_on', channel=0, note=62, velocity=0, time=0),
    Message('note_on', channel=0, note=57, velocity=80, time=13),
    Message('note_on', channel=0, note=57, velocity=0, time=227),
    Message('note_on', channel=0, note=54, velocity=80, time=13),
    Message('note_on', channel=0, note=62, velocity=80, time=0),
    Message('note_on', channel=0, note=54, velocity=0, time=227),
    Message('note_on', channel=0, note=62, velocity=0, time=0),
    Message('note_on', channel=0, note=57, velocity=80, time=13),
    Message('note_on', channel=0, note=57, velocity=0, time=227),
    Message('note_on', channel=0, note=52, velocity=80, time=13),
    Message('note_on', channel=0, note=64, velocity=80, time=0),
    Message('control_change', channel=0, control=64, value=0, time=1),
    Message('control_change', channel=0, control=64, value=127, time=1),
    Message('note_on', channel=0, note=52, velocity=0, time=225),
    Message('note_on', channel=0, note=64, velocity=0, time=0),
    Message('note_on', channel=0, note=59, velocity=80, time=13),
    Message('note_on', channel=0, note=59, velocity=0, time=227),
    Message('note_on', channel=0, note=55, velocity=80, time=13),
    Message('note_on', channel=0, note=64, velocity=80, time=0),
    Message('note_on', channel=0, note=55, velocity=0, time=227),
    Message('note_on', channel=0, note=64, velocity=0, time=0),
    Message('note_on', channel=0, note=59, velocity=80, time=13),
    Message('note_on', channel=0, note=59, velocity=0, time=227),
    Message('note_on', channel=0, note=52, velocity=80, time=13),
    Message('note_on', channel=0, note=64, velocity=80, time=0),
    Message('note_on', channel=0, note=52, velocity=0, time=227),
    Message('note_on', channel=0, note=64, velocity=0, time=0),
    Message('note_on', channel=0, note=59, velocity=80, time=13),
    Message('note_on', channel=0, note=59, velocity=0, time=227),
    Message('note_on', channel=0, note=55, velocity=80, time=13),
    Message('note_on', channel=0, note=64, velocity=80, time=0),
    Message('note_on', channel=0, note=55, velocity=0, time=227),
    Message('note_on', channel=0, note=64, velocity=0, time=0),
    Message('note_on', channel=0, note=59, velocity=80, time=13),
    Message('note_on', channel=0, note=59, velocity=0, time=227),
    Message('note_on', channel=0, note=50, velocity=80, time=13),
    Message('note_on', channel=0, note=62, velocity=80, time=0),
    Message('control_change', channel=0, control=64, value=0, time=1),
    Message('control_change', channel=0, control=64, value=127, time=1),
    Message('note_on', channel=0, note=50, velocity=0, time=225),
    Message('note_on', channel=0, note=62, velocity=0, time=0),
    Message('note_on', channel=0, note=59, velocity=80, time=13),
    Message('note_on', channel=0, note=59, velocity=0, time=227),
    Message('note_on', channel=0, note=55, velocity=80, time=13),
    Message('note_on', channel=0, note=62, velocity=80, time=0),
    Message('note_on', channel=0, note=55, velocity=0, time=227),
    Message('note_on', channel=0, note=62, velocity=0, time=0),
    Message('note_on', channel=0, note=59, velocity=80, time=13),
    Message('note_on', channel=0, note=59, velocity=0, time=227),
    Message('note_on', channel=0, note=50, velocity=80, time=13),
    Message('note_on', channel=0, note=62, velocity=80, time=0),
    Message('note_on', channel=0, note=50, velocity=0, time=227),
    Message('note_on', channel=0, note=62, velocity=0, time=0),
    Message('note_on', channel=0, note=59, velocity=80, time=13),
    Message('note_on', channel=0, note=59, velocity=0, time=227),
    Message('note_on', channel=0, note=55, velocity=80, time=13),
    Message('note_on', channel=0, note=62, velocity=80, time=0),
    Message('note_on', channel=0, note=55, velocity=0, time=227),
    Message('note_on', channel=0, note=62, velocity=0, time=0),
    Message('note_on', channel=0, note=59, velocity=80, time=13),
    Message('note_on', channel=0, note=59, velocity=0, time=227),
    Message('note_on', channel=0, note=50, velocity=80, time=13),
    Message('note_on', channel=0, note=62, velocity=80, time=0),
    Message('control_change', channel=0, control=64, value=0, time=1),
    Message('control_change', channel=0, control=64, value=127, time=1),
    Message('note_on', channel=0, note=50, velocity=0, time=225),
    Message('note_on', channel=0, note=62, velocity=0, time=0),
    Message('note_on', channel=0, note=59, velocity=80, time=13),
    Message('note_on', channel=0, note=59, velocity=0, time=227),
    Message('note_on', channel=0, note=54, velocity=80, time=13),
    Message('note_on', channel=0, note=62, velocity=80, time=0),
    Message('note_on', channel=0, note=54, velocity=0, time=227),
    Message('note_on', channel=0, note=62, velocity=0, time=0),
    Message('note_on', channel=0, note=59, velocity=80, time=13),
    Message('note_on', channel=0, note=59, velocity=0, time=227),
    Message('note_on', channel=0, note=50, velocity=80, time=13),
    Message('note_on', channel=0, note=62, velocity=80, time=0),
    Message('note_on', channel=0, note=50, velocity=0, time=227),
    Message('note_on', channel=0, note=62, velocity=0, time=0),
    Message('note_on', channel=0, note=59, velocity=80, time=13),
    Message('note_on', channel=0, note=59, velocity=0, time=227),
    Message('note_on', channel=0, note=54, velocity=80, time=13),
    Message('note_on', channel=0, note=62, velocity=80, time=0),
    Message('note_on', channel=0, note=54, velocity=0, time=227),
    Message('note_on', channel=0, note=62, velocity=0, time=0),
    Message('note_on', channel=0, note=59, velocity=80, time=13),
    Message('note_on', channel=0, note=59, velocity=0, time=227),
    Message('note_on', channel=0, note=50, velocity=80, time=13),
    Message('note_on', channel=0, note=62, velocity=80, time=0),
    Message('control_change', channel=0, control=64, value=0, time=1),
    Message('control_change', channel=0, control=64, value=127, time=1),
    Message('note_on', channel=0, note=50, velocity=0, time=225),
    Message('note_on', channel=0, note=62, velocity=0, time=0),
    Message('note_on', channel=0, note=57, velocity=80, time=13),
    Message('note_on', channel=0, note=57, velocity=0, time=227),
    Message('note_on', channel=0, note=54, velocity=80, time=13),
    Message('note_on', channel=0, note=62, velocity=80, time=0),
    Message('note_on', channel=0, note=54, velocity=0, time=227),
    Message('note_on', channel=0, note=62, velocity=0, time=0),
    Message('note_on', channel=0, note=57, velocity=80, time=13),
    Message('note_on', channel=0, note=57, velocity=0, time=227),
    Message('note_on', channel=0, note=50, velocity=80, time=13),
    Message('note_on', channel=0, note=62, velocity=80, time=0),
    Message('note_on', channel=0, note=50, velocity=0, time=227),
    Message('note_on', channel=0, note=62, velocity=0, time=0),
    Message('note_on', channel=0, note=57, velocity=80, time=13),
    Message('note_on', channel=0, note=57, velocity=0, time=227),
    Message('note_on', channel=0, note=54, velocity=80, time=13),
    Message('note_on', channel=0, note=62, velocity=80, time=0),
    Message('note_on', channel=0, note=54, velocity=0, time=227),
    Message('note_on', channel=0, note=62, velocity=0, time=0),
    Message('note_on', channel=0, note=57, velocity=80, time=13),
    Message('note_on', channel=0, note=57, velocity=0, time=227),
    Message('note_on', channel=0, note=52, velocity=80, time=13),
    Message('note_on', channel=0, note=64, velocity=80, time=0),
    Message('control_change', channel=0, control=64, value=0, time=1),
    Message('control_change', channel=0, control=64, value=127, time=1),
    Message('note_on', channel=0, note=52, velocity=0, time=225),
    Message('note_on', channel=0, note=64, velocity=0, time=0),
    Message('note_on', channel=0, note=59, velocity=80, time=13),
    Message('note_on', channel=0, note=59, velocity=0, time=227),
    Message('note_on', channel=0, note=55, velocity=80, time=13),
    Message('note_on', channel=0, note=64, velocity=80, time=0),
    Message('note_on', channel=0, note=55, velocity=0, time=227),
    Message('note_on', channel=0, note=64, velocity=0, time=0),
    Message('note_on', channel=0, note=59, velocity=80, time=13),
    Message('note_on', channel=0, note=59, velocity=0, time=227),
    Message('note_on', channel=0, note=52, velocity=80, time=13),
    Message('note_on', channel=0, note=64, velocity=80, time=0),
    Message('note_on', channel=0, note=52, velocity=0, time=227),
    Message('note_on', channel=0, note=64, velocity=0, time=0),
    Message('note_on', channel=0, note=59, velocity=80, time=13),
    Message('note_on', channel=0, note=59, velocity=0, time=227),
    Message('note_on', channel=0, note=55, velocity=80, time=13),
    Message('note_on', channel=0, note=64, velocity=80, time=0),
    Message('note_on', channel=0, note=55, velocity=0, time=227),
    Message('note_on', channel=0, note=64, velocity=0, time=0),
    Message('note_on', channel=0, note=59, velocity=80, time=13),
    Message('note_on', channel=0, note=59, velocity=0, time=227),
    Message('note_on', channel=0, note=50, velocity=80, time=13),
    Message('note_on', channel=0, note=62, velocity=80, time=0),
    Message('control_change', channel=0, control=64, value=0, time=1),
    Message('control_change', channel=0, control=64, value=127, time=1),
    Message('note_on', channel=0, note=50, velocity=0, time=225),
    Message('note_on', channel=0, note=62, velocity=0, time=0),
    Message('note_on', channel=0, note=59, velocity=80, time=13),
    Message('note_on', channel=0, note=59, velocity=0, time=227),
    Message('note_on', channel=0, note=55, velocity=80, time=13),
    Message('note_on', channel=0, note=62, velocity=80, time=0),
    Message('note_on', channel=0, note=55, velocity=0, time=227),
    Message('note_on', channel=0, note=62, velocity=0, time=0),
    Message('note_on', channel=0, note=59, velocity=80, time=13),
    Message('note_on', channel=0, note=59, velocity=0, time=227),
    Message('note_on', channel=0, note=50, velocity=80, time=13),
    Message('note_on', channel=0, note=62, velocity=80, time=0),
    Message('note_on', channel=0, note=50, velocity=0, time=227),
    Message('note_on', channel=0, note=62, velocity=0, time=0),
    Message('note_on', channel=0, note=59, velocity=80, time=13),
    Message('note_on', channel=0, note=59, velocity=0, time=227),
    Message('note_on', channel=0, note=55, velocity=80, time=13),
    Message('note_on', channel=0, note=62, velocity=80, time=0),
    Message('note_on', channel=0, note=55, velocity=0, time=227),
    Message('note_on', channel=0, note=62, velocity=0, time=0),
    Message('note_on', channel=0, note=59, velocity=80, time=13),
    Message('note_on', channel=0, note=59, velocity=0, time=227),
    Message('note_on', channel=0, note=50, velocity=80, time=13),
    Message('note_on', channel=0, note=62, velocity=80, time=0),
    Message('control_change', channel=0, control=64, value=0, time=1),
    Message('control_change', channel=0, control=64, value=127, time=1),
    Message('note_on', channel=0, note=50, velocity=0, time=225),
    Message('note_on', channel=0, note=62, velocity=0, time=0),
    Message('note_on', channel=0, note=59, velocity=80, time=13),
    Message('note_on', channel=0, note=59, velocity=0, time=227),
    Message('note_on', channel=0, note=54, velocity=80, time=13),
    Message('note_on', channel=0, note=62, velocity=80, time=0),
    Message('note_on', channel=0, note=54, velocity=0, time=227),
    Message('note_on', channel=0, note=62, velocity=0, time=0),
    Message('note_on', channel=0, note=59, velocity=80, time=13),
    Message('note_on', channel=0, note=59, velocity=0, time=227),
    Message('note_on', channel=0, note=50, velocity=80, time=13),
    Message('note_on', channel=0, note=62, velocity=80, time=0),
    Message('note_on', channel=0, note=50, velocity=0, time=227),
    Message('note_on', channel=0, note=62, velocity=0, time=0),
    Message('note_on', channel=0, note=59, velocity=80, time=13),
    Message('note_on', channel=0, note=59, velocity=0, time=227),
    Message('note_on', channel=0, note=54, velocity=80, time=13),
    Message('note_on', channel=0, note=62, velocity=80, time=0),
    Message('note_on', channel=0, note=54, velocity=0, time=227),
    Message('note_on', channel=0, note=62, velocity=0, time=0),
    Message('note_on', channel=0, note=59, velocity=80, time=13),
    Message('note_on', channel=0, note=59, velocity=0, time=227),
    Message('note_on', channel=0, note=50, velocity=80, time=13),
    Message('note_on', channel=0, note=62, velocity=80, time=0),
    Message('control_change', channel=0, control=64, value=0, time=1),
    Message('control_change', channel=0, control=64, value=127, time=1),
    Message('note_on', channel=0, note=50, velocity=0, time=225),
    Message('note_on', channel=0, note=62, velocity=0, time=0),
    Message('note_on', channel=0, note=57, velocity=80, time=13),
    Message('note_on', channel=0, note=57, velocity=0, time=227),
    Message('note_on', channel=0, note=54, velocity=80, time=13),
    Message('note_on', channel=0, note=62, velocity=80, time=0),
    Message('note_on', channel=0, note=54, velocity=0, time=227),
    Message('note_on', channel=0, note=62, velocity=0, time=0),
    Message('note_on', channel=0, note=57, velocity=80, time=13),
    Message('note_on', channel=0, note=57, velocity=0, time=227),
    Message('note_on', channel=0, note=50, velocity=80, time=13),
    Message('note_on', channel=0, note=62, velocity=80, time=0),
    Message('note_on', channel=0, note=50, velocity=0, time=227),
    Message('note_on', channel=0, note=62, velocity=0, time=0),
    Message('note_on', channel=0, note=57, velocity=80, time=13),
    Message('note_on', channel=0, note=57, velocity=0, time=227),
    Message('note_on', channel=0, note=54, velocity=80, time=13),
    Message('note_on', channel=0, note=62, velocity=80, time=0),
    Message('note_on', channel=0, note=54, velocity=0, time=227),
    Message('note_on', channel=0, note=62, velocity=0, time=0),
    Message('note_on', channel=0, note=57, velocity=80, time=13),
    Message('note_on', channel=0, note=57, velocity=0, time=227),
    Message('note_on', channel=0, note=52, velocity=80, time=13),
    Message('note_on', channel=0, note=64, velocity=80, time=0),
    Message('control_change', channel=0, control=64, value=0, time=1),
    Message('control_change', channel=0, control=64, value=127, time=1),
    Message('note_on', channel=0, note=52, velocity=0, time=225),
    Message('note_on', channel=0, note=64, velocity=0, time=0),
    Message('note_on', channel=0, note=59, velocity=80, time=13),
    Message('note_on', channel=0, note=59, velocity=0, time=227),
    Message('note_on', channel=0, note=55, velocity=80, time=13),
    Message('note_on', channel=0, note=64, velocity=80, time=0),
    Message('note_on', channel=0, note=55, velocity=0, time=227),
    Message('note_on', channel=0, note=64, velocity=0, time=0),
    Message('note_on', channel=0, note=59, velocity=80, time=13),
    Message('note_on', channel=0, note=59, velocity=0, time=227),
    Message('note_on', channel=0, note=52, velocity=80, time=13),
    Message('note_on', channel=0, note=64, velocity=80, time=0),
    Message('note_on', channel=0, note=52, velocity=0, time=227),
    Message('note_on', channel=0, note=64, velocity=0, time=0),
    Message('note_on', channel=0, note=59, velocity=80, time=13),
    Message('note_on', channel=0, note=59, velocity=0, time=227),
    Message('note_on', channel=0, note=55, velocity=80, time=13),
    Message('note_on', channel=0, note=64, velocity=80, time=0),
    Message('note_on', channel=0, note=55, velocity=0, time=227),
    Message('note_on', channel=0, note=64, velocity=0, time=0),
    Message('note_on', channel=0, note=59, velocity=80, time=13),
    Message('note_on', channel=0, note=59, velocity=0, time=227),
    Message('note_on', channel=0, note=50, velocity=80, time=13),
    Message('note_on', channel=0, note=62, velocity=80, time=0),
    Message('control_change', channel=0, control=64, value=0, time=1),
    Message('control_change', channel=0, control=64, value=127, time=1),
    Message('note_on', channel=0, note=50, velocity=0, time=225),
    Message('note_on', channel=0, note=62, velocity=0, time=0),
    Message('note_on', channel=0, note=59, velocity=80, time=13),
    Message('note_on', channel=0, note=59, velocity=0, time=227),
    Message('note_on', channel=0, note=55, velocity=80, time=13),
    Message('note_on', channel=0, note=62, velocity=80, time=0),
    Message('note_on', channel=0, note=55, velocity=0, time=227),
    Message('note_on', channel=0, note=62, velocity=0, time=0),
    Message('note_on', channel=0, note=59, velocity=80, time=13),
    Message('note_on', channel=0, note=59, velocity=0, time=227),
    Message('note_on', channel=0, note=50, velocity=80, time=13),
    Message('note_on', channel=0, note=62, velocity=80, time=0),
    Message('note_on', channel=0, note=50, velocity=0, time=227),
    Message('note_on', channel=0, note=62, velocity=0, time=0),
    Message('note_on', channel=0, note=59, velocity=80, time=13),
    Message('note_on', channel=0, note=59, velocity=0, time=227),
    Message('note_on', channel=0, note=55, velocity=80, time=13),
    Message('note_on', channel=0, note=62, velocity=80, time=0),
    Message('note_on', channel=0, note=55, velocity=0, time=227),
    Message('note_on', channel=0, note=62, velocity=0, time=0),
    Message('note_on', channel=0, note=59, velocity=80, time=13),
    Message('note_on', channel=0, note=59, velocity=0, time=227),
    Message('note_on', channel=0, note=50, velocity=80, time=13),
    Message('note_on', channel=0, note=62, velocity=80, time=0),
    Message('control_change', channel=0, control=64, value=0, time=1),
    Message('control_change', channel=0, control=64, value=127, time=1),
    Message('note_on', channel=0, note=50, velocity=0, time=225),
    Message('note_on', channel=0, note=62, velocity=0, time=0),
    Message('note_on', channel=0, note=59, velocity=80, time=13),
    Message('note_on', channel=0, note=59, velocity=0, time=227),
    Message('note_on', channel=0, note=54, velocity=80, time=13),
    Message('note_on', channel=0, note=62, velocity=80, time=0),
    Message('note_on', channel=0, note=54, velocity=0, time=227),
    Message('note_on', channel=0, note=62, velocity=0, time=0),
    Message('note_on', channel=0, note=59, velocity=80, time=13),
    Message('note_on', channel=0, note=59, velocity=0, time=227),
    Message('note_on', channel=0, note=50, velocity=80, time=13),
    Message('note_on', channel=0, note=62, velocity=80, time=0),
    Message('note_on', channel=0, note=50, velocity=0, time=227),
    Message('note_on', channel=0, note=62, velocity=0, time=0),
    Message('note_on', channel=0, note=59, velocity=80, time=13),
    Message('note_on', channel=0, note=59, velocity=0, time=227),
    Message('note_on', channel=0, note=54, velocity=80, time=13),
    Message('note_on', channel=0, note=62, velocity=80, time=0),
    Message('note_on', channel=0, note=54, velocity=0, time=227),
    Message('note_on', channel=0, note=62, velocity=0, time=0),
    Message('note_on', channel=0, note=59, velocity=80, time=13),
    Message('note_on', channel=0, note=59, velocity=0, time=227),
    Message('note_on', channel=0, note=50, velocity=80, time=13),
    Message('note_on', channel=0, note=62, velocity=80, time=0),
    Message('control_change', channel=0, control=64, value=0, time=1),
    Message('control_change', channel=0, control=64, value=127, time=1),
    Message('note_on', channel=0, note=50, velocity=0, time=225),
    Message('note_on', channel=0, note=62, velocity=0, time=0),
    Message('note_on', channel=0, note=57, velocity=80, time=13),
    Message('note_on', channel=0, note=57, velocity=0, time=227),
    Message('note_on', channel=0, note=54, velocity=80, time=13),
    Message('note_on', channel=0, note=62, velocity=80, time=0),
    Message('note_on', channel=0, note=54, velocity=0, time=227),
    Message('note_on', channel=0, note=62, velocity=0, time=0),
    Message('note_on', channel=0, note=57, velocity=80, time=13),
    Message('note_on', channel=0, note=57, velocity=0, time=227),
    Message('note_on', channel=0, note=50, velocity=80, time=13),
    Message('note_on', channel=0, note=62, velocity=80, time=0),
    Message('note_on', channel=0, note=50, velocity=0, time=227),
    Message('note_on', channel=0, note=62, velocity=0, time=0),
    Message('note_on', channel=0, note=57, velocity=80, time=13),
    Message('note_on', channel=0, note=57, velocity=0, time=227),
    Message('note_on', channel=0, note=54, velocity=80, time=13),
    Message('note_on', channel=0, note=62, velocity=80, time=0),
    Message('note_on', channel=0, note=54, velocity=0, time=227),
    Message('note_on', channel=0, note=62, velocity=0, time=0),
    Message('note_on', channel=0, note=57, velocity=80, time=13),
    Message('note_on', channel=0, note=57, velocity=0, time=227),
    Message('note_on', channel=0, note=52, velocity=80, time=13),
    Message('note_on', channel=0, note=64, velocity=80, time=0),
    Message('control_change', channel=0, control=64, value=0, time=1),
    Message('control_change', channel=0, control=64, value=127, time=1),
    Message('note_on', channel=0, note=52, velocity=0, time=225),
    Message('note_on', channel=0, note=64, velocity=0, time=0),
    Message('note_on', channel=0, note=59, velocity=80, time=13),
    Message('note_on', channel=0, note=59, velocity=0, time=227),
    Message('note_on', channel=0, note=55, velocity=80, time=13),
    Message('note_on', channel=0, note=64, velocity=80, time=0),
    Message('note_on', channel=0, note=55, velocity=0, time=227),
    Message('note_on', channel=0, note=64, velocity=0, time=0),
    Message('note_on', channel=0, note=59, velocity=80, time=13),
    Message('note_on', channel=0, note=59, velocity=0, time=227),
    Message('note_on', channel=0, note=52, velocity=80, time=13),
    Message('note_on', channel=0, note=64, velocity=80, time=0),
    Message('note_on', channel=0, note=52, velocity=0, time=227),
    Message('note_on', channel=0, note=64, velocity=0, time=0),
    Message('note_on', channel=0, note=59, velocity=80, time=13),
    Message('note_on', channel=0, note=59, velocity=0, time=227),
    Message('note_on', channel=0, note=55, velocity=80, time=13),
    Message('note_on', channel=0, note=64, velocity=80, time=0),
    Message('note_on', channel=0, note=55, velocity=0, time=227),
    Message('note_on', channel=0, note=64, velocity=0, time=0),
    Message('note_on', channel=0, note=59, velocity=80, time=13),
    Message('note_on', channel=0, note=59, velocity=0, time=227),
    Message('note_on', channel=0, note=50, velocity=80, time=13),
    Message('note_on', channel=0, note=62, velocity=80, time=0),
    Message('control_change', channel=0, control=64, value=0, time=1),
    Message('control_change', channel=0, control=64, value=127, time=1),
    Message('note_on', channel=0, note=50, velocity=0, time=225),
    Message('note_on', channel=0, note=62, velocity=0, time=0),
    Message('note_on', channel=0, note=59, velocity=80, time=13),
    Message('note_on', channel=0, note=59, velocity=0, time=227),
    Message('note_on', channel=0, note=55, velocity=80, time=13),
    Message('note_on', channel=0, note=62, velocity=80, time=0),
    Message('note_on', channel=0, note=55, velocity=0, time=227),
    Message('note_on', channel=0, note=62, velocity=0, time=0),
    Message('note_on', channel=0, note=59, velocity=80, time=13),
    Message('note_on', channel=0, note=59, velocity=0, time=227),
    Message('note_on', channel=0, note=50, velocity=80, time=13),
    Message('note_on', channel=0, note=62, velocity=80, time=0),
    Message('note_on', channel=0, note=50, velocity=0, time=227),
    Message('note_on', channel=0, note=62, velocity=0, time=0),
    Message('note_on', channel=0, note=59, velocity=80, time=13),
    Message('note_on', channel=0, note=59, velocity=0, time=227),
    Message('note_on', channel=0, note=55, velocity=80, time=13),
    Message('note_on', channel=0, note=62, velocity=80, time=0),
    Message('note_on', channel=0, note=55, velocity=0, time=227),
    Message('note_on', channel=0, note=62, velocity=0, time=0),
    Message('note_on', channel=0, note=59, velocity=80, time=13),
    Message('note_on', channel=0, note=59, velocity=0, time=227),
    Message('note_on', channel=0, note=50, velocity=80, time=13),
    Message('note_on', channel=0, note=62, velocity=80, time=0),
    Message('control_change', channel=0, control=64, value=0, time=1),
    Message('control_change', channel=0, control=64, value=127, time=1),
    Message('note_on', channel=0, note=50, velocity=0, time=225),
    Message('note_on', channel=0, note=62, velocity=0, time=0),
    Message('note_on', channel=0, note=59, velocity=80, time=13),
    Message('note_on', channel=0, note=59, velocity=0, time=227),
    Message('note_on', channel=0, note=54, velocity=80, time=13),
    Message('note_on', channel=0, note=62, velocity=80, time=0),
    Message('note_on', channel=0, note=54, velocity=0, time=227),
    Message('note_on', channel=0, note=62, velocity=0, time=0),
    Message('note_on', channel=0, note=59, velocity=80, time=13),
    Message('note_on', channel=0, note=59, velocity=0, time=227),
    Message('note_on', channel=0, note=50, velocity=80, time=13),
    Message('note_on', channel=0, note=62, velocity=80, time=0),
    Message('note_on', channel=0, note=50, velocity=0, time=227),
    Message('note_on', channel=0, note=62, velocity=0, time=0),
    Message('note_on', channel=0, note=59, velocity=80, time=13),
    Message('note_on', channel=0, note=59, velocity=0, time=227),
    Message('note_on', channel=0, note=54, velocity=80, time=13),
    Message('note_on', channel=0, note=62, velocity=80, time=0),
    Message('note_on', channel=0, note=54, velocity=0, time=227),
    Message('note_on', channel=0, note=62, velocity=0, time=0),
    Message('note_on', channel=0, note=59, velocity=80, time=13),
    Message('note_on', channel=0, note=59, velocity=0, time=227),
    Message('note_on', channel=0, note=50, velocity=80, time=13),
    Message('note_on', channel=0, note=62, velocity=80, time=0),
    Message('control_change', channel=0, control=64, value=0, time=1),
    Message('control_change', channel=0, control=64, value=127, time=1),
    Message('note_on', channel=0, note=50, velocity=0, time=225),
    Message('note_on', channel=0, note=62, velocity=0, time=0),
    Message('note_on', channel=0, note=57, velocity=80, time=13),
    Message('note_on', channel=0, note=57, velocity=0, time=227),
    Message('note_on', channel=0, note=54, velocity=80, time=13),
    Message('note_on', channel=0, note=62, velocity=80, time=0),
    Message('note_on', channel=0, note=54, velocity=0, time=227),
    Message('note_on', channel=0, note=62, velocity=0, time=0),
    Message('note_on', channel=0, note=57, velocity=80, time=13),
    Message('note_on', channel=0, note=57, velocity=0, time=227),
    Message('note_on', channel=0, note=50, velocity=80, time=13),
    Message('note_on', channel=0, note=62, velocity=80, time=0),
    Message('note_on', channel=0, note=50, velocity=0, time=227),
    Message('note_on', channel=0, note=62, velocity=0, time=0),
    Message('note_on', channel=0, note=57, velocity=80, time=13),
    Message('note_on', channel=0, note=57, velocity=0, time=227),
    Message('note_on', channel=0, note=54, velocity=80, time=13),
    Message('note_on', channel=0, note=62, velocity=80, time=0),
    Message('note_on', channel=0, note=54, velocity=0, time=227),
    Message('note_on', channel=0, note=62, velocity=0, time=0),
    Message('note_on', channel=0, note=57, velocity=80, time=13),
    Message('note_on', channel=0, note=57, velocity=0, time=227),
    Message('note_on', channel=0, note=52, velocity=80, time=13),
    Message('note_on', channel=0, note=64, velocity=80, time=0),
    Message('control_change', channel=0, control=64, value=0, time=1),
    Message('control_change', channel=0, control=64, value=127, time=1),
    Message('note_on', channel=0, note=52, velocity=0, time=225),
    Message('note_on', channel=0, note=64, velocity=0, time=0),
    Message('note_on', channel=0, note=59, velocity=80, time=13),
    Message('note_on', channel=0, note=59, velocity=0, time=227),
    Message('note_on', channel=0, note=55, velocity=80, time=13),
    Message('note_on', channel=0, note=64, velocity=80, time=0),
    Message('note_on', channel=0, note=55, velocity=0, time=227),
    Message('note_on', channel=0, note=64, velocity=0, time=0),
    Message('note_on', channel=0, note=59, velocity=80, time=13),
    Message('note_on', channel=0, note=59, velocity=0, time=227),
    Message('note_on', channel=0, note=52, velocity=80, time=13),
    Message('note_on', channel=0, note=64, velocity=80, time=0),
    Message('note_on', channel=0, note=52, velocity=0, time=227),
    Message('note_on', channel=0, note=64, velocity=0, time=0),
    Message('note_on', channel=0, note=59, velocity=80, time=13),
    Message('note_on', channel=0, note=59, velocity=0, time=227),
    Message('note_on', channel=0, note=55, velocity=80, time=13),
    Message('note_on', channel=0, note=64, velocity=80, time=0),
    Message('note_on', channel=0, note=55, velocity=0, time=227),
    Message('note_on', channel=0, note=64, velocity=0, time=0),
    Message('note_on', channel=0, note=59, velocity=80, time=13),
    Message('note_on', channel=0, note=59, velocity=0, time=227),
    Message('note_on', channel=0, note=50, velocity=80, time=13),
    Message('note_on', channel=0, note=62, velocity=80, time=0),
    Message('control_change', channel=0, control=64, value=0, time=1),
    Message('control_change', channel=0, control=64, value=127, time=1),
    Message('note_on', channel=0, note=50, velocity=0, time=225),
    Message('note_on', channel=0, note=62, velocity=0, time=0),
    Message('note_on', channel=0, note=59, velocity=80, time=13),
    Message('note_on', channel=0, note=59, velocity=0, time=227),
    Message('note_on', channel=0, note=55, velocity=80, time=13),
    Message('note_on', channel=0, note=62, velocity=80, time=0),
    Message('note_on', channel=0, note=55, velocity=0, time=227),
    Message('note_on', channel=0, note=62, velocity=0, time=0),
    Message('note_on', channel=0, note=59, velocity=80, time=13),
    Message('note_on', channel=0, note=59, velocity=0, time=227),
    Message('note_on', channel=0, note=50, velocity=80, time=13),
    Message('note_on', channel=0, note=62, velocity=80, time=0),
    Message('note_on', channel=0, note=50, velocity=0, time=227),
    Message('note_on', channel=0, note=62, velocity=0, time=0),
    Message('note_on', channel=0, note=59, velocity=80, time=13),
    Message('note_on', channel=0, note=59, velocity=0, time=227),
    Message('note_on', channel=0, note=55, velocity=80, time=13),
    Message('note_on', channel=0, note=62, velocity=80, time=0),
    Message('note_on', channel=0, note=55, velocity=0, time=227),
    Message('note_on', channel=0, note=62, velocity=0, time=0),
    Message('note_on', channel=0, note=59, velocity=80, time=13),
    Message('note_on', channel=0, note=59, velocity=0, time=227),
    Message('note_on', channel=0, note=50, velocity=80, time=13),
    Message('note_on', channel=0, note=62, velocity=80, time=0),
    Message('control_change', channel=0, control=64, value=0, time=1),
    Message('control_change', channel=0, control=64, value=127, time=1),
    Message('note_on', channel=0, note=50, velocity=0, time=225),
    Message('note_on', channel=0, note=62, velocity=0, time=0),
    Message('note_on', channel=0, note=59, velocity=80, time=13),
    Message('note_on', channel=0, note=59, velocity=0, time=227),
    Message('note_on', channel=0, note=54, velocity=80, time=13),
    Message('note_on', channel=0, note=62, velocity=80, time=0),
    Message('note_on', channel=0, note=54, velocity=0, time=227),
    Message('note_on', channel=0, note=62, velocity=0, time=0),
    Message('note_on', channel=0, note=59, velocity=80, time=13),
    Message('note_on', channel=0, note=59, velocity=0, time=227),
    Message('note_on', channel=0, note=50, velocity=80, time=13),
    Message('note_on', channel=0, note=62, velocity=80, time=0),
    Message('note_on', channel=0, note=50, velocity=0, time=227),
    Message('note_on', channel=0, note=62, velocity=0, time=0),
    Message('note_on', channel=0, note=59, velocity=80, time=13),
    Message('note_on', channel=0, note=59, velocity=0, time=227),
    Message('note_on', channel=0, note=54, velocity=80, time=13),
    Message('note_on', channel=0, note=62, velocity=80, time=0),
    Message('note_on', channel=0, note=54, velocity=0, time=227),
    Message('note_on', channel=0, note=62, velocity=0, time=0),
    Message('note_on', channel=0, note=59, velocity=80, time=13),
    Message('note_on', channel=0, note=59, velocity=0, time=227),
    Message('note_on', channel=0, note=50, velocity=80, time=13),
    Message('note_on', channel=0, note=62, velocity=80, time=0),
    Message('control_change', channel=0, control=64, value=0, time=1),
    Message('control_change', channel=0, control=64, value=127, time=1),
    Message('note_on', channel=0, note=50, velocity=0, time=225),
    Message('note_on', channel=0, note=62, velocity=0, time=0),
    Message('note_on', channel=0, note=57, velocity=80, time=13),
    Message('note_on', channel=0, note=57, velocity=0, time=227),
    Message('note_on', channel=0, note=54, velocity=80, time=13),
    Message('note_on', channel=0, note=62, velocity=80, time=0),
    Message('note_on', channel=0, note=54, velocity=0, time=227),
    Message('note_on', channel=0, note=62, velocity=0, time=0),
    Message('note_on', channel=0, note=57, velocity=80, time=13),
    Message('note_on', channel=0, note=57, velocity=0, time=227),
    Message('note_on', channel=0, note=50, velocity=80, time=13),
    Message('note_on', channel=0, note=62, velocity=80, time=0),
    Message('note_on', channel=0, note=50, velocity=0, time=227),
    Message('note_on', channel=0, note=62, velocity=0, time=0),
    Message('note_on', channel=0, note=57, velocity=80, time=13),
    Message('note_on', channel=0, note=57, velocity=0, time=227),
    Message('note_on', channel=0, note=54, velocity=80, time=13),
    Message('note_on', channel=0, note=62, velocity=80, time=0),
    Message('note_on', channel=0, note=54, velocity=0, time=227),
    Message('note_on', channel=0, note=62, velocity=0, time=0),
    Message('note_on', channel=0, note=57, velocity=80, time=13),
    Message('note_on', channel=0, note=57, velocity=0, time=227),
    Message('note_on', channel=0, note=52, velocity=80, time=13),
    Message('note_on', channel=0, note=64, velocity=80, time=0),
    Message('control_change', channel=0, control=64, value=0, time=1),
    Message('control_change', channel=0, control=64, value=127, time=1),
    Message('note_on', channel=0, note=52, velocity=0, time=225),
    Message('note_on', channel=0, note=64, velocity=0, time=0),
    Message('note_on', channel=0, note=59, velocity=80, time=13),
    Message('note_on', channel=0, note=59, velocity=0, time=227),
    Message('note_on', channel=0, note=55, velocity=80, time=13),
    Message('note_on', channel=0, note=64, velocity=80, time=0),
    Message('note_on', channel=0, note=55, velocity=0, time=227),
    Message('note_on', channel=0, note=64, velocity=0, time=0),
    Message('note_on', channel=0, note=59, velocity=80, time=13),
    Message('note_on', channel=0, note=59, velocity=0, time=227),
    Message('note_on', channel=0, note=52, velocity=80, time=13),
    Message('note_on', channel=0, note=64, velocity=80, time=0),
    Message('note_on', channel=0, note=52, velocity=0, time=227),
    Message('note_on', channel=0, note=64, velocity=0, time=0),
    Message('note_on', channel=0, note=59, velocity=80, time=13),
    Message('note_on', channel=0, note=59, velocity=0, time=227),
    Message('note_on', channel=0, note=55, velocity=80, time=13),
    Message('note_on', channel=0, note=64, velocity=80, time=0),
    Message('note_on', channel=0, note=55, velocity=0, time=227),
    Message('note_on', channel=0, note=64, velocity=0, time=0),
    Message('note_on', channel=0, note=59, velocity=80, time=13),
    Message('note_on', channel=0, note=59, velocity=0, time=227),
    Message('note_on', channel=0, note=50, velocity=80, time=13),
    Message('note_on', channel=0, note=62, velocity=80, time=0),
    Message('control_change', channel=0, control=64, value=0, time=1),
    Message('control_change', channel=0, control=64, value=127, time=1),
    Message('note_on', channel=0, note=50, velocity=0, time=225),
    Message('note_on', channel=0, note=62, velocity=0, time=0),
    Message('note_on', channel=0, note=59, velocity=80, time=13),
    Message('note_on', channel=0, note=59, velocity=0, time=227),
    Message('note_on', channel=0, note=55, velocity=80, time=13),
    Message('note_on', channel=0, note=62, velocity=80, time=0),
    Message('note_on', channel=0, note=55, velocity=0, time=227),
    Message('note_on', channel=0, note=62, velocity=0, time=0),
    Message('note_on', channel=0, note=59, velocity=80, time=13),
    Message('note_on', channel=0, note=59, velocity=0, time=227),
    Message('note_on', channel=0, note=50, velocity=80, time=13),
    Message('note_on', channel=0, note=62, velocity=80, time=0),
    Message('note_on', channel=0, note=50, velocity=0, time=227),
    Message('note_on', channel=0, note=62, velocity=0, time=0),
    Message('note_on', channel=0, note=59, velocity=80, time=13),
    Message('note_on', channel=0, note=59, velocity=0, time=227),
    Message('note_on', channel=0, note=55, velocity=80, time=13),
    Message('note_on', channel=0, note=62, velocity=80, time=0),
    Message('note_on', channel=0, note=55, velocity=0, time=227),
    Message('note_on', channel=0, note=62, velocity=0, time=0),
    Message('note_on', channel=0, note=59, velocity=80, time=13),
    Message('note_on', channel=0, note=59, velocity=0, time=227),
    Message('note_on', channel=0, note=50, velocity=80, time=13),
    Message('note_on', channel=0, note=62, velocity=80, time=0),
    Message('control_change', channel=0, control=64, value=0, time=1),
    Message('control_change', channel=0, control=64, value=127, time=1),
    Message('note_on', channel=0, note=50, velocity=0, time=225),
    Message('note_on', channel=0, note=62, velocity=0, time=0),
    Message('note_on', channel=0, note=59, velocity=80, time=13),
    Message('note_on', channel=0, note=59, velocity=0, time=227),
    Message('note_on', channel=0, note=54, velocity=80, time=13),
    Message('note_on', channel=0, note=62, velocity=80, time=0),
    Message('note_on', channel=0, note=54, velocity=0, time=227),
    Message('note_on', channel=0, note=62, velocity=0, time=0),
    Message('note_on', channel=0, note=59, velocity=80, time=13),
    Message('note_on', channel=0, note=59, velocity=0, time=227),
    Message('note_on', channel=0, note=50, velocity=80, time=13),
    Message('note_on', channel=0, note=62, velocity=80, time=0),
    Message('note_on', channel=0, note=50, velocity=0, time=227),
    Message('note_on', channel=0, note=62, velocity=0, time=0),
    Message('note_on', channel=0, note=59, velocity=80, time=13),
    Message('note_on', channel=0, note=59, velocity=0, time=227),
    Message('note_on', channel=0, note=54, velocity=80, time=13),
    Message('note_on', channel=0, note=62, velocity=80, time=0),
    Message('note_on', channel=0, note=54, velocity=0, time=227),
    Message('note_on', channel=0, note=62, velocity=0, time=0),
    Message('note_on', channel=0, note=59, velocity=80, time=13),
    Message('note_on', channel=0, note=59, velocity=0, time=227),
    Message('note_on', channel=0, note=50, velocity=80, time=13),
    Message('note_on', channel=0, note=62, velocity=80, time=0),
    Message('control_change', channel=0, control=64, value=0, time=1),
    Message('control_change', channel=0, control=64, value=127, time=1),
    Message('note_on', channel=0, note=50, velocity=0, time=225),
    Message('note_on', channel=0, note=62, velocity=0, time=0),
    Message('note_on', channel=0, note=57, velocity=80, time=13),
    Message('note_on', channel=0, note=57, velocity=0, time=227),
    Message('note_on', channel=0, note=54, velocity=80, time=13),
    Message('note_on', channel=0, note=62, velocity=80, time=0),
    Message('note_on', channel=0, note=54, velocity=0, time=227),
    Message('note_on', channel=0, note=62, velocity=0, time=0),
    Message('note_on', channel=0, note=57, velocity=80, time=13),
    Message('note_on', channel=0, note=57, velocity=0, time=227),
    Message('note_on', channel=0, note=50, velocity=80, time=13),
    Message('note_on', channel=0, note=62, velocity=80, time=0),
    Message('note_on', channel=0, note=50, velocity=0, time=227),
    Message('note_on', channel=0, note=62, velocity=0, time=0),
    Message('note_on', channel=0, note=57, velocity=80, time=13),
    Message('note_on', channel=0, note=57, velocity=0, time=227),
    Message('note_on', channel=0, note=54, velocity=80, time=13),
    Message('note_on', channel=0, note=62, velocity=80, time=0),
    Message('note_on', channel=0, note=54, velocity=0, time=227),
    Message('note_on', channel=0, note=62, velocity=0, time=0),
    Message('note_on', channel=0, note=57, velocity=80, time=13),
    Message('note_on', channel=0, note=57, velocity=0, time=227),
    Message('note_on', channel=0, note=52, velocity=80, time=13),
    Message('note_on', channel=0, note=64, velocity=80, time=0),
    Message('control_change', channel=0, control=64, value=0, time=1),
    Message('control_change', channel=0, control=64, value=127, time=1),
    Message('note_on', channel=0, note=52, velocity=0, time=225),
    Message('note_on', channel=0, note=64, velocity=0, time=0),
    Message('note_on', channel=0, note=59, velocity=80, time=13),
    Message('note_on', channel=0, note=59, velocity=0, time=227),
    Message('note_on', channel=0, note=55, velocity=80, time=13),
    Message('note_on', channel=0, note=64, velocity=80, time=0),
    Message('note_on', channel=0, note=55, velocity=0, time=227),
    Message('note_on', channel=0, note=64, velocity=0, time=0),
    Message('note_on', channel=0, note=59, velocity=80, time=13),
    Message('note_on', channel=0, note=59, velocity=0, time=227),
    Message('note_on', channel=0, note=52, velocity=80, time=13),
    Message('note_on', channel=0, note=64, velocity=80, time=0),
    Message('note_on', channel=0, note=52, velocity=0, time=227),
    Message('note_on', channel=0, note=64, velocity=0, time=0),
    Message('note_on', channel=0, note=59, velocity=80, time=13),
    Message('note_on', channel=0, note=59, velocity=0, time=227),
    Message('note_on', channel=0, note=55, velocity=80, time=13),
    Message('note_on', channel=0, note=64, velocity=80, time=0),
    Message('note_on', channel=0, note=55, velocity=0, time=227),
    Message('note_on', channel=0, note=64, velocity=0, time=0),
    Message('note_on', channel=0, note=59, velocity=80, time=13),
    Message('note_on', channel=0, note=59, velocity=0, time=227),
    Message('note_on', channel=0, note=50, velocity=80, time=13),
    Message('note_on', channel=0, note=62, velocity=80, time=0),
    Message('control_change', channel=0, control=64, value=0, time=1),
    Message('control_change', channel=0, control=64, value=127, time=1),
    Message('note_on', channel=0, note=50, velocity=0, time=225),
    Message('note_on', channel=0, note=62, velocity=0, time=0),
    Message('note_on', channel=0, note=59, velocity=80, time=13),
    Message('note_on', channel=0, note=59, velocity=0, time=227),
    Message('note_on', channel=0, note=55, velocity=80, time=13),
    Message('note_on', channel=0, note=62, velocity=80, time=0),
    Message('note_on', channel=0, note=55, velocity=0, time=227),
    Message('note_on', channel=0, note=62, velocity=0, time=0),
    Message('note_on', channel=0, note=59, velocity=80, time=13),
    Message('note_on', channel=0, note=59, velocity=0, time=227),
    Message('note_on', channel=0, note=50, velocity=80, time=13),
    Message('note_on', channel=0, note=62, velocity=80, time=0),
    Message('note_on', channel=0, note=50, velocity=0, time=227),
    Message('note_on', channel=0, note=62, velocity=0, time=0),
    Message('note_on', channel=0, note=59, velocity=80, time=13),
    Message('note_on', channel=0, note=59, velocity=0, time=227),
    Message('note_on', channel=0, note=55, velocity=80, time=13),
    Message('note_on', channel=0, note=62, velocity=80, time=0),
    Message('note_on', channel=0, note=55, velocity=0, time=227),
    Message('note_on', channel=0, note=62, velocity=0, time=0),
    Message('note_on', channel=0, note=59, velocity=80, time=13),
    Message('note_on', channel=0, note=59, velocity=0, time=227),
    Message('note_on', channel=0, note=50, velocity=80, time=13),
    Message('note_on', channel=0, note=62, velocity=80, time=0),
    Message('control_change', channel=0, control=64, value=0, time=1),
    Message('control_change', channel=0, control=64, value=127, time=1),
    Message('note_on', channel=0, note=50, velocity=0, time=225),
    Message('note_on', channel=0, note=62, velocity=0, time=0),
    Message('note_on', channel=0, note=59, velocity=80, time=13),
    Message('note_on', channel=0, note=59, velocity=0, time=227),
    Message('note_on', channel=0, note=54, velocity=80, time=13),
    Message('note_on', channel=0, note=62, velocity=80, time=0),
    Message('note_on', channel=0, note=54, velocity=0, time=227),
    Message('note_on', channel=0, note=62, velocity=0, time=0),
    Message('note_on', channel=0, note=59, velocity=80, time=13),
    Message('note_on', channel=0, note=59, velocity=0, time=227),
    Message('note_on', channel=0, note=50, velocity=80, time=13),
    Message('note_on', channel=0, note=62, velocity=80, time=0),
    Message('note_on', channel=0, note=50, velocity=0, time=227),
    Message('note_on', channel=0, note=62, velocity=0, time=0),
    Message('note_on', channel=0, note=59, velocity=80, time=13),
    Message('note_on', channel=0, note=59, velocity=0, time=227),
    Message('note_on', channel=0, note=54, velocity=80, time=13),
    Message('note_on', channel=0, note=62, velocity=80, time=0),
    Message('note_on', channel=0, note=54, velocity=0, time=227),
    Message('note_on', channel=0, note=62, velocity=0, time=0),
    Message('note_on', channel=0, note=59, velocity=80, time=13),
    Message('note_on', channel=0, note=59, velocity=0, time=227),
    Message('note_on', channel=0, note=50, velocity=80, time=13),
    Message('note_on', channel=0, note=62, velocity=80, time=0),
    Message('control_change', channel=0, control=64, value=0, time=1),
    Message('control_change', channel=0, control=64, value=127, time=1),
    Message('note_on', channel=0, note=50, velocity=0, time=225),
    Message('note_on', channel=0, note=62, velocity=0, time=0),
    Message('note_on', channel=0, note=57, velocity=80, time=13),
    Message('note_on', channel=0, note=57, velocity=0, time=227),
    Message('note_on', channel=0, note=54, velocity=80, time=13),
    Message('note_on', channel=0, note=62, velocity=80, time=0),
    Message('note_on', channel=0, note=54, velocity=0, time=227),
    Message('note_on', channel=0, note=62, velocity=0, time=0),
    Message('note_on', channel=0, note=57, velocity=80, time=13),
    Message('note_on', channel=0, note=57, velocity=0, time=227),
    Message('note_on', channel=0, note=50, velocity=80, time=13),
    Message('note_on', channel=0, note=62, velocity=80, time=0),
    Message('note_on', channel=0, note=50, velocity=0, time=227),
    Message('note_on', channel=0, note=62, velocity=0, time=0),
    Message('note_on', channel=0, note=57, velocity=80, time=13),
    Message('note_on', channel=0, note=57, velocity=0, time=227),
    Message('note_on', channel=0, note=54, velocity=80, time=13),
    Message('note_on', channel=0, note=62, velocity=80, time=0),
    Message('note_on', channel=0, note=54, velocity=0, time=227),
    Message('note_on', channel=0, note=62, velocity=0, time=0),
    Message('note_on', channel=0, note=57, velocity=80, time=13),
    Message('note_on', channel=0, note=57, velocity=0, time=227),
    Message('note_on', channel=0, note=52, velocity=80, time=13),
    Message('note_on', channel=0, note=64, velocity=80, time=0),
    Message('control_change', channel=0, control=64, value=0, time=1),
    Message('control_change', channel=0, control=64, value=127, time=1),
    Message('note_on', channel=0, note=52, velocity=0, time=225),
    Message('note_on', channel=0, note=64, velocity=0, time=0),
    Message('note_on', channel=0, note=59, velocity=80, time=13),
    Message('note_on', channel=0, note=59, velocity=0, time=227),
    Message('note_on', channel=0, note=55, velocity=80, time=13),
    Message('note_on', channel=0, note=64, velocity=80, time=0),
    Message('note_on', channel=0, note=55, velocity=0, time=227),
    Message('note_on', channel=0, note=64, velocity=0, time=0),
    Message('note_on', channel=0, note=59, velocity=80, time=13),
    Message('note_on', channel=0, note=59, velocity=0, time=227),
    Message('note_on', channel=0, note=52, velocity=80, time=13),
    Message('note_on', channel=0, note=64, velocity=80, time=0),
    Message('note_on', channel=0, note=52, velocity=0, time=227),
    Message('note_on', channel=0, note=64, velocity=0, time=0),
    Message('note_on', channel=0, note=59, velocity=80, time=13),
    Message('note_on', channel=0, note=59, velocity=0, time=227),
    Message('note_on', channel=0, note=55, velocity=80, time=13),
    Message('note_on', channel=0, note=64, velocity=80, time=0),
    Message('note_on', channel=0, note=55, velocity=0, time=227),
    Message('note_on', channel=0, note=64, velocity=0, time=0),
    Message('note_on', channel=0, note=59, velocity=80, time=13),
    Message('note_on', channel=0, note=59, velocity=0, time=227),
    Message('note_on', channel=0, note=50, velocity=80, time=13),
    Message('note_on', channel=0, note=62, velocity=80, time=0),
    Message('control_change', channel=0, control=64, value=0, time=1),
    Message('control_change', channel=0, control=64, value=127, time=1),
    Message('note_on', channel=0, note=50, velocity=0, time=225),
    Message('note_on', channel=0, note=62, velocity=0, time=0),
    Message('note_on', channel=0, note=59, velocity=80, time=13),
    Message('note_on', channel=0, note=59, velocity=0, time=227),
    Message('note_on', channel=0, note=55, velocity=80, time=13),
    Message('note_on', channel=0, note=62, velocity=80, time=0),
    Message('note_on', channel=0, note=55, velocity=0, time=227),
    Message('note_on', channel=0, note=62, velocity=0, time=0),
    Message('note_on', channel=0, note=59, velocity=80, time=13),
    Message('note_on', channel=0, note=59, velocity=0, time=227),
    Message('note_on', channel=0, note=50, velocity=80, time=13),
    Message('note_on', channel=0, note=62, velocity=80, time=0),
    Message('note_on', channel=0, note=50, velocity=0, time=227),
    Message('note_on', channel=0, note=62, velocity=0, time=0),
    Message('note_on', channel=0, note=59, velocity=80, time=13),
    Message('note_on', channel=0, note=59, velocity=0, time=227),
    Message('note_on', channel=0, note=55, velocity=80, time=13),
    Message('note_on', channel=0, note=62, velocity=80, time=0),
    Message('note_on', channel=0, note=55, velocity=0, time=227),
    Message('note_on', channel=0, note=62, velocity=0, time=0),
    Message('note_on', channel=0, note=59, velocity=80, time=13),
    Message('note_on', channel=0, note=59, velocity=0, time=227),
    Message('note_on', channel=0, note=50, velocity=80, time=13),
    Message('note_on', channel=0, note=62, velocity=80, time=0),
    Message('control_change', channel=0, control=64, value=0, time=1),
    Message('control_change', channel=0, control=64, value=127, time=1),
    Message('note_on', channel=0, note=50, velocity=0, time=225),
    Message('note_on', channel=0, note=62, velocity=0, time=0),
    Message('note_on', channel=0, note=59, velocity=80, time=13),
    Message('note_on', channel=0, note=59, velocity=0, time=227),
    Message('note_on', channel=0, note=54, velocity=80, time=13),
    Message('note_on', channel=0, note=62, velocity=80, time=0),
    Message('note_on', channel=0, note=54, velocity=0, time=227),
    Message('note_on', channel=0, note=62, velocity=0, time=0),
    Message('note_on', channel=0, note=59, velocity=80, time=13),
    Message('note_on', channel=0, note=59, velocity=0, time=227),
    Message('note_on', channel=0, note=50, velocity=80, time=13),
    Message('note_on', channel=0, note=62, velocity=80, time=0),
    Message('note_on', channel=0, note=50, velocity=0, time=227),
    Message('note_on', channel=0, note=62, velocity=0, time=0),
    Message('note_on', channel=0, note=59, velocity=80, time=13),
    Message('note_on', channel=0, note=59, velocity=0, time=227),
    Message('note_on', channel=0, note=54, velocity=80, time=13),
    Message('note_on', channel=0, note=62, velocity=80, time=0),
    Message('note_on', channel=0, note=54, velocity=0, time=227),
    Message('note_on', channel=0, note=62, velocity=0, time=0),
    Message('note_on', channel=0, note=59, velocity=80, time=13),
    Message('note_on', channel=0, note=59, velocity=0, time=227),
    Message('note_on', channel=0, note=50, velocity=80, time=13),
    Message('note_on', channel=0, note=62, velocity=80, time=0),
    Message('control_change', channel=0, control=64, value=0, time=1),
    Message('control_change', channel=0, control=64, value=127, time=1),
    Message('note_on', channel=0, note=50, velocity=0, time=225),
    Message('note_on', channel=0, note=62, velocity=0, time=0),
    Message('note_on', channel=0, note=57, velocity=80, time=13),
    Message('note_on', channel=0, note=57, velocity=0, time=227),
    Message('note_on', channel=0, note=54, velocity=80, time=13),
    Message('note_on', channel=0, note=62, velocity=80, time=0),
    Message('note_on', channel=0, note=54, velocity=0, time=227),
    Message('note_on', channel=0, note=62, velocity=0, time=0),
    Message('note_on', channel=0, note=57, velocity=80, time=13),
    Message('note_on', channel=0, note=57, velocity=0, time=227),
    Message('note_on', channel=0, note=50, velocity=80, time=13),
    Message('note_on', channel=0, note=62, velocity=80, time=0),
    Message('note_on', channel=0, note=50, velocity=0, time=227),
    Message('note_on', channel=0, note=62, velocity=0, time=0),
    Message('note_on', channel=0, note=57, velocity=80, time=13),
    Message('note_on', channel=0, note=57, velocity=0, time=227),
    Message('note_on', channel=0, note=54, velocity=80, time=13),
    Message('note_on', channel=0, note=62, velocity=80, time=0),
    Message('note_on', channel=0, note=54, velocity=0, time=227),
    Message('note_on', channel=0, note=62, velocity=0, time=0),
    Message('note_on', channel=0, note=57, velocity=80, time=13),
    Message('note_on', channel=0, note=57, velocity=0, time=227),
    Message('note_on', channel=0, note=52, velocity=80, time=13),
    Message('note_on', channel=0, note=64, velocity=80, time=0),
    Message('control_change', channel=0, control=64, value=0, time=1),
    Message('control_change', channel=0, control=64, value=127, time=1),
    Message('note_on', channel=0, note=52, velocity=0, time=225),
    Message('note_on', channel=0, note=64, velocity=0, time=0),
    Message('note_on', channel=0, note=59, velocity=80, time=13),
    Message('note_on', channel=0, note=59, velocity=0, time=227),
    Message('note_on', channel=0, note=55, velocity=80, time=13),
    Message('note_on', channel=0, note=64, velocity=80, time=0),
    Message('note_on', channel=0, note=55, velocity=0, time=227),
    Message('note_on', channel=0, note=64, velocity=0, time=0),
    Message('note_on', channel=0, note=59, velocity=80, time=13),
    Message('note_on', channel=0, note=59, velocity=0, time=227),
    Message('note_on', channel=0, note=52, velocity=80, time=13),
    Message('note_on', channel=0, note=64, velocity=80, time=0),
    Message('note_on', channel=0, note=52, velocity=0, time=227),
    Message('note_on', channel=0, note=64, velocity=0, time=0),
    Message('note_on', channel=0, note=59, velocity=80, time=13),
    Message('note_on', channel=0, note=59, velocity=0, time=227),
    Message('note_on', channel=0, note=55, velocity=80, time=13),
    Message('note_on', channel=0, note=64, velocity=80, time=0),
    Message('note_on', channel=0, note=55, velocity=0, time=227),
    Message('note_on', channel=0, note=64, velocity=0, time=0),
    Message('note_on', channel=0, note=59, velocity=80, time=13),
    Message('note_on', channel=0, note=59, velocity=0, time=227),
    Message('note_on', channel=0, note=50, velocity=80, time=13),
    Message('note_on', channel=0, note=62, velocity=80, time=0),
    Message('control_change', channel=0, control=64, value=0, time=1),
    Message('control_change', channel=0, control=64, value=127, time=1),
    Message('note_on', channel=0, note=50, velocity=0, time=225),
    Message('note_on', channel=0, note=62, velocity=0, time=0),
    Message('note_on', channel=0, note=59, velocity=80, time=13),
    Message('note_on', channel=0, note=59, velocity=0, time=227),
    Message('note_on', channel=0, note=55, velocity=80, time=13),
    Message('note_on', channel=0, note=62, velocity=80, time=0),
    Message('note_on', channel=0, note=55, velocity=0, time=227),
    Message('note_on', channel=0, note=62, velocity=0, time=0),
    Message('note_on', channel=0, note=59, velocity=80, time=13),
    Message('note_on', channel=0, note=59, velocity=0, time=227),
    Message('note_on', channel=0, note=50, velocity=80, time=13),
    Message('note_on', channel=0, note=62, velocity=80, time=0),
    Message('note_on', channel=0, note=50, velocity=0, time=227),
    Message('note_on', channel=0, note=62, velocity=0, time=0),
    Message('note_on', channel=0, note=59, velocity=80, time=13),
    Message('note_on', channel=0, note=59, velocity=0, time=227),
    Message('note_on', channel=0, note=55, velocity=80, time=13),
    Message('note_on', channel=0, note=62, velocity=80, time=0),
    Message('note_on', channel=0, note=55, velocity=0, time=227),
    Message('note_on', channel=0, note=62, velocity=0, time=0),
    Message('note_on', channel=0, note=59, velocity=80, time=13),
    Message('note_on', channel=0, note=59, velocity=0, time=227),
    Message('note_on', channel=0, note=50, velocity=80, time=13),
    Message('note_on', channel=0, note=62, velocity=80, time=0),
    Message('control_change', channel=0, control=64, value=0, time=1),
    Message('control_change', channel=0, control=64, value=127, time=1),
    Message('note_on', channel=0, note=50, velocity=0, time=225),
    Message('note_on', channel=0, note=62, velocity=0, time=0),
    Message('note_on', channel=0, note=59, velocity=80, time=13),
    Message('note_on', channel=0, note=59, velocity=0, time=227),
    Message('note_on', channel=0, note=54, velocity=80, time=13),
    Message('note_on', channel=0, note=62, velocity=80, time=0),
    Message('note_on', channel=0, note=54, velocity=0, time=227),
    Message('note_on', channel=0, note=62, velocity=0, time=0),
    Message('note_on', channel=0, note=59, velocity=80, time=13),
    Message('note_on', channel=0, note=59, velocity=0, time=227),
    Message('note_on', channel=0, note=50, velocity=80, time=13),
    Message('note_on', channel=0, note=62, velocity=80, time=0),
    Message('note_on', channel=0, note=50, velocity=0, time=227),
    Message('note_on', channel=0, note=62, velocity=0, time=0),
    Message('note_on', channel=0, note=59, velocity=80, time=13),
    Message('note_on', channel=0, note=59, velocity=0, time=227),
    Message('note_on', channel=0, note=54, velocity=80, time=13),
    Message('note_on', channel=0, note=62, velocity=80, time=0),
    Message('note_on', channel=0, note=54, velocity=0, time=227),
    Message('note_on', channel=0, note=62, velocity=0, time=0),
    Message('note_on', channel=0, note=59, velocity=80, time=13),
    Message('note_on', channel=0, note=59, velocity=0, time=227),
    Message('note_on', channel=0, note=50, velocity=80, time=13),
    Message('note_on', channel=0, note=62, velocity=80, time=0),
    Message('control_change', channel=0, control=64, value=0, time=1),
    Message('control_change', channel=0, control=64, value=127, time=1),
    Message('note_on', channel=0, note=50, velocity=0, time=225),
    Message('note_on', channel=0, note=62, velocity=0, time=0),
    Message('note_on', channel=0, note=57, velocity=80, time=13),
    Message('note_on', channel=0, note=57, velocity=0, time=227),
    Message('note_on', channel=0, note=54, velocity=80, time=13),
    Message('note_on', channel=0, note=62, velocity=80, time=0),
    Message('note_on', channel=0, note=54, velocity=0, time=227),
    Message('note_on', channel=0, note=62, velocity=0, time=0),
    Message('note_on', channel=0, note=57, velocity=80, time=13),
    Message('note_on', channel=0, note=57, velocity=0, time=227),
    Message('note_on', channel=0, note=50, velocity=80, time=13),
    Message('note_on', channel=0, note=62, velocity=80, time=0),
    Message('note_on', channel=0, note=50, velocity=0, time=227),
    Message('note_on', channel=0, note=62, velocity=0, time=0),
    Message('note_on', channel=0, note=57, velocity=80, time=13),
    Message('note_on', channel=0, note=57, velocity=0, time=227),
    Message('note_on', channel=0, note=54, velocity=80, time=13),
    Message('note_on', channel=0, note=62, velocity=80, time=0),
    Message('note_on', channel=0, note=54, velocity=0, time=227),
    Message('note_on', channel=0, note=62, velocity=0, time=0),
    Message('note_on', channel=0, note=57, velocity=80, time=13),
    Message('note_on', channel=0, note=57, velocity=0, time=227),
    Message('note_on', channel=0, note=52, velocity=80, time=13),
    Message('note_on', channel=0, note=64, velocity=80, time=0),
    Message('control_change', channel=0, control=64, value=0, time=1),
    Message('control_change', channel=0, control=64, value=127, time=1),
    Message('note_on', channel=0, note=52, velocity=0, time=225),
    Message('note_on', channel=0, note=64, velocity=0, time=0),
    Message('note_on', channel=0, note=59, velocity=80, time=13),
    Message('note_on', channel=0, note=59, velocity=0, time=227),
    Message('note_on', channel=0, note=55, velocity=80, time=13),
    Message('note_on', channel=0, note=64, velocity=80, time=0),
    Message('note_on', channel=0, note=55, velocity=0, time=227),
    Message('note_on', channel=0, note=64, velocity=0, time=0),
    Message('note_on', channel=0, note=59, velocity=80, time=13),
    Message('note_on', channel=0, note=59, velocity=0, time=227),
    Message('note_on', channel=0, note=52, velocity=80, time=13),
    Message('note_on', channel=0, note=64, velocity=80, time=0),
    Message('note_on', channel=0, note=52, velocity=0, time=227),
    Message('note_on', channel=0, note=64, velocity=0, time=0),
    Message('note_on', channel=0, note=59, velocity=80, time=13),
    Message('note_on', channel=0, note=59, velocity=0, time=227),
    Message('note_on', channel=0, note=55, velocity=80, time=13),
    Message('note_on', channel=0, note=64, velocity=80, time=0),
    Message('note_on', channel=0, note=55, velocity=0, time=227),
    Message('note_on', channel=0, note=64, velocity=0, time=0),
    Message('note_on', channel=0, note=59, velocity=80, time=13),
    Message('note_on', channel=0, note=59, velocity=0, time=227),
    Message('note_on', channel=0, note=50, velocity=80, time=13),
    Message('note_on', channel=0, note=62, velocity=80, time=0),
    Message('control_change', channel=0, control=64, value=0, time=1),
    Message('control_change', channel=0, control=64, value=127, time=1),
    Message('note_on', channel=0, note=50, velocity=0, time=225),
    Message('note_on', channel=0, note=62, velocity=0, time=0),
    Message('note_on', channel=0, note=59, velocity=80, time=13),
    Message('note_on', channel=0, note=59, velocity=0, time=227),
    Message('note_on', channel=0, note=55, velocity=80, time=13),
    Message('note_on', channel=0, note=62, velocity=80, time=0),
    Message('note_on', channel=0, note=55, velocity=0, time=227),
    Message('note_on', channel=0, note=62, velocity=0, time=0),
    Message('note_on', channel=0, note=59, velocity=80, time=13),
    Message('note_on', channel=0, note=59, velocity=0, time=227),
    Message('note_on', channel=0, note=50, velocity=80, time=13),
    Message('note_on', channel=0, note=62, velocity=80, time=0),
    Message('note_on', channel=0, note=50, velocity=0, time=227),
    Message('note_on', channel=0, note=62, velocity=0, time=0),
    Message('note_on', channel=0, note=59, velocity=80, time=13),
    Message('note_on', channel=0, note=59, velocity=0, time=227),
    Message('note_on', channel=0, note=55, velocity=80, time=13),
    Message('note_on', channel=0, note=62, velocity=80, time=0),
    Message('note_on', channel=0, note=55, velocity=0, time=227),
    Message('note_on', channel=0, note=62, velocity=0, time=0),
    Message('note_on', channel=0, note=59, velocity=80, time=13),
    Message('note_on', channel=0, note=59, velocity=0, time=227),
    Message('note_on', channel=0, note=50, velocity=80, time=13),
    Message('note_on', channel=0, note=62, velocity=80, time=0),
    Message('control_change', channel=0, control=64, value=0, time=1),
    Message('control_change', channel=0, control=64, value=127, time=1),
    Message('note_on', channel=0, note=50, velocity=0, time=225),
    Message('note_on', channel=0, note=62, velocity=0, time=0),
    Message('note_on', channel=0, note=59, velocity=80, time=13),
    Message('note_on', channel=0, note=59, velocity=0, time=227),
    Message('note_on', channel=0, note=54, velocity=80, time=13),
    Message('note_on', channel=0, note=62, velocity=80, time=0),
    Message('note_on', channel=0, note=54, velocity=0, time=227),
    Message('note_on', channel=0, note=62, velocity=0, time=0),
    Message('note_on', channel=0, note=59, velocity=80, time=13),
    Message('note_on', channel=0, note=59, velocity=0, time=227),
    Message('note_on', channel=0, note=50, velocity=80, time=13),
    Message('note_on', channel=0, note=62, velocity=80, time=0),
    Message('note_on', channel=0, note=50, velocity=0, time=227),
    Message('note_on', channel=0, note=62, velocity=0, time=0),
    Message('note_on', channel=0, note=59, velocity=80, time=13),
    Message('note_on', channel=0, note=59, velocity=0, time=227),
    Message('note_on', channel=0, note=54, velocity=80, time=13),
    Message('note_on', channel=0, note=62, velocity=80, time=0),
    Message('note_on', channel=0, note=54, velocity=0, time=227),
    Message('note_on', channel=0, note=62, velocity=0, time=0),
    Message('note_on', channel=0, note=59, velocity=80, time=13),
    Message('note_on', channel=0, note=59, velocity=0, time=227),
    Message('note_on', channel=0, note=50, velocity=80, time=13),
    Message('note_on', channel=0, note=62, velocity=80, time=0),
    Message('control_change', channel=0, control=64, value=0, time=1),
    Message('control_change', channel=0, control=64, value=127, time=1),
    Message('note_on', channel=0, note=50, velocity=0, time=225),
    Message('note_on', channel=0, note=62, velocity=0, time=0),
    Message('note_on', channel=0, note=57, velocity=80, time=13),
    Message('note_on', channel=0, note=57, velocity=0, time=227),
    Message('note_on', channel=0, note=54, velocity=80, time=13),
    Message('note_on', channel=0, note=62, velocity=80, time=0),
    Message('note_on', channel=0, note=54, velocity=0, time=227),
    Message('note_on', channel=0, note=62, velocity=0, time=0),
    Message('note_on', channel=0, note=57, velocity=80, time=13),
    Message('note_on', channel=0, note=57, velocity=0, time=227),
    Message('note_on', channel=0, note=50, velocity=80, time=13),
    Message('note_on', channel=0, note=62, velocity=80, time=0),
    Message('note_on', channel=0, note=50, velocity=0, time=227),
    Message('note_on', channel=0, note=62, velocity=0, time=0),
    Message('note_on', channel=0, note=57, velocity=80, time=13),
    Message('note_on', channel=0, note=57, velocity=0, time=227),
    Message('note_on', channel=0, note=54, velocity=80, time=13),
    Message('note_on', channel=0, note=62, velocity=80, time=0),
    Message('note_on', channel=0, note=54, velocity=0, time=227),
    Message('note_on', channel=0, note=62, velocity=0, time=0),
    Message('note_on', channel=0, note=57, velocity=80, time=13),
    Message('note_on', channel=0, note=57, velocity=0, time=227),
    Message('note_on', channel=0, note=52, velocity=80, time=13),
    Message('note_on', channel=0, note=64, velocity=80, time=0),
    Message('control_change', channel=0, control=64, value=0, time=1),
    Message('control_change', channel=0, control=64, value=127, time=1),
    Message('note_on', channel=0, note=52, velocity=0, time=225),
    Message('note_on', channel=0, note=64, velocity=0, time=0),
    Message('note_on', channel=0, note=59, velocity=80, time=13),
    Message('note_on', channel=0, note=59, velocity=0, time=227),
    Message('note_on', channel=0, note=55, velocity=80, time=13),
    Message('note_on', channel=0, note=64, velocity=80, time=0),
    Message('note_on', channel=0, note=55, velocity=0, time=227),
    Message('note_on', channel=0, note=64, velocity=0, time=0),
    Message('note_on', channel=0, note=59, velocity=80, time=13),
    Message('note_on', channel=0, note=59, velocity=0, time=227),
    Message('note_on', channel=0, note=52, velocity=80, time=13),
    Message('note_on', channel=0, note=64, velocity=80, time=0),
    Message('note_on', channel=0, note=52, velocity=0, time=227),
    Message('note_on', channel=0, note=64, velocity=0, time=0),
    Message('note_on', channel=0, note=59, velocity=80, time=13),
    Message('note_on', channel=0, note=59, velocity=0, time=227),
    Message('note_on', channel=0, note=55, velocity=80, time=13),
    Message('note_on', channel=0, note=64, velocity=80, time=0),
    Message('note_on', channel=0, note=55, velocity=0, time=227),
    Message('note_on', channel=0, note=64, velocity=0, time=0),
    Message('note_on', channel=0, note=59, velocity=80, time=13),
    Message('note_on', channel=0, note=59, velocity=0, time=227),
    Message('note_on', channel=0, note=50, velocity=80, time=13),
    Message('note_on', channel=0, note=62, velocity=80, time=0),
    Message('control_change', channel=0, control=64, value=0, time=1),
    Message('control_change', channel=0, control=64, value=127, time=1),
    Message('note_on', channel=0, note=50, velocity=0, time=225),
    Message('note_on', channel=0, note=62, velocity=0, time=0),
    Message('note_on', channel=0, note=59, velocity=80, time=13),
    Message('note_on', channel=0, note=59, velocity=0, time=227),
    Message('note_on', channel=0, note=55, velocity=80, time=13),
    Message('note_on', channel=0, note=62, velocity=80, time=0),
    Message('note_on', channel=0, note=55, velocity=0, time=227),
    Message('note_on', channel=0, note=62, velocity=0, time=0),
    Message('note_on', channel=0, note=59, velocity=80, time=13),
    Message('note_on', channel=0, note=59, velocity=0, time=227),
    Message('note_on', channel=0, note=50, velocity=80, time=13),
    Message('note_on', channel=0, note=62, velocity=80, time=0),
    Message('note_on', channel=0, note=50, velocity=0, time=227),
    Message('note_on', channel=0, note=62, velocity=0, time=0),
    Message('note_on', channel=0, note=59, velocity=80, time=13),
    Message('note_on', channel=0, note=59, velocity=0, time=227),
    Message('note_on', channel=0, note=55, velocity=80, time=13),
    Message('note_on', channel=0, note=62, velocity=80, time=0),
    Message('note_on', channel=0, note=55, velocity=0, time=227),
    Message('note_on', channel=0, note=62, velocity=0, time=0),
    Message('note_on', channel=0, note=59, velocity=80, time=13),
    Message('note_on', channel=0, note=59, velocity=0, time=227),
    Message('note_on', channel=0, note=50, velocity=80, time=13),
    Message('note_on', channel=0, note=62, velocity=80, time=0),
    Message('control_change', channel=0, control=64, value=0, time=1),
    Message('control_change', channel=0, control=64, value=127, time=1),
    Message('note_on', channel=0, note=50, velocity=0, time=225),
    Message('note_on', channel=0, note=62, velocity=0, time=0),
    Message('note_on', channel=0, note=59, velocity=80, time=13),
    Message('note_on', channel=0, note=59, velocity=0, time=227),
    Message('note_on', channel=0, note=54, velocity=80, time=13),
    Message('note_on', channel=0, note=62, velocity=80, time=0),
    Message('note_on', channel=0, note=54, velocity=0, time=227),
    Message('note_on', channel=0, note=62, velocity=0, time=0),
    Message('note_on', channel=0, note=59, velocity=80, time=13),
    Message('note_on', channel=0, note=59, velocity=0, time=227),
    Message('note_on', channel=0, note=50, velocity=80, time=13),
    Message('note_on', channel=0, note=62, velocity=80, time=0),
    Message('note_on', channel=0, note=50, velocity=0, time=227),
    Message('note_on', channel=0, note=62, velocity=0, time=0),
    Message('note_on', channel=0, note=59, velocity=80, time=13),
    Message('note_on', channel=0, note=59, velocity=0, time=227),
    Message('note_on', channel=0, note=54, velocity=80, time=13),
    Message('note_on', channel=0, note=62, velocity=80, time=0),
    Message('note_on', channel=0, note=54, velocity=0, time=227),
    Message('note_on', channel=0, note=62, velocity=0, time=0),
    Message('note_on', channel=0, note=59, velocity=80, time=13),
    Message('note_on', channel=0, note=59, velocity=0, time=227),
    Message('note_on', channel=0, note=50, velocity=80, time=13),
    Message('note_on', channel=0, note=62, velocity=80, time=0),
    Message('control_change', channel=0, control=64, value=0, time=1),
    Message('control_change', channel=0, control=64, value=127, time=1),
    Message('note_on', channel=0, note=50, velocity=0, time=225),
    Message('note_on', channel=0, note=62, velocity=0, time=0),
    Message('note_on', channel=0, note=57, velocity=80, time=13),
    Message('note_on', channel=0, note=57, velocity=0, time=227),
    Message('note_on', channel=0, note=54, velocity=80, time=13),
    Message('note_on', channel=0, note=62, velocity=80, time=0),
    Message('note_on', channel=0, note=54, velocity=0, time=227),
    Message('note_on', channel=0, note=62, velocity=0, time=0),
    Message('note_on', channel=0, note=57, velocity=80, time=13),
    Message('note_on', channel=0, note=57, velocity=0, time=227),
    Message('note_on', channel=0, note=50, velocity=80, time=13),
    Message('note_on', channel=0, note=62, velocity=80, time=0),
    Message('note_on', channel=0, note=50, velocity=0, time=227),
    Message('note_on', channel=0, note=62, velocity=0, time=0),
    Message('note_on', channel=0, note=57, velocity=80, time=13),
    Message('note_on', channel=0, note=57, velocity=0, time=227),
    Message('note_on', channel=0, note=54, velocity=80, time=13),
    Message('note_on', channel=0, note=62, velocity=80, time=0),
    Message('note_on', channel=0, note=54, velocity=0, time=227),
    Message('note_on', channel=0, note=62, velocity=0, time=0),
    Message('note_on', channel=0, note=57, velocity=80, time=13),
    Message('note_on', channel=0, note=57, velocity=0, time=227),
    Message('note_on', channel=0, note=52, velocity=80, time=13),
    Message('note_on', channel=0, note=64, velocity=80, time=0),
    Message('control_change', channel=0, control=64, value=0, time=1),
    Message('control_change', channel=0, control=64, value=127, time=1),
    Message('note_on', channel=0, note=52, velocity=0, time=225),
    Message('note_on', channel=0, note=64, velocity=0, time=0),
    Message('note_on', channel=0, note=59, velocity=80, time=13),
    Message('note_on', channel=0, note=59, velocity=0, time=227),
    Message('note_on', channel=0, note=55, velocity=80, time=13),
    Message('note_on', channel=0, note=64, velocity=80, time=0),
    Message('note_on', channel=0, note=55, velocity=0, time=227),
    Message('note_on', channel=0, note=64, velocity=0, time=0),
    Message('note_on', channel=0, note=59, velocity=80, time=13),
    Message('note_on', channel=0, note=59, velocity=0, time=227),
    Message('note_on', channel=0, note=52, velocity=80, time=13),
    Message('note_on', channel=0, note=64, velocity=80, time=0),
    Message('note_on', channel=0, note=52, velocity=0, time=227),
    Message('note_on', channel=0, note=64, velocity=0, time=0),
    Message('note_on', channel=0, note=59, velocity=80, time=13),
    Message('note_on', channel=0, note=59, velocity=0, time=227),
    Message('note_on', channel=0, note=55, velocity=80, time=13),
    Message('note_on', channel=0, note=64, velocity=80, time=0),
    Message('note_on', channel=0, note=55, velocity=0, time=227),
    Message('note_on', channel=0, note=64, velocity=0, time=0),
    Message('note_on', channel=0, note=59, velocity=80, time=13),
    Message('note_on', channel=0, note=59, velocity=0, time=227),
    Message('note_on', channel=0, note=50, velocity=80, time=13),
    Message('note_on', channel=0, note=62, velocity=80, time=0),
    Message('control_change', channel=0, control=64, value=0, time=1),
    Message('control_change', channel=0, control=64, value=127, time=1),
    Message('note_on', channel=0, note=50, velocity=0, time=225),
    Message('note_on', channel=0, note=62, velocity=0, time=0),
    Message('note_on', channel=0, note=59, velocity=80, time=13),
    Message('note_on', channel=0, note=59, velocity=0, time=227),
    Message('note_on', channel=0, note=55, velocity=80, time=13),
    Message('note_on', channel=0, note=62, velocity=80, time=0),
    Message('note_on', channel=0, note=55, velocity=0, time=227),
    Message('note_on', channel=0, note=62, velocity=0, time=0),
    Message('note_on', channel=0, note=59, velocity=80, time=13),
    Message('note_on', channel=0, note=59, velocity=0, time=227),
    Message('note_on', channel=0, note=50, velocity=80, time=13),
    Message('note_on', channel=0, note=62, velocity=80, time=0),
    Message('note_on', channel=0, note=50, velocity=0, time=227),
    Message('note_on', channel=0, note=62, velocity=0, time=0),
    Message('note_on', channel=0, note=59, velocity=80, time=13),
    Message('note_on', channel=0, note=59, velocity=0, time=227),
    Message('note_on', channel=0, note=55, velocity=80, time=13),
    Message('note_on', channel=0, note=62, velocity=80, time=0),
    Message('note_on', channel=0, note=55, velocity=0, time=227),
    Message('note_on', channel=0, note=62, velocity=0, time=0),
    Message('note_on', channel=0, note=59, velocity=80, time=13),
    Message('note_on', channel=0, note=59, velocity=0, time=227),
    Message('note_on', channel=0, note=50, velocity=80, time=13),
    Message('note_on', channel=0, note=62, velocity=80, time=0),
    Message('control_change', channel=0, control=64, value=0, time=1),
    Message('control_change', channel=0, control=64, value=127, time=1),
    Message('note_on', channel=0, note=50, velocity=0, time=225),
    Message('note_on', channel=0, note=62, velocity=0, time=0),
    Message('note_on', channel=0, note=59, velocity=80, time=13),
    Message('note_on', channel=0, note=59, velocity=0, time=227),
    Message('note_on', channel=0, note=54, velocity=80, time=13),
    Message('note_on', channel=0, note=62, velocity=80, time=0),
    Message('note_on', channel=0, note=54, velocity=0, time=227),
    Message('note_on', channel=0, note=62, velocity=0, time=0),
    Message('note_on', channel=0, note=59, velocity=80, time=13),
    Message('note_on', channel=0, note=59, velocity=0, time=227),
    Message('note_on', channel=0, note=50, velocity=80, time=13),
    Message('note_on', channel=0, note=62, velocity=80, time=0),
    Message('note_on', channel=0, note=50, velocity=0, time=227),
    Message('note_on', channel=0, note=62, velocity=0, time=0),
    Message('note_on', channel=0, note=59, velocity=80, time=13),
    Message('note_on', channel=0, note=59, velocity=0, time=227),
    Message('note_on', channel=0, note=54, velocity=80, time=13),
    Message('note_on', channel=0, note=62, velocity=80, time=0),
    Message('note_on', channel=0, note=54, velocity=0, time=227),
    Message('note_on', channel=0, note=62, velocity=0, time=0),
    Message('note_on', channel=0, note=59, velocity=80, time=13),
    Message('note_on', channel=0, note=59, velocity=0, time=227),
    Message('note_on', channel=0, note=50, velocity=80, time=13),
    Message('note_on', channel=0, note=62, velocity=80, time=0),
    Message('control_change', channel=0, control=64, value=0, time=1),
    Message('control_change', channel=0, control=64, value=127, time=1),
    Message('note_on', channel=0, note=50, velocity=0, time=225),
    Message('note_on', channel=0, note=62, velocity=0, time=0),
    Message('note_on', channel=0, note=57, velocity=80, time=13),
    Message('note_on', channel=0, note=57, velocity=0, time=227),
    Message('note_on', channel=0, note=54, velocity=80, time=13),
    Message('note_on', channel=0, note=62, velocity=80, time=0),
    Message('note_on', channel=0, note=54, velocity=0, time=227),
    Message('note_on', channel=0, note=62, velocity=0, time=0),
    Message('note_on', channel=0, note=57, velocity=80, time=13),
    Message('note_on', channel=0, note=57, velocity=0, time=227),
    Message('note_on', channel=0, note=50, velocity=80, time=13),
    Message('note_on', channel=0, note=62, velocity=80, time=0),
    Message('note_on', channel=0, note=50, velocity=0, time=227),
    Message('note_on', channel=0, note=62, velocity=0, time=0),
    Message('note_on', channel=0, note=57, velocity=80, time=13),
    Message('note_on', channel=0, note=57, velocity=0, time=227),
    Message('note_on', channel=0, note=54, velocity=80, time=13),
    Message('note_on', channel=0, note=62, velocity=80, time=0),
    Message('note_on', channel=0, note=54, velocity=0, time=227),
    Message('note_on', channel=0, note=62, velocity=0, time=0),
    Message('note_on', channel=0, note=57, velocity=80, time=13),
    Message('note_on', channel=0, note=57, velocity=0, time=227),
    Message('note_on', channel=0, note=52, velocity=80, time=13),
    Message('note_on', channel=0, note=64, velocity=80, time=0),
    Message('control_change', channel=0, control=64, value=0, time=1),
    Message('control_change', channel=0, control=64, value=127, time=1),
    Message('note_on', channel=0, note=52, velocity=0, time=225),
    Message('note_on', channel=0, note=64, velocity=0, time=0),
    Message('note_on', channel=0, note=59, velocity=80, time=13),
    Message('note_on', channel=0, note=59, velocity=0, time=227),
    Message('note_on', channel=0, note=55, velocity=80, time=13),
    Message('note_on', channel=0, note=64, velocity=80, time=0),
    Message('note_on', channel=0, note=55, velocity=0, time=227),
    Message('note_on', channel=0, note=64, velocity=0, time=0),
    Message('note_on', channel=0, note=59, velocity=80, time=13),
    Message('note_on', channel=0, note=59, velocity=0, time=227),
    Message('note_on', channel=0, note=52, velocity=80, time=13),
    Message('note_on', channel=0, note=64, velocity=80, time=0),
    Message('note_on', channel=0, note=52, velocity=0, time=227),
    Message('note_on', channel=0, note=64, velocity=0, time=0),
    Message('note_on', channel=0, note=59, velocity=80, time=13),
    Message('note_on', channel=0, note=59, velocity=0, time=227),
    Message('note_on', channel=0, note=55, velocity=80, time=13),
    Message('note_on', channel=0, note=64, velocity=80, time=0),
    Message('note_on', channel=0, note=55, velocity=0, time=227),
    Message('note_on', channel=0, note=64, velocity=0, time=0),
    Message('note_on', channel=0, note=59, velocity=80, time=13),
    Message('note_on', channel=0, note=59, velocity=0, time=227),
    Message('note_on', channel=0, note=50, velocity=80, time=13),
    Message('note_on', channel=0, note=62, velocity=80, time=0),
    Message('control_change', channel=0, control=64, value=0, time=1),
    Message('control_change', channel=0, control=64, value=127, time=1),
    Message('note_on', channel=0, note=50, velocity=0, time=225),
    Message('note_on', channel=0, note=62, velocity=0, time=0),
    Message('note_on', channel=0, note=59, velocity=80, time=13),
    Message('note_on', channel=0, note=59, velocity=0, time=227),
    Message('note_on', channel=0, note=55, velocity=80, time=13),
    Message('note_on', channel=0, note=62, velocity=80, time=0),
    Message('note_on', channel=0, note=55, velocity=0, time=227),
    Message('note_on', channel=0, note=62, velocity=0, time=0),
    Message('note_on', channel=0, note=59, velocity=80, time=13),
    Message('note_on', channel=0, note=59, velocity=0, time=227),
    Message('note_on', channel=0, note=50, velocity=80, time=13),
    Message('note_on', channel=0, note=62, velocity=80, time=0),
    Message('note_on', channel=0, note=50, velocity=0, time=227),
    Message('note_on', channel=0, note=62, velocity=0, time=0),
    Message('note_on', channel=0, note=59, velocity=80, time=13),
    Message('note_on', channel=0, note=59, velocity=0, time=227),
    Message('note_on', channel=0, note=55, velocity=80, time=13),
    Message('note_on', channel=0, note=62, velocity=80, time=0),
    Message('note_on', channel=0, note=55, velocity=0, time=227),
    Message('note_on', channel=0, note=62, velocity=0, time=0),
    Message('note_on', channel=0, note=59, velocity=80, time=13),
    Message('note_on', channel=0, note=59, velocity=0, time=227),
    Message('note_on', channel=0, note=50, velocity=80, time=13),
    Message('note_on', channel=0, note=62, velocity=80, time=0),
    Message('control_change', channel=0, control=64, value=0, time=1),
    Message('control_change', channel=0, control=64, value=127, time=1),
    Message('note_on', channel=0, note=50, velocity=0, time=225),
    Message('note_on', channel=0, note=62, velocity=0, time=0),
    Message('note_on', channel=0, note=59, velocity=80, time=13),
    Message('note_on', channel=0, note=59, velocity=0, time=227),
    Message('note_on', channel=0, note=54, velocity=80, time=13),
    Message('note_on', channel=0, note=62, velocity=80, time=0),
    Message('note_on', channel=0, note=54, velocity=0, time=227),
    Message('note_on', channel=0, note=62, velocity=0, time=0),
    Message('note_on', channel=0, note=59, velocity=80, time=13),
    Message('note_on', channel=0, note=59, velocity=0, time=227),
    Message('note_on', channel=0, note=50, velocity=80, time=13),
    Message('note_on', channel=0, note=62, velocity=80, time=0),
    Message('note_on', channel=0, note=50, velocity=0, time=227),
    Message('note_on', channel=0, note=62, velocity=0, time=0),
    Message('note_on', channel=0, note=59, velocity=80, time=13),
    Message('note_on', channel=0, note=59, velocity=0, time=227),
    Message('note_on', channel=0, note=54, velocity=80, time=13),
    Message('note_on', channel=0, note=62, velocity=80, time=0),
    Message('note_on', channel=0, note=54, velocity=0, time=227),
    Message('note_on', channel=0, note=62, velocity=0, time=0),
    Message('note_on', channel=0, note=59, velocity=80, time=13),
    Message('note_on', channel=0, note=59, velocity=0, time=227),
    Message('note_on', channel=0, note=50, velocity=80, time=13),
    Message('note_on', channel=0, note=62, velocity=80, time=0),
    Message('control_change', channel=0, control=64, value=0, time=1),
    Message('control_change', channel=0, control=64, value=127, time=1),
    Message('note_on', channel=0, note=50, velocity=0, time=225),
    Message('note_on', channel=0, note=62, velocity=0, time=0),
    Message('note_on', channel=0, note=57, velocity=80, time=13),
    Message('note_on', channel=0, note=57, velocity=0, time=227),
    Message('note_on', channel=0, note=54, velocity=80, time=13),
    Message('note_on', channel=0, note=62, velocity=80, time=0),
    Message('note_on', channel=0, note=54, velocity=0, time=227),
    Message('note_on', channel=0, note=62, velocity=0, time=0),
    Message('note_on', channel=0, note=57, velocity=80, time=13),
    Message('note_on', channel=0, note=57, velocity=0, time=227),
    Message('note_on', channel=0, note=50, velocity=80, time=13),
    Message('note_on', channel=0, note=62, velocity=80, time=0),
    Message('note_on', channel=0, note=50, velocity=0, time=227),
    Message('note_on', channel=0, note=62, velocity=0, time=0),
    Message('note_on', channel=0, note=57, velocity=80, time=13),
    Message('note_on', channel=0, note=57, velocity=0, time=227),
    Message('note_on', channel=0, note=54, velocity=80, time=13),
    Message('note_on', channel=0, note=62, velocity=80, time=0),
    Message('note_on', channel=0, note=54, velocity=0, time=227),
    Message('note_on', channel=0, note=62, velocity=0, time=0),
    Message('note_on', channel=0, note=57, velocity=80, time=13),
    Message('note_on', channel=0, note=57, velocity=0, time=227),
    Message('note_on', channel=0, note=52, velocity=80, time=13),
    Message('note_on', channel=0, note=64, velocity=80, time=0),
    Message('control_change', channel=0, control=64, value=0, time=1),
    Message('control_change', channel=0, control=64, value=127, time=1),
    Message('note_on', channel=0, note=52, velocity=0, time=225),
    Message('note_on', channel=0, note=64, velocity=0, time=0),
    Message('note_on', channel=0, note=59, velocity=80, time=13),
    Message('note_on', channel=0, note=59, velocity=0, time=227),
    Message('note_on', channel=0, note=55, velocity=80, time=13),
    Message('note_on', channel=0, note=64, velocity=80, time=0),
    Message('note_on', channel=0, note=55, velocity=0, time=227),
    Message('note_on', channel=0, note=64, velocity=0, time=0),
    Message('note_on', channel=0, note=59, velocity=80, time=13),
    Message('note_on', channel=0, note=59, velocity=0, time=227),
    Message('note_on', channel=0, note=52, velocity=80, time=13),
    Message('note_on', channel=0, note=64, velocity=80, time=0),
    Message('note_on', channel=0, note=52, velocity=0, time=227),
    Message('note_on', channel=0, note=64, velocity=0, time=0),
    Message('note_on', channel=0, note=59, velocity=80, time=13),
    Message('note_on', channel=0, note=59, velocity=0, time=227),
    Message('note_on', channel=0, note=55, velocity=80, time=13),
    Message('note_on', channel=0, note=64, velocity=80, time=0),
    Message('note_on', channel=0, note=55, velocity=0, time=227),
    Message('note_on', channel=0, note=64, velocity=0, time=0),
    Message('note_on', channel=0, note=59, velocity=80, time=13),
    Message('note_on', channel=0, note=59, velocity=0, time=227),
    Message('note_on', channel=0, note=50, velocity=80, time=13),
    Message('note_on', channel=0, note=62, velocity=80, time=0),
    Message('control_change', channel=0, control=64, value=0, time=1),
    Message('control_change', channel=0, control=64, value=127, time=1),
    Message('note_on', channel=0, note=50, velocity=0, time=225),
    Message('note_on', channel=0, note=62, velocity=0, time=0),
    Message('note_on', channel=0, note=59, velocity=80, time=13),
    Message('note_on', channel=0, note=59, velocity=0, time=227),
    Message('note_on', channel=0, note=55, velocity=80, time=13),
    Message('note_on', channel=0, note=62, velocity=80, time=0),
    Message('note_on', channel=0, note=55, velocity=0, time=227),
    Message('note_on', channel=0, note=62, velocity=0, time=0),
    Message('note_on', channel=0, note=59, velocity=80, time=13),
    Message('note_on', channel=0, note=59, velocity=0, time=227),
    Message('note_on', channel=0, note=50, velocity=80, time=13),
    Message('note_on', channel=0, note=62, velocity=80, time=0),
    Message('note_on', channel=0, note=50, velocity=0, time=227),
    Message('note_on', channel=0, note=62, velocity=0, time=0),
    Message('note_on', channel=0, note=59, velocity=80, time=13),
    Message('note_on', channel=0, note=59, velocity=0, time=227),
    Message('note_on', channel=0, note=55, velocity=80, time=13),
    Message('note_on', channel=0, note=62, velocity=80, time=0),
    Message('note_on', channel=0, note=55, velocity=0, time=227),
    Message('note_on', channel=0, note=62, velocity=0, time=0),
    Message('note_on', channel=0, note=59, velocity=80, time=13),
    Message('note_on', channel=0, note=59, velocity=0, time=227),
    Message('note_on', channel=0, note=50, velocity=80, time=13),
    Message('note_on', channel=0, note=62, velocity=80, time=0),
    Message('control_change', channel=0, control=64, value=0, time=1),
    Message('control_change', channel=0, control=64, value=127, time=1),
    Message('note_on', channel=0, note=50, velocity=0, time=225),
    Message('note_on', channel=0, note=62, velocity=0, time=0),
    Message('note_on', channel=0, note=59, velocity=80, time=13),
    Message('note_on', channel=0, note=59, velocity=0, time=227),
    Message('note_on', channel=0, note=54, velocity=80, time=13),
    Message('note_on', channel=0, note=62, velocity=80, time=0),
    Message('note_on', channel=0, note=54, velocity=0, time=227),
    Message('note_on', channel=0, note=62, velocity=0, time=0),
    Message('note_on', channel=0, note=59, velocity=80, time=13),
    Message('note_on', channel=0, note=59, velocity=0, time=227),
    Message('note_on', channel=0, note=50, velocity=80, time=13),
    Message('note_on', channel=0, note=62, velocity=80, time=0),
    Message('note_on', channel=0, note=50, velocity=0, time=227),
    Message('note_on', channel=0, note=62, velocity=0, time=0),
    Message('note_on', channel=0, note=59, velocity=80, time=13),
    Message('note_on', channel=0, note=59, velocity=0, time=227),
    Message('note_on', channel=0, note=54, velocity=80, time=13),
    Message('note_on', channel=0, note=62, velocity=80, time=0),
    Message('note_on', channel=0, note=54, velocity=0, time=227),
    Message('note_on', channel=0, note=62, velocity=0, time=0),
    Message('note_on', channel=0, note=59, velocity=80, time=13),
    Message('note_on', channel=0, note=59, velocity=0, time=227),
    Message('note_on', channel=0, note=50, velocity=80, time=13),
    Message('note_on', channel=0, note=62, velocity=80, time=0),
    Message('control_change', channel=0, control=64, value=0, time=1),
    Message('control_change', channel=0, control=64, value=127, time=1),
    Message('note_on', channel=0, note=50, velocity=0, time=225),
    Message('note_on', channel=0, note=62, velocity=0, time=0),
    Message('note_on', channel=0, note=57, velocity=80, time=13),
    Message('note_on', channel=0, note=57, velocity=0, time=227),
    Message('note_on', channel=0, note=54, velocity=80, time=13),
    Message('note_on', channel=0, note=62, velocity=80, time=0),
    Message('note_on', channel=0, note=54, velocity=0, time=227),
    Message('note_on', channel=0, note=62, velocity=0, time=0),
    Message('note_on', channel=0, note=57, velocity=80, time=13),
    Message('note_on', channel=0, note=57, velocity=0, time=227),
    Message('note_on', channel=0, note=50, velocity=80, time=13),
    Message('note_on', channel=0, note=62, velocity=80, time=0),
    Message('note_on', channel=0, note=50, velocity=0, time=227),
    Message('note_on', channel=0, note=62, velocity=0, time=0),
    Message('note_on', channel=0, note=57, velocity=80, time=13),
    Message('note_on', channel=0, note=57, velocity=0, time=227),
    Message('note_on', channel=0, note=54, velocity=80, time=13),
    Message('note_on', channel=0, note=62, velocity=80, time=0),
    Message('note_on', channel=0, note=54, velocity=0, time=227),
    Message('note_on', channel=0, note=62, velocity=0, time=0),
    Message('note_on', channel=0, note=57, velocity=80, time=13),
    Message('note_on', channel=0, note=57, velocity=0, time=227),
    Message('note_on', channel=0, note=52, velocity=80, time=13),
    Message('note_on', channel=0, note=64, velocity=80, time=0),
    Message('control_change', channel=0, control=64, value=0, time=1),
    Message('control_change', channel=0, control=64, value=127, time=1),
    Message('note_on', channel=0, note=52, velocity=0, time=225),
    Message('note_on', channel=0, note=64, velocity=0, time=0),
    Message('note_on', channel=0, note=59, velocity=80, time=13),
    Message('note_on', channel=0, note=59, velocity=0, time=227),
    Message('note_on', channel=0, note=55, velocity=80, time=13),
    Message('note_on', channel=0, note=64, velocity=80, time=0),
    Message('note_on', channel=0, note=55, velocity=0, time=227),
    Message('note_on', channel=0, note=64, velocity=0, time=0),
    Message('note_on', channel=0, note=59, velocity=80, time=13),
    Message('note_on', channel=0, note=59, velocity=0, time=227),
    Message('note_on', channel=0, note=52, velocity=80, time=13),
    Message('note_on', channel=0, note=64, velocity=80, time=0),
    Message('note_on', channel=0, note=52, velocity=0, time=227),
    Message('note_on', channel=0, note=64, velocity=0, time=0),
    Message('note_on', channel=0, note=59, velocity=80, time=13),
    Message('note_on', channel=0, note=59, velocity=0, time=227),
    Message('note_on', channel=0, note=55, velocity=80, time=13),
    Message('note_on', channel=0, note=64, velocity=80, time=0),
    Message('note_on', channel=0, note=55, velocity=0, time=227),
    Message('note_on', channel=0, note=64, velocity=0, time=0),
    Message('note_on', channel=0, note=59, velocity=80, time=13),
    Message('note_on', channel=0, note=59, velocity=0, time=227),
    Message('note_on', channel=0, note=50, velocity=80, time=13),
    Message('note_on', channel=0, note=62, velocity=80, time=0),
    Message('control_change', channel=0, control=64, value=0, time=1),
    Message('control_change', channel=0, control=64, value=127, time=1),
    Message('note_on', channel=0, note=50, velocity=0, time=225),
    Message('note_on', channel=0, note=62, velocity=0, time=0),
    Message('note_on', channel=0, note=59, velocity=80, time=13),
    Message('note_on', channel=0, note=59, velocity=0, time=227),
    Message('note_on', channel=0, note=55, velocity=80, time=13),
    Message('note_on', channel=0, note=62, velocity=80, time=0),
    Message('note_on', channel=0, note=55, velocity=0, time=227),
    Message('note_on', channel=0, note=62, velocity=0, time=0),
    Message('note_on', channel=0, note=59, velocity=80, time=13),
    Message('note_on', channel=0, note=59, velocity=0, time=227),
    Message('note_on', channel=0, note=50, velocity=80, time=13),
    Message('note_on', channel=0, note=62, velocity=80, time=0),
    Message('note_on', channel=0, note=50, velocity=0, time=227),
    Message('note_on', channel=0, note=62, velocity=0, time=0),
    Message('note_on', channel=0, note=59, velocity=80, time=13),
    Message('note_on', channel=0, note=59, velocity=0, time=227),
    Message('note_on', channel=0, note=55, velocity=80, time=13),
    Message('note_on', channel=0, note=62, velocity=80, time=0),
    Message('note_on', channel=0, note=55, velocity=0, time=227),
    Message('note_on', channel=0, note=62, velocity=0, time=0),
    Message('note_on', channel=0, note=59, velocity=80, time=13),
    Message('note_on', channel=0, note=59, velocity=0, time=227),
    Message('note_on', channel=0, note=50, velocity=80, time=13),
    Message('note_on', channel=0, note=62, velocity=80, time=0),
    Message('control_change', channel=0, control=64, value=0, time=1),
    Message('control_change', channel=0, control=64, value=127, time=1),
    Message('note_on', channel=0, note=50, velocity=0, time=225),
    Message('note_on', channel=0, note=62, velocity=0, time=0),
    Message('note_on', channel=0, note=59, velocity=80, time=13),
    Message('note_on', channel=0, note=59, velocity=0, time=227),
    Message('note_on', channel=0, note=54, velocity=80, time=13),
    Message('note_on', channel=0, note=62, velocity=80, time=0),
    Message('note_on', channel=0, note=54, velocity=0, time=227),
    Message('note_on', channel=0, note=62, velocity=0, time=0),
    Message('note_on', channel=0, note=59, velocity=80, time=13),
    Message('note_on', channel=0, note=59, velocity=0, time=227),
    Message('note_on', channel=0, note=50, velocity=80, time=13),
    Message('note_on', channel=0, note=62, velocity=80, time=0),
    Message('note_on', channel=0, note=50, velocity=0, time=227),
    Message('note_on', channel=0, note=62, velocity=0, time=0),
    Message('note_on', channel=0, note=59, velocity=80, time=13),
    Message('note_on', channel=0, note=59, velocity=0, time=227),
    Message('note_on', channel=0, note=54, velocity=80, time=13),
    Message('note_on', channel=0, note=62, velocity=80, time=0),
    Message('note_on', channel=0, note=54, velocity=0, time=227),
    Message('note_on', channel=0, note=62, velocity=0, time=0),
    Message('note_on', channel=0, note=59, velocity=80, time=13),
    Message('note_on', channel=0, note=59, velocity=0, time=227),
    Message('note_on', channel=0, note=50, velocity=80, time=13),
    Message('note_on', channel=0, note=62, velocity=80, time=0),
    Message('control_change', channel=0, control=64, value=0, time=1),
    Message('control_change', channel=0, control=64, value=127, time=1),
    Message('note_on', channel=0, note=50, velocity=0, time=225),
    Message('note_on', channel=0, note=62, velocity=0, time=0),
    Message('note_on', channel=0, note=57, velocity=80, time=13),
    Message('note_on', channel=0, note=57, velocity=0, time=227),
    Message('note_on', channel=0, note=54, velocity=80, time=13),
    Message('note_on', channel=0, note=62, velocity=80, time=0),
    Message('note_on', channel=0, note=54, velocity=0, time=227),
    Message('note_on', channel=0, note=62, velocity=0, time=0),
    Message('note_on', channel=0, note=57, velocity=80, time=13),
    Message('note_on', channel=0, note=57, velocity=0, time=227),
    Message('note_on', channel=0, note=50, velocity=80, time=13),
    Message('note_on', channel=0, note=62, velocity=80, time=0),
    Message('note_on', channel=0, note=50, velocity=0, time=227),
    Message('note_on', channel=0, note=62, velocity=0, time=0),
    Message('note_on', channel=0, note=57, velocity=80, time=13),
    Message('note_on', channel=0, note=57, velocity=0, time=227),
    Message('note_on', channel=0, note=54, velocity=80, time=13),
    Message('note_on', channel=0, note=62, velocity=80, time=0),
    Message('note_on', channel=0, note=54, velocity=0, time=227),
    Message('note_on', channel=0, note=62, velocity=0, time=0),
    Message('note_on', channel=0, note=57, velocity=80, time=13),
    Message('note_on', channel=0, note=57, velocity=0, time=227),
    Message('note_on', channel=0, note=52, velocity=80, time=13),
    Message('note_on', channel=0, note=64, velocity=80, time=0),
    Message('control_change', channel=0, control=64, value=0, time=1),
    Message('control_change', channel=0, control=64, value=127, time=1),
    Message('note_on', channel=0, note=52, velocity=0, time=225),
    Message('note_on', channel=0, note=64, velocity=0, time=0),
    Message('note_on', channel=0, note=59, velocity=80, time=13),
    Message('note_on', channel=0, note=59, velocity=0, time=227),
    Message('note_on', channel=0, note=55, velocity=80, time=13),
    Message('note_on', channel=0, note=64, velocity=80, time=0),
    Message('note_on', channel=0, note=55, velocity=0, time=227),
    Message('note_on', channel=0, note=64, velocity=0, time=0),
    Message('note_on', channel=0, note=59, velocity=80, time=13),
    Message('note_on', channel=0, note=59, velocity=0, time=227),
    Message('note_on', channel=0, note=52, velocity=80, time=13),
    Message('note_on', channel=0, note=64, velocity=80, time=0),
    Message('note_on', channel=0, note=52, velocity=0, time=227),
    Message('note_on', channel=0, note=64, velocity=0, time=0),
    Message('note_on', channel=0, note=59, velocity=80, time=13),
    Message('note_on', channel=0, note=59, velocity=0, time=227),
    Message('note_on', channel=0, note=55, velocity=80, time=13),
    Message('note_on', channel=0, note=64, velocity=80, time=0),
    Message('note_on', channel=0, note=55, velocity=0, time=227),
    Message('note_on', channel=0, note=64, velocity=0, time=0),
    Message('note_on', channel=0, note=59, velocity=80, time=13),
    Message('note_on', channel=0, note=59, velocity=0, time=227),
    Message('note_on', channel=0, note=50, velocity=80, time=13),
    Message('note_on', channel=0, note=62, velocity=80, time=0),
    Message('control_change', channel=0, control=64, value=0, time=1),
    Message('control_change', channel=0, control=64, value=127, time=1),
    Message('note_on', channel=0, note=50, velocity=0, time=225),
    Message('note_on', channel=0, note=62, velocity=0, time=0),
    Message('note_on', channel=0, note=59, velocity=80, time=13),
    Message('note_on', channel=0, note=59, velocity=0, time=227),
    Message('note_on', channel=0, note=55, velocity=80, time=13),
    Message('note_on', channel=0, note=62, velocity=80, time=0),
    Message('note_on', channel=0, note=55, velocity=0, time=227),
    Message('note_on', channel=0, note=62, velocity=0, time=0),
    Message('note_on', channel=0, note=59, velocity=80, time=13),
    Message('note_on', channel=0, note=59, velocity=0, time=227),
    Message('note_on', channel=0, note=50, velocity=80, time=13),
    Message('note_on', channel=0, note=62, velocity=80, time=0),
    Message('note_on', channel=0, note=50, velocity=0, time=227),
    Message('note_on', channel=0, note=62, velocity=0, time=0),
    Message('note_on', channel=0, note=59, velocity=80, time=13),
    Message('note_on', channel=0, note=59, velocity=0, time=227),
    Message('note_on', channel=0, note=55, velocity=80, time=13),
    Message('note_on', channel=0, note=62, velocity=80, time=0),
    Message('note_on', channel=0, note=55, velocity=0, time=227),
    Message('note_on', channel=0, note=62, velocity=0, time=0),
    Message('note_on', channel=0, note=59, velocity=80, time=13),
    Message('note_on', channel=0, note=59, velocity=0, time=227),
    Message('note_on', channel=0, note=50, velocity=80, time=13),
    Message('note_on', channel=0, note=62, velocity=80, time=0),
    Message('control_change', channel=0, control=64, value=0, time=1),
    Message('control_change', channel=0, control=64, value=127, time=1),
    Message('note_on', channel=0, note=50, velocity=0, time=225),
    Message('note_on', channel=0, note=62, velocity=0, time=0),
    Message('note_on', channel=0, note=59, velocity=80, time=13),
    Message('note_on', channel=0, note=59, velocity=0, time=227),
    Message('note_on', channel=0, note=54, velocity=80, time=13),
    Message('note_on', channel=0, note=62, velocity=80, time=0),
    Message('note_on', channel=0, note=54, velocity=0, time=227),
    Message('note_on', channel=0, note=62, velocity=0, time=0),
    Message('note_on', channel=0, note=59, velocity=80, time=13),
    Message('note_on', channel=0, note=59, velocity=0, time=227),
    Message('note_on', channel=0, note=50, velocity=80, time=13),
    Message('note_on', channel=0, note=62, velocity=80, time=0),
    Message('note_on', channel=0, note=50, velocity=0, time=227),
    Message('note_on', channel=0, note=62, velocity=0, time=0),
    Message('note_on', channel=0, note=59, velocity=80, time=13),
    Message('note_on', channel=0, note=59, velocity=0, time=227),
    Message('note_on', channel=0, note=54, velocity=80, time=13),
    Message('note_on', channel=0, note=62, velocity=80, time=0),
    Message('note_on', channel=0, note=54, velocity=0, time=227),
    Message('note_on', channel=0, note=62, velocity=0, time=0),
    Message('note_on', channel=0, note=59, velocity=80, time=13),
    Message('note_on', channel=0, note=59, velocity=0, time=227),
    Message('note_on', channel=0, note=50, velocity=80, time=13),
    Message('note_on', channel=0, note=62, velocity=80, time=0),
    Message('control_change', channel=0, control=64, value=0, time=1),
    Message('control_change', channel=0, control=64, value=127, time=1),
    Message('note_on', channel=0, note=50, velocity=0, time=225),
    Message('note_on', channel=0, note=62, velocity=0, time=0),
    Message('note_on', channel=0, note=57, velocity=80, time=13),
    Message('note_on', channel=0, note=57, velocity=0, time=227),
    Message('note_on', channel=0, note=54, velocity=80, time=13),
    Message('note_on', channel=0, note=62, velocity=80, time=0),
    Message('note_on', channel=0, note=54, velocity=0, time=227),
    Message('note_on', channel=0, note=62, velocity=0, time=0),
    Message('note_on', channel=0, note=57, velocity=80, time=13),
    Message('note_on', channel=0, note=57, velocity=0, time=227),
    Message('note_on', channel=0, note=50, velocity=80, time=13),
    Message('note_on', channel=0, note=62, velocity=80, time=0),
    Message('note_on', channel=0, note=50, velocity=0, time=227),
    Message('note_on', channel=0, note=62, velocity=0, time=0),
    Message('note_on', channel=0, note=57, velocity=80, time=13),
    Message('note_on', channel=0, note=57, velocity=0, time=227),
    Message('note_on', channel=0, note=54, velocity=80, time=13),
    Message('note_on', channel=0, note=62, velocity=80, time=0),
    Message('note_on', channel=0, note=54, velocity=0, time=227),
    Message('note_on', channel=0, note=62, velocity=0, time=0),
    Message('note_on', channel=0, note=57, velocity=80, time=13),
    Message('note_on', channel=0, note=57, velocity=0, time=227),
    Message('note_on', channel=0, note=52, velocity=80, time=13),
    Message('note_on', channel=0, note=64, velocity=80, time=0),
    Message('control_change', channel=0, control=64, value=0, time=1),
    Message('control_change', channel=0, control=64, value=127, time=1),
    Message('note_on', channel=0, note=52, velocity=0, time=225),
    Message('note_on', channel=0, note=64, velocity=0, time=0),
    Message('note_on', channel=0, note=59, velocity=80, time=13),
    Message('note_on', channel=0, note=59, velocity=0, time=227),
    Message('note_on', channel=0, note=55, velocity=80, time=13),
    Message('note_on', channel=0, note=64, velocity=80, time=0),
    Message('note_on', channel=0, note=55, velocity=0, time=227),
    Message('note_on', channel=0, note=64, velocity=0, time=0),
    Message('note_on', channel=0, note=59, velocity=80, time=13),
    Message('note_on', channel=0, note=59, velocity=0, time=227),
    Message('note_on', channel=0, note=52, velocity=80, time=13),
    Message('note_on', channel=0, note=64, velocity=80, time=0),
    Message('note_on', channel=0, note=52, velocity=0, time=227),
    Message('note_on', channel=0, note=64, velocity=0, time=0),
    Message('note_on', channel=0, note=59, velocity=80, time=13),
    Message('note_on', channel=0, note=59, velocity=0, time=227),
    Message('note_on', channel=0, note=55, velocity=80, time=13),
    Message('note_on', channel=0, note=64, velocity=80, time=0),
    Message('note_on', channel=0, note=55, velocity=0, time=227),
    Message('note_on', channel=0, note=64, velocity=0, time=0),
    Message('note_on', channel=0, note=59, velocity=80, time=13),
    Message('note_on', channel=0, note=59, velocity=0, time=227),
    Message('note_on', channel=0, note=50, velocity=80, time=13),
    Message('note_on', channel=0, note=62, velocity=80, time=0),
    Message('control_change', channel=0, control=64, value=0, time=1),
    Message('control_change', channel=0, control=64, value=127, time=1),
    Message('note_on', channel=0, note=50, velocity=0, time=225),
    Message('note_on', channel=0, note=62, velocity=0, time=0),
    Message('note_on', channel=0, note=59, velocity=80, time=13),
    Message('note_on', channel=0, note=59, velocity=0, time=227),
    Message('note_on', channel=0, note=55, velocity=80, time=13),
    Message('note_on', channel=0, note=62, velocity=80, time=0),
    Message('note_on', channel=0, note=55, velocity=0, time=227),
    Message('note_on', channel=0, note=62, velocity=0, time=0),
    Message('note_on', channel=0, note=59, velocity=80, time=13),
    Message('note_on', channel=0, note=59, velocity=0, time=227),
    Message('note_on', channel=0, note=50, velocity=80, time=13),
    Message('note_on', channel=0, note=62, velocity=80, time=0),
    Message('note_on', channel=0, note=50, velocity=0, time=227),
    Message('note_on', channel=0, note=62, velocity=0, time=0),
    Message('note_on', channel=0, note=59, velocity=80, time=13),
    Message('note_on', channel=0, note=59, velocity=0, time=227),
    Message('note_on', channel=0, note=55, velocity=80, time=13),
    Message('note_on', channel=0, note=62, velocity=80, time=0),
    Message('note_on', channel=0, note=55, velocity=0, time=227),
    Message('note_on', channel=0, note=62, velocity=0, time=0),
    Message('note_on', channel=0, note=59, velocity=80, time=13),
    Message('note_on', channel=0, note=59, velocity=0, time=227),
    Message('note_on', channel=0, note=50, velocity=80, time=13),
    Message('note_on', channel=0, note=62, velocity=80, time=0),
    Message('control_change', channel=0, control=64, value=0, time=1),
    Message('control_change', channel=0, control=64, value=127, time=1),
    Message('note_on', channel=0, note=50, velocity=0, time=225),
    Message('note_on', channel=0, note=62, velocity=0, time=0),
    Message('note_on', channel=0, note=59, velocity=80, time=13),
    Message('note_on', channel=0, note=59, velocity=0, time=227),
    Message('note_on', channel=0, note=54, velocity=80, time=13),
    Message('note_on', channel=0, note=62, velocity=80, time=0),
    Message('note_on', channel=0, note=54, velocity=0, time=227),
    Message('note_on', channel=0, note=62, velocity=0, time=0),
    Message('note_on', channel=0, note=59, velocity=80, time=13),
    Message('note_on', channel=0, note=59, velocity=0, time=227),
    Message('note_on', channel=0, note=50, velocity=80, time=13),
    Message('note_on', channel=0, note=62, velocity=80, time=0),
    Message('note_on', channel=0, note=50, velocity=0, time=227),
    Message('note_on', channel=0, note=62, velocity=0, time=0),
    Message('note_on', channel=0, note=59, velocity=80, time=13),
    Message('note_on', channel=0, note=59, velocity=0, time=227),
    Message('note_on', channel=0, note=54, velocity=80, time=13),
    Message('note_on', channel=0, note=62, velocity=80, time=0),
    Message('note_on', channel=0, note=54, velocity=0, time=227),
    Message('note_on', channel=0, note=62, velocity=0, time=0),
    Message('note_on', channel=0, note=59, velocity=80, time=13),
    Message('note_on', channel=0, note=59, velocity=0, time=227),
    Message('note_on', channel=0, note=50, velocity=80, time=13),
    Message('note_on', channel=0, note=62, velocity=80, time=0),
    Message('control_change', channel=0, control=64, value=0, time=1),
    Message('control_change', channel=0, control=64, value=127, time=1),
    Message('note_on', channel=0, note=50, velocity=0, time=225),
    Message('note_on', channel=0, note=62, velocity=0, time=0),
    Message('note_on', channel=0, note=57, velocity=80, time=13),
    Message('note_on', channel=0, note=57, velocity=0, time=227),
    Message('note_on', channel=0, note=54, velocity=80, time=13),
    Message('note_on', channel=0, note=62, velocity=80, time=0),
    Message('note_on', channel=0, note=54, velocity=0, time=227),
    Message('note_on', channel=0, note=62, velocity=0, time=0),
    Message('note_on', channel=0, note=57, velocity=80, time=13),
    Message('note_on', channel=0, note=57, velocity=0, time=227),
    Message('note_on', channel=0, note=50, velocity=80, time=13),
    Message('note_on', channel=0, note=62, velocity=80, time=0),
    Message('note_on', channel=0, note=50, velocity=0, time=227),
    Message('note_on', channel=0, note=62, velocity=0, time=0),
    Message('note_on', channel=0, note=57, velocity=80, time=13),
    Message('note_on', channel=0, note=57, velocity=0, time=227),
    Message('note_on', channel=0, note=54, velocity=80, time=13),
    Message('note_on', channel=0, note=62, velocity=80, time=0),
    Message('note_on', channel=0, note=54, velocity=0, time=227),
    Message('note_on', channel=0, note=62, velocity=0, time=0),
    Message('note_on', channel=0, note=57, velocity=80, time=13),
    Message('note_on', channel=0, note=57, velocity=0, time=227),
    Message('note_on', channel=0, note=52, velocity=80, time=13),
    Message('control_change', channel=0, control=64, value=0, time=1),
    Message('control_change', channel=0, control=64, value=127, time=1),
    Message('note_on', channel=0, note=64, velocity=80, time=61),
    Message('note_on', channel=0, note=64, velocity=0, time=1855),
    Message('note_on', channel=0, note=52, velocity=0, time=1),
    Message('control_change', channel=0, control=64, value=0, time=1),
    MetaMessage('end_of_track', time=1)])
])
