MidiFile(type=1, ticks_per_beat=384, tracks=[
  MidiTrack([
    MetaMessage('time_signature', numerator=4, denominator=4, clocks_per_click=24, notated_32nd_notes_per_beat=8, time=0),
    MetaMessage('set_tempo', tempo=697674, time=0),
    MetaMessage('track_name', name='Elec. Piano (Classic)', time=0),
    Message('program_change', channel=0, program=0, time=0),
    Message('note_on', channel=0, note=76, velocity=100, time=12288),
    Message('note_off', channel=0, note=76, velocity=0, time=96),
    Message('note_on', channel=0, note=67, velocity=100, time=0),
    Message('note_off', channel=0, note=67, velocity=0, time=96),
    Message('note_on', channel=0, note=64, velocity=100, time=0),
    Message('note_off', channel=0, note=64, velocity=0, time=96),
    Message('note_on', channel=0, note=76, velocity=100, time=0),
    Message('note_off', channel=0, note=76, velocity=0, time=96),
    Message('note_on', channel=0, note=71, velocity=100, time=96),
    Message('note_off', channel=0, note=71, velocity=0, time=96),
    Message('note_on', channel=0, note=71, velocity=100, time=96),
    Message('note_off', channel=0, note=71, velocity=0, time=96),
    Message('note_on', channel=0, note=76, velocity=100, time=0),
    Message('note_off', channel=0, note=76, velocity=0, time=96),
    Message('note_on', channel=0, note=76, velocity=100, time=96),
    Message('note_off', channel=0, note=76, velocity=0, time=96),
    Message('note_on', channel=0, note=76, velocity=100, time=96),
    Message('note_off', channel=0, note=76, velocity=0, time=96),
    Message('note_on', channel=0, note=76, velocity=100, time=0),
    Message('note_off', channel=0, note=76, velocity=0, time=96),
    Message('note_on', channel=0, note=76, velocity=100, time=0),
    Message('note_off', channel=0, note=76, velocity=0, time=96),
    Message('note_on', channel=0, note=76, velocity=100, time=0),
    Message('note_off', channel=0, note=76, velocity=0, time=96),
    Message('note_on', channel=0, note=76, velocity=100, time=0),
    Message('note_off', channel=0, note=76, velocity=0, time=96),
    Message('note_on', channel=0, note=76, velocity=100, time=0),
    Message('note_off', channel=0, note=76, velocity=0, time=96),
    Message('note_on', channel=0, note=76, velocity=100, time=0),
    Message('note_on', channel=0, note=83, velocity=100, time=0),
    Message('note_off', channel=0, note=83, velocity=0, time=96),
    Message('note_off', channel=0, note=76, velocity=0, time=0),
    Message('note_on', channel=0, note=67, velocity=100, time=96),
    Message('note_off', channel=0, note=67, velocity=0, time=96),
    Message('note_on', channel=0, note=71, velocity=100, time=96),
    Message('note_off', channel=0, note=71, velocity=0, time=96),
    Message('note_on', channel=0, note=67, velocity=100, time=96),
    Message('note_off', channel=0, note=67, velocity=0, time=96),
    Message('note_on', channel=0, note=71, velocity=100, time=0),
    Message('note_off', channel=0, note=71, velocity=0, time=288),
    Message('note_on', channel=0, note=76, velocity=100, time=96),
    Message('note_off', channel=0, note=76, velocity=0, time=96),
    Message('note_on', channel=0, note=71, velocity=100, time=0),
    Message('note_off', channel=0, note=71, velocity=0, time=96),
    Message('note_on', channel=0, note=71, velocity=100, time=96),
    Message('note_off', channel=0, note=71, velocity=0, time=96),
    Message('note_on', channel=0, note=72, velocity=100, time=0),
    Message('note_off', channel=0, note=72, velocity=0, time=96),
    Message('note_on', channel=0, note=71, velocity=100, time=0),
    Message('note_off', channel=0, note=71, velocity=0, time=96),
    Message('note_on', channel=0, note=72, velocity=100, time=0),
    Message('note_off', channel=0, note=72, velocity=0, time=96),
    Message('note_on', channel=0, note=71, velocity=100, time=0),
    Message('note_off', channel=0, note=71, velocity=0, time=96),
    Message('note_on', channel=0, note=72, velocity=100, time=0),
    Message('note_off', channel=0, note=72, velocity=0, time=96),
    Message('note_on', channel=0, note=67, velocity=100, time=96),
    Message('note_off', channel=0, note=67, velocity=0, time=96),
    Message('note_on', channel=0, note=67, velocity=100, time=0),
    Message('note_off', channel=0, note=67, velocity=0, time=96),
    Message('note_on', channel=0, note=67, velocity=100, time=96),
    Message('note_off', channel=0, note=67, velocity=0, time=96),
    Message('note_on', channel=0, note=72, velocity=100, time=96),
    Message('note_off', channel=0, note=72, velocity=0, time=288),
    Message('note_on', channel=0, note=76, velocity=100, time=96),
    Message('note_off', channel=0, note=76, velocity=0, time=96),
    Message('note_on', channel=0, note=71, velocity=100, time=0),
    Message('note_off', channel=0, note=71, velocity=0, time=96),
    Message('note_on', channel=0, note=64, velocity=100, time=96),
    Message('note_off', channel=0, note=64, velocity=0, time=96),
    Message('note_on', channel=0, note=67, velocity=100, time=0),
    Message('note_off', channel=0, note=67, velocity=0, time=96),
    Message('note_on', channel=0, note=67, velocity=100, time=96),
    Message('note_off', channel=0, note=67, velocity=0, time=96),
    Message('note_on', channel=0, note=71, velocity=100, time=96),
    Message('note_off', channel=0, note=71, velocity=0, time=192),
    Message('note_on', channel=0, note=67, velocity=100, time=96),
    Message('note_off', channel=0, note=67, velocity=0, time=96),
    Message('note_on', channel=0, note=64, velocity=100, time=0),
    Message('note_off', channel=0, note=64, velocity=0, time=96),
    Message('note_on', channel=0, note=76, velocity=100, time=96),
    Message('note_off', channel=0, note=76, velocity=0, time=96),
    Message('note_on', channel=0, note=76, velocity=100, time=0),
    Message('note_off', channel=0, note=76, velocity=0, time=96),
    Message('note_on', channel=0, note=72, velocity=100, time=0),
    Message('note_off', channel=0, note=72, velocity=0, time=96),
    Message('note_on', channel=0, note=71, velocity=100, time=0),
    Message('note_off', channel=0, note=71, velocity=0, time=96),
    Message('note_on', channel=0, note=64, velocity=100, time=96),
    Message('note_off', channel=0, note=64, velocity=0, time=96),
    Message('note_on', channel=0, note=67, velocity=100, time=0),
    Message('note_off', channel=0, note=67, velocity=0, time=96),
    Message('note_on', channel=0, note=71, velocity=100, time=0),
    Message('note_off', channel=0, note=71, velocity=0, time=96),
    Message('note_on', channel=0, note=76, velocity=100, time=0),
    Message('note_off', channel=0, note=76, velocity=0, time=96),
    Message('note_on', channel=0, note=79, velocity=100, time=0),
    Message('note_off', channel=0, note=79, velocity=0, time=288),
    Message('note_on', channel=0, note=72, velocity=100, time=192),
    Message('note_off', channel=0, note=72, velocity=0, time=96),
    Message('note_on', channel=0, note=71, velocity=100, time=0),
    Message('note_off', channel=0, note=71, velocity=0, time=96),
    Message('note_on', channel=0, note=71, velocity=100, time=96),
    Message('note_off', channel=0, note=71, velocity=0, time=96),
    Message('note_on', channel=0, note=64, velocity=100, time=0),
    Message('note_off', channel=0, note=64, velocity=0, time=96),
    Message('note_on', channel=0, note=64, velocity=100, time=96),
    Message('note_off', channel=0, note=64, velocity=0, time=96),
    Message('note_on', channel=0, note=64, velocity=100, time=0),
    Message('note_off', channel=0, note=64, velocity=0, time=96),
    Message('note_on', channel=0, note=71, velocity=100, time=0),
    Message('note_on', channel=0, note=76, velocity=100, time=0),
    Message('note_off', channel=0, note=76, velocity=0, time=96),
    Message('note_off', channel=0, note=71, velocity=0, time=0),
    Message('note_on', channel=0, note=64, velocity=100, time=96),
    Message('note_off', channel=0, note=64, velocity=0, time=288),
    Message('note_on', channel=0, note=64, velocity=100, time=96),
    Message('note_off', channel=0, note=64, velocity=0, time=96),
    Message('note_on', channel=0, note=64, velocity=100, time=0),
    Message('note_off', channel=0, note=64, velocity=0, time=96),
    Message('note_on', channel=0, note=72, velocity=100, time=96),
    Message('note_on', channel=0, note=76, velocity=100, time=0),
    Message('note_off', channel=0, note=76, velocity=0, time=96),
    Message('note_off', channel=0, note=72, velocity=0, time=0),
    Message('note_on', channel=0, note=71, velocity=100, time=0),
    Message('note_off', channel=0, note=71, velocity=0, time=96),
    Message('note_on', channel=0, note=72, velocity=100, time=96),
    Message('note_off', channel=0, note=72, velocity=0, time=96),
    Message('note_on', channel=0, note=71, velocity=100, time=0),
    Message('note_off', channel=0, note=71, velocity=0, time=192),
    Message('note_on', channel=0, note=64, velocity=100, time=96),
    Message('note_off', channel=0, note=64, velocity=0, time=288),
    Message('note_on', channel=0, note=67, velocity=100, time=96),
    Message('note_off', channel=0, note=67, velocity=0, time=192),
    Message('note_on', channel=0, note=64, velocity=100, time=96),
    Message('note_off', channel=0, note=64, velocity=0, time=96),
    Message('note_on', channel=0, note=64, velocity=100, time=0),
    Message('note_off', channel=0, note=64, velocity=0, time=1344),
    Message('note_on', channel=0, note=64, velocity=100, time=480),
    Message('note_off', channel=0, note=64, velocity=0, time=96),
    Message('note_on', channel=0, note=71, velocity=100, time=0),
    Message('note_off', channel=0, note=71, velocity=0, time=192),
    Message('note_on', channel=0, note=71, velocity=100, time=192),
    Message('note_off', channel=0, note=71, velocity=0, time=192),
    Message('note_on', channel=0, note=64, velocity=100, time=96),
    Message('note_off', channel=0, note=64, velocity=0, time=96),
    Message('note_on', channel=0, note=71, velocity=100, time=0),
    Message('note_off', channel=0, note=71, velocity=0, time=96),
    Message('note_on', channel=0, note=64, velocity=100, time=0),
    Message('note_off', channel=0, note=64, velocity=0, time=96),
    Message('note_on', channel=0, note=64, velocity=100, time=96),
    Message('note_off', channel=0, note=64, velocity=0, time=96),
    Message('note_on', channel=0, note=71, velocity=100, time=0),
    Message('note_off', channel=0, note=71, velocity=0, time=192),
    Message('note_on', channel=0, note=64, velocity=100, time=96),
    Message('note_off', channel=0, note=64, velocity=0, time=96),
    Message('note_on', channel=0, note=71, velocity=100, time=0),
    Message('note_off', channel=0, note=71, velocity=0, time=192),
    Message('note_on', channel=0, note=71, velocity=100, time=192),
    Message('note_off', channel=0, note=71, velocity=0, time=192),
    Message('note_on', channel=0, note=64, velocity=100, time=96),
    Message('note_off', channel=0, note=64, velocity=0, time=96),
    Message('note_on', channel=0, note=71, velocity=100, time=0),
    Message('note_off', channel=0, note=71, velocity=0, time=192),
    Message('note_on', channel=0, note=64, velocity=100, time=96),
    Message('note_off', channel=0, note=64, velocity=0, time=96),
    Message('note_on', channel=0, note=64, velocity=100, time=0),
    Message('note_off', channel=0, note=64, velocity=0, time=288),
    Message('note_on', channel=0, note=66, velocity=100, time=2592),
    Message('note_off', channel=0, note=66, velocity=0, time=96),
    Message('note_on', channel=0, note=67, velocity=100, time=0),
    Message('note_off', channel=0, note=67, velocity=0, time=96),
    Message('note_on', channel=0, note=66, velocity=100, time=0),
    Message('note_off', channel=0, note=66, velocity=0, time=96),
    Message('note_on', channel=0, note=67, velocity=100, time=0),
    Message('note_off', channel=0, note=67, velocity=0, time=96),
    Message('note_on', channel=0, note=66, velocity=100, time=0),
    Message('note_off', channel=0, note=66, velocity=0, time=96),
    Message('note_on', channel=0, note=62, velocity=100, time=0),
    Message('note_off', channel=0, note=62, velocity=0, time=96),
    Message('note_on', channel=0, note=64, velocity=100, time=0),
    Message('note_off', channel=0, note=64, velocity=0, time=96),
    Message('note_on', channel=0, note=67, velocity=100, time=0),
    Message('note_off', channel=0, note=67, velocity=0, time=96),
    Message('note_on', channel=0, note=64, velocity=100, time=0),
    Message('note_off', channel=0, note=64, velocity=0, time=96),
    Message('note_on', channel=0, note=67, velocity=100, time=0),
    Message('note_off', channel=0, note=67, velocity=0, time=96),
    Message('note_on', channel=0, note=67, velocity=100, time=96),
    Message('note_off', channel=0, note=67, velocity=0, time=96),
    Message('note_on', channel=0, note=64, velocity=100, time=0),
    Message('note_off', channel=0, note=64, velocity=0, time=96),
    Message('note_on', channel=0, note=71, velocity=100, time=0),
    Message('note_on', channel=0, note=76, velocity=100, time=0),
    Message('note_off', channel=0, note=76, velocity=0, time=672),
    Message('note_off', channel=0, note=71, velocity=0, time=0),
    Message('note_on', channel=0, note=71, velocity=100, time=2496),
    Message('note_on', channel=0, note=83, velocity=100, time=12),
    Message('note_off', channel=0, note=71, velocity=0, time=2100),
    Message('note_off', channel=0, note=83, velocity=0, time=12),
    Message('note_on', channel=0, note=71, velocity=100, time=180),
    Message('note_off', channel=0, note=71, velocity=0, time=288),
    Message('note_on', channel=0, note=67, velocity=100, time=96),
    Message('note_off', channel=0, note=67, velocity=0, time=2112),
    Message('note_on', channel=0, note=74, velocity=100, time=192),
    Message('note_off', channel=0, note=74, velocity=0, time=288),
    Message('note_on', channel=0, note=66, velocity=100, time=96),
    Message('note_off', channel=0, note=66, velocity=0, time=1344),
    Message('note_on', channel=0, note=71, velocity=100, time=192),
    Message('note_off', channel=0, note=71, velocity=0, time=1344),
    Message('note_on', channel=0, note=71, velocity=100, time=192),
    Message('note_off', channel=0, note=71, velocity=0, time=288),
    Message('note_on', channel=0, note=67, velocity=100, time=96),
    Message('note_off', channel=0, note=67, velocity=0, time=2112),
    Message('note_on', channel=0, note=74, velocity=100, time=192),
    Message('note_off', channel=0, note=74, velocity=0, time=288),
    Message('note_on', channel=0, note=66, velocity=100, time=96),
    Message('note_off', channel=0, note=66, velocity=0, time=1344),
    Message('note_on', channel=0, note=71, velocity=100, time=192),
    Message('note_off', channel=0, note=71, velocity=0, time=1344),
    Message('note_on', channel=0, note=71, velocity=100, time=192),
    Message('note_off', channel=0, note=71, velocity=0, time=288),
    Message('note_on', channel=0, note=67, velocity=100, time=96),
    Message('note_off', channel=0, note=67, velocity=0, time=2112),
    Message('note_on', channel=0, note=74, velocity=100, time=192),
    Message('note_off', channel=0, note=74, velocity=0, time=288),
    Message('note_on', channel=0, note=66, velocity=100, time=96),
    Message('note_off', channel=0, note=66, velocity=0, time=1344),
    Message('note_on', channel=0, note=71, velocity=100, time=192),
    Message('note_off', channel=0, note=71, velocity=0, time=1344),
    Message('note_on', channel=0, note=71, velocity=100, time=192),
    Message('note_on', channel=0, note=76, velocity=100, time=0),
    Message('note_off', channel=0, note=76, velocity=0, time=288),
    Message('note_off', channel=0, note=71, velocity=0, time=0),
    Message('note_on', channel=0, note=67, velocity=100, time=96),
    Message('note_off', channel=0, note=67, velocity=0, time=2112),
    Message('note_on', channel=0, note=74, velocity=100, time=192),
    Message('note_on', channel=0, note=79, velocity=100, time=0),
    Message('note_off', channel=0, note=79, velocity=0, time=288),
    Message('note_off', channel=0, note=74, velocity=0, time=0),
    Message('note_on', channel=0, note=66, velocity=100, time=96),
    Message('note_on', channel=0, note=78, velocity=100, time=0),
    Message('note_off', channel=0, note=78, velocity=0, time=1344),
    Message('note_off', channel=0, note=66, velocity=0, time=0),
    Message('note_on', channel=0, note=71, velocity=100, time=192),
    Message('note_on', channel=0, note=76, velocity=100, time=0),
    Message('note_off', channel=0, note=76, velocity=0, time=960),
    Message('note_off', channel=0, note=71, velocity=0, time=0),
    Message('note_on', channel=0, note=74, velocity=100, time=192),
    Message('note_off', channel=0, note=74, velocity=0, time=288),
    Message('note_on', channel=0, note=71, velocity=100, time=96),
    Message('note_on', channel=0, note=76, velocity=100, time=0),
    Message('note_off', channel=0, note=76, velocity=0, time=288),
    Message('note_off', channel=0, note=71, velocity=0, time=0),
    Message('note_on', channel=0, note=67, velocity=100, time=96),
    Message('note_off', channel=0, note=67, velocity=0, time=1728),
    Message('note_on', channel=0, note=79, velocity=100, time=192),
    Message('note_off', channel=0, note=79, velocity=0, time=288),
    Message('note_on', channel=0, note=74, velocity=100, time=96),
    Message('note_on', channel=0, note=79, velocity=100, time=0),
    Message('note_off', channel=0, note=79, velocity=0, time=96),
    Message('note_off', channel=0, note=74, velocity=0, time=0),
    Message('note_on', channel=0, note=81, velocity=100, time=96),
    Message('note_off', channel=0, note=81, velocity=0, time=96),
    Message('note_on', channel=0, note=79, velocity=100, time=0),
    Message('note_off', channel=0, note=79, velocity=0, time=96),
    Message('note_on', channel=0, note=66, velocity=100, time=0),
    Message('note_on', channel=0, note=78, velocity=100, time=0),
    Message('note_off', channel=0, note=78, velocity=0, time=672),
    Message('note_off', channel=0, note=66, velocity=0, time=0),
    Message('note_on', channel=0, note=74, velocity=100, time=96),
    Message('note_off', channel=0, note=74, velocity=0, time=672),
    Message('note_on', channel=0, note=71, velocity=100, time=96),
    Message('note_on', channel=0, note=76, velocity=100, time=0),
    Message('note_off', channel=0, note=76, velocity=0, time=960),
    Message('note_off', channel=0, note=71, velocity=0, time=0),
    Message('note_on', channel=0, note=74, velocity=100, time=192),
    Message('note_on', channel=0, note=83, velocity=100, time=0),
    Message('note_off', channel=0, note=83, velocity=0, time=288),
    Message('note_off', channel=0, note=74, velocity=0, time=0),
    Message('note_on', channel=0, note=71, velocity=100, time=96),
    Message('note_on', channel=0, note=76, velocity=100, time=0),
    Message('note_off', channel=0, note=76, velocity=0, time=288),
    Message('note_off', channel=0, note=71, velocity=0, time=0),
    Message('note_on', channel=0, note=67, velocity=100, time=96),
    Message('note_off', channel=0, note=67, velocity=0, time=1728),
    Message('note_on', channel=0, note=79, velocity=100, time=192),
    Message('note_off', channel=0, note=79, velocity=0, time=288),
    Message('note_on', channel=0, note=74, velocity=100, time=96),
    Message('note_on', channel=0, note=79, velocity=100, time=0),
    Message('note_off', channel=0, note=79, velocity=0, time=96),
    Message('note_off', channel=0, note=74, velocity=0, time=0),
    Message('note_on', channel=0, note=81, velocity=100, time=96),
    Message('note_off', channel=0, note=81, velocity=0, time=96),
    Message('note_on', channel=0, note=79, velocity=100, time=0),
    Message('note_off', channel=0, note=79, velocity=0, time=96),
    Message('note_on', channel=0, note=66, velocity=100, time=0),
    Message('note_on', channel=0, note=78, velocity=100, time=0),
    Message('note_off', channel=0, note=78, velocity=0, time=672),
    Message('note_off', channel=0, note=66, velocity=0, time=0),
    Message('note_on', channel=0, note=74, velocity=100, time=96),
    Message('note_off', channel=0, note=74, velocity=0, time=672),
    Message('note_on', channel=0, note=71, velocity=100, time=96),
    Message('note_on', channel=0, note=76, velocity=100, time=0),
    Message('note_off', channel=0, note=76, velocity=0, time=96),
    Message('note_off', channel=0, note=71, velocity=0, time=0),
    Message('note_on', channel=0, note=69, velocity=100, time=96),
    Message('note_off', channel=0, note=69, velocity=0, time=96),
    Message('note_on', channel=0, note=74, velocity=100, time=0),
    Message('note_off', channel=0, note=74, velocity=0, time=96),
    Message('note_on', channel=0, note=71, velocity=100, time=0),
    Message('note_off', channel=0, note=71, velocity=0, time=480),
    Message('note_on', channel=0, note=69, velocity=100, time=96),
    Message('note_off', channel=0, note=69, velocity=0, time=96),
    Message('note_on', channel=0, note=74, velocity=100, time=0),
    Message('note_off', channel=0, note=74, velocity=0, time=96),
    Message('note_on', channel=0, note=71, velocity=100, time=0),
    Message('note_off', channel=0, note=71, velocity=0, time=96),
    Message('note_on', channel=0, note=69, velocity=100, time=96),
    Message('note_off', channel=0, note=69, velocity=0, time=96),
    Message('note_on', channel=0, note=64, velocity=100, time=96),
    Message('note_on', channel=0, note=71, velocity=100, time=0),
    Message('note_off', channel=0, note=71, velocity=0, time=96),
    Message('note_off', channel=0, note=64, velocity=0, time=0),
    Message('note_on', channel=0, note=69, velocity=100, time=96),
    Message('note_off', channel=0, note=69, velocity=0, time=96),
    Message('note_on', channel=0, note=71, velocity=100, time=96),
    Message('note_off', channel=0, note=71, velocity=0, time=96),
    Message('note_on', channel=0, note=69, velocity=100, time=96),
    Message('note_off', channel=0, note=69, velocity=0, time=96),
    Message('note_on', channel=0, note=71, velocity=100, time=96),
    Message('note_off', channel=0, note=71, velocity=0, time=96),
    Message('note_on', channel=0, note=69, velocity=100, time=96),
    Message('note_off', channel=0, note=69, velocity=0, time=96),
    Message('note_on', channel=0, note=71, velocity=100, time=96),
    Message('note_off', channel=0, note=71, velocity=0, time=96),
    Message('note_on', channel=0, note=69, velocity=100, time=96),
    Message('note_off', channel=0, note=69, velocity=0, time=96),
    Message('note_on', channel=0, note=71, velocity=100, time=96),
    Message('note_off', channel=0, note=71, velocity=0, time=96),
    Message('note_on', channel=0, note=69, velocity=100, time=96),
    Message('note_off', channel=0, note=69, velocity=0, time=96),
    Message('note_on', channel=0, note=71, velocity=100, time=96),
    Message('note_off', channel=0, note=71, velocity=0, time=96),
    Message('note_on', channel=0, note=69, velocity=100, time=96),
    Message('note_off', channel=0, note=69, velocity=0, time=96),
    Message('note_on', channel=0, note=71, velocity=100, time=96),
    Message('note_off', channel=0, note=71, velocity=0, time=96),
    Message('note_on', channel=0, note=69, velocity=100, time=96),
    Message('note_off', channel=0, note=69, velocity=0, time=96),
    Message('note_on', channel=0, note=71, velocity=100, time=96),
    Message('note_off', channel=0, note=71, velocity=0, time=96),
    Message('note_on', channel=0, note=69, velocity=100, time=96),
    Message('note_off', channel=0, note=69, velocity=0, time=96),
    Message('note_on', channel=0, note=71, velocity=100, time=96),
    Message('note_off', channel=0, note=71, velocity=0, time=1344),
    Message('note_on', channel=0, note=71, velocity=100, time=1728),
    Message('note_off', channel=0, note=71, velocity=0, time=288),
    Message('note_on', channel=0, note=67, velocity=100, time=96),
    Message('note_off', channel=0, note=67, velocity=0, time=2112),
    Message('note_on', channel=0, note=74, velocity=100, time=192),
    Message('note_off', channel=0, note=74, velocity=0, time=96),
    Message('note_on', channel=0, note=71, velocity=100, time=96),
    Message('note_off', channel=0, note=71, velocity=0, time=96),
    Message('note_on', channel=0, note=66, velocity=100, time=96),
    Message('note_off', channel=0, note=66, velocity=0, time=192),
    Message('note_on', channel=0, note=64, velocity=100, time=96),
    Message('note_off', channel=0, note=64, velocity=0, time=960),
    Message('note_on', channel=0, note=71, velocity=100, time=1824),
    Message('note_on', channel=0, note=83, velocity=100, time=36),
    Message('note_off', channel=0, note=71, velocity=0, time=252),
    Message('note_off', channel=0, note=83, velocity=0, time=36),
    Message('note_on', channel=0, note=67, velocity=100, time=60),
    Message('note_off', channel=0, note=67, velocity=0, time=2112),
    Message('note_on', channel=0, note=74, velocity=100, time=192),
    Message('note_off', channel=0, note=74, velocity=0, time=96),
    Message('note_on', channel=0, note=71, velocity=100, time=96),
    Message('note_off', channel=0, note=71, velocity=0, time=96),
    Message('note_on', channel=0, note=66, velocity=100, time=96),
    Message('note_off', channel=0, note=66, velocity=0, time=192),
    Message('note_on', channel=0, note=64, velocity=100, time=96),
    Message('note_off', channel=0, note=64, velocity=0, time=960),
    Message('note_on', channel=0, note=71, velocity=100, time=1824),
    Message('note_on', channel=0, note=83, velocity=100, time=0),
    Message('note_off', channel=0, note=83, velocity=0, time=192),
    Message('note_off', channel=0, note=71, velocity=0, time=0),
    Message('note_on', channel=0, note=76, velocity=100, time=96),
    Message('note_off', channel=0, note=76, velocity=0, time=96),
    Message('note_on', channel=0, note=67, velocity=100, time=0),
    Message('note_on', channel=0, note=79, velocity=100, time=0),
    Message('note_off', channel=0, note=79, velocity=0, time=672),
    Message('note_off', channel=0, note=67, velocity=0, time=0),
    Message('note_on', channel=0, note=66, velocity=100, time=288),
    Message('note_on', channel=0, note=78, velocity=100, time=0),
    Message('note_off', channel=0, note=78, velocity=0, time=96),
    Message('note_off', channel=0, note=66, velocity=0, time=0),
    Message('note_on', channel=0, note=67, velocity=100, time=96),
    Message('note_on', channel=0, note=79, velocity=100, time=0),
    Message('note_off', channel=0, note=79, velocity=0, time=96),
    Message('note_off', channel=0, note=67, velocity=0, time=0),
    Message('note_on', channel=0, note=71, velocity=100, time=96),
    Message('note_on', channel=0, note=83, velocity=100, time=0),
    Message('note_off', channel=0, note=83, velocity=0, time=96),
    Message('note_off', channel=0, note=71, velocity=0, time=0),
    Message('note_on', channel=0, note=64, velocity=100, time=0),
    Message('note_on', channel=0, note=76, velocity=100, time=0),
    Message('note_off', channel=0, note=76, velocity=0, time=192),
    Message('note_off', channel=0, note=64, velocity=0, time=0),
    Message('note_on', channel=0, note=74, velocity=100, time=672),
    Message('note_on', channel=0, note=86, velocity=100, time=0),
    Message('note_off', channel=0, note=86, velocity=0, time=96),
    Message('note_off', channel=0, note=74, velocity=0, time=0),
    Message('note_on', channel=0, note=71, velocity=100, time=96),
    Message('note_on', channel=0, note=83, velocity=100, time=0),
    Message('note_off', channel=0, note=83, velocity=0, time=96),
    Message('note_off', channel=0, note=71, velocity=0, time=0),
    Message('note_on', channel=0, note=66, velocity=100, time=96),
    Message('note_on', channel=0, note=78, velocity=100, time=0),
    Message('note_off', channel=0, note=78, velocity=0, time=192),
    Message('note_off', channel=0, note=66, velocity=0, time=0),
    Message('note_on', channel=0, note=64, velocity=100, time=96),
    Message('note_on', channel=0, note=76, velocity=100, time=0),
    Message('note_off', channel=0, note=76, velocity=0, time=288),
    Message('note_off', channel=0, note=64, velocity=0, time=0),
    Message('note_on', channel=0, note=83, velocity=100, time=2496),
    Message('note_off', channel=0, note=83, velocity=0, time=192),
    Message('note_on', channel=0, note=76, velocity=100, time=96),
    Message('note_off', channel=0, note=76, velocity=0, time=96),
    Message('note_on', channel=0, note=79, velocity=100, time=0),
    Message('note_off', channel=0, note=79, velocity=0, time=288),
    Message('note_on', channel=0, note=78, velocity=100, time=672),
    Message('note_off', channel=0, note=78, velocity=0, time=96),
    Message('note_on', channel=0, note=79, velocity=100, time=96),
    Message('note_off', channel=0, note=79, velocity=0, time=96),
    Message('note_on', channel=0, note=83, velocity=100, time=96),
    Message('note_off', channel=0, note=83, velocity=0, time=96),
    Message('note_on', channel=0, note=76, velocity=100, time=0),
    Message('note_off', channel=0, note=76, velocity=0, time=288),
    Message('note_on', channel=0, note=86, velocity=100, time=576),
    Message('note_off', channel=0, note=86, velocity=0, time=96),
    Message('note_on', channel=0, note=83, velocity=100, time=96),
    Message('note_off', channel=0, note=83, velocity=0, time=96),
    Message('note_on', channel=0, note=78, velocity=100, time=96),
    Message('note_off', channel=0, note=78, velocity=0, time=192),
    Message('note_on', channel=0, note=76, velocity=100, time=96),
    Message('note_off', channel=0, note=76, velocity=0, time=288),
    Message('note_on', channel=0, note=71, velocity=100, time=2496),
    Message('note_on', channel=0, note=83, velocity=100, time=0),
    Message('note_off', channel=0, note=83, velocity=0, time=192),
    Message('note_off', channel=0, note=71, velocity=0, time=0),
    Message('note_on', channel=0, note=76, velocity=100, time=96),
    Message('note_off', channel=0, note=76, velocity=0, time=96),
    Message('note_on', channel=0, note=67, velocity=100, time=0),
    Message('note_on', channel=0, note=79, velocity=100, time=0),
    Message('note_off', channel=0, note=79, velocity=0, time=672),
    Message('note_off', channel=0, note=67, velocity=0, time=0),
    Message('note_on', channel=0, note=66, velocity=100, time=288),
    Message('note_on', channel=0, note=78, velocity=100, time=0),
    Message('note_off', channel=0, note=78, velocity=0, time=96),
    Message('note_off', channel=0, note=66, velocity=0, time=0),
    Message('note_on', channel=0, note=67, velocity=100, time=96),
    Message('note_on', channel=0, note=79, velocity=100, time=0),
    Message('note_off', channel=0, note=79, velocity=0, time=96),
    Message('note_off', channel=0, note=67, velocity=0, time=0),
    Message('note_on', channel=0, note=71, velocity=100, time=96),
    Message('note_on', channel=0, note=83, velocity=100, time=0),
    Message('note_off', channel=0, note=83, velocity=0, time=96),
    Message('note_off', channel=0, note=71, velocity=0, time=0),
    Message('note_on', channel=0, note=64, velocity=100, time=0),
    Message('note_on', channel=0, note=76, velocity=100, time=0),
    Message('note_off', channel=0, note=76, velocity=0, time=192),
    Message('note_off', channel=0, note=64, velocity=0, time=0),
    Message('note_on', channel=0, note=74, velocity=100, time=672),
    Message('note_on', channel=0, note=86, velocity=100, time=0),
    Message('note_off', channel=0, note=86, velocity=0, time=96),
    Message('note_off', channel=0, note=74, velocity=0, time=0),
    Message('note_on', channel=0, note=71, velocity=100, time=96),
    Message('note_on', channel=0, note=83, velocity=100, time=0),
    Message('note_off', channel=0, note=83, velocity=0, time=96),
    Message('note_off', channel=0, note=71, velocity=0, time=0),
    Message('note_on', channel=0, note=66, velocity=100, time=96),
    Message('note_on', channel=0, note=78, velocity=100, time=0),
    Message('note_off', channel=0, note=78, velocity=0, time=192),
    Message('note_off', channel=0, note=66, velocity=0, time=0),
    Message('note_on', channel=0, note=64, velocity=100, time=96),
    Message('note_on', channel=0, note=76, velocity=100, time=0),
    Message('note_off', channel=0, note=76, velocity=0, time=288),
    Message('note_off', channel=0, note=64, velocity=0, time=0),
    Message('note_on', channel=0, note=71, velocity=100, time=2496),
    Message('note_on', channel=0, note=83, velocity=100, time=0),
    Message('note_off', channel=0, note=83, velocity=0, time=192),
    Message('note_off', channel=0, note=71, velocity=0, time=0),
    Message('note_on', channel=0, note=76, velocity=100, time=96),
    Message('note_off', channel=0, note=76, velocity=0, time=96),
    Message('note_on', channel=0, note=67, velocity=100, time=0),
    Message('note_on', channel=0, note=79, velocity=100, time=0),
    Message('note_off', channel=0, note=79, velocity=0, time=672),
    Message('note_off', channel=0, note=67, velocity=0, time=0),
    Message('note_on', channel=0, note=66, velocity=100, time=288),
    Message('note_on', channel=0, note=78, velocity=100, time=0),
    Message('note_off', channel=0, note=78, velocity=0, time=96),
    Message('note_off', channel=0, note=66, velocity=0, time=0),
    Message('note_on', channel=0, note=67, velocity=100, time=96),
    Message('note_on', channel=0, note=79, velocity=100, time=0),
    Message('note_off', channel=0, note=79, velocity=0, time=96),
    Message('note_off', channel=0, note=67, velocity=0, time=0),
    Message('note_on', channel=0, note=71, velocity=100, time=96),
    Message('note_on', channel=0, note=83, velocity=100, time=0),
    Message('note_off', channel=0, note=83, velocity=0, time=96),
    Message('note_off', channel=0, note=71, velocity=0, time=0),
    Message('note_on', channel=0, note=64, velocity=100, time=0),
    Message('note_on', channel=0, note=76, velocity=100, time=0),
    Message('note_off', channel=0, note=76, velocity=0, time=192),
    Message('note_off', channel=0, note=64, velocity=0, time=0),
    Message('note_on', channel=0, note=74, velocity=100, time=672),
    Message('note_on', channel=0, note=86, velocity=100, time=0),
    Message('note_off', channel=0, note=86, velocity=0, time=96),
    Message('note_off', channel=0, note=74, velocity=0, time=0),
    Message('note_on', channel=0, note=71, velocity=100, time=96),
    Message('note_on', channel=0, note=83, velocity=100, time=0),
    Message('note_off', channel=0, note=83, velocity=0, time=96),
    Message('note_off', channel=0, note=71, velocity=0, time=0),
    Message('note_on', channel=0, note=66, velocity=100, time=96),
    Message('note_on', channel=0, note=78, velocity=100, time=0),
    Message('note_off', channel=0, note=78, velocity=0, time=192),
    Message('note_off', channel=0, note=66, velocity=0, time=0),
    Message('note_on', channel=0, note=64, velocity=100, time=96),
    Message('note_on', channel=0, note=76, velocity=100, time=0),
    Message('note_off', channel=0, note=76, velocity=0, time=288),
    Message('note_off', channel=0, note=64, velocity=0, time=0),
    Message('note_on', channel=0, note=71, velocity=100, time=2496),
    Message('note_on', channel=0, note=83, velocity=100, time=0),
    Message('note_off', channel=0, note=83, velocity=0, time=192),
    Message('note_off', channel=0, note=71, velocity=0, time=0),
    Message('note_on', channel=0, note=76, velocity=100, time=96),
    Message('note_off', channel=0, note=76, velocity=0, time=96),
    Message('note_on', channel=0, note=67, velocity=100, time=0),
    Message('note_on', channel=0, note=79, velocity=100, time=0),
    Message('note_off', channel=0, note=79, velocity=0, time=672),
    Message('note_off', channel=0, note=67, velocity=0, time=0),
    Message('note_on', channel=0, note=66, velocity=100, time=288),
    Message('note_on', channel=0, note=78, velocity=100, time=0),
    Message('note_off', channel=0, note=78, velocity=0, time=96),
    Message('note_off', channel=0, note=66, velocity=0, time=0),
    Message('note_on', channel=0, note=67, velocity=100, time=96),
    Message('note_on', channel=0, note=79, velocity=100, time=0),
    Message('note_off', channel=0, note=79, velocity=0, time=96),
    Message('note_off', channel=0, note=67, velocity=0, time=0),
    Message('note_on', channel=0, note=71, velocity=100, time=96),
    Message('note_on', channel=0, note=83, velocity=100, time=0),
    Message('note_off', channel=0, note=83, velocity=0, time=96),
    Message('note_off', channel=0, note=71, velocity=0, time=0),
    Message('note_on', channel=0, note=64, velocity=100, time=0),
    Message('note_on', channel=0, note=76, velocity=100, time=0),
    Message('note_off', channel=0, note=76, velocity=0, time=192),
    Message('note_off', channel=0, note=64, velocity=0, time=0),
    Message('note_on', channel=0, note=74, velocity=100, time=672),
    Message('note_on', channel=0, note=86, velocity=100, time=0),
    Message('note_off', channel=0, note=86, velocity=0, time=96),
    Message('note_off', channel=0, note=74, velocity=0, time=0),
    Message('note_on', channel=0, note=71, velocity=100, time=96),
    Message('note_on', channel=0, note=83, velocity=100, time=0),
    Message('note_off', channel=0, note=83, velocity=0, time=96),
    Message('note_off', channel=0, note=71, velocity=0, time=0),
    Message('note_on', channel=0, note=66, velocity=100, time=96),
    Message('note_on', channel=0, note=78, velocity=100, time=0),
    Message('note_off', channel=0, note=78, velocity=0, time=192),
    Message('note_off', channel=0, note=66, velocity=0, time=0),
    Message('note_on', channel=0, note=64, velocity=100, time=96),
    Message('note_on', channel=0, note=76, velocity=100, time=0),
    Message('note_off', channel=0, note=76, velocity=0, time=288),
    Message('note_off', channel=0, note=64, velocity=0, time=0),
    Message('note_on', channel=0, note=71, velocity=100, time=2496),
    Message('note_on', channel=0, note=83, velocity=100, time=0),
    Message('note_off', channel=0, note=83, velocity=0, time=192),
    Message('note_off', channel=0, note=71, velocity=0, time=0),
    Message('note_on', channel=0, note=76, velocity=100, time=96),
    Message('note_off', channel=0, note=76, velocity=0, time=96),
    Message('note_on', channel=0, note=67, velocity=100, time=0),
    Message('note_on', channel=0, note=79, velocity=100, time=0),
    Message('note_off', channel=0, note=79, velocity=0, time=672),
    Message('note_off', channel=0, note=67, velocity=0, time=0),
    Message('note_on', channel=0, note=66, velocity=100, time=288),
    Message('note_on', channel=0, note=78, velocity=100, time=0),
    Message('note_off', channel=0, note=78, velocity=0, time=96),
    Message('note_off', channel=0, note=66, velocity=0, time=0),
    Message('note_on', channel=0, note=67, velocity=100, time=96),
    Message('note_on', channel=0, note=79, velocity=100, time=0),
    Message('note_off', channel=0, note=79, velocity=0, time=96),
    Message('note_off', channel=0, note=67, velocity=0, time=0),
    Message('note_on', channel=0, note=71, velocity=100, time=96),
    Message('note_on', channel=0, note=83, velocity=100, time=0),
    Message('note_off', channel=0, note=83, velocity=0, time=96),
    Message('note_off', channel=0, note=71, velocity=0, time=0),
    Message('note_on', channel=0, note=64, velocity=100, time=0),
    Message('note_on', channel=0, note=76, velocity=100, time=0),
    Message('note_off', channel=0, note=76, velocity=0, time=192),
    Message('note_off', channel=0, note=64, velocity=0, time=0),
    Message('note_on', channel=0, note=74, velocity=100, time=672),
    Message('note_on', channel=0, note=86, velocity=100, time=0),
    Message('note_off', channel=0, note=86, velocity=0, time=96),
    Message('note_off', channel=0, note=74, velocity=0, time=0),
    Message('note_on', channel=0, note=71, velocity=100, time=96),
    Message('note_on', channel=0, note=83, velocity=100, time=0),
    Message('note_off', channel=0, note=83, velocity=0, time=96),
    Message('note_off', channel=0, note=71, velocity=0, time=0),
    Message('note_on', channel=0, note=66, velocity=100, time=96),
    Message('note_on', channel=0, note=78, velocity=100, time=0),
    Message('note_off', channel=0, note=78, velocity=0, time=192),
    Message('note_off', channel=0, note=66, velocity=0, time=0),
    Message('note_on', channel=0, note=64, velocity=100, time=96),
    Message('note_on', channel=0, note=76, velocity=100, time=0),
    Message('note_off', channel=0, note=76, velocity=0, time=288),
    Message('note_off', channel=0, note=64, velocity=0, time=0),
    Message('note_on', channel=0, note=71, velocity=100, time=2496),
    Message('note_on', channel=0, note=83, velocity=100, time=0),
    Message('note_off', channel=0, note=83, velocity=0, time=192),
    Message('note_off', channel=0, note=71, velocity=0, time=0),
    Message('note_on', channel=0, note=76, velocity=100, time=96),
    Message('note_off', channel=0, note=76, velocity=0, time=96),
    Message('note_on', channel=0, note=67, velocity=100, time=0),
    Message('note_on', channel=0, note=79, velocity=100, time=0),
    Message('note_off', channel=0, note=79, velocity=0, time=672),
    Message('note_off', channel=0, note=67, velocity=0, time=0),
    Message('note_on', channel=0, note=66, velocity=100, time=288),
    Message('note_on', channel=0, note=78, velocity=100, time=0),
    Message('note_off', channel=0, note=78, velocity=0, time=96),
    Message('note_off', channel=0, note=66, velocity=0, time=0),
    Message('note_on', channel=0, note=67, velocity=100, time=96),
    Message('note_on', channel=0, note=79, velocity=100, time=0),
    Message('note_off', channel=0, note=79, velocity=0, time=96),
    Message('note_off', channel=0, note=67, velocity=0, time=0),
    Message('note_on', channel=0, note=71, velocity=100, time=96),
    Message('note_on', channel=0, note=83, velocity=100, time=0),
    Message('note_off', channel=0, note=83, velocity=0, time=96),
    Message('note_off', channel=0, note=71, velocity=0, time=0),
    Message('note_on', channel=0, note=64, velocity=100, time=0),
    Message('note_on', channel=0, note=76, velocity=100, time=0),
    Message('note_off', channel=0, note=76, velocity=0, time=192),
    Message('note_off', channel=0, note=64, velocity=0, time=0),
    Message('note_on', channel=0, note=74, velocity=100, time=672),
    Message('note_on', channel=0, note=86, velocity=100, time=0),
    Message('note_off', channel=0, note=86, velocity=0, time=96),
    Message('note_off', channel=0, note=74, velocity=0, time=0),
    Message('note_on', channel=0, note=71, velocity=100, time=96),
    Message('note_on', channel=0, note=83, velocity=100, time=0),
    Message('note_off', channel=0, note=83, velocity=0, time=96),
    Message('note_off', channel=0, note=71, velocity=0, time=0),
    Message('note_on', channel=0, note=66, velocity=100, time=96),
    Message('note_on', channel=0, note=78, velocity=100, time=0),
    Message('note_off', channel=0, note=78, velocity=0, time=192),
    Message('note_off', channel=0, note=66, velocity=0, time=0),
    Message('note_on', channel=0, note=64, velocity=100, time=96),
    Message('note_on', channel=0, note=76, velocity=100, time=0),
    Message('note_off', channel=0, note=76, velocity=0, time=288),
    Message('note_off', channel=0, note=64, velocity=0, time=0),
    Message('note_on', channel=0, note=71, velocity=100, time=2496),
    Message('note_on', channel=0, note=83, velocity=100, time=0),
    Message('note_off', channel=0, note=83, velocity=0, time=192),
    Message('note_off', channel=0, note=71, velocity=0, time=0),
    Message('note_on', channel=0, note=76, velocity=100, time=96),
    Message('note_off', channel=0, note=76, velocity=0, time=96),
    Message('note_on', channel=0, note=67, velocity=100, time=0),
    Message('note_on', channel=0, note=79, velocity=100, time=0),
    Message('note_off', channel=0, note=79, velocity=0, time=672),
    Message('note_off', channel=0, note=67, velocity=0, time=0),
    Message('note_on', channel=0, note=66, velocity=100, time=288),
    Message('note_on', channel=0, note=78, velocity=100, time=0),
    Message('note_off', channel=0, note=78, velocity=0, time=96),
    Message('note_off', channel=0, note=66, velocity=0, time=0),
    Message('note_on', channel=0, note=67, velocity=100, time=96),
    Message('note_on', channel=0, note=79, velocity=100, time=0),
    Message('note_off', channel=0, note=79, velocity=0, time=96),
    Message('note_off', channel=0, note=67, velocity=0, time=0),
    Message('note_on', channel=0, note=71, velocity=100, time=96),
    Message('note_on', channel=0, note=83, velocity=100, time=0),
    Message('note_off', channel=0, note=83, velocity=0, time=96),
    Message('note_off', channel=0, note=71, velocity=0, time=0),
    Message('note_on', channel=0, note=64, velocity=100, time=0),
    Message('note_on', channel=0, note=76, velocity=100, time=0),
    Message('note_off', channel=0, note=76, velocity=0, time=192),
    Message('note_off', channel=0, note=64, velocity=0, time=0),
    Message('note_on', channel=0, note=74, velocity=100, time=672),
    Message('note_on', channel=0, note=86, velocity=100, time=0),
    Message('note_off', channel=0, note=86, velocity=0, time=96),
    Message('note_off', channel=0, note=74, velocity=0, time=0),
    Message('note_on', channel=0, note=71, velocity=100, time=96),
    Message('note_on', channel=0, note=83, velocity=100, time=0),
    Message('note_off', channel=0, note=83, velocity=0, time=96),
    Message('note_off', channel=0, note=71, velocity=0, time=0),
    Message('note_on', channel=0, note=66, velocity=100, time=96),
    Message('note_on', channel=0, note=78, velocity=100, time=0),
    Message('note_off', channel=0, note=78, velocity=0, time=192),
    Message('note_off', channel=0, note=66, velocity=0, time=0),
    Message('note_on', channel=0, note=64, velocity=100, time=96),
    Message('note_on', channel=0, note=76, velocity=100, time=0),
    Message('note_off', channel=0, note=76, velocity=0, time=288),
    Message('note_off', channel=0, note=64, velocity=0, time=0),
    Message('note_on', channel=0, note=71, velocity=100, time=2496),
    Message('note_on', channel=0, note=83, velocity=100, time=0),
    Message('note_off', channel=0, note=83, velocity=0, time=192),
    Message('note_off', channel=0, note=71, velocity=0, time=0),
    Message('note_on', channel=0, note=76, velocity=100, time=96),
    Message('note_off', channel=0, note=76, velocity=0, time=96),
    Message('note_on', channel=0, note=67, velocity=100, time=0),
    Message('note_on', channel=0, note=79, velocity=100, time=0),
    Message('note_off', channel=0, note=79, velocity=0, time=672),
    Message('note_off', channel=0, note=67, velocity=0, time=0),
    Message('note_on', channel=0, note=66, velocity=100, time=288),
    Message('note_on', channel=0, note=78, velocity=100, time=0),
    Message('note_off', channel=0, note=78, velocity=0, time=96),
    Message('note_off', channel=0, note=66, velocity=0, time=0),
    Message('note_on', channel=0, note=67, velocity=100, time=96),
    Message('note_on', channel=0, note=79, velocity=100, time=0),
    Message('note_off', channel=0, note=79, velocity=0, time=96),
    Message('note_off', channel=0, note=67, velocity=0, time=0),
    Message('note_on', channel=0, note=71, velocity=100, time=96),
    Message('note_on', channel=0, note=83, velocity=100, time=0),
    Message('note_off', channel=0, note=83, velocity=0, time=96),
    Message('note_off', channel=0, note=71, velocity=0, time=0),
    Message('note_on', channel=0, note=64, velocity=100, time=0),
    Message('note_on', channel=0, note=76, velocity=100, time=0),
    Message('note_off', channel=0, note=76, velocity=0, time=192),
    Message('note_off', channel=0, note=64, velocity=0, time=0),
    Message('note_on', channel=0, note=74, velocity=100, time=672),
    Message('note_on', channel=0, note=86, velocity=100, time=0),
    Message('note_off', channel=0, note=86, velocity=0, time=96),
    Message('note_off', channel=0, note=74, velocity=0, time=0),
    Message('note_on', channel=0, note=71, velocity=100, time=96),
    Message('note_on', channel=0, note=83, velocity=100, time=0),
    Message('note_off', channel=0, note=83, velocity=0, time=96),
    Message('note_off', channel=0, note=71, velocity=0, time=0),
    Message('note_on', channel=0, note=66, velocity=100, time=96),
    Message('note_on', channel=0, note=78, velocity=100, time=0),
    Message('note_off', channel=0, note=78, velocity=0, time=192),
    Message('note_off', channel=0, note=66, velocity=0, time=0),
    Message('note_on', channel=0, note=64, velocity=100, time=96),
    Message('note_on', channel=0, note=76, velocity=100, time=0),
    Message('note_off', channel=0, note=76, velocity=0, time=288),
    Message('note_off', channel=0, note=64, velocity=0, time=0),
    Message('note_on', channel=0, note=71, velocity=100, time=2496),
    Message('note_on', channel=0, note=83, velocity=100, time=0),
    Message('note_off', channel=0, note=83, velocity=0, time=192),
    Message('note_off', channel=0, note=71, velocity=0, time=0),
    Message('note_on', channel=0, note=76, velocity=100, time=96),
    Message('note_off', channel=0, note=76, velocity=0, time=96),
    Message('note_on', channel=0, note=67, velocity=100, time=0),
    Message('note_on', channel=0, note=79, velocity=100, time=0),
    Message('note_off', channel=0, note=79, velocity=0, time=672),
    Message('note_off', channel=0, note=67, velocity=0, time=0),
    Message('note_on', channel=0, note=66, velocity=100, time=288),
    Message('note_on', channel=0, note=78, velocity=100, time=0),
    Message('note_off', channel=0, note=78, velocity=0, time=96),
    Message('note_off', channel=0, note=66, velocity=0, time=0),
    Message('note_on', channel=0, note=67, velocity=100, time=96),
    Message('note_on', channel=0, note=79, velocity=100, time=0),
    Message('note_off', channel=0, note=79, velocity=0, time=96),
    Message('note_off', channel=0, note=67, velocity=0, time=0),
    Message('note_on', channel=0, note=71, velocity=100, time=96),
    Message('note_on', channel=0, note=83, velocity=100, time=0),
    Message('note_off', channel=0, note=83, velocity=0, time=96),
    Message('note_off', channel=0, note=71, velocity=0, time=0),
    Message('note_on', channel=0, note=64, velocity=100, time=0),
    Message('note_on', channel=0, note=76, velocity=100, time=0),
    Message('note_off', channel=0, note=76, velocity=0, time=192),
    Message('note_off', channel=0, note=64, velocity=0, time=0),
    Message('note_on', channel=0, note=74, velocity=100, time=672),
    Message('note_on', channel=0, note=86, velocity=100, time=0),
    Message('note_off', channel=0, note=86, velocity=0, time=96),
    Message('note_off', channel=0, note=74, velocity=0, time=0),
    Message('note_on', channel=0, note=71, velocity=100, time=96),
    Message('note_on', channel=0, note=83, velocity=100, time=0),
    Message('note_off', channel=0, note=83, velocity=0, time=96),
    Message('note_off', channel=0, note=71, velocity=0, time=0),
    Message('note_on', channel=0, note=66, velocity=100, time=96),
    Message('note_on', channel=0, note=78, velocity=100, time=0),
    Message('note_off', channel=0, note=78, velocity=0, time=192),
    Message('note_off', channel=0, note=66, velocity=0, time=0),
    Message('note_on', channel=0, note=64, velocity=100, time=96),
    Message('note_on', channel=0, note=76, velocity=100, time=0),
    Message('note_off', channel=0, note=76, velocity=0, time=288),
    Message('note_off', channel=0, note=64, velocity=0, time=0),
    Message('note_on', channel=0, note=71, velocity=100, time=2496),
    Message('note_on', channel=0, note=83, velocity=100, time=0),
    Message('note_off', channel=0, note=83, velocity=0, time=192),
    Message('note_off', channel=0, note=71, velocity=0, time=0),
    Message('note_on', channel=0, note=76, velocity=100, time=96),
    Message('note_off', channel=0, note=76, velocity=0, time=96),
    Message('note_on', channel=0, note=67, velocity=100, time=0),
    Message('note_on', channel=0, note=79, velocity=100, time=0),
    Message('note_off', channel=0, note=79, velocity=0, time=672),
    Message('note_off', channel=0, note=67, velocity=0, time=0),
    Message('note_on', channel=0, note=66, velocity=100, time=288),
    Message('note_on', channel=0, note=78, velocity=100, time=0),
    Message('note_off', channel=0, note=78, velocity=0, time=96),
    Message('note_off', channel=0, note=66, velocity=0, time=0),
    Message('note_on', channel=0, note=67, velocity=100, time=96),
    Message('note_on', channel=0, note=79, velocity=100, time=0),
    Message('note_off', channel=0, note=79, velocity=0, time=96),
    Message('note_off', channel=0, note=67, velocity=0, time=0),
    Message('note_on', channel=0, note=71, velocity=100, time=96),
    Message('note_on', channel=0, note=83, velocity=100, time=0),
    Message('note_off', channel=0, note=83, velocity=0, time=96),
    Message('note_off', channel=0, note=71, velocity=0, time=0),
    Message('note_on', channel=0, note=64, velocity=100, time=0),
    Message('note_on', channel=0, note=76, velocity=100, time=0),
    Message('note_off', channel=0, note=76, velocity=0, time=192),
    Message('note_off', channel=0, note=64, velocity=0, time=0),
    Message('note_on', channel=0, note=74, velocity=100, time=672),
    Message('note_on', channel=0, note=86, velocity=100, time=0),
    Message('note_off', channel=0, note=86, velocity=0, time=96),
    Message('note_off', channel=0, note=74, velocity=0, time=0),
    Message('note_on', channel=0, note=71, velocity=100, time=96),
    Message('note_on', channel=0, note=83, velocity=100, time=0),
    Message('note_off', channel=0, note=83, velocity=0, time=96),
    Message('note_off', channel=0, note=71, velocity=0, time=0),
    Message('note_on', channel=0, note=66, velocity=100, time=96),
    Message('note_on', channel=0, note=78, velocity=100, time=0),
    Message('note_off', channel=0, note=78, velocity=0, time=192),
    Message('note_off', channel=0, note=66, velocity=0, time=0),
    Message('note_on', channel=0, note=64, velocity=100, time=96),
    Message('note_on', channel=0, note=76, velocity=100, time=0),
    Message('note_off', channel=0, note=76, velocity=0, time=288),
    Message('note_off', channel=0, note=64, velocity=0, time=0),
    Message('note_on', channel=0, note=71, velocity=100, time=2496),
    Message('note_on', channel=0, note=83, velocity=100, time=0),
    Message('note_off', channel=0, note=83, velocity=0, time=192),
    Message('note_off', channel=0, note=71, velocity=0, time=0),
    Message('note_on', channel=0, note=76, velocity=100, time=96),
    Message('note_off', channel=0, note=76, velocity=0, time=96),
    Message('note_on', channel=0, note=67, velocity=100, time=0),
    Message('note_on', channel=0, note=79, velocity=100, time=0),
    Message('note_off', channel=0, note=79, velocity=0, time=672),
    Message('note_off', channel=0, note=67, velocity=0, time=0),
    Message('note_on', channel=0, note=66, velocity=100, time=288),
    Message('note_on', channel=0, note=78, velocity=100, time=0),
    Message('note_off', channel=0, note=78, velocity=0, time=96),
    Message('note_off', channel=0, note=66, velocity=0, time=0),
    Message('note_on', channel=0, note=67, velocity=100, time=96),
    Message('note_on', channel=0, note=79, velocity=100, time=0),
    Message('note_off', channel=0, note=79, velocity=0, time=96),
    Message('note_off', channel=0, note=67, velocity=0, time=0),
    Message('note_on', channel=0, note=71, velocity=100, time=96),
    Message('note_on', channel=0, note=83, velocity=100, time=0),
    Message('note_off', channel=0, note=83, velocity=0, time=96),
    Message('note_off', channel=0, note=71, velocity=0, time=0),
    Message('note_on', channel=0, note=64, velocity=100, time=0),
    Message('note_on', channel=0, note=76, velocity=100, time=0),
    Message('note_off', channel=0, note=76, velocity=0, time=192),
    Message('note_off', channel=0, note=64, velocity=0, time=0),
    Message('note_on', channel=0, note=74, velocity=100, time=672),
    Message('note_on', channel=0, note=86, velocity=100, time=0),
    Message('note_off', channel=0, note=86, velocity=0, time=96),
    Message('note_off', channel=0, note=74, velocity=0, time=0),
    Message('note_on', channel=0, note=71, velocity=100, time=96),
    Message('note_on', channel=0, note=83, velocity=100, time=0),
    Message('note_off', channel=0, note=83, velocity=0, time=96),
    Message('note_off', channel=0, note=71, velocity=0, time=0),
    Message('note_on', channel=0, note=66, velocity=100, time=96),
    Message('note_on', channel=0, note=78, velocity=100, time=0),
    Message('note_off', channel=0, note=78, velocity=0, time=192),
    Message('note_off', channel=0, note=66, velocity=0, time=0),
    Message('note_on', channel=0, note=64, velocity=100, time=96),
    Message('note_on', channel=0, note=76, velocity=100, time=0),
    Message('note_off', channel=0, note=76, velocity=0, time=288),
    Message('note_off', channel=0, note=64, velocity=0, time=0),
    Message('note_on', channel=0, note=71, velocity=100, time=2496),
    Message('note_on', channel=0, note=83, velocity=100, time=0),
    Message('note_off', channel=0, note=83, velocity=0, time=192),
    Message('note_off', channel=0, note=71, velocity=0, time=0),
    Message('note_on', channel=0, note=76, velocity=100, time=96),
    Message('note_off', channel=0, note=76, velocity=0, time=96),
    Message('note_on', channel=0, note=67, velocity=100, time=0),
    Message('note_on', channel=0, note=79, velocity=100, time=0),
    Message('note_off', channel=0, note=79, velocity=0, time=672),
    Message('note_off', channel=0, note=67, velocity=0, time=0),
    Message('note_on', channel=0, note=66, velocity=100, time=288),
    Message('note_on', channel=0, note=78, velocity=100, time=0),
    Message('note_off', channel=0, note=78, velocity=0, time=96),
    Message('note_off', channel=0, note=66, velocity=0, time=0),
    Message('note_on', channel=0, note=67, velocity=100, time=96),
    Message('note_on', channel=0, note=79, velocity=100, time=0),
    Message('note_off', channel=0, note=79, velocity=0, time=96),
    Message('note_off', channel=0, note=67, velocity=0, time=0),
    Message('note_on', channel=0, note=71, velocity=100, time=96),
    Message('note_on', channel=0, note=83, velocity=100, time=0),
    Message('note_off', channel=0, note=83, velocity=0, time=96),
    Message('note_off', channel=0, note=71, velocity=0, time=0),
    Message('note_on', channel=0, note=64, velocity=100, time=0),
    Message('note_on', channel=0, note=76, velocity=100, time=0),
    Message('note_off', channel=0, note=76, velocity=0, time=192),
    Message('note_off', channel=0, note=64, velocity=0, time=0),
    Message('note_on', channel=0, note=74, velocity=100, time=672),
    Message('note_on', channel=0, note=86, velocity=100, time=0),
    Message('note_off', channel=0, note=86, velocity=0, time=96),
    Message('note_off', channel=0, note=74, velocity=0, time=0),
    Message('note_on', channel=0, note=71, velocity=100, time=96),
    Message('note_on', channel=0, note=83, velocity=100, time=0),
    Message('note_off', channel=0, note=83, velocity=0, time=96),
    Message('note_off', channel=0, note=71, velocity=0, time=0),
    Message('note_on', channel=0, note=66, velocity=100, time=96),
    Message('note_on', channel=0, note=78, velocity=100, time=0),
    Message('note_off', channel=0, note=78, velocity=0, time=192),
    Message('note_off', channel=0, note=66, velocity=0, time=0),
    Message('note_on', channel=0, note=64, velocity=100, time=96),
    Message('note_on', channel=0, note=76, velocity=100, time=0),
    Message('note_off', channel=0, note=76, velocity=0, time=288),
    Message('note_off', channel=0, note=64, velocity=0, time=0),
    MetaMessage('end_of_track', time=0)]),
  MidiTrack([
    MetaMessage('track_name', name='Grand Piano (Classic)', time=0),
    Message('program_change', channel=1, program=0, time=0),
    Message('note_on', channel=1, note=48, velocity=41, time=0),
    Message('note_off', channel=1, note=48, velocity=0, time=96),
    Message('note_on', channel=1, note=59, velocity=41, time=0),
    Message('note_off', channel=1, note=59, velocity=0, time=96),
    Message('note_on', channel=1, note=64, velocity=41, time=96),
    Message('note_off', channel=1, note=64, velocity=0, time=96),
    Message('note_on', channel=1, note=52, velocity=41, time=0),
    Message('note_off', channel=1, note=52, velocity=0, time=96),
    Message('note_on', channel=1, note=59, velocity=41, time=96),
    Message('note_off', channel=1, note=59, velocity=0, time=96),
    Message('note_on', channel=1, note=52, velocity=41, time=96),
    Message('note_off', channel=1, note=52, velocity=0, time=96),
    Message('note_on', channel=1, note=55, velocity=41, time=96),
    Message('note_off', channel=1, note=55, velocity=0, time=96),
    Message('note_on', channel=1, note=60, velocity=41, time=0),
    Message('note_off', channel=1, note=60, velocity=0, time=96),
    Message('note_on', channel=1, note=59, velocity=41, time=0),
    Message('note_off', channel=1, note=59, velocity=0, time=96),
    Message('note_on', channel=1, note=55, velocity=41, time=96),
    Message('note_off', channel=1, note=55, velocity=0, time=96),
    Message('note_on', channel=1, note=48, velocity=41, time=96),
    Message('note_off', channel=1, note=48, velocity=0, time=96),
    Message('note_on', channel=1, note=59, velocity=41, time=0),
    Message('note_off', channel=1, note=59, velocity=0, time=96),
    Message('note_on', channel=1, note=64, velocity=41, time=96),
    Message('note_off', channel=1, note=64, velocity=0, time=96),
    Message('note_on', channel=1, note=52, velocity=41, time=0),
    Message('note_off', channel=1, note=52, velocity=0, time=96),
    Message('note_on', channel=1, note=59, velocity=41, time=96),
    Message('note_off', channel=1, note=59, velocity=0, time=96),
    Message('note_on', channel=1, note=52, velocity=41, time=96),
    Message('note_off', channel=1, note=52, velocity=0, time=96),
    Message('note_on', channel=1, note=55, velocity=41, time=96),
    Message('note_off', channel=1, note=55, velocity=0, time=96),
    Message('note_on', channel=1, note=60, velocity=41, time=0),
    Message('note_off', channel=1, note=60, velocity=0, time=96),
    Message('note_on', channel=1, note=59, velocity=41, time=0),
    Message('note_off', channel=1, note=59, velocity=0, time=96),
    Message('note_on', channel=1, note=55, velocity=41, time=96),
    Message('note_off', channel=1, note=55, velocity=0, time=96),
    Message('note_on', channel=1, note=48, velocity=41, time=96),
    Message('note_off', channel=1, note=48, velocity=0, time=96),
    Message('note_on', channel=1, note=59, velocity=41, time=0),
    Message('note_off', channel=1, note=59, velocity=0, time=96),
    Message('note_on', channel=1, note=64, velocity=41, time=96),
    Message('note_off', channel=1, note=64, velocity=0, time=96),
    Message('note_on', channel=1, note=52, velocity=41, time=0),
    Message('note_off', channel=1, note=52, velocity=0, time=96),
    Message('note_on', channel=1, note=59, velocity=41, time=96),
    Message('note_off', channel=1, note=59, velocity=0, time=96),
    Message('note_on', channel=1, note=52, velocity=41, time=96),
    Message('note_off', channel=1, note=52, velocity=0, time=96),
    Message('note_on', channel=1, note=55, velocity=41, time=96),
    Message('note_off', channel=1, note=55, velocity=0, time=96),
    Message('note_on', channel=1, note=60, velocity=41, time=0),
    Message('note_off', channel=1, note=60, velocity=0, time=96),
    Message('note_on', channel=1, note=59, velocity=41, time=0),
    Message('note_off', channel=1, note=59, velocity=0, time=96),
    Message('note_on', channel=1, note=55, velocity=41, time=96),
    Message('note_off', channel=1, note=55, velocity=0, time=96),
    Message('note_on', channel=1, note=48, velocity=41, time=96),
    Message('note_off', channel=1, note=48, velocity=0, time=96),
    Message('note_on', channel=1, note=59, velocity=41, time=0),
    Message('note_off', channel=1, note=59, velocity=0, time=96),
    Message('note_on', channel=1, note=64, velocity=41, time=96),
    Message('note_off', channel=1, note=64, velocity=0, time=96),
    Message('note_on', channel=1, note=52, velocity=41, time=0),
    Message('note_off', channel=1, note=52, velocity=0, time=96),
    Message('note_on', channel=1, note=59, velocity=41, time=96),
    Message('note_off', channel=1, note=59, velocity=0, time=96),
    Message('note_on', channel=1, note=52, velocity=41, time=96),
    Message('note_off', channel=1, note=52, velocity=0, time=96),
    Message('note_on', channel=1, note=55, velocity=41, time=96),
    Message('note_off', channel=1, note=55, velocity=0, time=96),
    Message('note_on', channel=1, note=60, velocity=41, time=0),
    Message('note_off', channel=1, note=60, velocity=0, time=96),
    Message('note_on', channel=1, note=59, velocity=41, time=0),
    Message('note_off', channel=1, note=59, velocity=0, time=96),
    Message('note_on', channel=1, note=55, velocity=41, time=96),
    Message('note_off', channel=1, note=55, velocity=0, time=96),
    Message('note_on', channel=1, note=48, velocity=41, time=96),
    Message('note_off', channel=1, note=48, velocity=0, time=96),
    Message('note_on', channel=1, note=59, velocity=41, time=0),
    Message('note_off', channel=1, note=59, velocity=0, time=96),
    Message('note_on', channel=1, note=64, velocity=41, time=96),
    Message('note_off', channel=1, note=64, velocity=0, time=96),
    Message('note_on', channel=1, note=52, velocity=41, time=0),
    Message('note_off', channel=1, note=52, velocity=0, time=96),
    Message('note_on', channel=1, note=59, velocity=41, time=96),
    Message('note_off', channel=1, note=59, velocity=0, time=96),
    Message('note_on', channel=1, note=52, velocity=41, time=96),
    Message('note_off', channel=1, note=52, velocity=0, time=96),
    Message('note_on', channel=1, note=55, velocity=41, time=96),
    Message('note_off', channel=1, note=55, velocity=0, time=96),
    Message('note_on', channel=1, note=60, velocity=41, time=0),
    Message('note_off', channel=1, note=60, velocity=0, time=96),
    Message('note_on', channel=1, note=59, velocity=41, time=0),
    Message('note_off', channel=1, note=59, velocity=0, time=96),
    Message('note_on', channel=1, note=55, velocity=41, time=96),
    Message('note_off', channel=1, note=55, velocity=0, time=96),
    Message('note_on', channel=1, note=48, velocity=41, time=96),
    Message('note_off', channel=1, note=48, velocity=0, time=96),
    Message('note_on', channel=1, note=59, velocity=41, time=0),
    Message('note_off', channel=1, note=59, velocity=0, time=96),
    Message('note_on', channel=1, note=64, velocity=41, time=96),
    Message('note_off', channel=1, note=64, velocity=0, time=96),
    Message('note_on', channel=1, note=52, velocity=41, time=0),
    Message('note_off', channel=1, note=52, velocity=0, time=96),
    Message('note_on', channel=1, note=59, velocity=41, time=96),
    Message('note_off', channel=1, note=59, velocity=0, time=96),
    Message('note_on', channel=1, note=52, velocity=41, time=96),
    Message('note_off', channel=1, note=52, velocity=0, time=96),
    Message('note_on', channel=1, note=55, velocity=41, time=96),
    Message('note_off', channel=1, note=55, velocity=0, time=96),
    Message('note_on', channel=1, note=60, velocity=41, time=0),
    Message('note_off', channel=1, note=60, velocity=0, time=96),
    Message('note_on', channel=1, note=59, velocity=41, time=0),
    Message('note_off', channel=1, note=59, velocity=0, time=96),
    Message('note_on', channel=1, note=55, velocity=41, time=96),
    Message('note_off', channel=1, note=55, velocity=0, time=96),
    Message('note_on', channel=1, note=48, velocity=41, time=96),
    Message('note_off', channel=1, note=48, velocity=0, time=96),
    Message('note_on', channel=1, note=59, velocity=41, time=0),
    Message('note_off', channel=1, note=59, velocity=0, time=96),
    Message('note_on', channel=1, note=64, velocity=41, time=96),
    Message('note_off', channel=1, note=64, velocity=0, time=96),
    Message('note_on', channel=1, note=52, velocity=41, time=0),
    Message('note_off', channel=1, note=52, velocity=0, time=96),
    Message('note_on', channel=1, note=59, velocity=41, time=96),
    Message('note_off', channel=1, note=59, velocity=0, time=96),
    Message('note_on', channel=1, note=52, velocity=41, time=96),
    Message('note_off', channel=1, note=52, velocity=0, time=96),
    Message('note_on', channel=1, note=55, velocity=41, time=96),
    Message('note_off', channel=1, note=55, velocity=0, time=96),
    Message('note_on', channel=1, note=60, velocity=41, time=0),
    Message('note_off', channel=1, note=60, velocity=0, time=96),
    Message('note_on', channel=1, note=59, velocity=41, time=0),
    Message('note_off', channel=1, note=59, velocity=0, time=96),
    Message('note_on', channel=1, note=55, velocity=41, time=96),
    Message('note_off', channel=1, note=55, velocity=0, time=96),
    Message('note_on', channel=1, note=48, velocity=41, time=96),
    Message('note_off', channel=1, note=48, velocity=0, time=96),
    Message('note_on', channel=1, note=59, velocity=41, time=0),
    Message('note_off', channel=1, note=59, velocity=0, time=96),
    Message('note_on', channel=1, note=64, velocity=41, time=96),
    Message('note_off', channel=1, note=64, velocity=0, time=96),
    Message('note_on', channel=1, note=52, velocity=41, time=0),
    Message('note_off', channel=1, note=52, velocity=0, time=96),
    Message('note_on', channel=1, note=59, velocity=41, time=96),
    Message('note_off', channel=1, note=59, velocity=0, time=96),
    Message('note_on', channel=1, note=52, velocity=41, time=96),
    Message('note_off', channel=1, note=52, velocity=0, time=96),
    Message('note_on', channel=1, note=55, velocity=41, time=96),
    Message('note_off', channel=1, note=55, velocity=0, time=96),
    Message('note_on', channel=1, note=60, velocity=41, time=0),
    Message('note_off', channel=1, note=60, velocity=0, time=96),
    Message('note_on', channel=1, note=59, velocity=41, time=0),
    Message('note_off', channel=1, note=59, velocity=0, time=96),
    Message('note_on', channel=1, note=55, velocity=41, time=96),
    Message('note_off', channel=1, note=55, velocity=0, time=96),
    Message('note_on', channel=1, note=48, velocity=41, time=96),
    Message('note_off', channel=1, note=48, velocity=0, time=96),
    Message('note_on', channel=1, note=59, velocity=41, time=0),
    Message('note_off', channel=1, note=59, velocity=0, time=96),
    Message('note_on', channel=1, note=64, velocity=41, time=96),
    Message('note_off', channel=1, note=64, velocity=0, time=96),
    Message('note_on', channel=1, note=52, velocity=41, time=0),
    Message('note_off', channel=1, note=52, velocity=0, time=96),
    Message('note_on', channel=1, note=59, velocity=41, time=96),
    Message('note_off', channel=1, note=59, velocity=0, time=96),
    Message('note_on', channel=1, note=52, velocity=41, time=96),
    Message('note_off', channel=1, note=52, velocity=0, time=96),
    Message('note_on', channel=1, note=55, velocity=41, time=96),
    Message('note_off', channel=1, note=55, velocity=0, time=96),
    Message('note_on', channel=1, note=60, velocity=41, time=0),
    Message('note_off', channel=1, note=60, velocity=0, time=96),
    Message('note_on', channel=1, note=59, velocity=41, time=0),
    Message('note_off', channel=1, note=59, velocity=0, time=96),
    Message('note_on', channel=1, note=55, velocity=41, time=96),
    Message('note_off', channel=1, note=55, velocity=0, time=96),
    Message('note_on', channel=1, note=48, velocity=41, time=96),
    Message('note_off', channel=1, note=48, velocity=0, time=96),
    Message('note_on', channel=1, note=59, velocity=41, time=0),
    Message('note_off', channel=1, note=59, velocity=0, time=96),
    Message('note_on', channel=1, note=64, velocity=41, time=96),
    Message('note_off', channel=1, note=64, velocity=0, time=96),
    Message('note_on', channel=1, note=52, velocity=41, time=0),
    Message('note_off', channel=1, note=52, velocity=0, time=96),
    Message('note_on', channel=1, note=59, velocity=41, time=96),
    Message('note_off', channel=1, note=59, velocity=0, time=96),
    Message('note_on', channel=1, note=52, velocity=41, time=96),
    Message('note_off', channel=1, note=52, velocity=0, time=96),
    Message('note_on', channel=1, note=55, velocity=41, time=96),
    Message('note_off', channel=1, note=55, velocity=0, time=96),
    Message('note_on', channel=1, note=60, velocity=41, time=0),
    Message('note_off', channel=1, note=60, velocity=0, time=96),
    Message('note_on', channel=1, note=59, velocity=41, time=0),
    Message('note_off', channel=1, note=59, velocity=0, time=96),
    Message('note_on', channel=1, note=55, velocity=41, time=96),
    Message('note_off', channel=1, note=55, velocity=0, time=96),
    Message('note_on', channel=1, note=48, velocity=41, time=96),
    Message('note_off', channel=1, note=48, velocity=0, time=96),
    Message('note_on', channel=1, note=59, velocity=41, time=0),
    Message('note_off', channel=1, note=59, velocity=0, time=96),
    Message('note_on', channel=1, note=64, velocity=41, time=96),
    Message('note_off', channel=1, note=64, velocity=0, time=96),
    Message('note_on', channel=1, note=52, velocity=41, time=0),
    Message('note_off', channel=1, note=52, velocity=0, time=96),
    Message('note_on', channel=1, note=59, velocity=41, time=96),
    Message('note_off', channel=1, note=59, velocity=0, time=96),
    Message('note_on', channel=1, note=52, velocity=41, time=96),
    Message('note_off', channel=1, note=52, velocity=0, time=96),
    Message('note_on', channel=1, note=55, velocity=41, time=96),
    Message('note_off', channel=1, note=55, velocity=0, time=96),
    Message('note_on', channel=1, note=60, velocity=41, time=0),
    Message('note_off', channel=1, note=60, velocity=0, time=96),
    Message('note_on', channel=1, note=59, velocity=41, time=0),
    Message('note_off', channel=1, note=59, velocity=0, time=96),
    Message('note_on', channel=1, note=55, velocity=41, time=96),
    Message('note_off', channel=1, note=55, velocity=0, time=96),
    Message('note_on', channel=1, note=48, velocity=41, time=96),
    Message('note_off', channel=1, note=48, velocity=0, time=96),
    Message('note_on', channel=1, note=59, velocity=41, time=0),
    Message('note_off', channel=1, note=59, velocity=0, time=96),
    Message('note_on', channel=1, note=64, velocity=41, time=96),
    Message('note_off', channel=1, note=64, velocity=0, time=96),
    Message('note_on', channel=1, note=52, velocity=41, time=0),
    Message('note_off', channel=1, note=52, velocity=0, time=96),
    Message('note_on', channel=1, note=59, velocity=41, time=96),
    Message('note_off', channel=1, note=59, velocity=0, time=96),
    Message('note_on', channel=1, note=52, velocity=41, time=96),
    Message('note_off', channel=1, note=52, velocity=0, time=96),
    Message('note_on', channel=1, note=55, velocity=41, time=96),
    Message('note_off', channel=1, note=55, velocity=0, time=96),
    Message('note_on', channel=1, note=60, velocity=41, time=0),
    Message('note_off', channel=1, note=60, velocity=0, time=96),
    Message('note_on', channel=1, note=59, velocity=41, time=0),
    Message('note_off', channel=1, note=59, velocity=0, time=96),
    Message('note_on', channel=1, note=55, velocity=41, time=96),
    Message('note_off', channel=1, note=55, velocity=0, time=96),
    Message('note_on', channel=1, note=48, velocity=41, time=96),
    Message('note_off', channel=1, note=48, velocity=0, time=96),
    Message('note_on', channel=1, note=59, velocity=41, time=0),
    Message('note_off', channel=1, note=59, velocity=0, time=96),
    Message('note_on', channel=1, note=64, velocity=41, time=96),
    Message('note_off', channel=1, note=64, velocity=0, time=96),
    Message('note_on', channel=1, note=52, velocity=41, time=0),
    Message('note_off', channel=1, note=52, velocity=0, time=96),
    Message('note_on', channel=1, note=59, velocity=41, time=96),
    Message('note_off', channel=1, note=59, velocity=0, time=96),
    Message('note_on', channel=1, note=52, velocity=41, time=96),
    Message('note_off', channel=1, note=52, velocity=0, time=96),
    Message('note_on', channel=1, note=55, velocity=41, time=96),
    Message('note_off', channel=1, note=55, velocity=0, time=96),
    Message('note_on', channel=1, note=60, velocity=41, time=0),
    Message('note_off', channel=1, note=60, velocity=0, time=96),
    Message('note_on', channel=1, note=59, velocity=41, time=0),
    Message('note_off', channel=1, note=59, velocity=0, time=96),
    Message('note_on', channel=1, note=55, velocity=41, time=96),
    Message('note_off', channel=1, note=55, velocity=0, time=96),
    Message('note_on', channel=1, note=48, velocity=41, time=96),
    Message('note_off', channel=1, note=48, velocity=0, time=96),
    Message('note_on', channel=1, note=59, velocity=41, time=0),
    Message('note_off', channel=1, note=59, velocity=0, time=96),
    Message('note_on', channel=1, note=64, velocity=41, time=96),
    Message('note_off', channel=1, note=64, velocity=0, time=96),
    Message('note_on', channel=1, note=52, velocity=41, time=0),
    Message('note_off', channel=1, note=52, velocity=0, time=96),
    Message('note_on', channel=1, note=59, velocity=41, time=96),
    Message('note_off', channel=1, note=59, velocity=0, time=96),
    Message('note_on', channel=1, note=52, velocity=41, time=96),
    Message('note_off', channel=1, note=52, velocity=0, time=96),
    Message('note_on', channel=1, note=55, velocity=41, time=96),
    Message('note_off', channel=1, note=55, velocity=0, time=96),
    Message('note_on', channel=1, note=60, velocity=41, time=0),
    Message('note_off', channel=1, note=60, velocity=0, time=96),
    Message('note_on', channel=1, note=59, velocity=41, time=0),
    Message('note_off', channel=1, note=59, velocity=0, time=96),
    Message('note_on', channel=1, note=55, velocity=41, time=96),
    Message('note_off', channel=1, note=55, velocity=0, time=96),
    Message('note_on', channel=1, note=48, velocity=41, time=96),
    Message('note_off', channel=1, note=48, velocity=0, time=96),
    Message('note_on', channel=1, note=59, velocity=41, time=0),
    Message('note_off', channel=1, note=59, velocity=0, time=96),
    Message('note_on', channel=1, note=64, velocity=41, time=96),
    Message('note_off', channel=1, note=64, velocity=0, time=96),
    Message('note_on', channel=1, note=52, velocity=41, time=0),
    Message('note_off', channel=1, note=52, velocity=0, time=96),
    Message('note_on', channel=1, note=59, velocity=41, time=96),
    Message('note_off', channel=1, note=59, velocity=0, time=96),
    Message('note_on', channel=1, note=52, velocity=41, time=96),
    Message('note_off', channel=1, note=52, velocity=0, time=96),
    Message('note_on', channel=1, note=55, velocity=41, time=96),
    Message('note_off', channel=1, note=55, velocity=0, time=96),
    Message('note_on', channel=1, note=60, velocity=41, time=0),
    Message('note_off', channel=1, note=60, velocity=0, time=96),
    Message('note_on', channel=1, note=59, velocity=41, time=0),
    Message('note_off', channel=1, note=59, velocity=0, time=96),
    Message('note_on', channel=1, note=55, velocity=41, time=96),
    Message('note_off', channel=1, note=55, velocity=0, time=96),
    Message('note_on', channel=1, note=48, velocity=41, time=96),
    Message('note_off', channel=1, note=48, velocity=0, time=96),
    Message('note_on', channel=1, note=59, velocity=41, time=0),
    Message('note_off', channel=1, note=59, velocity=0, time=96),
    Message('note_on', channel=1, note=64, velocity=41, time=96),
    Message('note_off', channel=1, note=64, velocity=0, time=96),
    Message('note_on', channel=1, note=52, velocity=41, time=0),
    Message('note_off', channel=1, note=52, velocity=0, time=96),
    Message('note_on', channel=1, note=59, velocity=41, time=96),
    Message('note_off', channel=1, note=59, velocity=0, time=96),
    Message('note_on', channel=1, note=52, velocity=41, time=96),
    Message('note_off', channel=1, note=52, velocity=0, time=96),
    Message('note_on', channel=1, note=55, velocity=41, time=96),
    Message('note_off', channel=1, note=55, velocity=0, time=96),
    Message('note_on', channel=1, note=60, velocity=41, time=0),
    Message('note_off', channel=1, note=60, velocity=0, time=96),
    Message('note_on', channel=1, note=59, velocity=41, time=0),
    Message('note_off', channel=1, note=59, velocity=0, time=96),
    Message('note_on', channel=1, note=55, velocity=41, time=96),
    Message('note_off', channel=1, note=55, velocity=0, time=96),
    Message('note_on', channel=1, note=48, velocity=41, time=96),
    Message('note_off', channel=1, note=48, velocity=0, time=96),
    Message('note_on', channel=1, note=59, velocity=41, time=0),
    Message('note_off', channel=1, note=59, velocity=0, time=96),
    Message('note_on', channel=1, note=64, velocity=41, time=96),
    Message('note_off', channel=1, note=64, velocity=0, time=96),
    Message('note_on', channel=1, note=52, velocity=41, time=0),
    Message('note_off', channel=1, note=52, velocity=0, time=96),
    Message('note_on', channel=1, note=59, velocity=41, time=96),
    Message('note_off', channel=1, note=59, velocity=0, time=96),
    Message('note_on', channel=1, note=52, velocity=41, time=96),
    Message('note_off', channel=1, note=52, velocity=0, time=96),
    Message('note_on', channel=1, note=55, velocity=41, time=96),
    Message('note_off', channel=1, note=55, velocity=0, time=96),
    Message('note_on', channel=1, note=60, velocity=41, time=0),
    Message('note_off', channel=1, note=60, velocity=0, time=96),
    Message('note_on', channel=1, note=59, velocity=41, time=0),
    Message('note_off', channel=1, note=59, velocity=0, time=96),
    Message('note_on', channel=1, note=55, velocity=41, time=96),
    Message('note_off', channel=1, note=55, velocity=0, time=96),
    Message('note_on', channel=1, note=48, velocity=41, time=96),
    Message('note_off', channel=1, note=48, velocity=0, time=96),
    Message('note_on', channel=1, note=59, velocity=41, time=0),
    Message('note_off', channel=1, note=59, velocity=0, time=96),
    Message('note_on', channel=1, note=64, velocity=41, time=96),
    Message('note_off', channel=1, note=64, velocity=0, time=96),
    Message('note_on', channel=1, note=52, velocity=41, time=0),
    Message('note_off', channel=1, note=52, velocity=0, time=96),
    Message('note_on', channel=1, note=59, velocity=41, time=96),
    Message('note_off', channel=1, note=59, velocity=0, time=96),
    Message('note_on', channel=1, note=52, velocity=41, time=96),
    Message('note_off', channel=1, note=52, velocity=0, time=96),
    Message('note_on', channel=1, note=55, velocity=41, time=96),
    Message('note_off', channel=1, note=55, velocity=0, time=96),
    Message('note_on', channel=1, note=60, velocity=41, time=0),
    Message('note_off', channel=1, note=60, velocity=0, time=96),
    Message('note_on', channel=1, note=59, velocity=41, time=0),
    Message('note_off', channel=1, note=59, velocity=0, time=96),
    Message('note_on', channel=1, note=55, velocity=41, time=96),
    Message('note_off', channel=1, note=55, velocity=0, time=96),
    Message('note_on', channel=1, note=48, velocity=41, time=96),
    Message('note_off', channel=1, note=48, velocity=0, time=96),
    Message('note_on', channel=1, note=59, velocity=41, time=0),
    Message('note_off', channel=1, note=59, velocity=0, time=96),
    Message('note_on', channel=1, note=64, velocity=41, time=96),
    Message('note_off', channel=1, note=64, velocity=0, time=96),
    Message('note_on', channel=1, note=52, velocity=41, time=0),
    Message('note_off', channel=1, note=52, velocity=0, time=96),
    Message('note_on', channel=1, note=59, velocity=41, time=96),
    Message('note_off', channel=1, note=59, velocity=0, time=96),
    Message('note_on', channel=1, note=52, velocity=41, time=96),
    Message('note_off', channel=1, note=52, velocity=0, time=96),
    Message('note_on', channel=1, note=55, velocity=41, time=96),
    Message('note_off', channel=1, note=55, velocity=0, time=96),
    Message('note_on', channel=1, note=60, velocity=41, time=0),
    Message('note_off', channel=1, note=60, velocity=0, time=96),
    Message('note_on', channel=1, note=59, velocity=41, time=0),
    Message('note_off', channel=1, note=59, velocity=0, time=96),
    Message('note_on', channel=1, note=55, velocity=41, time=96),
    Message('note_off', channel=1, note=55, velocity=0, time=96),
    Message('note_on', channel=1, note=48, velocity=41, time=96),
    Message('note_off', channel=1, note=48, velocity=0, time=96),
    Message('note_on', channel=1, note=59, velocity=41, time=0),
    Message('note_off', channel=1, note=59, velocity=0, time=96),
    Message('note_on', channel=1, note=64, velocity=41, time=96),
    Message('note_off', channel=1, note=64, velocity=0, time=96),
    Message('note_on', channel=1, note=52, velocity=41, time=0),
    Message('note_off', channel=1, note=52, velocity=0, time=96),
    Message('note_on', channel=1, note=59, velocity=41, time=96),
    Message('note_off', channel=1, note=59, velocity=0, time=96),
    Message('note_on', channel=1, note=52, velocity=41, time=96),
    Message('note_off', channel=1, note=52, velocity=0, time=96),
    Message('note_on', channel=1, note=55, velocity=41, time=96),
    Message('note_off', channel=1, note=55, velocity=0, time=96),
    Message('note_on', channel=1, note=60, velocity=41, time=0),
    Message('note_off', channel=1, note=60, velocity=0, time=96),
    Message('note_on', channel=1, note=59, velocity=41, time=0),
    Message('note_off', channel=1, note=59, velocity=0, time=96),
    Message('note_on', channel=1, note=55, velocity=41, time=96),
    Message('note_off', channel=1, note=55, velocity=0, time=96),
    Message('note_on', channel=1, note=48, velocity=41, time=96),
    Message('note_off', channel=1, note=48, velocity=0, time=96),
    Message('note_on', channel=1, note=59, velocity=41, time=0),
    Message('note_off', channel=1, note=59, velocity=0, time=96),
    Message('note_on', channel=1, note=64, velocity=41, time=96),
    Message('note_off', channel=1, note=64, velocity=0, time=96),
    Message('note_on', channel=1, note=52, velocity=41, time=0),
    Message('note_off', channel=1, note=52, velocity=0, time=96),
    Message('note_on', channel=1, note=59, velocity=41, time=96),
    Message('note_off', channel=1, note=59, velocity=0, time=96),
    Message('note_on', channel=1, note=52, velocity=41, time=96),
    Message('note_off', channel=1, note=52, velocity=0, time=96),
    Message('note_on', channel=1, note=55, velocity=41, time=96),
    Message('note_off', channel=1, note=55, velocity=0, time=96),
    Message('note_on', channel=1, note=60, velocity=41, time=0),
    Message('note_off', channel=1, note=60, velocity=0, time=96),
    Message('note_on', channel=1, note=59, velocity=41, time=0),
    Message('note_off', channel=1, note=59, velocity=0, time=96),
    Message('note_on', channel=1, note=55, velocity=41, time=96),
    Message('note_off', channel=1, note=55, velocity=0, time=96),
    Message('note_on', channel=1, note=48, velocity=41, time=96),
    Message('note_off', channel=1, note=48, velocity=0, time=96),
    Message('note_on', channel=1, note=59, velocity=41, time=0),
    Message('note_off', channel=1, note=59, velocity=0, time=96),
    Message('note_on', channel=1, note=64, velocity=41, time=96),
    Message('note_off', channel=1, note=64, velocity=0, time=96),
    Message('note_on', channel=1, note=52, velocity=41, time=0),
    Message('note_off', channel=1, note=52, velocity=0, time=96),
    Message('note_on', channel=1, note=59, velocity=41, time=96),
    Message('note_off', channel=1, note=59, velocity=0, time=96),
    Message('note_on', channel=1, note=52, velocity=41, time=96),
    Message('note_off', channel=1, note=52, velocity=0, time=96),
    Message('note_on', channel=1, note=55, velocity=41, time=96),
    Message('note_off', channel=1, note=55, velocity=0, time=96),
    Message('note_on', channel=1, note=60, velocity=41, time=0),
    Message('note_off', channel=1, note=60, velocity=0, time=96),
    Message('note_on', channel=1, note=59, velocity=41, time=0),
    Message('note_off', channel=1, note=59, velocity=0, time=96),
    Message('note_on', channel=1, note=55, velocity=41, time=96),
    Message('note_off', channel=1, note=55, velocity=0, time=96),
    Message('note_on', channel=1, note=48, velocity=41, time=96),
    Message('note_off', channel=1, note=48, velocity=0, time=96),
    Message('note_on', channel=1, note=59, velocity=41, time=0),
    Message('note_off', channel=1, note=59, velocity=0, time=96),
    Message('note_on', channel=1, note=64, velocity=41, time=96),
    Message('note_off', channel=1, note=64, velocity=0, time=96),
    Message('note_on', channel=1, note=52, velocity=41, time=0),
    Message('note_off', channel=1, note=52, velocity=0, time=96),
    Message('note_on', channel=1, note=59, velocity=41, time=96),
    Message('note_off', channel=1, note=59, velocity=0, time=96),
    Message('note_on', channel=1, note=52, velocity=41, time=96),
    Message('note_off', channel=1, note=52, velocity=0, time=96),
    Message('note_on', channel=1, note=55, velocity=41, time=96),
    Message('note_off', channel=1, note=55, velocity=0, time=96),
    Message('note_on', channel=1, note=60, velocity=41, time=0),
    Message('note_off', channel=1, note=60, velocity=0, time=96),
    Message('note_on', channel=1, note=59, velocity=41, time=0),
    Message('note_off', channel=1, note=59, velocity=0, time=96),
    Message('note_on', channel=1, note=55, velocity=41, time=96),
    Message('note_off', channel=1, note=55, velocity=0, time=96),
    Message('note_on', channel=1, note=48, velocity=41, time=96),
    Message('note_off', channel=1, note=48, velocity=0, time=96),
    Message('note_on', channel=1, note=59, velocity=41, time=0),
    Message('note_off', channel=1, note=59, velocity=0, time=96),
    Message('note_on', channel=1, note=64, velocity=41, time=96),
    Message('note_off', channel=1, note=64, velocity=0, time=96),
    Message('note_on', channel=1, note=52, velocity=41, time=0),
    Message('note_off', channel=1, note=52, velocity=0, time=96),
    Message('note_on', channel=1, note=59, velocity=41, time=96),
    Message('note_off', channel=1, note=59, velocity=0, time=96),
    Message('note_on', channel=1, note=52, velocity=41, time=96),
    Message('note_off', channel=1, note=52, velocity=0, time=96),
    Message('note_on', channel=1, note=55, velocity=41, time=96),
    Message('note_off', channel=1, note=55, velocity=0, time=96),
    Message('note_on', channel=1, note=60, velocity=41, time=0),
    Message('note_off', channel=1, note=60, velocity=0, time=96),
    Message('note_on', channel=1, note=59, velocity=41, time=0),
    Message('note_off', channel=1, note=59, velocity=0, time=96),
    Message('note_on', channel=1, note=55, velocity=41, time=96),
    Message('note_off', channel=1, note=55, velocity=0, time=96),
    Message('note_on', channel=1, note=48, velocity=41, time=96),
    Message('note_off', channel=1, note=48, velocity=0, time=96),
    Message('note_on', channel=1, note=59, velocity=41, time=0),
    Message('note_off', channel=1, note=59, velocity=0, time=96),
    Message('note_on', channel=1, note=64, velocity=41, time=96),
    Message('note_off', channel=1, note=64, velocity=0, time=96),
    Message('note_on', channel=1, note=52, velocity=41, time=0),
    Message('note_off', channel=1, note=52, velocity=0, time=96),
    Message('note_on', channel=1, note=59, velocity=41, time=96),
    Message('note_off', channel=1, note=59, velocity=0, time=96),
    Message('note_on', channel=1, note=52, velocity=41, time=96),
    Message('note_off', channel=1, note=52, velocity=0, time=96),
    Message('note_on', channel=1, note=55, velocity=41, time=96),
    Message('note_off', channel=1, note=55, velocity=0, time=96),
    Message('note_on', channel=1, note=60, velocity=41, time=0),
    Message('note_off', channel=1, note=60, velocity=0, time=96),
    Message('note_on', channel=1, note=59, velocity=41, time=0),
    Message('note_off', channel=1, note=59, velocity=0, time=96),
    Message('note_on', channel=1, note=55, velocity=41, time=96),
    Message('note_off', channel=1, note=55, velocity=0, time=96),
    Message('note_on', channel=1, note=48, velocity=41, time=96),
    Message('note_off', channel=1, note=48, velocity=0, time=96),
    Message('note_on', channel=1, note=59, velocity=41, time=0),
    Message('note_off', channel=1, note=59, velocity=0, time=96),
    Message('note_on', channel=1, note=64, velocity=41, time=96),
    Message('note_off', channel=1, note=64, velocity=0, time=96),
    Message('note_on', channel=1, note=52, velocity=41, time=0),
    Message('note_off', channel=1, note=52, velocity=0, time=96),
    Message('note_on', channel=1, note=59, velocity=41, time=96),
    Message('note_off', channel=1, note=59, velocity=0, time=96),
    Message('note_on', channel=1, note=52, velocity=41, time=96),
    Message('note_off', channel=1, note=52, velocity=0, time=96),
    Message('note_on', channel=1, note=55, velocity=41, time=96),
    Message('note_off', channel=1, note=55, velocity=0, time=96),
    Message('note_on', channel=1, note=60, velocity=41, time=0),
    Message('note_off', channel=1, note=60, velocity=0, time=96),
    Message('note_on', channel=1, note=59, velocity=41, time=0),
    Message('note_off', channel=1, note=59, velocity=0, time=96),
    Message('note_on', channel=1, note=55, velocity=41, time=96),
    Message('note_off', channel=1, note=55, velocity=0, time=96),
    Message('note_on', channel=1, note=48, velocity=41, time=96),
    Message('note_off', channel=1, note=48, velocity=0, time=96),
    Message('note_on', channel=1, note=59, velocity=41, time=0),
    Message('note_off', channel=1, note=59, velocity=0, time=96),
    Message('note_on', channel=1, note=64, velocity=41, time=96),
    Message('note_off', channel=1, note=64, velocity=0, time=96),
    Message('note_on', channel=1, note=52, velocity=41, time=0),
    Message('note_off', channel=1, note=52, velocity=0, time=96),
    Message('note_on', channel=1, note=59, velocity=41, time=96),
    Message('note_off', channel=1, note=59, velocity=0, time=96),
    Message('note_on', channel=1, note=52, velocity=41, time=96),
    Message('note_off', channel=1, note=52, velocity=0, time=96),
    Message('note_on', channel=1, note=55, velocity=41, time=96),
    Message('note_off', channel=1, note=55, velocity=0, time=96),
    Message('note_on', channel=1, note=60, velocity=41, time=0),
    Message('note_off', channel=1, note=60, velocity=0, time=96),
    Message('note_on', channel=1, note=59, velocity=41, time=0),
    Message('note_off', channel=1, note=59, velocity=0, time=96),
    Message('note_on', channel=1, note=55, velocity=41, time=96),
    Message('note_off', channel=1, note=55, velocity=0, time=96),
    Message('note_on', channel=1, note=48, velocity=41, time=96),
    Message('note_off', channel=1, note=48, velocity=0, time=96),
    Message('note_on', channel=1, note=59, velocity=41, time=0),
    Message('note_off', channel=1, note=59, velocity=0, time=96),
    Message('note_on', channel=1, note=64, velocity=41, time=96),
    Message('note_off', channel=1, note=64, velocity=0, time=96),
    Message('note_on', channel=1, note=52, velocity=41, time=0),
    Message('note_off', channel=1, note=52, velocity=0, time=96),
    Message('note_on', channel=1, note=59, velocity=41, time=96),
    Message('note_off', channel=1, note=59, velocity=0, time=96),
    Message('note_on', channel=1, note=52, velocity=41, time=96),
    Message('note_off', channel=1, note=52, velocity=0, time=96),
    Message('note_on', channel=1, note=55, velocity=41, time=96),
    Message('note_off', channel=1, note=55, velocity=0, time=96),
    Message('note_on', channel=1, note=60, velocity=41, time=0),
    Message('note_off', channel=1, note=60, velocity=0, time=96),
    Message('note_on', channel=1, note=59, velocity=41, time=0),
    Message('note_off', channel=1, note=59, velocity=0, time=96),
    Message('note_on', channel=1, note=55, velocity=41, time=96),
    Message('note_off', channel=1, note=55, velocity=0, time=96),
    Message('note_on', channel=1, note=48, velocity=41, time=96),
    Message('note_off', channel=1, note=48, velocity=0, time=96),
    Message('note_on', channel=1, note=59, velocity=41, time=0),
    Message('note_off', channel=1, note=59, velocity=0, time=96),
    Message('note_on', channel=1, note=64, velocity=41, time=96),
    Message('note_off', channel=1, note=64, velocity=0, time=96),
    Message('note_on', channel=1, note=52, velocity=41, time=0),
    Message('note_off', channel=1, note=52, velocity=0, time=96),
    Message('note_on', channel=1, note=59, velocity=41, time=96),
    Message('note_off', channel=1, note=59, velocity=0, time=96),
    Message('note_on', channel=1, note=52, velocity=41, time=96),
    Message('note_off', channel=1, note=52, velocity=0, time=96),
    Message('note_on', channel=1, note=55, velocity=41, time=96),
    Message('note_off', channel=1, note=55, velocity=0, time=96),
    Message('note_on', channel=1, note=60, velocity=41, time=0),
    Message('note_off', channel=1, note=60, velocity=0, time=96),
    Message('note_on', channel=1, note=59, velocity=41, time=0),
    Message('note_off', channel=1, note=59, velocity=0, time=96),
    Message('note_on', channel=1, note=55, velocity=41, time=96),
    Message('note_off', channel=1, note=55, velocity=0, time=96),
    Message('note_on', channel=1, note=48, velocity=41, time=96),
    Message('note_off', channel=1, note=48, velocity=0, time=96),
    Message('note_on', channel=1, note=59, velocity=41, time=0),
    Message('note_off', channel=1, note=59, velocity=0, time=96),
    Message('note_on', channel=1, note=64, velocity=41, time=96),
    Message('note_off', channel=1, note=64, velocity=0, time=96),
    Message('note_on', channel=1, note=52, velocity=41, time=0),
    Message('note_off', channel=1, note=52, velocity=0, time=96),
    Message('note_on', channel=1, note=59, velocity=41, time=96),
    Message('note_off', channel=1, note=59, velocity=0, time=96),
    Message('note_on', channel=1, note=52, velocity=41, time=96),
    Message('note_off', channel=1, note=52, velocity=0, time=96),
    Message('note_on', channel=1, note=55, velocity=41, time=96),
    Message('note_off', channel=1, note=55, velocity=0, time=96),
    Message('note_on', channel=1, note=60, velocity=41, time=0),
    Message('note_off', channel=1, note=60, velocity=0, time=96),
    Message('note_on', channel=1, note=59, velocity=41, time=0),
    Message('note_off', channel=1, note=59, velocity=0, time=96),
    Message('note_on', channel=1, note=55, velocity=41, time=96),
    Message('note_off', channel=1, note=55, velocity=0, time=96),
    Message('note_on', channel=1, note=48, velocity=41, time=96),
    Message('note_off', channel=1, note=48, velocity=0, time=96),
    Message('note_on', channel=1, note=59, velocity=41, time=0),
    Message('note_off', channel=1, note=59, velocity=0, time=96),
    Message('note_on', channel=1, note=64, velocity=41, time=96),
    Message('note_off', channel=1, note=64, velocity=0, time=96),
    Message('note_on', channel=1, note=52, velocity=41, time=0),
    Message('note_off', channel=1, note=52, velocity=0, time=96),
    Message('note_on', channel=1, note=59, velocity=41, time=96),
    Message('note_off', channel=1, note=59, velocity=0, time=96),
    Message('note_on', channel=1, note=52, velocity=41, time=96),
    Message('note_off', channel=1, note=52, velocity=0, time=96),
    Message('note_on', channel=1, note=55, velocity=41, time=96),
    Message('note_off', channel=1, note=55, velocity=0, time=96),
    Message('note_on', channel=1, note=60, velocity=41, time=0),
    Message('note_off', channel=1, note=60, velocity=0, time=96),
    Message('note_on', channel=1, note=59, velocity=41, time=0),
    Message('note_off', channel=1, note=59, velocity=0, time=96),
    Message('note_on', channel=1, note=55, velocity=41, time=96),
    Message('note_off', channel=1, note=55, velocity=0, time=96),
    Message('note_on', channel=1, note=48, velocity=41, time=96),
    Message('note_off', channel=1, note=48, velocity=0, time=96),
    Message('note_on', channel=1, note=59, velocity=41, time=0),
    Message('note_off', channel=1, note=59, velocity=0, time=96),
    Message('note_on', channel=1, note=64, velocity=41, time=96),
    Message('note_off', channel=1, note=64, velocity=0, time=96),
    Message('note_on', channel=1, note=52, velocity=41, time=0),
    Message('note_off', channel=1, note=52, velocity=0, time=96),
    Message('note_on', channel=1, note=59, velocity=41, time=96),
    Message('note_off', channel=1, note=59, velocity=0, time=96),
    Message('note_on', channel=1, note=52, velocity=41, time=96),
    Message('note_off', channel=1, note=52, velocity=0, time=96),
    Message('note_on', channel=1, note=55, velocity=41, time=96),
    Message('note_off', channel=1, note=55, velocity=0, time=96),
    Message('note_on', channel=1, note=60, velocity=41, time=0),
    Message('note_off', channel=1, note=60, velocity=0, time=96),
    Message('note_on', channel=1, note=59, velocity=41, time=0),
    Message('note_off', channel=1, note=59, velocity=0, time=96),
    Message('note_on', channel=1, note=55, velocity=41, time=96),
    Message('note_off', channel=1, note=55, velocity=0, time=96),
    Message('note_on', channel=1, note=48, velocity=41, time=96),
    Message('note_off', channel=1, note=48, velocity=0, time=96),
    Message('note_on', channel=1, note=59, velocity=41, time=0),
    Message('note_off', channel=1, note=59, velocity=0, time=96),
    Message('note_on', channel=1, note=64, velocity=41, time=96),
    Message('note_off', channel=1, note=64, velocity=0, time=96),
    Message('note_on', channel=1, note=52, velocity=41, time=0),
    Message('note_off', channel=1, note=52, velocity=0, time=96),
    Message('note_on', channel=1, note=59, velocity=41, time=96),
    Message('note_off', channel=1, note=59, velocity=0, time=96),
    Message('note_on', channel=1, note=52, velocity=41, time=96),
    Message('note_off', channel=1, note=52, velocity=0, time=96),
    Message('note_on', channel=1, note=55, velocity=41, time=96),
    Message('note_off', channel=1, note=55, velocity=0, time=96),
    Message('note_on', channel=1, note=60, velocity=41, time=0),
    Message('note_off', channel=1, note=60, velocity=0, time=96),
    Message('note_on', channel=1, note=59, velocity=41, time=0),
    Message('note_off', channel=1, note=59, velocity=0, time=96),
    Message('note_on', channel=1, note=55, velocity=41, time=96),
    Message('note_off', channel=1, note=55, velocity=0, time=96),
    Message('note_on', channel=1, note=48, velocity=41, time=96),
    Message('note_off', channel=1, note=48, velocity=0, time=96),
    Message('note_on', channel=1, note=59, velocity=41, time=0),
    Message('note_off', channel=1, note=59, velocity=0, time=96),
    Message('note_on', channel=1, note=64, velocity=41, time=96),
    Message('note_off', channel=1, note=64, velocity=0, time=96),
    Message('note_on', channel=1, note=52, velocity=41, time=0),
    Message('note_off', channel=1, note=52, velocity=0, time=96),
    Message('note_on', channel=1, note=59, velocity=41, time=96),
    Message('note_off', channel=1, note=59, velocity=0, time=96),
    Message('note_on', channel=1, note=52, velocity=41, time=96),
    Message('note_off', channel=1, note=52, velocity=0, time=96),
    Message('note_on', channel=1, note=55, velocity=41, time=96),
    Message('note_off', channel=1, note=55, velocity=0, time=96),
    Message('note_on', channel=1, note=60, velocity=41, time=0),
    Message('note_off', channel=1, note=60, velocity=0, time=96),
    Message('note_on', channel=1, note=59, velocity=41, time=0),
    Message('note_off', channel=1, note=59, velocity=0, time=96),
    Message('note_on', channel=1, note=55, velocity=41, time=96),
    Message('note_off', channel=1, note=55, velocity=0, time=96),
    Message('note_on', channel=1, note=48, velocity=41, time=96),
    Message('note_off', channel=1, note=48, velocity=0, time=96),
    Message('note_on', channel=1, note=59, velocity=41, time=0),
    Message('note_off', channel=1, note=59, velocity=0, time=96),
    Message('note_on', channel=1, note=64, velocity=41, time=96),
    Message('note_off', channel=1, note=64, velocity=0, time=96),
    Message('note_on', channel=1, note=52, velocity=41, time=0),
    Message('note_off', channel=1, note=52, velocity=0, time=96),
    Message('note_on', channel=1, note=59, velocity=41, time=96),
    Message('note_off', channel=1, note=59, velocity=0, time=96),
    Message('note_on', channel=1, note=52, velocity=41, time=96),
    Message('note_off', channel=1, note=52, velocity=0, time=96),
    Message('note_on', channel=1, note=55, velocity=41, time=96),
    Message('note_off', channel=1, note=55, velocity=0, time=96),
    Message('note_on', channel=1, note=60, velocity=41, time=0),
    Message('note_off', channel=1, note=60, velocity=0, time=96),
    Message('note_on', channel=1, note=59, velocity=41, time=0),
    Message('note_off', channel=1, note=59, velocity=0, time=96),
    Message('note_on', channel=1, note=55, velocity=41, time=96),
    Message('note_off', channel=1, note=55, velocity=0, time=96),
    Message('note_on', channel=1, note=48, velocity=41, time=96),
    Message('note_off', channel=1, note=48, velocity=0, time=96),
    Message('note_on', channel=1, note=59, velocity=41, time=0),
    Message('note_off', channel=1, note=59, velocity=0, time=96),
    Message('note_on', channel=1, note=64, velocity=41, time=96),
    Message('note_off', channel=1, note=64, velocity=0, time=96),
    Message('note_on', channel=1, note=52, velocity=41, time=0),
    Message('note_off', channel=1, note=52, velocity=0, time=96),
    Message('note_on', channel=1, note=59, velocity=41, time=96),
    Message('note_off', channel=1, note=59, velocity=0, time=96),
    Message('note_on', channel=1, note=52, velocity=41, time=96),
    Message('note_off', channel=1, note=52, velocity=0, time=96),
    Message('note_on', channel=1, note=55, velocity=41, time=96),
    Message('note_off', channel=1, note=55, velocity=0, time=96),
    Message('note_on', channel=1, note=60, velocity=41, time=0),
    Message('note_off', channel=1, note=60, velocity=0, time=96),
    Message('note_on', channel=1, note=59, velocity=41, time=0),
    Message('note_off', channel=1, note=59, velocity=0, time=96),
    Message('note_on', channel=1, note=55, velocity=41, time=96),
    Message('note_off', channel=1, note=55, velocity=0, time=96),
    Message('note_on', channel=1, note=48, velocity=41, time=96),
    Message('note_off', channel=1, note=48, velocity=0, time=96),
    Message('note_on', channel=1, note=59, velocity=41, time=0),
    Message('note_off', channel=1, note=59, velocity=0, time=96),
    Message('note_on', channel=1, note=64, velocity=41, time=96),
    Message('note_off', channel=1, note=64, velocity=0, time=96),
    Message('note_on', channel=1, note=52, velocity=41, time=0),
    Message('note_off', channel=1, note=52, velocity=0, time=96),
    Message('note_on', channel=1, note=59, velocity=41, time=96),
    Message('note_off', channel=1, note=59, velocity=0, time=96),
    Message('note_on', channel=1, note=52, velocity=41, time=96),
    Message('note_off', channel=1, note=52, velocity=0, time=96),
    Message('note_on', channel=1, note=55, velocity=41, time=96),
    Message('note_off', channel=1, note=55, velocity=0, time=96),
    Message('note_on', channel=1, note=60, velocity=41, time=0),
    Message('note_off', channel=1, note=60, velocity=0, time=96),
    Message('note_on', channel=1, note=59, velocity=41, time=0),
    Message('note_off', channel=1, note=59, velocity=0, time=96),
    Message('note_on', channel=1, note=55, velocity=41, time=96),
    Message('note_off', channel=1, note=55, velocity=0, time=96),
    Message('note_on', channel=1, note=48, velocity=41, time=96),
    Message('note_off', channel=1, note=48, velocity=0, time=96),
    Message('note_on', channel=1, note=59, velocity=41, time=0),
    Message('note_off', channel=1, note=59, velocity=0, time=96),
    Message('note_on', channel=1, note=64, velocity=41, time=96),
    Message('note_off', channel=1, note=64, velocity=0, time=96),
    Message('note_on', channel=1, note=52, velocity=41, time=0),
    Message('note_off', channel=1, note=52, velocity=0, time=96),
    Message('note_on', channel=1, note=59, velocity=41, time=96),
    Message('note_off', channel=1, note=59, velocity=0, time=96),
    Message('note_on', channel=1, note=52, velocity=41, time=96),
    Message('note_off', channel=1, note=52, velocity=0, time=96),
    Message('note_on', channel=1, note=55, velocity=41, time=96),
    Message('note_off', channel=1, note=55, velocity=0, time=96),
    Message('note_on', channel=1, note=60, velocity=41, time=0),
    Message('note_off', channel=1, note=60, velocity=0, time=96),
    Message('note_on', channel=1, note=59, velocity=41, time=0),
    Message('note_off', channel=1, note=59, velocity=0, time=96),
    Message('note_on', channel=1, note=55, velocity=41, time=96),
    Message('note_off', channel=1, note=55, velocity=0, time=96),
    Message('note_on', channel=1, note=48, velocity=41, time=96),
    Message('note_off', channel=1, note=48, velocity=0, time=96),
    Message('note_on', channel=1, note=59, velocity=41, time=0),
    Message('note_off', channel=1, note=59, velocity=0, time=96),
    Message('note_on', channel=1, note=64, velocity=41, time=96),
    Message('note_off', channel=1, note=64, velocity=0, time=96),
    Message('note_on', channel=1, note=52, velocity=41, time=0),
    Message('note_off', channel=1, note=52, velocity=0, time=96),
    Message('note_on', channel=1, note=59, velocity=41, time=96),
    Message('note_off', channel=1, note=59, velocity=0, time=96),
    Message('note_on', channel=1, note=52, velocity=41, time=96),
    Message('note_off', channel=1, note=52, velocity=0, time=96),
    Message('note_on', channel=1, note=55, velocity=41, time=96),
    Message('note_off', channel=1, note=55, velocity=0, time=96),
    Message('note_on', channel=1, note=60, velocity=41, time=0),
    Message('note_off', channel=1, note=60, velocity=0, time=96),
    Message('note_on', channel=1, note=59, velocity=41, time=0),
    Message('note_off', channel=1, note=59, velocity=0, time=96),
    Message('note_on', channel=1, note=55, velocity=41, time=96),
    Message('note_off', channel=1, note=55, velocity=0, time=96),
    Message('note_on', channel=1, note=48, velocity=41, time=96),
    Message('note_off', channel=1, note=48, velocity=0, time=96),
    Message('note_on', channel=1, note=59, velocity=41, time=0),
    Message('note_off', channel=1, note=59, velocity=0, time=96),
    Message('note_on', channel=1, note=64, velocity=41, time=96),
    Message('note_off', channel=1, note=64, velocity=0, time=96),
    Message('note_on', channel=1, note=52, velocity=41, time=0),
    Message('note_off', channel=1, note=52, velocity=0, time=96),
    Message('note_on', channel=1, note=59, velocity=41, time=96),
    Message('note_off', channel=1, note=59, velocity=0, time=96),
    Message('note_on', channel=1, note=52, velocity=41, time=96),
    Message('note_off', channel=1, note=52, velocity=0, time=96),
    Message('note_on', channel=1, note=55, velocity=41, time=96),
    Message('note_off', channel=1, note=55, velocity=0, time=96),
    Message('note_on', channel=1, note=60, velocity=41, time=0),
    Message('note_off', channel=1, note=60, velocity=0, time=96),
    Message('note_on', channel=1, note=59, velocity=41, time=0),
    Message('note_off', channel=1, note=59, velocity=0, time=96),
    Message('note_on', channel=1, note=55, velocity=41, time=96),
    Message('note_off', channel=1, note=55, velocity=0, time=96),
    Message('note_on', channel=1, note=48, velocity=41, time=96),
    Message('note_off', channel=1, note=48, velocity=0, time=96),
    Message('note_on', channel=1, note=59, velocity=41, time=0),
    Message('note_off', channel=1, note=59, velocity=0, time=96),
    Message('note_on', channel=1, note=64, velocity=41, time=96),
    Message('note_off', channel=1, note=64, velocity=0, time=96),
    Message('note_on', channel=1, note=52, velocity=41, time=0),
    Message('note_off', channel=1, note=52, velocity=0, time=96),
    Message('note_on', channel=1, note=59, velocity=41, time=96),
    Message('note_off', channel=1, note=59, velocity=0, time=96),
    Message('note_on', channel=1, note=52, velocity=41, time=96),
    Message('note_off', channel=1, note=52, velocity=0, time=96),
    Message('note_on', channel=1, note=55, velocity=41, time=96),
    Message('note_off', channel=1, note=55, velocity=0, time=96),
    Message('note_on', channel=1, note=60, velocity=41, time=0),
    Message('note_off', channel=1, note=60, velocity=0, time=96),
    Message('note_on', channel=1, note=59, velocity=41, time=0),
    Message('note_off', channel=1, note=59, velocity=0, time=96),
    Message('note_on', channel=1, note=55, velocity=41, time=96),
    Message('note_off', channel=1, note=55, velocity=0, time=96),
    Message('note_on', channel=1, note=48, velocity=41, time=96),
    Message('note_off', channel=1, note=48, velocity=0, time=96),
    Message('note_on', channel=1, note=59, velocity=41, time=0),
    Message('note_off', channel=1, note=59, velocity=0, time=96),
    Message('note_on', channel=1, note=64, velocity=41, time=96),
    Message('note_off', channel=1, note=64, velocity=0, time=96),
    Message('note_on', channel=1, note=52, velocity=41, time=0),
    Message('note_off', channel=1, note=52, velocity=0, time=96),
    Message('note_on', channel=1, note=59, velocity=41, time=96),
    Message('note_off', channel=1, note=59, velocity=0, time=96),
    Message('note_on', channel=1, note=52, velocity=41, time=96),
    Message('note_off', channel=1, note=52, velocity=0, time=96),
    Message('note_on', channel=1, note=55, velocity=41, time=96),
    Message('note_off', channel=1, note=55, velocity=0, time=96),
    Message('note_on', channel=1, note=60, velocity=41, time=0),
    Message('note_off', channel=1, note=60, velocity=0, time=96),
    Message('note_on', channel=1, note=59, velocity=41, time=0),
    Message('note_off', channel=1, note=59, velocity=0, time=96),
    Message('note_on', channel=1, note=55, velocity=41, time=96),
    Message('note_off', channel=1, note=55, velocity=0, time=96),
    Message('note_on', channel=1, note=48, velocity=41, time=96),
    Message('note_off', channel=1, note=48, velocity=0, time=96),
    Message('note_on', channel=1, note=59, velocity=41, time=0),
    Message('note_off', channel=1, note=59, velocity=0, time=96),
    Message('note_on', channel=1, note=64, velocity=41, time=96),
    Message('note_off', channel=1, note=64, velocity=0, time=96),
    Message('note_on', channel=1, note=52, velocity=41, time=0),
    Message('note_off', channel=1, note=52, velocity=0, time=96),
    Message('note_on', channel=1, note=59, velocity=41, time=96),
    Message('note_off', channel=1, note=59, velocity=0, time=96),
    Message('note_on', channel=1, note=52, velocity=41, time=96),
    Message('note_off', channel=1, note=52, velocity=0, time=96),
    Message('note_on', channel=1, note=55, velocity=41, time=96),
    Message('note_off', channel=1, note=55, velocity=0, time=96),
    Message('note_on', channel=1, note=60, velocity=41, time=0),
    Message('note_off', channel=1, note=60, velocity=0, time=96),
    Message('note_on', channel=1, note=59, velocity=41, time=0),
    Message('note_off', channel=1, note=59, velocity=0, time=96),
    Message('note_on', channel=1, note=55, velocity=41, time=96),
    Message('note_off', channel=1, note=55, velocity=0, time=96),
    Message('note_on', channel=1, note=48, velocity=41, time=96),
    Message('note_off', channel=1, note=48, velocity=0, time=96),
    Message('note_on', channel=1, note=59, velocity=41, time=0),
    Message('note_off', channel=1, note=59, velocity=0, time=96),
    Message('note_on', channel=1, note=64, velocity=41, time=96),
    Message('note_off', channel=1, note=64, velocity=0, time=96),
    Message('note_on', channel=1, note=52, velocity=41, time=0),
    Message('note_off', channel=1, note=52, velocity=0, time=96),
    Message('note_on', channel=1, note=59, velocity=41, time=96),
    Message('note_off', channel=1, note=59, velocity=0, time=96),
    Message('note_on', channel=1, note=52, velocity=41, time=96),
    Message('note_off', channel=1, note=52, velocity=0, time=96),
    Message('note_on', channel=1, note=55, velocity=41, time=96),
    Message('note_off', channel=1, note=55, velocity=0, time=96),
    Message('note_on', channel=1, note=60, velocity=41, time=0),
    Message('note_off', channel=1, note=60, velocity=0, time=96),
    Message('note_on', channel=1, note=59, velocity=41, time=0),
    Message('note_off', channel=1, note=59, velocity=0, time=96),
    Message('note_on', channel=1, note=55, velocity=41, time=96),
    Message('note_off', channel=1, note=55, velocity=0, time=96),
    Message('note_on', channel=1, note=48, velocity=41, time=96),
    Message('note_off', channel=1, note=48, velocity=0, time=96),
    Message('note_on', channel=1, note=59, velocity=41, time=0),
    Message('note_off', channel=1, note=59, velocity=0, time=96),
    Message('note_on', channel=1, note=64, velocity=41, time=96),
    Message('note_off', channel=1, note=64, velocity=0, time=96),
    Message('note_on', channel=1, note=52, velocity=41, time=0),
    Message('note_off', channel=1, note=52, velocity=0, time=96),
    Message('note_on', channel=1, note=59, velocity=41, time=96),
    Message('note_off', channel=1, note=59, velocity=0, time=96),
    Message('note_on', channel=1, note=52, velocity=41, time=96),
    Message('note_off', channel=1, note=52, velocity=0, time=96),
    Message('note_on', channel=1, note=55, velocity=41, time=96),
    Message('note_off', channel=1, note=55, velocity=0, time=96),
    Message('note_on', channel=1, note=60, velocity=41, time=0),
    Message('note_off', channel=1, note=60, velocity=0, time=96),
    Message('note_on', channel=1, note=59, velocity=41, time=0),
    Message('note_off', channel=1, note=59, velocity=0, time=96),
    Message('note_on', channel=1, note=55, velocity=41, time=96),
    Message('note_off', channel=1, note=55, velocity=0, time=96),
    Message('note_on', channel=1, note=48, velocity=41, time=96),
    Message('note_off', channel=1, note=48, velocity=0, time=96),
    Message('note_on', channel=1, note=59, velocity=41, time=0),
    Message('note_off', channel=1, note=59, velocity=0, time=96),
    Message('note_on', channel=1, note=64, velocity=41, time=96),
    Message('note_off', channel=1, note=64, velocity=0, time=96),
    Message('note_on', channel=1, note=52, velocity=41, time=0),
    Message('note_off', channel=1, note=52, velocity=0, time=96),
    Message('note_on', channel=1, note=59, velocity=41, time=96),
    Message('note_off', channel=1, note=59, velocity=0, time=96),
    Message('note_on', channel=1, note=52, velocity=41, time=96),
    Message('note_off', channel=1, note=52, velocity=0, time=96),
    Message('note_on', channel=1, note=55, velocity=41, time=96),
    Message('note_off', channel=1, note=55, velocity=0, time=96),
    Message('note_on', channel=1, note=60, velocity=41, time=0),
    Message('note_off', channel=1, note=60, velocity=0, time=96),
    Message('note_on', channel=1, note=59, velocity=41, time=0),
    Message('note_off', channel=1, note=59, velocity=0, time=96),
    Message('note_on', channel=1, note=55, velocity=41, time=96),
    Message('note_off', channel=1, note=55, velocity=0, time=96),
    Message('note_on', channel=1, note=48, velocity=41, time=96),
    Message('note_off', channel=1, note=48, velocity=0, time=96),
    Message('note_on', channel=1, note=59, velocity=41, time=0),
    Message('note_off', channel=1, note=59, velocity=0, time=96),
    Message('note_on', channel=1, note=64, velocity=41, time=96),
    Message('note_off', channel=1, note=64, velocity=0, time=96),
    Message('note_on', channel=1, note=52, velocity=41, time=0),
    Message('note_off', channel=1, note=52, velocity=0, time=96),
    Message('note_on', channel=1, note=59, velocity=41, time=96),
    Message('note_off', channel=1, note=59, velocity=0, time=96),
    Message('note_on', channel=1, note=52, velocity=41, time=96),
    Message('note_off', channel=1, note=52, velocity=0, time=96),
    Message('note_on', channel=1, note=55, velocity=41, time=96),
    Message('note_off', channel=1, note=55, velocity=0, time=96),
    Message('note_on', channel=1, note=60, velocity=41, time=0),
    Message('note_off', channel=1, note=60, velocity=0, time=96),
    Message('note_on', channel=1, note=59, velocity=41, time=0),
    Message('note_off', channel=1, note=59, velocity=0, time=96),
    Message('note_on', channel=1, note=55, velocity=41, time=96),
    Message('note_off', channel=1, note=55, velocity=0, time=96),
    Message('note_on', channel=1, note=48, velocity=41, time=96),
    Message('note_off', channel=1, note=48, velocity=0, time=96),
    Message('note_on', channel=1, note=59, velocity=41, time=0),
    Message('note_off', channel=1, note=59, velocity=0, time=96),
    Message('note_on', channel=1, note=64, velocity=41, time=96),
    Message('note_off', channel=1, note=64, velocity=0, time=96),
    Message('note_on', channel=1, note=52, velocity=41, time=0),
    Message('note_off', channel=1, note=52, velocity=0, time=96),
    Message('note_on', channel=1, note=59, velocity=41, time=96),
    Message('note_off', channel=1, note=59, velocity=0, time=96),
    Message('note_on', channel=1, note=52, velocity=41, time=96),
    Message('note_off', channel=1, note=52, velocity=0, time=96),
    Message('note_on', channel=1, note=55, velocity=41, time=96),
    Message('note_off', channel=1, note=55, velocity=0, time=96),
    Message('note_on', channel=1, note=60, velocity=41, time=0),
    Message('note_off', channel=1, note=60, velocity=0, time=96),
    Message('note_on', channel=1, note=59, velocity=41, time=0),
    Message('note_off', channel=1, note=59, velocity=0, time=96),
    Message('note_on', channel=1, note=55, velocity=41, time=96),
    Message('note_off', channel=1, note=55, velocity=0, time=96),
    Message('note_on', channel=1, note=48, velocity=41, time=96),
    Message('note_off', channel=1, note=48, velocity=0, time=96),
    Message('note_on', channel=1, note=59, velocity=41, time=0),
    Message('note_off', channel=1, note=59, velocity=0, time=96),
    Message('note_on', channel=1, note=64, velocity=41, time=96),
    Message('note_off', channel=1, note=64, velocity=0, time=96),
    Message('note_on', channel=1, note=52, velocity=41, time=0),
    Message('note_off', channel=1, note=52, velocity=0, time=96),
    Message('note_on', channel=1, note=59, velocity=41, time=96),
    Message('note_off', channel=1, note=59, velocity=0, time=96),
    Message('note_on', channel=1, note=52, velocity=41, time=96),
    Message('note_off', channel=1, note=52, velocity=0, time=96),
    Message('note_on', channel=1, note=55, velocity=41, time=96),
    Message('note_off', channel=1, note=55, velocity=0, time=96),
    Message('note_on', channel=1, note=60, velocity=41, time=0),
    Message('note_off', channel=1, note=60, velocity=0, time=96),
    Message('note_on', channel=1, note=59, velocity=41, time=0),
    Message('note_off', channel=1, note=59, velocity=0, time=96),
    Message('note_on', channel=1, note=55, velocity=41, time=96),
    Message('note_off', channel=1, note=55, velocity=0, time=96),
    Message('note_on', channel=1, note=48, velocity=41, time=96),
    Message('note_off', channel=1, note=48, velocity=0, time=96),
    Message('note_on', channel=1, note=59, velocity=41, time=0),
    Message('note_off', channel=1, note=59, velocity=0, time=96),
    Message('note_on', channel=1, note=64, velocity=41, time=96),
    Message('note_off', channel=1, note=64, velocity=0, time=96),
    Message('note_on', channel=1, note=52, velocity=41, time=0),
    Message('note_off', channel=1, note=52, velocity=0, time=96),
    Message('note_on', channel=1, note=59, velocity=41, time=96),
    Message('note_off', channel=1, note=59, velocity=0, time=96),
    Message('note_on', channel=1, note=52, velocity=41, time=96),
    Message('note_off', channel=1, note=52, velocity=0, time=96),
    Message('note_on', channel=1, note=55, velocity=41, time=96),
    Message('note_off', channel=1, note=55, velocity=0, time=96),
    Message('note_on', channel=1, note=60, velocity=41, time=0),
    Message('note_off', channel=1, note=60, velocity=0, time=96),
    Message('note_on', channel=1, note=59, velocity=41, time=0),
    Message('note_off', channel=1, note=59, velocity=0, time=96),
    Message('note_on', channel=1, note=55, velocity=41, time=96),
    Message('note_off', channel=1, note=55, velocity=0, time=96),
    Message('note_on', channel=1, note=48, velocity=41, time=96),
    Message('note_off', channel=1, note=48, velocity=0, time=96),
    Message('note_on', channel=1, note=59, velocity=41, time=0),
    Message('note_off', channel=1, note=59, velocity=0, time=96),
    Message('note_on', channel=1, note=64, velocity=41, time=96),
    Message('note_off', channel=1, note=64, velocity=0, time=96),
    Message('note_on', channel=1, note=52, velocity=41, time=0),
    Message('note_off', channel=1, note=52, velocity=0, time=96),
    Message('note_on', channel=1, note=59, velocity=41, time=96),
    Message('note_off', channel=1, note=59, velocity=0, time=96),
    Message('note_on', channel=1, note=52, velocity=41, time=96),
    Message('note_off', channel=1, note=52, velocity=0, time=96),
    Message('note_on', channel=1, note=55, velocity=41, time=96),
    Message('note_off', channel=1, note=55, velocity=0, time=96),
    Message('note_on', channel=1, note=60, velocity=41, time=0),
    Message('note_off', channel=1, note=60, velocity=0, time=96),
    Message('note_on', channel=1, note=59, velocity=41, time=0),
    Message('note_off', channel=1, note=59, velocity=0, time=96),
    Message('note_on', channel=1, note=55, velocity=41, time=96),
    Message('note_off', channel=1, note=55, velocity=0, time=96),
    Message('note_on', channel=1, note=48, velocity=41, time=96),
    Message('note_off', channel=1, note=48, velocity=0, time=96),
    Message('note_on', channel=1, note=59, velocity=41, time=0),
    Message('note_off', channel=1, note=59, velocity=0, time=96),
    Message('note_on', channel=1, note=64, velocity=41, time=96),
    Message('note_off', channel=1, note=64, velocity=0, time=96),
    Message('note_on', channel=1, note=52, velocity=41, time=0),
    Message('note_off', channel=1, note=52, velocity=0, time=96),
    Message('note_on', channel=1, note=59, velocity=41, time=96),
    Message('note_off', channel=1, note=59, velocity=0, time=96),
    Message('note_on', channel=1, note=52, velocity=41, time=96),
    Message('note_off', channel=1, note=52, velocity=0, time=96),
    Message('note_on', channel=1, note=55, velocity=41, time=96),
    Message('note_off', channel=1, note=55, velocity=0, time=96),
    Message('note_on', channel=1, note=60, velocity=41, time=0),
    Message('note_off', channel=1, note=60, velocity=0, time=96),
    Message('note_on', channel=1, note=59, velocity=41, time=0),
    Message('note_off', channel=1, note=59, velocity=0, time=96),
    Message('note_on', channel=1, note=55, velocity=41, time=96),
    Message('note_off', channel=1, note=55, velocity=0, time=96),
    Message('note_on', channel=1, note=48, velocity=41, time=96),
    Message('note_off', channel=1, note=48, velocity=0, time=96),
    Message('note_on', channel=1, note=59, velocity=41, time=0),
    Message('note_off', channel=1, note=59, velocity=0, time=96),
    Message('note_on', channel=1, note=64, velocity=41, time=96),
    Message('note_off', channel=1, note=64, velocity=0, time=96),
    Message('note_on', channel=1, note=52, velocity=41, time=0),
    Message('note_off', channel=1, note=52, velocity=0, time=96),
    Message('note_on', channel=1, note=59, velocity=41, time=96),
    Message('note_off', channel=1, note=59, velocity=0, time=96),
    Message('note_on', channel=1, note=52, velocity=41, time=96),
    Message('note_off', channel=1, note=52, velocity=0, time=96),
    Message('note_on', channel=1, note=55, velocity=41, time=96),
    Message('note_off', channel=1, note=55, velocity=0, time=96),
    Message('note_on', channel=1, note=60, velocity=41, time=0),
    Message('note_off', channel=1, note=60, velocity=0, time=96),
    Message('note_on', channel=1, note=59, velocity=41, time=0),
    Message('note_off', channel=1, note=59, velocity=0, time=96),
    Message('note_on', channel=1, note=55, velocity=41, time=96),
    Message('note_off', channel=1, note=55, velocity=0, time=96),
    Message('note_on', channel=1, note=48, velocity=41, time=96),
    Message('note_off', channel=1, note=48, velocity=0, time=96),
    Message('note_on', channel=1, note=59, velocity=41, time=0),
    Message('note_off', channel=1, note=59, velocity=0, time=96),
    Message('note_on', channel=1, note=64, velocity=41, time=96),
    Message('note_off', channel=1, note=64, velocity=0, time=96),
    Message('note_on', channel=1, note=52, velocity=41, time=0),
    Message('note_off', channel=1, note=52, velocity=0, time=96),
    Message('note_on', channel=1, note=59, velocity=41, time=96),
    Message('note_off', channel=1, note=59, velocity=0, time=96),
    Message('note_on', channel=1, note=52, velocity=41, time=96),
    Message('note_off', channel=1, note=52, velocity=0, time=96),
    Message('note_on', channel=1, note=55, velocity=41, time=96),
    Message('note_off', channel=1, note=55, velocity=0, time=96),
    Message('note_on', channel=1, note=60, velocity=41, time=0),
    Message('note_off', channel=1, note=60, velocity=0, time=96),
    Message('note_on', channel=1, note=59, velocity=41, time=0),
    Message('note_off', channel=1, note=59, velocity=0, time=96),
    Message('note_on', channel=1, note=55, velocity=41, time=96),
    Message('note_off', channel=1, note=55, velocity=0, time=96),
    Message('note_on', channel=1, note=48, velocity=41, time=96),
    Message('note_off', channel=1, note=48, velocity=0, time=96),
    Message('note_on', channel=1, note=59, velocity=41, time=0),
    Message('note_off', channel=1, note=59, velocity=0, time=96),
    Message('note_on', channel=1, note=52, velocity=41, time=192),
    Message('note_off', channel=1, note=52, velocity=0, time=96),
    Message('note_on', channel=1, note=59, velocity=41, time=96),
    Message('note_off', channel=1, note=59, velocity=0, time=96),
    Message('note_on', channel=1, note=52, velocity=41, time=96),
    Message('note_off', channel=1, note=52, velocity=0, time=96),
    Message('note_on', channel=1, note=55, velocity=41, time=96),
    Message('note_off', channel=1, note=55, velocity=0, time=96),
    Message('note_on', channel=1, note=60, velocity=41, time=0),
    Message('note_off', channel=1, note=60, velocity=0, time=96),
    Message('note_on', channel=1, note=59, velocity=41, time=0),
    Message('note_off', channel=1, note=59, velocity=0, time=96),
    Message('note_on', channel=1, note=55, velocity=41, time=96),
    Message('note_off', channel=1, note=55, velocity=0, time=96),
    Message('note_on', channel=1, note=48, velocity=41, time=96),
    Message('note_off', channel=1, note=48, velocity=0, time=96),
    Message('note_on', channel=1, note=59, velocity=41, time=0),
    Message('note_off', channel=1, note=59, velocity=0, time=96),
    Message('note_on', channel=1, note=64, velocity=41, time=96),
    Message('note_off', channel=1, note=64, velocity=0, time=96),
    Message('note_on', channel=1, note=52, velocity=41, time=0),
    Message('note_off', channel=1, note=52, velocity=0, time=96),
    Message('note_on', channel=1, note=59, velocity=41, time=96),
    Message('note_off', channel=1, note=59, velocity=0, time=96),
    Message('note_on', channel=1, note=52, velocity=41, time=96),
    Message('note_off', channel=1, note=52, velocity=0, time=96),
    Message('note_on', channel=1, note=55, velocity=41, time=96),
    Message('note_off', channel=1, note=55, velocity=0, time=96),
    Message('note_on', channel=1, note=60, velocity=41, time=0),
    Message('note_off', channel=1, note=60, velocity=0, time=96),
    Message('note_on', channel=1, note=59, velocity=41, time=0),
    Message('note_off', channel=1, note=59, velocity=0, time=96),
    Message('note_on', channel=1, note=55, velocity=41, time=96),
    Message('note_off', channel=1, note=55, velocity=0, time=96),
    Message('note_on', channel=1, note=48, velocity=41, time=96),
    Message('note_off', channel=1, note=48, velocity=0, time=96),
    Message('note_on', channel=1, note=59, velocity=41, time=0),
    Message('note_off', channel=1, note=59, velocity=0, time=96),
    Message('note_on', channel=1, note=64, velocity=41, time=96),
    Message('note_off', channel=1, note=64, velocity=0, time=96),
    Message('note_on', channel=1, note=52, velocity=41, time=0),
    Message('note_off', channel=1, note=52, velocity=0, time=96),
    Message('note_on', channel=1, note=59, velocity=41, time=96),
    Message('note_off', channel=1, note=59, velocity=0, time=96),
    Message('note_on', channel=1, note=52, velocity=41, time=96),
    Message('note_off', channel=1, note=52, velocity=0, time=96),
    Message('note_on', channel=1, note=55, velocity=41, time=96),
    Message('note_off', channel=1, note=55, velocity=0, time=96),
    Message('note_on', channel=1, note=60, velocity=41, time=0),
    Message('note_off', channel=1, note=60, velocity=0, time=96),
    Message('note_on', channel=1, note=59, velocity=41, time=0),
    Message('note_off', channel=1, note=59, velocity=0, time=96),
    Message('note_on', channel=1, note=55, velocity=41, time=96),
    Message('note_off', channel=1, note=55, velocity=0, time=96),
    Message('note_on', channel=1, note=48, velocity=41, time=96),
    Message('note_off', channel=1, note=48, velocity=0, time=96),
    Message('note_on', channel=1, note=59, velocity=41, time=0),
    Message('note_off', channel=1, note=59, velocity=0, time=96),
    Message('note_on', channel=1, note=64, velocity=41, time=96),
    Message('note_off', channel=1, note=64, velocity=0, time=96),
    Message('note_on', channel=1, note=52, velocity=41, time=0),
    Message('note_off', channel=1, note=52, velocity=0, time=96),
    Message('note_on', channel=1, note=59, velocity=41, time=96),
    Message('note_off', channel=1, note=59, velocity=0, time=96),
    Message('note_on', channel=1, note=52, velocity=41, time=96),
    Message('note_off', channel=1, note=52, velocity=0, time=96),
    Message('note_on', channel=1, note=55, velocity=41, time=96),
    Message('note_off', channel=1, note=55, velocity=0, time=96),
    Message('note_on', channel=1, note=60, velocity=41, time=0),
    Message('note_off', channel=1, note=60, velocity=0, time=96),
    Message('note_on', channel=1, note=59, velocity=41, time=0),
    Message('note_off', channel=1, note=59, velocity=0, time=96),
    Message('note_on', channel=1, note=55, velocity=41, time=96),
    Message('note_off', channel=1, note=55, velocity=0, time=96),
    Message('note_on', channel=1, note=48, velocity=41, time=96),
    Message('note_off', channel=1, note=48, velocity=0, time=96),
    Message('note_on', channel=1, note=59, velocity=41, time=0),
    Message('note_off', channel=1, note=59, velocity=0, time=96),
    Message('note_on', channel=1, note=64, velocity=41, time=96),
    Message('note_off', channel=1, note=64, velocity=0, time=96),
    Message('note_on', channel=1, note=52, velocity=41, time=0),
    Message('note_off', channel=1, note=52, velocity=0, time=96),
    Message('note_on', channel=1, note=59, velocity=41, time=96),
    Message('note_off', channel=1, note=59, velocity=0, time=96),
    Message('note_on', channel=1, note=52, velocity=41, time=96),
    Message('note_off', channel=1, note=52, velocity=0, time=96),
    Message('note_on', channel=1, note=55, velocity=41, time=96),
    Message('note_off', channel=1, note=55, velocity=0, time=96),
    Message('note_on', channel=1, note=60, velocity=41, time=0),
    Message('note_off', channel=1, note=60, velocity=0, time=96),
    Message('note_on', channel=1, note=59, velocity=41, time=0),
    Message('note_off', channel=1, note=59, velocity=0, time=96),
    Message('note_on', channel=1, note=55, velocity=41, time=96),
    Message('note_off', channel=1, note=55, velocity=0, time=96),
    Message('note_on', channel=1, note=48, velocity=41, time=96),
    Message('note_off', channel=1, note=48, velocity=0, time=96),
    Message('note_on', channel=1, note=59, velocity=41, time=0),
    Message('note_off', channel=1, note=59, velocity=0, time=96),
    Message('note_on', channel=1, note=64, velocity=41, time=96),
    Message('note_off', channel=1, note=64, velocity=0, time=96),
    Message('note_on', channel=1, note=52, velocity=41, time=0),
    Message('note_off', channel=1, note=52, velocity=0, time=96),
    Message('note_on', channel=1, note=59, velocity=41, time=96),
    Message('note_off', channel=1, note=59, velocity=0, time=96),
    Message('note_on', channel=1, note=52, velocity=41, time=96),
    Message('note_off', channel=1, note=52, velocity=0, time=96),
    Message('note_on', channel=1, note=55, velocity=41, time=96),
    Message('note_off', channel=1, note=55, velocity=0, time=96),
    Message('note_on', channel=1, note=60, velocity=41, time=0),
    Message('note_off', channel=1, note=60, velocity=0, time=96),
    Message('note_on', channel=1, note=59, velocity=41, time=0),
    Message('note_off', channel=1, note=59, velocity=0, time=96),
    Message('note_on', channel=1, note=55, velocity=41, time=96),
    Message('note_off', channel=1, note=55, velocity=0, time=96),
    Message('note_on', channel=1, note=48, velocity=41, time=96),
    Message('note_off', channel=1, note=48, velocity=0, time=96),
    Message('note_on', channel=1, note=59, velocity=41, time=0),
    Message('note_off', channel=1, note=59, velocity=0, time=96),
    Message('note_on', channel=1, note=64, velocity=41, time=96),
    Message('note_off', channel=1, note=64, velocity=0, time=96),
    Message('note_on', channel=1, note=52, velocity=41, time=0),
    Message('note_off', channel=1, note=52, velocity=0, time=96),
    Message('note_on', channel=1, note=59, velocity=41, time=96),
    Message('note_off', channel=1, note=59, velocity=0, time=96),
    Message('note_on', channel=1, note=52, velocity=41, time=96),
    Message('note_off', channel=1, note=52, velocity=0, time=96),
    Message('note_on', channel=1, note=55, velocity=41, time=96),
    Message('note_off', channel=1, note=55, velocity=0, time=96),
    Message('note_on', channel=1, note=60, velocity=41, time=0),
    Message('note_off', channel=1, note=60, velocity=0, time=96),
    Message('note_on', channel=1, note=59, velocity=41, time=0),
    Message('note_off', channel=1, note=59, velocity=0, time=96),
    Message('note_on', channel=1, note=55, velocity=41, time=96),
    Message('note_off', channel=1, note=55, velocity=0, time=96),
    Message('note_on', channel=1, note=48, velocity=41, time=96),
    Message('note_off', channel=1, note=48, velocity=0, time=96),
    Message('note_on', channel=1, note=59, velocity=41, time=0),
    Message('note_off', channel=1, note=59, velocity=0, time=96),
    Message('note_on', channel=1, note=64, velocity=41, time=96),
    Message('note_off', channel=1, note=64, velocity=0, time=96),
    Message('note_on', channel=1, note=52, velocity=41, time=0),
    Message('note_off', channel=1, note=52, velocity=0, time=96),
    Message('note_on', channel=1, note=59, velocity=41, time=96),
    Message('note_off', channel=1, note=59, velocity=0, time=96),
    Message('note_on', channel=1, note=52, velocity=41, time=96),
    Message('note_off', channel=1, note=52, velocity=0, time=96),
    Message('note_on', channel=1, note=55, velocity=41, time=96),
    Message('note_off', channel=1, note=55, velocity=0, time=96),
    Message('note_on', channel=1, note=60, velocity=41, time=0),
    Message('note_off', channel=1, note=60, velocity=0, time=96),
    Message('note_on', channel=1, note=59, velocity=41, time=0),
    Message('note_off', channel=1, note=59, velocity=0, time=96),
    Message('note_on', channel=1, note=55, velocity=41, time=96),
    Message('note_off', channel=1, note=55, velocity=0, time=96),
    Message('note_on', channel=1, note=48, velocity=41, time=96),
    Message('note_off', channel=1, note=48, velocity=0, time=96),
    Message('note_on', channel=1, note=59, velocity=41, time=0),
    Message('note_off', channel=1, note=59, velocity=0, time=96),
    Message('note_on', channel=1, note=52, velocity=41, time=192),
    Message('note_off', channel=1, note=52, velocity=0, time=96),
    Message('note_on', channel=1, note=59, velocity=41, time=96),
    Message('note_off', channel=1, note=59, velocity=0, time=96),
    Message('note_on', channel=1, note=52, velocity=41, time=96),
    Message('note_off', channel=1, note=52, velocity=0, time=96),
    Message('note_on', channel=1, note=67, velocity=41, time=96),
    Message('note_on', channel=1, note=55, velocity=41, time=0),
    Message('note_off', channel=1, note=55, velocity=0, time=96),
    Message('note_off', channel=1, note=67, velocity=0, time=0),
    Message('note_on', channel=1, note=72, velocity=41, time=0),
    Message('note_on', channel=1, note=60, velocity=41, time=0),
    Message('note_off', channel=1, note=60, velocity=0, time=96),
    Message('note_off', channel=1, note=72, velocity=0, time=0),
    Message('note_on', channel=1, note=71, velocity=41, time=0),
    Message('note_on', channel=1, note=59, velocity=41, time=0),
    Message('note_off', channel=1, note=59, velocity=0, time=96),
    Message('note_off', channel=1, note=71, velocity=0, time=0),
    Message('note_on', channel=1, note=67, velocity=41, time=96),
    Message('note_on', channel=1, note=55, velocity=41, time=0),
    Message('note_off', channel=1, note=55, velocity=0, time=96),
    Message('note_off', channel=1, note=67, velocity=0, time=0),
    Message('note_on', channel=1, note=60, velocity=41, time=96),
    Message('note_on', channel=1, note=48, velocity=41, time=0),
    Message('note_off', channel=1, note=48, velocity=0, time=96),
    Message('note_off', channel=1, note=60, velocity=0, time=0),
    Message('note_on', channel=1, note=71, velocity=41, time=0),
    Message('note_on', channel=1, note=59, velocity=41, time=0),
    Message('note_off', channel=1, note=59, velocity=0, time=96),
    Message('note_off', channel=1, note=71, velocity=0, time=0),
    Message('note_on', channel=1, note=76, velocity=41, time=96),
    Message('note_on', channel=1, note=64, velocity=41, time=0),
    Message('note_off', channel=1, note=64, velocity=0, time=96),
    Message('note_off', channel=1, note=76, velocity=0, time=0),
    Message('note_on', channel=1, note=64, velocity=41, time=0),
    Message('note_on', channel=1, note=52, velocity=41, time=0),
    Message('note_off', channel=1, note=52, velocity=0, time=96),
    Message('note_off', channel=1, note=64, velocity=0, time=0),
    Message('note_on', channel=1, note=71, velocity=41, time=96),
    Message('note_on', channel=1, note=59, velocity=41, time=0),
    Message('note_off', channel=1, note=59, velocity=0, time=96),
    Message('note_off', channel=1, note=71, velocity=0, time=0),
    Message('note_on', channel=1, note=64, velocity=41, time=96),
    Message('note_on', channel=1, note=52, velocity=41, time=0),
    Message('note_off', channel=1, note=52, velocity=0, time=96),
    Message('note_off', channel=1, note=64, velocity=0, time=0),
    Message('note_on', channel=1, note=67, velocity=41, time=96),
    Message('note_on', channel=1, note=55, velocity=41, time=0),
    Message('note_off', channel=1, note=55, velocity=0, time=96),
    Message('note_off', channel=1, note=67, velocity=0, time=0),
    Message('note_on', channel=1, note=72, velocity=41, time=0),
    Message('note_on', channel=1, note=60, velocity=41, time=0),
    Message('note_off', channel=1, note=60, velocity=0, time=96),
    Message('note_off', channel=1, note=72, velocity=0, time=0),
    Message('note_on', channel=1, note=71, velocity=41, time=0),
    Message('note_on', channel=1, note=59, velocity=41, time=0),
    Message('note_off', channel=1, note=59, velocity=0, time=96),
    Message('note_off', channel=1, note=71, velocity=0, time=0),
    Message('note_on', channel=1, note=67, velocity=41, time=96),
    Message('note_on', channel=1, note=55, velocity=41, time=0),
    Message('note_off', channel=1, note=55, velocity=0, time=96),
    Message('note_off', channel=1, note=67, velocity=0, time=0),
    Message('note_on', channel=1, note=60, velocity=41, time=96),
    Message('note_on', channel=1, note=48, velocity=41, time=0),
    Message('note_off', channel=1, note=48, velocity=0, time=96),
    Message('note_off', channel=1, note=60, velocity=0, time=0),
    Message('note_on', channel=1, note=71, velocity=41, time=0),
    Message('note_on', channel=1, note=59, velocity=41, time=0),
    Message('note_off', channel=1, note=59, velocity=0, time=96),
    Message('note_off', channel=1, note=71, velocity=0, time=0),
    Message('note_on', channel=1, note=76, velocity=41, time=96),
    Message('note_on', channel=1, note=64, velocity=41, time=0),
    Message('note_off', channel=1, note=64, velocity=0, time=96),
    Message('note_off', channel=1, note=76, velocity=0, time=0),
    Message('note_on', channel=1, note=64, velocity=41, time=0),
    Message('note_on', channel=1, note=52, velocity=41, time=0),
    Message('note_off', channel=1, note=52, velocity=0, time=96),
    Message('note_off', channel=1, note=64, velocity=0, time=0),
    Message('note_on', channel=1, note=71, velocity=41, time=96),
    Message('note_on', channel=1, note=59, velocity=41, time=0),
    Message('note_off', channel=1, note=59, velocity=0, time=96),
    Message('note_off', channel=1, note=71, velocity=0, time=0),
    Message('note_on', channel=1, note=64, velocity=41, time=96),
    Message('note_on', channel=1, note=52, velocity=41, time=0),
    Message('note_off', channel=1, note=52, velocity=0, time=96),
    Message('note_off', channel=1, note=64, velocity=0, time=0),
    Message('note_on', channel=1, note=67, velocity=41, time=96),
    Message('note_on', channel=1, note=55, velocity=41, time=0),
    Message('note_off', channel=1, note=55, velocity=0, time=96),
    Message('note_off', channel=1, note=67, velocity=0, time=0),
    Message('note_on', channel=1, note=72, velocity=41, time=0),
    Message('note_on', channel=1, note=60, velocity=41, time=0),
    Message('note_off', channel=1, note=60, velocity=0, time=96),
    Message('note_off', channel=1, note=72, velocity=0, time=0),
    Message('note_on', channel=1, note=71, velocity=41, time=0),
    Message('note_on', channel=1, note=59, velocity=41, time=0),
    Message('note_off', channel=1, note=59, velocity=0, time=96),
    Message('note_off', channel=1, note=71, velocity=0, time=0),
    Message('note_on', channel=1, note=67, velocity=41, time=96),
    Message('note_on', channel=1, note=55, velocity=41, time=0),
    Message('note_off', channel=1, note=55, velocity=0, time=96),
    Message('note_off', channel=1, note=67, velocity=0, time=0),
    Message('note_on', channel=1, note=60, velocity=41, time=96),
    Message('note_on', channel=1, note=48, velocity=41, time=0),
    Message('note_off', channel=1, note=48, velocity=0, time=96),
    Message('note_off', channel=1, note=60, velocity=0, time=0),
    Message('note_on', channel=1, note=71, velocity=41, time=0),
    Message('note_on', channel=1, note=59, velocity=41, time=0),
    Message('note_off', channel=1, note=59, velocity=0, time=96),
    Message('note_off', channel=1, note=71, velocity=0, time=0),
    Message('note_on', channel=1, note=76, velocity=41, time=96),
    Message('note_on', channel=1, note=64, velocity=41, time=0),
    Message('note_off', channel=1, note=64, velocity=0, time=96),
    Message('note_off', channel=1, note=76, velocity=0, time=0),
    Message('note_on', channel=1, note=64, velocity=41, time=0),
    Message('note_on', channel=1, note=52, velocity=41, time=0),
    Message('note_off', channel=1, note=52, velocity=0, time=96),
    Message('note_off', channel=1, note=64, velocity=0, time=0),
    Message('note_on', channel=1, note=71, velocity=41, time=96),
    Message('note_on', channel=1, note=59, velocity=41, time=0),
    Message('note_off', channel=1, note=59, velocity=0, time=96),
    Message('note_off', channel=1, note=71, velocity=0, time=0),
    Message('note_on', channel=1, note=64, velocity=41, time=96),
    Message('note_on', channel=1, note=52, velocity=41, time=0),
    Message('note_off', channel=1, note=52, velocity=0, time=96),
    Message('note_off', channel=1, note=64, velocity=0, time=0),
    Message('note_on', channel=1, note=67, velocity=41, time=96),
    Message('note_on', channel=1, note=55, velocity=41, time=0),
    Message('note_off', channel=1, note=55, velocity=0, time=96),
    Message('note_off', channel=1, note=67, velocity=0, time=0),
    Message('note_on', channel=1, note=72, velocity=41, time=0),
    Message('note_on', channel=1, note=60, velocity=41, time=0),
    Message('note_off', channel=1, note=60, velocity=0, time=96),
    Message('note_off', channel=1, note=72, velocity=0, time=0),
    Message('note_on', channel=1, note=71, velocity=41, time=0),
    Message('note_on', channel=1, note=59, velocity=41, time=0),
    Message('note_off', channel=1, note=59, velocity=0, time=96),
    Message('note_off', channel=1, note=71, velocity=0, time=0),
    Message('note_on', channel=1, note=67, velocity=41, time=96),
    Message('note_on', channel=1, note=55, velocity=41, time=0),
    Message('note_off', channel=1, note=55, velocity=0, time=96),
    Message('note_off', channel=1, note=67, velocity=0, time=0),
    Message('note_on', channel=1, note=60, velocity=41, time=96),
    Message('note_on', channel=1, note=48, velocity=41, time=0),
    Message('note_off', channel=1, note=48, velocity=0, time=96),
    Message('note_off', channel=1, note=60, velocity=0, time=0),
    Message('note_on', channel=1, note=71, velocity=41, time=0),
    Message('note_on', channel=1, note=59, velocity=41, time=0),
    Message('note_off', channel=1, note=59, velocity=0, time=96),
    Message('note_off', channel=1, note=71, velocity=0, time=0),
    Message('note_on', channel=1, note=76, velocity=41, time=96),
    Message('note_on', channel=1, note=64, velocity=41, time=0),
    Message('note_off', channel=1, note=64, velocity=0, time=96),
    Message('note_off', channel=1, note=76, velocity=0, time=0),
    Message('note_on', channel=1, note=64, velocity=41, time=0),
    Message('note_on', channel=1, note=52, velocity=41, time=0),
    Message('note_off', channel=1, note=52, velocity=0, time=96),
    Message('note_off', channel=1, note=64, velocity=0, time=0),
    Message('note_on', channel=1, note=71, velocity=41, time=96),
    Message('note_on', channel=1, note=59, velocity=41, time=0),
    Message('note_off', channel=1, note=59, velocity=0, time=96),
    Message('note_off', channel=1, note=71, velocity=0, time=0),
    Message('note_on', channel=1, note=64, velocity=41, time=96),
    Message('note_on', channel=1, note=52, velocity=41, time=0),
    Message('note_off', channel=1, note=52, velocity=0, time=96),
    Message('note_off', channel=1, note=64, velocity=0, time=0),
    Message('note_on', channel=1, note=67, velocity=41, time=96),
    Message('note_on', channel=1, note=55, velocity=41, time=0),
    Message('note_off', channel=1, note=55, velocity=0, time=96),
    Message('note_off', channel=1, note=67, velocity=0, time=0),
    Message('note_on', channel=1, note=72, velocity=41, time=0),
    Message('note_on', channel=1, note=60, velocity=41, time=0),
    Message('note_off', channel=1, note=60, velocity=0, time=96),
    Message('note_off', channel=1, note=72, velocity=0, time=0),
    Message('note_on', channel=1, note=71, velocity=41, time=0),
    Message('note_on', channel=1, note=59, velocity=41, time=0),
    Message('note_off', channel=1, note=59, velocity=0, time=96),
    Message('note_off', channel=1, note=71, velocity=0, time=0),
    Message('note_on', channel=1, note=67, velocity=41, time=96),
    Message('note_on', channel=1, note=55, velocity=41, time=0),
    Message('note_off', channel=1, note=55, velocity=0, time=96),
    Message('note_off', channel=1, note=67, velocity=0, time=0),
    Message('note_on', channel=1, note=60, velocity=41, time=96),
    Message('note_on', channel=1, note=48, velocity=41, time=0),
    Message('note_off', channel=1, note=48, velocity=0, time=96),
    Message('note_off', channel=1, note=60, velocity=0, time=0),
    Message('note_on', channel=1, note=71, velocity=41, time=0),
    Message('note_on', channel=1, note=59, velocity=41, time=0),
    Message('note_off', channel=1, note=59, velocity=0, time=96),
    Message('note_off', channel=1, note=71, velocity=0, time=0),
    Message('note_on', channel=1, note=76, velocity=41, time=96),
    Message('note_on', channel=1, note=64, velocity=41, time=0),
    Message('note_off', channel=1, note=64, velocity=0, time=96),
    Message('note_off', channel=1, note=76, velocity=0, time=0),
    Message('note_on', channel=1, note=64, velocity=41, time=0),
    Message('note_on', channel=1, note=52, velocity=41, time=0),
    Message('note_off', channel=1, note=52, velocity=0, time=96),
    Message('note_off', channel=1, note=64, velocity=0, time=0),
    Message('note_on', channel=1, note=71, velocity=41, time=96),
    Message('note_on', channel=1, note=59, velocity=41, time=0),
    Message('note_off', channel=1, note=59, velocity=0, time=96),
    Message('note_off', channel=1, note=71, velocity=0, time=0),
    Message('note_on', channel=1, note=64, velocity=41, time=96),
    Message('note_on', channel=1, note=52, velocity=41, time=0),
    Message('note_off', channel=1, note=52, velocity=0, time=96),
    Message('note_off', channel=1, note=64, velocity=0, time=0),
    Message('note_on', channel=1, note=67, velocity=41, time=96),
    Message('note_on', channel=1, note=55, velocity=41, time=0),
    Message('note_off', channel=1, note=55, velocity=0, time=96),
    Message('note_off', channel=1, note=67, velocity=0, time=0),
    Message('note_on', channel=1, note=72, velocity=41, time=0),
    Message('note_on', channel=1, note=60, velocity=41, time=0),
    Message('note_off', channel=1, note=60, velocity=0, time=96),
    Message('note_off', channel=1, note=72, velocity=0, time=0),
    Message('note_on', channel=1, note=71, velocity=41, time=0),
    Message('note_on', channel=1, note=59, velocity=41, time=0),
    Message('note_off', channel=1, note=59, velocity=0, time=96),
    Message('note_off', channel=1, note=71, velocity=0, time=0),
    Message('note_on', channel=1, note=67, velocity=41, time=96),
    Message('note_on', channel=1, note=55, velocity=41, time=0),
    Message('note_off', channel=1, note=55, velocity=0, time=96),
    Message('note_off', channel=1, note=67, velocity=0, time=0),
    Message('note_on', channel=1, note=60, velocity=41, time=96),
    Message('note_on', channel=1, note=48, velocity=41, time=0),
    Message('note_off', channel=1, note=48, velocity=0, time=96),
    Message('note_off', channel=1, note=60, velocity=0, time=0),
    Message('note_on', channel=1, note=71, velocity=41, time=0),
    Message('note_on', channel=1, note=59, velocity=41, time=0),
    Message('note_off', channel=1, note=59, velocity=0, time=96),
    Message('note_off', channel=1, note=71, velocity=0, time=0),
    Message('note_on', channel=1, note=76, velocity=41, time=96),
    Message('note_on', channel=1, note=64, velocity=41, time=0),
    Message('note_off', channel=1, note=64, velocity=0, time=96),
    Message('note_off', channel=1, note=76, velocity=0, time=0),
    Message('note_on', channel=1, note=64, velocity=41, time=0),
    Message('note_on', channel=1, note=52, velocity=41, time=0),
    Message('note_off', channel=1, note=52, velocity=0, time=96),
    Message('note_off', channel=1, note=64, velocity=0, time=0),
    Message('note_on', channel=1, note=71, velocity=41, time=96),
    Message('note_on', channel=1, note=59, velocity=41, time=0),
    Message('note_off', channel=1, note=59, velocity=0, time=96),
    Message('note_off', channel=1, note=71, velocity=0, time=0),
    Message('note_on', channel=1, note=64, velocity=41, time=96),
    Message('note_on', channel=1, note=52, velocity=41, time=0),
    Message('note_off', channel=1, note=52, velocity=0, time=96),
    Message('note_off', channel=1, note=64, velocity=0, time=0),
    Message('note_on', channel=1, note=67, velocity=41, time=96),
    Message('note_on', channel=1, note=55, velocity=41, time=0),
    Message('note_off', channel=1, note=55, velocity=0, time=96),
    Message('note_off', channel=1, note=67, velocity=0, time=0),
    Message('note_on', channel=1, note=72, velocity=41, time=0),
    Message('note_on', channel=1, note=60, velocity=41, time=0),
    Message('note_off', channel=1, note=60, velocity=0, time=96),
    Message('note_off', channel=1, note=72, velocity=0, time=0),
    Message('note_on', channel=1, note=71, velocity=41, time=0),
    Message('note_on', channel=1, note=59, velocity=41, time=0),
    Message('note_off', channel=1, note=59, velocity=0, time=96),
    Message('note_off', channel=1, note=71, velocity=0, time=0),
    Message('note_on', channel=1, note=67, velocity=41, time=96),
    Message('note_on', channel=1, note=55, velocity=41, time=0),
    Message('note_off', channel=1, note=55, velocity=0, time=96),
    Message('note_off', channel=1, note=67, velocity=0, time=0),
    Message('note_on', channel=1, note=60, velocity=41, time=96),
    Message('note_on', channel=1, note=48, velocity=41, time=0),
    Message('note_off', channel=1, note=48, velocity=0, time=96),
    Message('note_off', channel=1, note=60, velocity=0, time=0),
    Message('note_on', channel=1, note=71, velocity=41, time=0),
    Message('note_on', channel=1, note=59, velocity=41, time=0),
    Message('note_off', channel=1, note=59, velocity=0, time=96),
    Message('note_off', channel=1, note=71, velocity=0, time=0),
    Message('note_on', channel=1, note=76, velocity=41, time=96),
    Message('note_on', channel=1, note=64, velocity=41, time=0),
    Message('note_off', channel=1, note=64, velocity=0, time=96),
    Message('note_off', channel=1, note=76, velocity=0, time=0),
    Message('note_on', channel=1, note=64, velocity=41, time=0),
    Message('note_on', channel=1, note=52, velocity=41, time=0),
    Message('note_off', channel=1, note=52, velocity=0, time=96),
    Message('note_off', channel=1, note=64, velocity=0, time=0),
    Message('note_on', channel=1, note=71, velocity=41, time=96),
    Message('note_on', channel=1, note=59, velocity=41, time=0),
    Message('note_off', channel=1, note=59, velocity=0, time=96),
    Message('note_off', channel=1, note=71, velocity=0, time=0),
    Message('note_on', channel=1, note=64, velocity=41, time=96),
    Message('note_on', channel=1, note=52, velocity=41, time=0),
    Message('note_off', channel=1, note=52, velocity=0, time=96),
    Message('note_off', channel=1, note=64, velocity=0, time=0),
    Message('note_on', channel=1, note=67, velocity=41, time=96),
    Message('note_on', channel=1, note=55, velocity=41, time=0),
    Message('note_off', channel=1, note=55, velocity=0, time=96),
    Message('note_off', channel=1, note=67, velocity=0, time=0),
    Message('note_on', channel=1, note=72, velocity=41, time=0),
    Message('note_on', channel=1, note=60, velocity=41, time=0),
    Message('note_off', channel=1, note=60, velocity=0, time=96),
    Message('note_off', channel=1, note=72, velocity=0, time=0),
    Message('note_on', channel=1, note=71, velocity=41, time=0),
    Message('note_on', channel=1, note=59, velocity=41, time=0),
    Message('note_off', channel=1, note=59, velocity=0, time=96),
    Message('note_off', channel=1, note=71, velocity=0, time=0),
    Message('note_on', channel=1, note=67, velocity=41, time=96),
    Message('note_on', channel=1, note=55, velocity=41, time=0),
    Message('note_off', channel=1, note=55, velocity=0, time=96),
    Message('note_off', channel=1, note=67, velocity=0, time=0),
    Message('note_on', channel=1, note=60, velocity=41, time=96),
    Message('note_on', channel=1, note=48, velocity=41, time=0),
    Message('note_off', channel=1, note=48, velocity=0, time=96),
    Message('note_off', channel=1, note=60, velocity=0, time=0),
    Message('note_on', channel=1, note=71, velocity=41, time=0),
    Message('note_on', channel=1, note=59, velocity=41, time=0),
    Message('note_off', channel=1, note=59, velocity=0, time=96),
    Message('note_off', channel=1, note=71, velocity=0, time=0),
    Message('note_on', channel=1, note=76, velocity=41, time=96),
    Message('note_off', channel=1, note=76, velocity=0, time=96),
    Message('note_on', channel=1, note=64, velocity=41, time=0),
    Message('note_on', channel=1, note=52, velocity=41, time=0),
    Message('note_off', channel=1, note=52, velocity=0, time=96),
    Message('note_off', channel=1, note=64, velocity=0, time=0),
    Message('note_on', channel=1, note=71, velocity=41, time=96),
    Message('note_on', channel=1, note=59, velocity=41, time=0),
    Message('note_off', channel=1, note=59, velocity=0, time=96),
    Message('note_off', channel=1, note=71, velocity=0, time=0),
    Message('note_on', channel=1, note=64, velocity=41, time=96),
    Message('note_on', channel=1, note=52, velocity=41, time=0),
    Message('note_off', channel=1, note=52, velocity=0, time=96),
    Message('note_off', channel=1, note=64, velocity=0, time=0),
    Message('note_on', channel=1, note=67, velocity=41, time=96),
    Message('note_on', channel=1, note=55, velocity=41, time=0),
    Message('note_off', channel=1, note=55, velocity=0, time=96),
    Message('note_off', channel=1, note=67, velocity=0, time=0),
    Message('note_on', channel=1, note=72, velocity=41, time=0),
    Message('note_on', channel=1, note=60, velocity=41, time=0),
    Message('note_off', channel=1, note=60, velocity=0, time=96),
    Message('note_off', channel=1, note=72, velocity=0, time=0),
    Message('note_on', channel=1, note=71, velocity=41, time=0),
    Message('note_on', channel=1, note=59, velocity=41, time=0),
    Message('note_off', channel=1, note=59, velocity=0, time=96),
    Message('note_off', channel=1, note=71, velocity=0, time=0),
    Message('note_on', channel=1, note=67, velocity=41, time=96),
    Message('note_on', channel=1, note=55, velocity=41, time=0),
    Message('note_off', channel=1, note=55, velocity=0, time=96),
    Message('note_off', channel=1, note=67, velocity=0, time=0),
    Message('note_on', channel=1, note=60, velocity=41, time=96),
    Message('note_on', channel=1, note=48, velocity=41, time=0),
    Message('note_off', channel=1, note=48, velocity=0, time=96),
    Message('note_off', channel=1, note=60, velocity=0, time=0),
    Message('note_on', channel=1, note=71, velocity=41, time=0),
    Message('note_on', channel=1, note=59, velocity=41, time=0),
    Message('note_off', channel=1, note=59, velocity=0, time=96),
    Message('note_off', channel=1, note=71, velocity=0, time=0),
    Message('note_on', channel=1, note=76, velocity=41, time=96),
    Message('note_on', channel=1, note=64, velocity=41, time=0),
    Message('note_off', channel=1, note=64, velocity=0, time=96),
    Message('note_off', channel=1, note=76, velocity=0, time=0),
    Message('note_on', channel=1, note=64, velocity=41, time=0),
    Message('note_on', channel=1, note=52, velocity=41, time=0),
    Message('note_off', channel=1, note=52, velocity=0, time=96),
    Message('note_off', channel=1, note=64, velocity=0, time=0),
    Message('note_on', channel=1, note=71, velocity=41, time=96),
    Message('note_on', channel=1, note=59, velocity=41, time=0),
    Message('note_off', channel=1, note=59, velocity=0, time=96),
    Message('note_off', channel=1, note=71, velocity=0, time=0),
    Message('note_on', channel=1, note=64, velocity=41, time=96),
    Message('note_on', channel=1, note=52, velocity=41, time=0),
    Message('note_off', channel=1, note=52, velocity=0, time=96),
    Message('note_off', channel=1, note=64, velocity=0, time=0),
    Message('note_on', channel=1, note=67, velocity=41, time=96),
    Message('note_on', channel=1, note=55, velocity=41, time=0),
    Message('note_off', channel=1, note=55, velocity=0, time=96),
    Message('note_off', channel=1, note=67, velocity=0, time=0),
    Message('note_on', channel=1, note=72, velocity=41, time=0),
    Message('note_on', channel=1, note=60, velocity=41, time=0),
    Message('note_off', channel=1, note=60, velocity=0, time=96),
    Message('note_off', channel=1, note=72, velocity=0, time=0),
    Message('note_on', channel=1, note=71, velocity=41, time=0),
    Message('note_on', channel=1, note=59, velocity=41, time=0),
    Message('note_off', channel=1, note=59, velocity=0, time=96),
    Message('note_off', channel=1, note=71, velocity=0, time=0),
    Message('note_on', channel=1, note=67, velocity=41, time=96),
    Message('note_on', channel=1, note=55, velocity=41, time=0),
    Message('note_off', channel=1, note=55, velocity=0, time=96),
    Message('note_off', channel=1, note=67, velocity=0, time=0),
    Message('note_on', channel=1, note=60, velocity=41, time=96),
    Message('note_on', channel=1, note=48, velocity=41, time=0),
    Message('note_off', channel=1, note=48, velocity=0, time=96),
    Message('note_off', channel=1, note=60, velocity=0, time=0),
    Message('note_on', channel=1, note=71, velocity=41, time=0),
    Message('note_on', channel=1, note=59, velocity=41, time=0),
    Message('note_off', channel=1, note=59, velocity=0, time=96),
    Message('note_off', channel=1, note=71, velocity=0, time=0),
    Message('note_on', channel=1, note=76, velocity=41, time=96),
    Message('note_on', channel=1, note=64, velocity=41, time=0),
    Message('note_off', channel=1, note=64, velocity=0, time=96),
    Message('note_off', channel=1, note=76, velocity=0, time=0),
    Message('note_on', channel=1, note=64, velocity=41, time=0),
    Message('note_on', channel=1, note=52, velocity=41, time=0),
    Message('note_off', channel=1, note=52, velocity=0, time=96),
    Message('note_off', channel=1, note=64, velocity=0, time=0),
    Message('note_on', channel=1, note=71, velocity=41, time=96),
    Message('note_on', channel=1, note=59, velocity=41, time=0),
    Message('note_off', channel=1, note=59, velocity=0, time=96),
    Message('note_off', channel=1, note=71, velocity=0, time=0),
    Message('note_on', channel=1, note=64, velocity=41, time=96),
    Message('note_on', channel=1, note=52, velocity=41, time=0),
    Message('note_off', channel=1, note=52, velocity=0, time=96),
    Message('note_off', channel=1, note=64, velocity=0, time=0),
    Message('note_on', channel=1, note=67, velocity=41, time=96),
    Message('note_on', channel=1, note=55, velocity=41, time=0),
    Message('note_off', channel=1, note=55, velocity=0, time=96),
    Message('note_off', channel=1, note=67, velocity=0, time=0),
    Message('note_on', channel=1, note=72, velocity=41, time=0),
    Message('note_on', channel=1, note=60, velocity=41, time=0),
    Message('note_off', channel=1, note=60, velocity=0, time=96),
    Message('note_off', channel=1, note=72, velocity=0, time=0),
    Message('note_on', channel=1, note=71, velocity=41, time=0),
    Message('note_on', channel=1, note=59, velocity=41, time=0),
    Message('note_off', channel=1, note=59, velocity=0, time=96),
    Message('note_off', channel=1, note=71, velocity=0, time=0),
    Message('note_on', channel=1, note=67, velocity=41, time=96),
    Message('note_on', channel=1, note=55, velocity=41, time=0),
    Message('note_off', channel=1, note=55, velocity=0, time=96),
    Message('note_off', channel=1, note=67, velocity=0, time=0),
    Message('note_on', channel=1, note=60, velocity=41, time=96),
    Message('note_on', channel=1, note=48, velocity=41, time=0),
    Message('note_off', channel=1, note=48, velocity=0, time=96),
    Message('note_off', channel=1, note=60, velocity=0, time=0),
    Message('note_on', channel=1, note=71, velocity=41, time=0),
    Message('note_on', channel=1, note=59, velocity=41, time=0),
    Message('note_off', channel=1, note=59, velocity=0, time=96),
    Message('note_off', channel=1, note=71, velocity=0, time=0),
    Message('note_on', channel=1, note=76, velocity=41, time=96),
    Message('note_on', channel=1, note=64, velocity=41, time=0),
    Message('note_off', channel=1, note=64, velocity=0, time=96),
    Message('note_off', channel=1, note=76, velocity=0, time=0),
    Message('note_on', channel=1, note=64, velocity=41, time=0),
    Message('note_on', channel=1, note=52, velocity=41, time=0),
    Message('note_off', channel=1, note=52, velocity=0, time=96),
    Message('note_off', channel=1, note=64, velocity=0, time=0),
    Message('note_on', channel=1, note=71, velocity=41, time=96),
    Message('note_on', channel=1, note=59, velocity=41, time=0),
    Message('note_off', channel=1, note=59, velocity=0, time=96),
    Message('note_off', channel=1, note=71, velocity=0, time=0),
    Message('note_on', channel=1, note=64, velocity=41, time=96),
    Message('note_on', channel=1, note=52, velocity=41, time=0),
    Message('note_off', channel=1, note=52, velocity=0, time=96),
    Message('note_off', channel=1, note=64, velocity=0, time=0),
    Message('note_on', channel=1, note=67, velocity=41, time=96),
    Message('note_on', channel=1, note=55, velocity=41, time=0),
    Message('note_off', channel=1, note=55, velocity=0, time=96),
    Message('note_off', channel=1, note=67, velocity=0, time=0),
    Message('note_on', channel=1, note=72, velocity=41, time=0),
    Message('note_on', channel=1, note=60, velocity=41, time=0),
    Message('note_off', channel=1, note=60, velocity=0, time=96),
    Message('note_off', channel=1, note=72, velocity=0, time=0),
    Message('note_on', channel=1, note=71, velocity=41, time=0),
    Message('note_on', channel=1, note=59, velocity=41, time=0),
    Message('note_off', channel=1, note=59, velocity=0, time=96),
    Message('note_off', channel=1, note=71, velocity=0, time=0),
    Message('note_on', channel=1, note=67, velocity=41, time=96),
    Message('note_on', channel=1, note=55, velocity=41, time=0),
    Message('note_off', channel=1, note=55, velocity=0, time=96),
    Message('note_off', channel=1, note=67, velocity=0, time=0),
    Message('note_on', channel=1, note=60, velocity=41, time=96),
    Message('note_on', channel=1, note=48, velocity=41, time=0),
    Message('note_off', channel=1, note=48, velocity=0, time=96),
    Message('note_off', channel=1, note=60, velocity=0, time=0),
    Message('note_on', channel=1, note=71, velocity=41, time=0),
    Message('note_on', channel=1, note=59, velocity=41, time=0),
    Message('note_off', channel=1, note=59, velocity=0, time=96),
    Message('note_off', channel=1, note=71, velocity=0, time=0),
    Message('note_on', channel=1, note=76, velocity=41, time=96),
    Message('note_off', channel=1, note=76, velocity=0, time=96),
    Message('note_on', channel=1, note=64, velocity=41, time=0),
    Message('note_on', channel=1, note=52, velocity=41, time=0),
    Message('note_off', channel=1, note=52, velocity=0, time=96),
    Message('note_off', channel=1, note=64, velocity=0, time=0),
    Message('note_on', channel=1, note=71, velocity=41, time=96),
    Message('note_on', channel=1, note=59, velocity=41, time=0),
    Message('note_off', channel=1, note=59, velocity=0, time=96),
    Message('note_off', channel=1, note=71, velocity=0, time=0),
    Message('note_on', channel=1, note=64, velocity=41, time=96),
    Message('note_on', channel=1, note=52, velocity=41, time=0),
    Message('note_off', channel=1, note=52, velocity=0, time=96),
    Message('note_off', channel=1, note=64, velocity=0, time=0),
    Message('note_on', channel=1, note=67, velocity=41, time=96),
    Message('note_on', channel=1, note=55, velocity=41, time=0),
    Message('note_off', channel=1, note=55, velocity=0, time=96),
    Message('note_off', channel=1, note=67, velocity=0, time=0),
    Message('note_on', channel=1, note=72, velocity=41, time=0),
    Message('note_on', channel=1, note=60, velocity=41, time=0),
    Message('note_off', channel=1, note=60, velocity=0, time=96),
    Message('note_off', channel=1, note=72, velocity=0, time=0),
    Message('note_on', channel=1, note=71, velocity=41, time=0),
    Message('note_on', channel=1, note=59, velocity=41, time=0),
    Message('note_off', channel=1, note=59, velocity=0, time=96),
    Message('note_off', channel=1, note=71, velocity=0, time=0),
    Message('note_on', channel=1, note=67, velocity=41, time=96),
    Message('note_on', channel=1, note=55, velocity=41, time=0),
    Message('note_off', channel=1, note=55, velocity=0, time=96),
    Message('note_off', channel=1, note=67, velocity=0, time=0),
    Message('note_on', channel=1, note=60, velocity=41, time=96),
    Message('note_on', channel=1, note=48, velocity=41, time=0),
    Message('note_off', channel=1, note=48, velocity=0, time=96),
    Message('note_off', channel=1, note=60, velocity=0, time=0),
    Message('note_on', channel=1, note=71, velocity=41, time=0),
    Message('note_on', channel=1, note=59, velocity=41, time=0),
    Message('note_off', channel=1, note=59, velocity=0, time=96),
    Message('note_off', channel=1, note=71, velocity=0, time=0),
    Message('note_on', channel=1, note=76, velocity=41, time=96),
    Message('note_on', channel=1, note=64, velocity=41, time=0),
    Message('note_off', channel=1, note=64, velocity=0, time=96),
    Message('note_off', channel=1, note=76, velocity=0, time=0),
    Message('note_on', channel=1, note=64, velocity=41, time=0),
    Message('note_on', channel=1, note=52, velocity=41, time=0),
    Message('note_off', channel=1, note=52, velocity=0, time=96),
    Message('note_off', channel=1, note=64, velocity=0, time=0),
    Message('note_on', channel=1, note=71, velocity=41, time=96),
    Message('note_on', channel=1, note=59, velocity=41, time=0),
    Message('note_off', channel=1, note=59, velocity=0, time=96),
    Message('note_off', channel=1, note=71, velocity=0, time=0),
    Message('note_on', channel=1, note=64, velocity=41, time=96),
    Message('note_on', channel=1, note=52, velocity=41, time=0),
    Message('note_off', channel=1, note=52, velocity=0, time=96),
    Message('note_off', channel=1, note=64, velocity=0, time=0),
    Message('note_on', channel=1, note=67, velocity=41, time=96),
    Message('note_on', channel=1, note=55, velocity=41, time=0),
    Message('note_off', channel=1, note=55, velocity=0, time=96),
    Message('note_off', channel=1, note=67, velocity=0, time=0),
    Message('note_on', channel=1, note=72, velocity=41, time=0),
    Message('note_on', channel=1, note=60, velocity=41, time=0),
    Message('note_off', channel=1, note=60, velocity=0, time=96),
    Message('note_off', channel=1, note=72, velocity=0, time=0),
    Message('note_on', channel=1, note=71, velocity=41, time=0),
    Message('note_on', channel=1, note=59, velocity=41, time=0),
    Message('note_off', channel=1, note=59, velocity=0, time=96),
    Message('note_off', channel=1, note=71, velocity=0, time=0),
    Message('note_on', channel=1, note=67, velocity=41, time=96),
    Message('note_on', channel=1, note=55, velocity=41, time=0),
    Message('note_off', channel=1, note=55, velocity=0, time=96),
    Message('note_off', channel=1, note=67, velocity=0, time=0),
    Message('note_on', channel=1, note=64, velocity=41, time=96),
    Message('note_on', channel=1, note=52, velocity=41, time=0),
    Message('note_off', channel=1, note=52, velocity=0, time=96),
    Message('note_off', channel=1, note=64, velocity=0, time=0),
    Message('note_on', channel=1, note=71, velocity=41, time=0),
    Message('note_on', channel=1, note=59, velocity=41, time=0),
    Message('note_off', channel=1, note=59, velocity=0, time=96),
    Message('note_off', channel=1, note=71, velocity=0, time=0),
    Message('note_on', channel=1, note=76, velocity=41, time=96),
    Message('note_on', channel=1, note=64, velocity=41, time=0),
    Message('note_off', channel=1, note=64, velocity=0, time=96),
    Message('note_off', channel=1, note=76, velocity=0, time=0),
    Message('note_on', channel=1, note=64, velocity=41, time=0),
    Message('note_on', channel=1, note=52, velocity=41, time=0),
    Message('note_off', channel=1, note=52, velocity=0, time=96),
    Message('note_off', channel=1, note=64, velocity=0, time=0),
    Message('note_on', channel=1, note=71, velocity=41, time=96),
    Message('note_on', channel=1, note=59, velocity=41, time=0),
    Message('note_off', channel=1, note=59, velocity=0, time=96),
    Message('note_off', channel=1, note=71, velocity=0, time=0),
    Message('note_on', channel=1, note=64, velocity=41, time=96),
    Message('note_on', channel=1, note=52, velocity=41, time=0),
    Message('note_off', channel=1, note=52, velocity=0, time=96),
    Message('note_off', channel=1, note=64, velocity=0, time=0),
    Message('note_on', channel=1, note=67, velocity=41, time=96),
    Message('note_on', channel=1, note=55, velocity=41, time=0),
    Message('note_off', channel=1, note=55, velocity=0, time=96),
    Message('note_off', channel=1, note=67, velocity=0, time=0),
    Message('note_on', channel=1, note=72, velocity=41, time=0),
    Message('note_on', channel=1, note=60, velocity=41, time=0),
    Message('note_off', channel=1, note=60, velocity=0, time=96),
    Message('note_off', channel=1, note=72, velocity=0, time=0),
    Message('note_on', channel=1, note=71, velocity=41, time=0),
    Message('note_on', channel=1, note=59, velocity=41, time=0),
    Message('note_off', channel=1, note=59, velocity=0, time=96),
    Message('note_off', channel=1, note=71, velocity=0, time=0),
    Message('note_on', channel=1, note=67, velocity=41, time=96),
    Message('note_on', channel=1, note=55, velocity=41, time=0),
    Message('note_off', channel=1, note=55, velocity=0, time=96),
    Message('note_off', channel=1, note=67, velocity=0, time=0),
    Message('note_on', channel=1, note=67, velocity=41, time=96),
    Message('note_on', channel=1, note=55, velocity=41, time=0),
    Message('note_off', channel=1, note=55, velocity=0, time=96),
    Message('note_off', channel=1, note=67, velocity=0, time=0),
    Message('note_on', channel=1, note=71, velocity=41, time=0),
    Message('note_on', channel=1, note=59, velocity=41, time=0),
    Message('note_off', channel=1, note=59, velocity=0, time=96),
    Message('note_off', channel=1, note=71, velocity=0, time=0),
    Message('note_on', channel=1, note=76, velocity=41, time=96),
    Message('note_on', channel=1, note=64, velocity=41, time=0),
    Message('note_off', channel=1, note=64, velocity=0, time=96),
    Message('note_off', channel=1, note=76, velocity=0, time=0),
    Message('note_on', channel=1, note=67, velocity=41, time=0),
    Message('note_on', channel=1, note=55, velocity=41, time=0),
    Message('note_off', channel=1, note=55, velocity=0, time=96),
    Message('note_off', channel=1, note=67, velocity=0, time=0),
    Message('note_on', channel=1, note=71, velocity=41, time=96),
    Message('note_on', channel=1, note=59, velocity=41, time=0),
    Message('note_off', channel=1, note=59, velocity=0, time=96),
    Message('note_off', channel=1, note=71, velocity=0, time=0),
    Message('note_on', channel=1, note=67, velocity=41, time=96),
    Message('note_on', channel=1, note=55, velocity=41, time=0),
    Message('note_off', channel=1, note=55, velocity=0, time=96),
    Message('note_off', channel=1, note=67, velocity=0, time=0),
    Message('note_on', channel=1, note=67, velocity=41, time=96),
    Message('note_on', channel=1, note=55, velocity=41, time=0),
    Message('note_off', channel=1, note=55, velocity=0, time=96),
    Message('note_off', channel=1, note=67, velocity=0, time=0),
    Message('note_on', channel=1, note=72, velocity=41, time=0),
    Message('note_on', channel=1, note=60, velocity=41, time=0),
    Message('note_off', channel=1, note=60, velocity=0, time=96),
    Message('note_off', channel=1, note=72, velocity=0, time=0),
    Message('note_on', channel=1, note=71, velocity=41, time=0),
    Message('note_on', channel=1, note=59, velocity=41, time=0),
    Message('note_off', channel=1, note=59, velocity=0, time=96),
    Message('note_off', channel=1, note=71, velocity=0, time=0),
    Message('note_on', channel=1, note=67, velocity=41, time=96),
    Message('note_on', channel=1, note=55, velocity=41, time=0),
    Message('note_off', channel=1, note=55, velocity=0, time=96),
    Message('note_off', channel=1, note=67, velocity=0, time=0),
    Message('note_on', channel=1, note=62, velocity=41, time=96),
    Message('note_on', channel=1, note=50, velocity=41, time=0),
    Message('note_off', channel=1, note=50, velocity=0, time=96),
    Message('note_off', channel=1, note=62, velocity=0, time=0),
    Message('note_on', channel=1, note=71, velocity=41, time=0),
    Message('note_on', channel=1, note=59, velocity=41, time=0),
    Message('note_off', channel=1, note=59, velocity=0, time=96),
    Message('note_off', channel=1, note=71, velocity=0, time=0),
    Message('note_on', channel=1, note=76, velocity=41, time=96),
    Message('note_off', channel=1, note=76, velocity=0, time=96),
    Message('note_on', channel=1, note=62, velocity=41, time=0),
    Message('note_on', channel=1, note=50, velocity=41, time=0),
    Message('note_off', channel=1, note=50, velocity=0, time=96),
    Message('note_off', channel=1, note=62, velocity=0, time=0),
    Message('note_on', channel=1, note=71, velocity=41, time=96),
    Message('note_on', channel=1, note=59, velocity=41, time=0),
    Message('note_off', channel=1, note=59, velocity=0, time=96),
    Message('note_off', channel=1, note=71, velocity=0, time=0),
    Message('note_on', channel=1, note=62, velocity=41, time=96),
    Message('note_on', channel=1, note=50, velocity=41, time=0),
    Message('note_off', channel=1, note=50, velocity=0, time=96),
    Message('note_off', channel=1, note=62, velocity=0, time=0),
    Message('note_on', channel=1, note=67, velocity=41, time=96),
    Message('note_on', channel=1, note=55, velocity=41, time=0),
    Message('note_off', channel=1, note=55, velocity=0, time=96),
    Message('note_off', channel=1, note=67, velocity=0, time=0),
    Message('note_on', channel=1, note=72, velocity=41, time=0),
    Message('note_on', channel=1, note=60, velocity=41, time=0),
    Message('note_off', channel=1, note=60, velocity=0, time=96),
    Message('note_off', channel=1, note=72, velocity=0, time=0),
    Message('note_on', channel=1, note=71, velocity=41, time=0),
    Message('note_on', channel=1, note=59, velocity=41, time=0),
    Message('note_off', channel=1, note=59, velocity=0, time=96),
    Message('note_off', channel=1, note=71, velocity=0, time=0),
    Message('note_on', channel=1, note=67, velocity=41, time=96),
    Message('note_on', channel=1, note=55, velocity=41, time=0),
    Message('note_off', channel=1, note=55, velocity=0, time=96),
    Message('note_off', channel=1, note=67, velocity=0, time=0),
    Message('note_on', channel=1, note=60, velocity=41, time=96),
    Message('note_on', channel=1, note=48, velocity=41, time=0),
    Message('note_off', channel=1, note=48, velocity=0, time=96),
    Message('note_off', channel=1, note=60, velocity=0, time=0),
    Message('note_on', channel=1, note=71, velocity=41, time=0),
    Message('note_on', channel=1, note=59, velocity=41, time=0),
    Message('note_off', channel=1, note=59, velocity=0, time=96),
    Message('note_off', channel=1, note=71, velocity=0, time=0),
    Message('note_on', channel=1, note=76, velocity=41, time=96),
    Message('note_on', channel=1, note=64, velocity=41, time=0),
    Message('note_off', channel=1, note=64, velocity=0, time=96),
    Message('note_off', channel=1, note=76, velocity=0, time=0),
    Message('note_on', channel=1, note=64, velocity=41, time=0),
    Message('note_on', channel=1, note=52, velocity=41, time=0),
    Message('note_off', channel=1, note=52, velocity=0, time=96),
    Message('note_off', channel=1, note=64, velocity=0, time=0),
    Message('note_on', channel=1, note=71, velocity=41, time=96),
    Message('note_on', channel=1, note=59, velocity=41, time=0),
    Message('note_off', channel=1, note=59, velocity=0, time=96),
    Message('note_off', channel=1, note=71, velocity=0, time=0),
    Message('note_on', channel=1, note=64, velocity=41, time=96),
    Message('note_on', channel=1, note=52, velocity=41, time=0),
    Message('note_off', channel=1, note=52, velocity=0, time=96),
    Message('note_off', channel=1, note=64, velocity=0, time=0),
    Message('note_on', channel=1, note=67, velocity=41, time=96),
    Message('note_on', channel=1, note=55, velocity=41, time=0),
    Message('note_off', channel=1, note=55, velocity=0, time=96),
    Message('note_off', channel=1, note=67, velocity=0, time=0),
    Message('note_on', channel=1, note=72, velocity=41, time=0),
    Message('note_on', channel=1, note=60, velocity=41, time=0),
    Message('note_off', channel=1, note=60, velocity=0, time=96),
    Message('note_off', channel=1, note=72, velocity=0, time=0),
    Message('note_on', channel=1, note=71, velocity=41, time=0),
    Message('note_on', channel=1, note=59, velocity=41, time=0),
    Message('note_off', channel=1, note=59, velocity=0, time=96),
    Message('note_off', channel=1, note=71, velocity=0, time=0),
    Message('note_on', channel=1, note=67, velocity=41, time=96),
    Message('note_on', channel=1, note=55, velocity=41, time=0),
    Message('note_off', channel=1, note=55, velocity=0, time=96),
    Message('note_off', channel=1, note=67, velocity=0, time=0),
    Message('note_on', channel=1, note=64, velocity=41, time=96),
    Message('note_on', channel=1, note=52, velocity=41, time=0),
    Message('note_off', channel=1, note=52, velocity=0, time=96),
    Message('note_off', channel=1, note=64, velocity=0, time=0),
    Message('note_on', channel=1, note=71, velocity=41, time=0),
    Message('note_on', channel=1, note=59, velocity=41, time=0),
    Message('note_off', channel=1, note=59, velocity=0, time=96),
    Message('note_off', channel=1, note=71, velocity=0, time=0),
    Message('note_on', channel=1, note=76, velocity=41, time=96),
    Message('note_on', channel=1, note=64, velocity=41, time=0),
    Message('note_off', channel=1, note=64, velocity=0, time=96),
    Message('note_off', channel=1, note=76, velocity=0, time=0),
    Message('note_on', channel=1, note=64, velocity=41, time=0),
    Message('note_on', channel=1, note=52, velocity=41, time=0),
    Message('note_off', channel=1, note=52, velocity=0, time=96),
    Message('note_off', channel=1, note=64, velocity=0, time=0),
    Message('note_on', channel=1, note=71, velocity=41, time=96),
    Message('note_on', channel=1, note=59, velocity=41, time=0),
    Message('note_off', channel=1, note=59, velocity=0, time=96),
    Message('note_off', channel=1, note=71, velocity=0, time=0),
    Message('note_on', channel=1, note=64, velocity=41, time=96),
    Message('note_on', channel=1, note=52, velocity=41, time=0),
    Message('note_off', channel=1, note=52, velocity=0, time=96),
    Message('note_off', channel=1, note=64, velocity=0, time=0),
    Message('note_on', channel=1, note=67, velocity=41, time=96),
    Message('note_on', channel=1, note=55, velocity=41, time=0),
    Message('note_off', channel=1, note=55, velocity=0, time=96),
    Message('note_off', channel=1, note=67, velocity=0, time=0),
    Message('note_on', channel=1, note=72, velocity=41, time=0),
    Message('note_on', channel=1, note=60, velocity=41, time=0),
    Message('note_off', channel=1, note=60, velocity=0, time=96),
    Message('note_off', channel=1, note=72, velocity=0, time=0),
    Message('note_on', channel=1, note=71, velocity=41, time=0),
    Message('note_on', channel=1, note=59, velocity=41, time=0),
    Message('note_off', channel=1, note=59, velocity=0, time=96),
    Message('note_off', channel=1, note=71, velocity=0, time=0),
    Message('note_on', channel=1, note=67, velocity=41, time=96),
    Message('note_on', channel=1, note=55, velocity=41, time=0),
    Message('note_off', channel=1, note=55, velocity=0, time=96),
    Message('note_off', channel=1, note=67, velocity=0, time=0),
    Message('note_on', channel=1, note=67, velocity=41, time=96),
    Message('note_on', channel=1, note=55, velocity=41, time=0),
    Message('note_off', channel=1, note=55, velocity=0, time=96),
    Message('note_off', channel=1, note=67, velocity=0, time=0),
    Message('note_on', channel=1, note=71, velocity=41, time=0),
    Message('note_on', channel=1, note=59, velocity=41, time=0),
    Message('note_off', channel=1, note=59, velocity=0, time=96),
    Message('note_off', channel=1, note=71, velocity=0, time=0),
    Message('note_on', channel=1, note=76, velocity=41, time=96),
    Message('note_on', channel=1, note=64, velocity=41, time=0),
    Message('note_off', channel=1, note=64, velocity=0, time=96),
    Message('note_off', channel=1, note=76, velocity=0, time=0),
    Message('note_on', channel=1, note=67, velocity=41, time=0),
    Message('note_on', channel=1, note=55, velocity=41, time=0),
    Message('note_off', channel=1, note=55, velocity=0, time=96),
    Message('note_off', channel=1, note=67, velocity=0, time=0),
    Message('note_on', channel=1, note=71, velocity=41, time=96),
    Message('note_on', channel=1, note=59, velocity=41, time=0),
    Message('note_off', channel=1, note=59, velocity=0, time=96),
    Message('note_off', channel=1, note=71, velocity=0, time=0),
    Message('note_on', channel=1, note=67, velocity=41, time=96),
    Message('note_on', channel=1, note=55, velocity=41, time=0),
    Message('note_off', channel=1, note=55, velocity=0, time=96),
    Message('note_off', channel=1, note=67, velocity=0, time=0),
    Message('note_on', channel=1, note=67, velocity=41, time=96),
    Message('note_on', channel=1, note=55, velocity=41, time=0),
    Message('note_off', channel=1, note=55, velocity=0, time=96),
    Message('note_off', channel=1, note=67, velocity=0, time=0),
    Message('note_on', channel=1, note=72, velocity=41, time=0),
    Message('note_on', channel=1, note=60, velocity=41, time=0),
    Message('note_off', channel=1, note=60, velocity=0, time=96),
    Message('note_off', channel=1, note=72, velocity=0, time=0),
    Message('note_on', channel=1, note=71, velocity=41, time=0),
    Message('note_on', channel=1, note=59, velocity=41, time=0),
    Message('note_off', channel=1, note=59, velocity=0, time=96),
    Message('note_off', channel=1, note=71, velocity=0, time=0),
    Message('note_on', channel=1, note=67, velocity=41, time=96),
    Message('note_on', channel=1, note=55, velocity=41, time=0),
    Message('note_off', channel=1, note=55, velocity=0, time=96),
    Message('note_off', channel=1, note=67, velocity=0, time=0),
    Message('note_on', channel=1, note=62, velocity=41, time=96),
    Message('note_on', channel=1, note=50, velocity=41, time=0),
    Message('note_off', channel=1, note=50, velocity=0, time=96),
    Message('note_off', channel=1, note=62, velocity=0, time=0),
    Message('note_on', channel=1, note=71, velocity=41, time=0),
    Message('note_on', channel=1, note=59, velocity=41, time=0),
    Message('note_off', channel=1, note=59, velocity=0, time=96),
    Message('note_off', channel=1, note=71, velocity=0, time=0),
    Message('note_on', channel=1, note=76, velocity=41, time=96),
    Message('note_off', channel=1, note=76, velocity=0, time=96),
    Message('note_on', channel=1, note=62, velocity=41, time=0),
    Message('note_on', channel=1, note=50, velocity=41, time=0),
    Message('note_off', channel=1, note=50, velocity=0, time=96),
    Message('note_off', channel=1, note=62, velocity=0, time=0),
    Message('note_on', channel=1, note=71, velocity=41, time=96),
    Message('note_on', channel=1, note=59, velocity=41, time=0),
    Message('note_off', channel=1, note=59, velocity=0, time=96),
    Message('note_off', channel=1, note=71, velocity=0, time=0),
    Message('note_on', channel=1, note=62, velocity=41, time=96),
    Message('note_on', channel=1, note=50, velocity=41, time=0),
    Message('note_off', channel=1, note=50, velocity=0, time=96),
    Message('note_off', channel=1, note=62, velocity=0, time=0),
    Message('note_on', channel=1, note=67, velocity=41, time=96),
    Message('note_on', channel=1, note=55, velocity=41, time=0),
    Message('note_off', channel=1, note=55, velocity=0, time=96),
    Message('note_off', channel=1, note=67, velocity=0, time=0),
    Message('note_on', channel=1, note=72, velocity=41, time=0),
    Message('note_on', channel=1, note=60, velocity=41, time=0),
    Message('note_off', channel=1, note=60, velocity=0, time=96),
    Message('note_off', channel=1, note=72, velocity=0, time=0),
    Message('note_on', channel=1, note=71, velocity=41, time=0),
    Message('note_on', channel=1, note=59, velocity=41, time=0),
    Message('note_off', channel=1, note=59, velocity=0, time=96),
    Message('note_off', channel=1, note=71, velocity=0, time=0),
    Message('note_on', channel=1, note=67, velocity=41, time=96),
    Message('note_on', channel=1, note=55, velocity=41, time=0),
    Message('note_off', channel=1, note=55, velocity=0, time=96),
    Message('note_off', channel=1, note=67, velocity=0, time=0),
    Message('note_on', channel=1, note=60, velocity=41, time=96),
    Message('note_on', channel=1, note=48, velocity=41, time=0),
    Message('note_off', channel=1, note=48, velocity=0, time=96),
    Message('note_off', channel=1, note=60, velocity=0, time=0),
    Message('note_on', channel=1, note=71, velocity=41, time=0),
    Message('note_on', channel=1, note=59, velocity=41, time=0),
    Message('note_off', channel=1, note=59, velocity=0, time=96),
    Message('note_off', channel=1, note=71, velocity=0, time=0),
    Message('note_on', channel=1, note=76, velocity=41, time=96),
    Message('note_on', channel=1, note=64, velocity=41, time=0),
    Message('note_off', channel=1, note=64, velocity=0, time=96),
    Message('note_off', channel=1, note=76, velocity=0, time=0),
    Message('note_on', channel=1, note=64, velocity=41, time=0),
    Message('note_on', channel=1, note=52, velocity=41, time=0),
    Message('note_off', channel=1, note=52, velocity=0, time=96),
    Message('note_off', channel=1, note=64, velocity=0, time=0),
    Message('note_on', channel=1, note=71, velocity=41, time=96),
    Message('note_on', channel=1, note=59, velocity=41, time=0),
    Message('note_off', channel=1, note=59, velocity=0, time=96),
    Message('note_off', channel=1, note=71, velocity=0, time=0),
    Message('note_on', channel=1, note=64, velocity=41, time=96),
    Message('note_on', channel=1, note=52, velocity=41, time=0),
    Message('note_off', channel=1, note=52, velocity=0, time=96),
    Message('note_off', channel=1, note=64, velocity=0, time=0),
    Message('note_on', channel=1, note=67, velocity=41, time=96),
    Message('note_on', channel=1, note=55, velocity=41, time=0),
    Message('note_off', channel=1, note=55, velocity=0, time=96),
    Message('note_off', channel=1, note=67, velocity=0, time=0),
    Message('note_on', channel=1, note=72, velocity=41, time=0),
    Message('note_on', channel=1, note=60, velocity=41, time=0),
    Message('note_off', channel=1, note=60, velocity=0, time=96),
    Message('note_off', channel=1, note=72, velocity=0, time=0),
    Message('note_on', channel=1, note=71, velocity=41, time=0),
    Message('note_on', channel=1, note=59, velocity=41, time=0),
    Message('note_off', channel=1, note=59, velocity=0, time=96),
    Message('note_off', channel=1, note=71, velocity=0, time=0),
    Message('note_on', channel=1, note=67, velocity=41, time=96),
    Message('note_on', channel=1, note=55, velocity=41, time=0),
    Message('note_off', channel=1, note=55, velocity=0, time=96),
    Message('note_off', channel=1, note=67, velocity=0, time=0),
    Message('note_on', channel=1, note=52, velocity=41, time=96),
    Message('note_off', channel=1, note=52, velocity=0, time=96),
    Message('note_on', channel=1, note=59, velocity=41, time=0),
    Message('note_off', channel=1, note=59, velocity=0, time=96),
    Message('note_on', channel=1, note=64, velocity=41, time=96),
    Message('note_off', channel=1, note=64, velocity=0, time=96),
    Message('note_on', channel=1, note=52, velocity=41, time=0),
    Message('note_off', channel=1, note=52, velocity=0, time=96),
    Message('note_on', channel=1, note=59, velocity=41, time=96),
    Message('note_off', channel=1, note=59, velocity=0, time=96),
    Message('note_on', channel=1, note=52, velocity=41, time=96),
    Message('note_off', channel=1, note=52, velocity=0, time=96),
    Message('note_on', channel=1, note=55, velocity=41, time=96),
    Message('note_off', channel=1, note=55, velocity=0, time=96),
    Message('note_on', channel=1, note=60, velocity=41, time=0),
    Message('note_off', channel=1, note=60, velocity=0, time=96),
    Message('note_on', channel=1, note=59, velocity=41, time=0),
    Message('note_off', channel=1, note=59, velocity=0, time=96),
    Message('note_on', channel=1, note=55, velocity=41, time=96),
    Message('note_off', channel=1, note=55, velocity=0, time=96),
    Message('note_on', channel=1, note=84, velocity=41, time=96),
    Message('note_on', channel=1, note=55, velocity=41, time=0),
    Message('note_off', channel=1, note=55, velocity=0, time=96),
    Message('note_on', channel=1, note=59, velocity=41, time=0),
    Message('note_off', channel=1, note=59, velocity=0, time=96),
    Message('note_on', channel=1, note=64, velocity=41, time=96),
    Message('note_off', channel=1, note=64, velocity=0, time=96),
    Message('note_on', channel=1, note=55, velocity=41, time=0),
    Message('note_off', channel=1, note=55, velocity=0, time=96),
    Message('note_on', channel=1, note=59, velocity=41, time=96),
    Message('note_off', channel=1, note=59, velocity=0, time=96),
    Message('note_off', channel=1, note=84, velocity=0, time=0),
    Message('note_on', channel=1, note=86, velocity=41, time=96),
    Message('note_on', channel=1, note=55, velocity=41, time=0),
    Message('note_off', channel=1, note=55, velocity=0, time=96),
    Message('note_on', channel=1, note=55, velocity=41, time=96),
    Message('note_off', channel=1, note=55, velocity=0, time=96),
    Message('note_off', channel=1, note=86, velocity=0, time=0),
    Message('note_on', channel=1, note=60, velocity=41, time=0),
    Message('note_off', channel=1, note=60, velocity=0, time=96),
    Message('note_on', channel=1, note=59, velocity=41, time=0),
    Message('note_off', channel=1, note=59, velocity=0, time=96),
    Message('note_on', channel=1, note=55, velocity=41, time=96),
    Message('note_off', channel=1, note=55, velocity=0, time=96),
    Message('note_on', channel=1, note=50, velocity=41, time=96),
    Message('note_off', channel=1, note=50, velocity=0, time=96),
    Message('note_on', channel=1, note=59, velocity=41, time=0),
    Message('note_off', channel=1, note=59, velocity=0, time=96),
    Message('note_on', channel=1, note=50, velocity=41, time=192),
    Message('note_off', channel=1, note=50, velocity=0, time=96),
    Message('note_on', channel=1, note=59, velocity=41, time=96),
    Message('note_off', channel=1, note=59, velocity=0, time=96),
    Message('note_on', channel=1, note=79, velocity=41, time=96),
    Message('note_on', channel=1, note=50, velocity=41, time=0),
    Message('note_off', channel=1, note=50, velocity=0, time=96),
    Message('note_on', channel=1, note=55, velocity=41, time=96),
    Message('note_off', channel=1, note=55, velocity=0, time=96),
    Message('note_on', channel=1, note=60, velocity=41, time=0),
    Message('note_off', channel=1, note=60, velocity=0, time=96),
    Message('note_on', channel=1, note=59, velocity=41, time=0),
    Message('note_off', channel=1, note=59, velocity=0, time=96),
    Message('note_on', channel=1, note=55, velocity=41, time=96),
    Message('note_off', channel=1, note=55, velocity=0, time=96),
    Message('note_off', channel=1, note=79, velocity=0, time=0),
    Message('note_on', channel=1, note=76, velocity=41, time=96),
    Message('note_on', channel=1, note=48, velocity=41, time=0),
    Message('note_off', channel=1, note=48, velocity=0, time=96),
    Message('note_on', channel=1, note=59, velocity=41, time=0),
    Message('note_off', channel=1, note=59, velocity=0, time=96),
    Message('note_on', channel=1, note=64, velocity=41, time=96),
    Message('note_off', channel=1, note=64, velocity=0, time=96),
    Message('note_on', channel=1, note=52, velocity=41, time=0),
    Message('note_off', channel=1, note=52, velocity=0, time=96),
    Message('note_on', channel=1, note=59, velocity=41, time=96),
    Message('note_off', channel=1, note=59, velocity=0, time=96),
    Message('note_on', channel=1, note=52, velocity=41, time=96),
    Message('note_off', channel=1, note=52, velocity=0, time=96),
    Message('note_off', channel=1, note=76, velocity=0, time=96),
    Message('note_on', channel=1, note=55, velocity=41, time=0),
    Message('note_off', channel=1, note=55, velocity=0, time=96),
    Message('note_on', channel=1, note=60, velocity=41, time=0),
    Message('note_off', channel=1, note=60, velocity=0, time=96),
    Message('note_on', channel=1, note=74, velocity=41, time=0),
    Message('note_on', channel=1, note=59, velocity=41, time=0),
    Message('note_off', channel=1, note=59, velocity=0, time=96),
    Message('note_on', channel=1, note=55, velocity=41, time=96),
    Message('note_off', channel=1, note=55, velocity=0, time=96),
    Message('note_off', channel=1, note=74, velocity=0, time=0),
    Message('note_on', channel=1, note=52, velocity=41, time=96),
    Message('note_off', channel=1, note=52, velocity=0, time=96),
    Message('note_on', channel=1, note=59, velocity=41, time=0),
    Message('note_off', channel=1, note=59, velocity=0, time=96),
    Message('note_on', channel=1, note=64, velocity=41, time=96),
    Message('note_off', channel=1, note=64, velocity=0, time=96),
    Message('note_on', channel=1, note=52, velocity=41, time=0),
    Message('note_off', channel=1, note=52, velocity=0, time=96),
    Message('note_on', channel=1, note=59, velocity=41, time=96),
    Message('note_off', channel=1, note=59, velocity=0, time=96),
    Message('note_on', channel=1, note=52, velocity=41, time=96),
    Message('note_off', channel=1, note=52, velocity=0, time=96),
    Message('note_on', channel=1, note=55, velocity=41, time=96),
    Message('note_off', channel=1, note=55, velocity=0, time=96),
    Message('note_on', channel=1, note=60, velocity=41, time=0),
    Message('note_off', channel=1, note=60, velocity=0, time=96),
    Message('note_on', channel=1, note=59, velocity=41, time=0),
    Message('note_off', channel=1, note=59, velocity=0, time=96),
    Message('note_on', channel=1, note=55, velocity=41, time=96),
    Message('note_off', channel=1, note=55, velocity=0, time=96),
    Message('note_on', channel=1, note=84, velocity=41, time=96),
    Message('note_on', channel=1, note=55, velocity=41, time=0),
    Message('note_off', channel=1, note=55, velocity=0, time=96),
    Message('note_on', channel=1, note=59, velocity=41, time=0),
    Message('note_off', channel=1, note=59, velocity=0, time=96),
    Message('note_on', channel=1, note=64, velocity=41, time=96),
    Message('note_off', channel=1, note=64, velocity=0, time=96),
    Message('note_on', channel=1, note=55, velocity=41, time=0),
    Message('note_off', channel=1, note=55, velocity=0, time=96),
    Message('note_on', channel=1, note=59, velocity=41, time=96),
    Message('note_off', channel=1, note=59, velocity=0, time=96),
    Message('note_off', channel=1, note=84, velocity=0, time=0),
    Message('note_on', channel=1, note=86, velocity=41, time=96),
    Message('note_on', channel=1, note=55, velocity=41, time=0),
    Message('note_off', channel=1, note=55, velocity=0, time=96),
    Message('note_on', channel=1, note=55, velocity=41, time=96),
    Message('note_off', channel=1, note=55, velocity=0, time=96),
    Message('note_off', channel=1, note=86, velocity=0, time=0),
    Message('note_on', channel=1, note=60, velocity=41, time=0),
    Message('note_off', channel=1, note=60, velocity=0, time=96),
    Message('note_on', channel=1, note=59, velocity=41, time=0),
    Message('note_off', channel=1, note=59, velocity=0, time=96),
    Message('note_on', channel=1, note=55, velocity=41, time=96),
    Message('note_off', channel=1, note=55, velocity=0, time=96),
    Message('note_on', channel=1, note=74, velocity=41, time=96),
    Message('note_on', channel=1, note=50, velocity=41, time=0),
    Message('note_off', channel=1, note=50, velocity=0, time=96),
    Message('note_on', channel=1, note=59, velocity=41, time=0),
    Message('note_off', channel=1, note=59, velocity=0, time=96),
    Message('note_on', channel=1, note=50, velocity=41, time=192),
    Message('note_off', channel=1, note=50, velocity=0, time=96),
    Message('note_on', channel=1, note=59, velocity=41, time=96),
    Message('note_off', channel=1, note=59, velocity=0, time=96),
    Message('note_off', channel=1, note=74, velocity=0, time=0),
    Message('note_on', channel=1, note=79, velocity=41, time=96),
    Message('note_on', channel=1, note=50, velocity=41, time=0),
    Message('note_off', channel=1, note=50, velocity=0, time=96),
    Message('note_on', channel=1, note=55, velocity=41, time=96),
    Message('note_off', channel=1, note=55, velocity=0, time=96),
    Message('note_on', channel=1, note=60, velocity=41, time=0),
    Message('note_off', channel=1, note=60, velocity=0, time=96),
    Message('note_on', channel=1, note=59, velocity=41, time=0),
    Message('note_off', channel=1, note=59, velocity=0, time=96),
    Message('note_on', channel=1, note=55, velocity=41, time=96),
    Message('note_off', channel=1, note=55, velocity=0, time=96),
    Message('note_off', channel=1, note=79, velocity=0, time=0),
    Message('note_on', channel=1, note=71, velocity=41, time=96),
    Message('note_on', channel=1, note=76, velocity=41, time=0),
    Message('note_on', channel=1, note=48, velocity=41, time=0),
    Message('note_off', channel=1, note=48, velocity=0, time=96),
    Message('note_on', channel=1, note=59, velocity=41, time=0),
    Message('note_off', channel=1, note=59, velocity=0, time=96),
    Message('note_on', channel=1, note=64, velocity=41, time=96),
    Message('note_off', channel=1, note=64, velocity=0, time=96),
    Message('note_on', channel=1, note=52, velocity=41, time=0),
    Message('note_off', channel=1, note=52, velocity=0, time=96),
    Message('note_on', channel=1, note=59, velocity=41, time=96),
    Message('note_off', channel=1, note=59, velocity=0, time=96),
    Message('note_off', channel=1, note=76, velocity=0, time=0),
    Message('note_off', channel=1, note=71, velocity=0, time=0),
    Message('note_on', channel=1, note=71, velocity=41, time=96),
    Message('note_on', channel=1, note=74, velocity=41, time=0),
    Message('note_on', channel=1, note=52, velocity=41, time=0),
    Message('note_off', channel=1, note=52, velocity=0, time=96),
    Message('note_on', channel=1, note=55, velocity=41, time=96),
    Message('note_off', channel=1, note=55, velocity=0, time=96),
    Message('note_on', channel=1, note=60, velocity=41, time=0),
    Message('note_off', channel=1, note=60, velocity=0, time=96),
    Message('note_on', channel=1, note=59, velocity=41, time=0),
    Message('note_off', channel=1, note=59, velocity=0, time=96),
    Message('note_on', channel=1, note=55, velocity=41, time=96),
    Message('note_off', channel=1, note=55, velocity=0, time=96),
    Message('note_off', channel=1, note=74, velocity=0, time=0),
    Message('note_off', channel=1, note=71, velocity=0, time=0),
    Message('note_on', channel=1, note=71, velocity=41, time=96),
    Message('note_on', channel=1, note=76, velocity=41, time=0),
    Message('note_on', channel=1, note=79, velocity=41, time=0),
    Message('note_on', channel=1, note=52, velocity=41, time=0),
    Message('note_off', channel=1, note=52, velocity=0, time=96),
    Message('note_on', channel=1, note=59, velocity=41, time=0),
    Message('note_off', channel=1, note=59, velocity=0, time=96),
    Message('note_on', channel=1, note=64, velocity=41, time=96),
    Message('note_off', channel=1, note=64, velocity=0, time=96),
    Message('note_on', channel=1, note=52, velocity=41, time=0),
    Message('note_off', channel=1, note=52, velocity=0, time=96),
    Message('note_on', channel=1, note=59, velocity=41, time=96),
    Message('note_off', channel=1, note=59, velocity=0, time=96),
    Message('note_on', channel=1, note=52, velocity=41, time=96),
    Message('note_off', channel=1, note=52, velocity=0, time=96),
    Message('note_off', channel=1, note=79, velocity=0, time=96),
    Message('note_off', channel=1, note=76, velocity=0, time=0),
    Message('note_off', channel=1, note=71, velocity=0, time=0),
    Message('note_on', channel=1, note=55, velocity=41, time=0),
    Message('note_off', channel=1, note=55, velocity=0, time=96),
    Message('note_on', channel=1, note=60, velocity=41, time=0),
    Message('note_off', channel=1, note=60, velocity=0, time=96),
    Message('note_on', channel=1, note=78, velocity=41, time=0),
    Message('note_on', channel=1, note=59, velocity=41, time=0),
    Message('note_off', channel=1, note=59, velocity=0, time=96),
    Message('note_on', channel=1, note=55, velocity=41, time=96),
    Message('note_off', channel=1, note=55, velocity=0, time=96),
    Message('note_off', channel=1, note=78, velocity=0, time=0),
    Message('note_on', channel=1, note=72, velocity=41, time=96),
    Message('note_on', channel=1, note=79, velocity=41, time=0),
    Message('note_on', channel=1, note=84, velocity=41, time=0),
    Message('note_on', channel=1, note=55, velocity=41, time=0),
    Message('note_off', channel=1, note=55, velocity=0, time=96),
    Message('note_on', channel=1, note=59, velocity=41, time=0),
    Message('note_off', channel=1, note=59, velocity=0, time=96),
    Message('note_on', channel=1, note=64, velocity=41, time=96),
    Message('note_off', channel=1, note=64, velocity=0, time=96),
    Message('note_on', channel=1, note=55, velocity=41, time=0),
    Message('note_off', channel=1, note=55, velocity=0, time=96),
    Message('note_on', channel=1, note=59, velocity=41, time=96),
    Message('note_off', channel=1, note=59, velocity=0, time=96),
    Message('note_off', channel=1, note=84, velocity=0, time=0),
    Message('note_off', channel=1, note=79, velocity=0, time=0),
    Message('note_off', channel=1, note=72, velocity=0, time=0),
    Message('note_on', channel=1, note=74, velocity=41, time=96),
    Message('note_on', channel=1, note=86, velocity=41, time=0),
    Message('note_on', channel=1, note=55, velocity=41, time=0),
    Message('note_off', channel=1, note=55, velocity=0, time=96),
    Message('note_on', channel=1, note=55, velocity=41, time=96),
    Message('note_off', channel=1, note=55, velocity=0, time=96),
    Message('note_off', channel=1, note=86, velocity=0, time=0),
    Message('note_off', channel=1, note=74, velocity=0, time=0),
    Message('note_on', channel=1, note=60, velocity=41, time=0),
    Message('note_off', channel=1, note=60, velocity=0, time=96),
    Message('note_on', channel=1, note=79, velocity=41, time=0),
    Message('note_on', channel=1, note=59, velocity=41, time=0),
    Message('note_off', channel=1, note=59, velocity=0, time=96),
    Message('note_on', channel=1, note=55, velocity=41, time=96),
    Message('note_off', channel=1, note=55, velocity=0, time=96),
    Message('note_off', channel=1, note=79, velocity=0, time=0),
    Message('note_on', channel=1, note=50, velocity=41, time=96),
    Message('note_off', channel=1, note=50, velocity=0, time=96),
    Message('note_on', channel=1, note=59, velocity=41, time=0),
    Message('note_off', channel=1, note=59, velocity=0, time=96),
    Message('note_on', channel=1, note=50, velocity=41, time=192),
    Message('note_off', channel=1, note=50, velocity=0, time=96),
    Message('note_on', channel=1, note=59, velocity=41, time=96),
    Message('note_off', channel=1, note=59, velocity=0, time=96),
    Message('note_on', channel=1, note=67, velocity=41, time=96),
    Message('note_on', channel=1, note=76, velocity=41, time=0),
    Message('note_on', channel=1, note=79, velocity=41, time=0),
    Message('note_on', channel=1, note=50, velocity=41, time=0),
    Message('note_off', channel=1, note=50, velocity=0, time=96),
    Message('note_on', channel=1, note=55, velocity=41, time=96),
    Message('note_off', channel=1, note=55, velocity=0, time=96),
    Message('note_on', channel=1, note=60, velocity=41, time=0),
    Message('note_off', channel=1, note=60, velocity=0, time=96),
    Message('note_on', channel=1, note=59, velocity=41, time=0),
    Message('note_off', channel=1, note=59, velocity=0, time=96),
    Message('note_on', channel=1, note=55, velocity=41, time=96),
    Message('note_off', channel=1, note=55, velocity=0, time=96),
    Message('note_off', channel=1, note=79, velocity=0, time=0),
    Message('note_off', channel=1, note=76, velocity=0, time=0),
    Message('note_off', channel=1, note=67, velocity=0, time=0),
    Message('note_on', channel=1, note=64, velocity=41, time=96),
    Message('note_on', channel=1, note=67, velocity=41, time=0),
    Message('note_on', channel=1, note=76, velocity=41, time=0),
    Message('note_on', channel=1, note=48, velocity=41, time=0),
    Message('note_off', channel=1, note=48, velocity=0, time=96),
    Message('note_on', channel=1, note=59, velocity=41, time=0),
    Message('note_off', channel=1, note=59, velocity=0, time=96),
    Message('note_on', channel=1, note=64, velocity=41, time=96),
    Message('note_off', channel=1, note=64, velocity=0, time=96),
    Message('note_on', channel=1, note=52, velocity=41, time=0),
    Message('note_off', channel=1, note=52, velocity=0, time=96),
    Message('note_on', channel=1, note=59, velocity=41, time=96),
    Message('note_off', channel=1, note=59, velocity=0, time=96),
    Message('note_off', channel=1, note=76, velocity=0, time=0),
    Message('note_off', channel=1, note=67, velocity=0, time=0),
    Message('note_off', channel=1, note=64, velocity=0, time=0),
    Message('note_on', channel=1, note=67, velocity=41, time=96),
    Message('note_on', channel=1, note=74, velocity=41, time=0),
    Message('note_on', channel=1, note=52, velocity=41, time=0),
    Message('note_off', channel=1, note=52, velocity=0, time=96),
    Message('note_on', channel=1, note=55, velocity=41, time=96),
    Message('note_off', channel=1, note=55, velocity=0, time=96),
    Message('note_on', channel=1, note=60, velocity=41, time=0),
    Message('note_off', channel=1, note=60, velocity=0, time=96),
    Message('note_on', channel=1, note=59, velocity=41, time=0),
    Message('note_off', channel=1, note=59, velocity=0, time=96),
    Message('note_on', channel=1, note=55, velocity=41, time=96),
    Message('note_off', channel=1, note=55, velocity=0, time=96),
    Message('note_off', channel=1, note=74, velocity=0, time=0),
    Message('note_off', channel=1, note=67, velocity=0, time=0),
    Message('note_on', channel=1, note=71, velocity=41, time=96),
    Message('note_on', channel=1, note=76, velocity=41, time=0),
    Message('note_on', channel=1, note=79, velocity=41, time=0),
    Message('note_on', channel=1, note=52, velocity=41, time=0),
    Message('note_off', channel=1, note=52, velocity=0, time=96),
    Message('note_on', channel=1, note=59, velocity=41, time=0),
    Message('note_off', channel=1, note=59, velocity=0, time=96),
    Message('note_on', channel=1, note=64, velocity=41, time=96),
    Message('note_off', channel=1, note=64, velocity=0, time=96),
    Message('note_on', channel=1, note=52, velocity=41, time=0),
    Message('note_off', channel=1, note=52, velocity=0, time=96),
    Message('note_on', channel=1, note=59, velocity=41, time=96),
    Message('note_off', channel=1, note=59, velocity=0, time=96),
    Message('note_on', channel=1, note=52, velocity=41, time=96),
    Message('note_off', channel=1, note=52, velocity=0, time=96),
    Message('note_off', channel=1, note=79, velocity=0, time=96),
    Message('note_off', channel=1, note=76, velocity=0, time=0),
    Message('note_off', channel=1, note=71, velocity=0, time=0),
    Message('note_on', channel=1, note=55, velocity=41, time=0),
    Message('note_off', channel=1, note=55, velocity=0, time=96),
    Message('note_on', channel=1, note=60, velocity=41, time=0),
    Message('note_off', channel=1, note=60, velocity=0, time=96),
    Message('note_on', channel=1, note=66, velocity=41, time=0),
    Message('note_on', channel=1, note=78, velocity=41, time=0),
    Message('note_on', channel=1, note=59, velocity=41, time=0),
    Message('note_off', channel=1, note=59, velocity=0, time=96),
    Message('note_off', channel=1, note=78, velocity=0, time=0),
    Message('note_off', channel=1, note=66, velocity=0, time=0),
    Message('note_on', channel=1, note=55, velocity=41, time=96),
    Message('note_off', channel=1, note=55, velocity=0, time=96),
    Message('note_on', channel=1, note=72, velocity=41, time=96),
    Message('note_on', channel=1, note=79, velocity=41, time=0),
    Message('note_on', channel=1, note=84, velocity=41, time=0),
    Message('note_on', channel=1, note=55, velocity=41, time=0),
    Message('note_off', channel=1, note=55, velocity=0, time=96),
    Message('note_on', channel=1, note=59, velocity=41, time=0),
    Message('note_off', channel=1, note=59, velocity=0, time=96),
    Message('note_on', channel=1, note=64, velocity=41, time=96),
    Message('note_off', channel=1, note=64, velocity=0, time=96),
    Message('note_on', channel=1, note=55, velocity=41, time=0),
    Message('note_off', channel=1, note=55, velocity=0, time=96),
    Message('note_on', channel=1, note=59, velocity=41, time=96),
    Message('note_off', channel=1, note=59, velocity=0, time=96),
    Message('note_off', channel=1, note=84, velocity=0, time=0),
    Message('note_off', channel=1, note=79, velocity=0, time=0),
    Message('note_off', channel=1, note=72, velocity=0, time=0),
    Message('note_on', channel=1, note=74, velocity=41, time=96),
    Message('note_on', channel=1, note=86, velocity=41, time=0),
    Message('note_on', channel=1, note=55, velocity=41, time=0),
    Message('note_off', channel=1, note=55, velocity=0, time=96),
    Message('note_on', channel=1, note=55, velocity=41, time=96),
    Message('note_off', channel=1, note=55, velocity=0, time=96),
    Message('note_off', channel=1, note=86, velocity=0, time=0),
    Message('note_off', channel=1, note=74, velocity=0, time=0),
    Message('note_on', channel=1, note=60, velocity=41, time=0),
    Message('note_off', channel=1, note=60, velocity=0, time=96),
    Message('note_on', channel=1, note=79, velocity=41, time=0),
    Message('note_on', channel=1, note=59, velocity=41, time=0),
    Message('note_off', channel=1, note=59, velocity=0, time=96),
    Message('note_on', channel=1, note=55, velocity=41, time=96),
    Message('note_off', channel=1, note=55, velocity=0, time=96),
    Message('note_off', channel=1, note=79, velocity=0, time=0),
    Message('note_on', channel=1, note=69, velocity=41, time=96),
    Message('note_on', channel=1, note=74, velocity=41, time=0),
    Message('note_on', channel=1, note=78, velocity=41, time=0),
    Message('note_on', channel=1, note=50, velocity=41, time=0),
    Message('note_off', channel=1, note=50, velocity=0, time=96),
    Message('note_on', channel=1, note=59, velocity=41, time=0),
    Message('note_off', channel=1, note=59, velocity=0, time=96),
    Message('note_on', channel=1, note=50, velocity=41, time=192),
    Message('note_off', channel=1, note=50, velocity=0, time=96),
    Message('note_on', channel=1, note=59, velocity=41, time=96),
    Message('note_off', channel=1, note=59, velocity=0, time=96),
    Message('note_off', channel=1, note=78, velocity=0, time=0),
    Message('note_off', channel=1, note=74, velocity=0, time=0),
    Message('note_off', channel=1, note=69, velocity=0, time=0),
    Message('note_on', channel=1, note=67, velocity=41, time=96),
    Message('note_on', channel=1, note=74, velocity=41, time=0),
    Message('note_on', channel=1, note=50, velocity=41, time=0),
    Message('note_off', channel=1, note=50, velocity=0, time=96),
    Message('note_on', channel=1, note=55, velocity=41, time=96),
    Message('note_off', channel=1, note=55, velocity=0, time=96),
    Message('note_on', channel=1, note=60, velocity=41, time=0),
    Message('note_off', channel=1, note=60, velocity=0, time=96),
    Message('note_on', channel=1, note=59, velocity=41, time=0),
    Message('note_off', channel=1, note=59, velocity=0, time=96),
    Message('note_on', channel=1, note=55, velocity=41, time=96),
    Message('note_off', channel=1, note=55, velocity=0, time=96),
    Message('note_off', channel=1, note=74, velocity=0, time=0),
    Message('note_off', channel=1, note=67, velocity=0, time=0),
    Message('note_on', channel=1, note=59, velocity=41, time=96),
    Message('note_on', channel=1, note=64, velocity=41, time=0),
    Message('note_on', channel=1, note=67, velocity=41, time=0),
    Message('note_on', channel=1, note=71, velocity=41, time=0),
    Message('note_on', channel=1, note=48, velocity=41, time=0),
    Message('note_off', channel=1, note=48, velocity=0, time=96),
    Message('note_on', channel=1, note=59, velocity=41, time=0),
    Message('note_off', channel=1, note=59, velocity=0, time=96),
    Message('note_on', channel=1, note=64, velocity=41, time=96),
    Message('note_off', channel=1, note=64, velocity=0, time=96),
    Message('note_on', channel=1, note=52, velocity=41, time=0),
    Message('note_off', channel=1, note=52, velocity=0, time=96),
    Message('note_on', channel=1, note=59, velocity=41, time=96),
    Message('note_off', channel=1, note=59, velocity=0, time=96),
    Message('note_off', channel=1, note=71, velocity=0, time=0),
    Message('note_off', channel=1, note=67, velocity=0, time=0),
    Message('note_off', channel=1, note=64, velocity=0, time=0),
    Message('note_off', channel=1, note=59, velocity=0, time=0),
    Message('note_on', channel=1, note=60, velocity=41, time=96),
    Message('note_on', channel=1, note=64, velocity=41, time=0),
    Message('note_on', channel=1, note=69, velocity=41, time=0),
    Message('note_on', channel=1, note=52, velocity=41, time=0),
    Message('note_off', channel=1, note=52, velocity=0, time=96),
    Message('note_on', channel=1, note=55, velocity=41, time=96),
    Message('note_off', channel=1, note=55, velocity=0, time=96),
    Message('note_on', channel=1, note=60, velocity=41, time=0),
    Message('note_off', channel=1, note=60, velocity=0, time=96),
    Message('note_on', channel=1, note=59, velocity=41, time=0),
    Message('note_off', channel=1, note=59, velocity=0, time=96),
    Message('note_on', channel=1, note=55, velocity=41, time=96),
    Message('note_off', channel=1, note=55, velocity=0, time=96),
    Message('note_off', channel=1, note=69, velocity=0, time=0),
    Message('note_off', channel=1, note=64, velocity=0, time=0),
    Message('note_off', channel=1, note=60, velocity=0, time=0),
    Message('note_on', channel=1, note=52, velocity=41, time=96),
    Message('note_off', channel=1, note=52, velocity=0, time=96),
    Message('note_on', channel=1, note=59, velocity=41, time=0),
    Message('note_off', channel=1, note=59, velocity=0, time=96),
    Message('note_on', channel=1, note=64, velocity=41, time=96),
    Message('note_off', channel=1, note=64, velocity=0, time=96),
    Message('note_on', channel=1, note=52, velocity=41, time=0),
    Message('note_off', channel=1, note=52, velocity=0, time=96),
    Message('note_on', channel=1, note=59, velocity=41, time=96),
    Message('note_off', channel=1, note=59, velocity=0, time=96),
    Message('note_on', channel=1, note=52, velocity=41, time=96),
    Message('note_off', channel=1, note=52, velocity=0, time=96),
    Message('note_on', channel=1, note=55, velocity=41, time=96),
    Message('note_off', channel=1, note=55, velocity=0, time=96),
    Message('note_on', channel=1, note=60, velocity=41, time=0),
    Message('note_off', channel=1, note=60, velocity=0, time=96),
    Message('note_on', channel=1, note=59, velocity=41, time=0),
    Message('note_off', channel=1, note=59, velocity=0, time=96),
    Message('note_on', channel=1, note=55, velocity=41, time=96),
    Message('note_off', channel=1, note=55, velocity=0, time=96),
    Message('note_on', channel=1, note=55, velocity=41, time=96),
    Message('note_off', channel=1, note=55, velocity=0, time=96),
    Message('note_on', channel=1, note=59, velocity=41, time=0),
    Message('note_off', channel=1, note=59, velocity=0, time=96),
    Message('note_on', channel=1, note=64, velocity=41, time=96),
    Message('note_off', channel=1, note=64, velocity=0, time=96),
    Message('note_on', channel=1, note=55, velocity=41, time=0),
    Message('note_off', channel=1, note=55, velocity=0, time=96),
    Message('note_on', channel=1, note=59, velocity=41, time=96),
    Message('note_off', channel=1, note=59, velocity=0, time=96),
    Message('note_on', channel=1, note=55, velocity=41, time=96),
    Message('note_off', channel=1, note=55, velocity=0, time=96),
    Message('note_on', channel=1, note=55, velocity=41, time=96),
    Message('note_off', channel=1, note=55, velocity=0, time=96),
    Message('note_on', channel=1, note=60, velocity=41, time=0),
    Message('note_off', channel=1, note=60, velocity=0, time=96),
    Message('note_on', channel=1, note=59, velocity=41, time=0),
    Message('note_off', channel=1, note=59, velocity=0, time=96),
    Message('note_on', channel=1, note=55, velocity=41, time=96),
    Message('note_off', channel=1, note=55, velocity=0, time=96),
    Message('note_on', channel=1, note=50, velocity=41, time=96),
    Message('note_off', channel=1, note=50, velocity=0, time=96),
    Message('note_on', channel=1, note=59, velocity=41, time=0),
    Message('note_off', channel=1, note=59, velocity=0, time=96),
    Message('note_on', channel=1, note=50, velocity=41, time=192),
    Message('note_off', channel=1, note=50, velocity=0, time=96),
    Message('note_on', channel=1, note=59, velocity=41, time=96),
    Message('note_off', channel=1, note=59, velocity=0, time=96),
    Message('note_on', channel=1, note=50, velocity=41, time=96),
    Message('note_off', channel=1, note=50, velocity=0, time=96),
    Message('note_on', channel=1, note=55, velocity=41, time=96),
    Message('note_off', channel=1, note=55, velocity=0, time=96),
    Message('note_on', channel=1, note=60, velocity=41, time=0),
    Message('note_off', channel=1, note=60, velocity=0, time=96),
    Message('note_on', channel=1, note=59, velocity=41, time=0),
    Message('note_off', channel=1, note=59, velocity=0, time=96),
    Message('note_on', channel=1, note=55, velocity=41, time=96),
    Message('note_off', channel=1, note=55, velocity=0, time=96),
    Message('note_on', channel=1, note=48, velocity=41, time=96),
    Message('note_off', channel=1, note=48, velocity=0, time=96),
    Message('note_on', channel=1, note=59, velocity=41, time=0),
    Message('note_off', channel=1, note=59, velocity=0, time=96),
    Message('note_on', channel=1, note=64, velocity=41, time=96),
    Message('note_off', channel=1, note=64, velocity=0, time=96),
    Message('note_on', channel=1, note=52, velocity=41, time=0),
    Message('note_off', channel=1, note=52, velocity=0, time=96),
    Message('note_on', channel=1, note=59, velocity=41, time=96),
    Message('note_off', channel=1, note=59, velocity=0, time=96),
    Message('note_on', channel=1, note=52, velocity=41, time=96),
    Message('note_off', channel=1, note=52, velocity=0, time=96),
    Message('note_on', channel=1, note=55, velocity=41, time=96),
    Message('note_off', channel=1, note=55, velocity=0, time=96),
    Message('note_on', channel=1, note=60, velocity=41, time=0),
    Message('note_off', channel=1, note=60, velocity=0, time=96),
    Message('note_on', channel=1, note=59, velocity=41, time=0),
    Message('note_off', channel=1, note=59, velocity=0, time=96),
    Message('note_on', channel=1, note=55, velocity=41, time=96),
    Message('note_off', channel=1, note=55, velocity=0, time=96),
    Message('note_on', channel=1, note=52, velocity=41, time=96),
    Message('note_off', channel=1, note=52, velocity=0, time=96),
    Message('note_on', channel=1, note=59, velocity=41, time=0),
    Message('note_off', channel=1, note=59, velocity=0, time=96),
    Message('note_on', channel=1, note=64, velocity=41, time=96),
    Message('note_off', channel=1, note=64, velocity=0, time=96),
    Message('note_on', channel=1, note=52, velocity=41, time=0),
    Message('note_off', channel=1, note=52, velocity=0, time=96),
    Message('note_on', channel=1, note=59, velocity=41, time=96),
    Message('note_off', channel=1, note=59, velocity=0, time=96),
    Message('note_on', channel=1, note=52, velocity=41, time=96),
    Message('note_off', channel=1, note=52, velocity=0, time=96),
    Message('note_on', channel=1, note=55, velocity=41, time=96),
    Message('note_off', channel=1, note=55, velocity=0, time=96),
    Message('note_on', channel=1, note=60, velocity=41, time=0),
    Message('note_off', channel=1, note=60, velocity=0, time=96),
    Message('note_on', channel=1, note=59, velocity=41, time=0),
    Message('note_off', channel=1, note=59, velocity=0, time=96),
    Message('note_on', channel=1, note=55, velocity=41, time=96),
    Message('note_off', channel=1, note=55, velocity=0, time=96),
    Message('note_on', channel=1, note=55, velocity=41, time=96),
    Message('note_off', channel=1, note=55, velocity=0, time=96),
    Message('note_on', channel=1, note=59, velocity=41, time=0),
    Message('note_off', channel=1, note=59, velocity=0, time=96),
    Message('note_on', channel=1, note=64, velocity=41, time=96),
    Message('note_off', channel=1, note=64, velocity=0, time=96),
    Message('note_on', channel=1, note=55, velocity=41, time=0),
    Message('note_off', channel=1, note=55, velocity=0, time=96),
    Message('note_on', channel=1, note=59, velocity=41, time=96),
    Message('note_off', channel=1, note=59, velocity=0, time=96),
    Message('note_on', channel=1, note=55, velocity=41, time=96),
    Message('note_off', channel=1, note=55, velocity=0, time=96),
    Message('note_on', channel=1, note=55, velocity=41, time=96),
    Message('note_off', channel=1, note=55, velocity=0, time=96),
    Message('note_on', channel=1, note=60, velocity=41, time=0),
    Message('note_off', channel=1, note=60, velocity=0, time=96),
    Message('note_on', channel=1, note=59, velocity=41, time=0),
    Message('note_off', channel=1, note=59, velocity=0, time=96),
    Message('note_on', channel=1, note=55, velocity=41, time=96),
    Message('note_off', channel=1, note=55, velocity=0, time=96),
    Message('note_on', channel=1, note=50, velocity=41, time=96),
    Message('note_off', channel=1, note=50, velocity=0, time=96),
    Message('note_on', channel=1, note=59, velocity=41, time=0),
    Message('note_off', channel=1, note=59, velocity=0, time=96),
    Message('note_on', channel=1, note=50, velocity=41, time=192),
    Message('note_off', channel=1, note=50, velocity=0, time=96),
    Message('note_on', channel=1, note=59, velocity=41, time=96),
    Message('note_off', channel=1, note=59, velocity=0, time=96),
    Message('note_on', channel=1, note=50, velocity=41, time=96),
    Message('note_off', channel=1, note=50, velocity=0, time=96),
    Message('note_on', channel=1, note=55, velocity=41, time=96),
    Message('note_off', channel=1, note=55, velocity=0, time=96),
    Message('note_on', channel=1, note=60, velocity=41, time=0),
    Message('note_off', channel=1, note=60, velocity=0, time=96),
    Message('note_on', channel=1, note=59, velocity=41, time=0),
    Message('note_off', channel=1, note=59, velocity=0, time=96),
    Message('note_on', channel=1, note=55, velocity=41, time=96),
    Message('note_off', channel=1, note=55, velocity=0, time=96),
    Message('note_on', channel=1, note=48, velocity=41, time=96),
    Message('note_off', channel=1, note=48, velocity=0, time=96),
    Message('note_on', channel=1, note=59, velocity=41, time=0),
    Message('note_off', channel=1, note=59, velocity=0, time=96),
    Message('note_on', channel=1, note=64, velocity=41, time=96),
    Message('note_off', channel=1, note=64, velocity=0, time=96),
    Message('note_on', channel=1, note=52, velocity=41, time=0),
    Message('note_off', channel=1, note=52, velocity=0, time=96),
    Message('note_on', channel=1, note=59, velocity=41, time=96),
    Message('note_off', channel=1, note=59, velocity=0, time=96),
    Message('note_on', channel=1, note=52, velocity=41, time=96),
    Message('note_off', channel=1, note=52, velocity=0, time=96),
    Message('note_on', channel=1, note=55, velocity=41, time=96),
    Message('note_off', channel=1, note=55, velocity=0, time=96),
    Message('note_on', channel=1, note=60, velocity=41, time=0),
    Message('note_off', channel=1, note=60, velocity=0, time=96),
    Message('note_on', channel=1, note=59, velocity=41, time=0),
    Message('note_off', channel=1, note=59, velocity=0, time=96),
    Message('note_on', channel=1, note=55, velocity=41, time=96),
    Message('note_off', channel=1, note=55, velocity=0, time=96),
    Message('note_on', channel=1, note=52, velocity=41, time=96),
    Message('note_off', channel=1, note=52, velocity=0, time=96),
    Message('note_on', channel=1, note=59, velocity=41, time=0),
    Message('note_off', channel=1, note=59, velocity=0, time=96),
    Message('note_on', channel=1, note=64, velocity=41, time=96),
    Message('note_off', channel=1, note=64, velocity=0, time=96),
    Message('note_on', channel=1, note=52, velocity=41, time=0),
    Message('note_off', channel=1, note=52, velocity=0, time=96),
    Message('note_on', channel=1, note=59, velocity=41, time=96),
    Message('note_off', channel=1, note=59, velocity=0, time=96),
    Message('note_on', channel=1, note=52, velocity=41, time=96),
    Message('note_off', channel=1, note=52, velocity=0, time=96),
    Message('note_on', channel=1, note=55, velocity=41, time=96),
    Message('note_off', channel=1, note=55, velocity=0, time=96),
    Message('note_on', channel=1, note=60, velocity=41, time=0),
    Message('note_off', channel=1, note=60, velocity=0, time=96),
    Message('note_on', channel=1, note=59, velocity=41, time=0),
    Message('note_off', channel=1, note=59, velocity=0, time=96),
    Message('note_on', channel=1, note=55, velocity=41, time=96),
    Message('note_off', channel=1, note=55, velocity=0, time=96),
    Message('note_on', channel=1, note=55, velocity=41, time=96),
    Message('note_off', channel=1, note=55, velocity=0, time=96),
    Message('note_on', channel=1, note=59, velocity=41, time=0),
    Message('note_off', channel=1, note=59, velocity=0, time=96),
    Message('note_on', channel=1, note=64, velocity=41, time=96),
    Message('note_off', channel=1, note=64, velocity=0, time=96),
    Message('note_on', channel=1, note=55, velocity=41, time=0),
    Message('note_off', channel=1, note=55, velocity=0, time=96),
    Message('note_on', channel=1, note=59, velocity=41, time=96),
    Message('note_off', channel=1, note=59, velocity=0, time=96),
    Message('note_on', channel=1, note=55, velocity=41, time=96),
    Message('note_off', channel=1, note=55, velocity=0, time=96),
    Message('note_on', channel=1, note=55, velocity=41, time=96),
    Message('note_off', channel=1, note=55, velocity=0, time=96),
    Message('note_on', channel=1, note=60, velocity=41, time=0),
    Message('note_off', channel=1, note=60, velocity=0, time=96),
    Message('note_on', channel=1, note=59, velocity=41, time=0),
    Message('note_off', channel=1, note=59, velocity=0, time=96),
    Message('note_on', channel=1, note=55, velocity=41, time=96),
    Message('note_off', channel=1, note=55, velocity=0, time=96),
    Message('note_on', channel=1, note=50, velocity=41, time=96),
    Message('note_off', channel=1, note=50, velocity=0, time=96),
    Message('note_on', channel=1, note=59, velocity=41, time=0),
    Message('note_off', channel=1, note=59, velocity=0, time=96),
    Message('note_on', channel=1, note=50, velocity=41, time=192),
    Message('note_off', channel=1, note=50, velocity=0, time=96),
    Message('note_on', channel=1, note=59, velocity=41, time=96),
    Message('note_off', channel=1, note=59, velocity=0, time=96),
    Message('note_on', channel=1, note=50, velocity=41, time=96),
    Message('note_off', channel=1, note=50, velocity=0, time=96),
    Message('note_on', channel=1, note=55, velocity=41, time=96),
    Message('note_off', channel=1, note=55, velocity=0, time=96),
    Message('note_on', channel=1, note=60, velocity=41, time=0),
    Message('note_off', channel=1, note=60, velocity=0, time=96),
    Message('note_on', channel=1, note=59, velocity=41, time=0),
    Message('note_off', channel=1, note=59, velocity=0, time=96),
    Message('note_on', channel=1, note=55, velocity=41, time=96),
    Message('note_off', channel=1, note=55, velocity=0, time=96),
    Message('note_on', channel=1, note=48, velocity=41, time=96),
    Message('note_off', channel=1, note=48, velocity=0, time=96),
    Message('note_on', channel=1, note=59, velocity=41, time=0),
    Message('note_off', channel=1, note=59, velocity=0, time=96),
    Message('note_on', channel=1, note=64, velocity=41, time=96),
    Message('note_off', channel=1, note=64, velocity=0, time=96),
    Message('note_on', channel=1, note=52, velocity=41, time=0),
    Message('note_off', channel=1, note=52, velocity=0, time=96),
    Message('note_on', channel=1, note=59, velocity=41, time=96),
    Message('note_off', channel=1, note=59, velocity=0, time=96),
    Message('note_on', channel=1, note=52, velocity=41, time=96),
    Message('note_off', channel=1, note=52, velocity=0, time=96),
    Message('note_on', channel=1, note=55, velocity=41, time=96),
    Message('note_off', channel=1, note=55, velocity=0, time=96),
    Message('note_on', channel=1, note=60, velocity=41, time=0),
    Message('note_off', channel=1, note=60, velocity=0, time=96),
    Message('note_on', channel=1, note=59, velocity=41, time=0),
    Message('note_off', channel=1, note=59, velocity=0, time=96),
    Message('note_on', channel=1, note=55, velocity=41, time=96),
    Message('note_off', channel=1, note=55, velocity=0, time=96),
    Message('note_on', channel=1, note=48, velocity=41, time=96),
    Message('note_off', channel=1, note=48, velocity=0, time=2784),
    MetaMessage('end_of_track', time=0)]),
  MidiTrack([
    MetaMessage('track_name', name='8-Bit Square', time=0),
    Message('program_change', channel=2, program=80, time=0),
    Message('note_on', channel=2, note=28, velocity=11, time=116736),
    Message('note_off', channel=2, note=28, velocity=0, time=1536),
    Message('note_on', channel=2, note=31, velocity=11, time=0),
    Message('note_off', channel=2, note=31, velocity=0, time=1536),
    Message('note_on', channel=2, note=26, velocity=11, time=0),
    Message('note_off', channel=2, note=26, velocity=0, time=1536),
    Message('note_on', channel=2, note=24, velocity=11, time=0),
    Message('note_off', channel=2, note=24, velocity=0, time=1536),
    Message('note_on', channel=2, note=28, velocity=11, time=0),
    Message('note_off', channel=2, note=28, velocity=0, time=1536),
    Message('note_on', channel=2, note=31, velocity=11, time=0),
    Message('note_off', channel=2, note=31, velocity=0, time=1536),
    Message('note_on', channel=2, note=26, velocity=11, time=0),
    Message('note_off', channel=2, note=26, velocity=0, time=1536),
    Message('note_on', channel=2, note=24, velocity=11, time=0),
    Message('note_off', channel=2, note=24, velocity=0, time=1536),
    Message('note_on', channel=2, note=28, velocity=11, time=0),
    Message('note_off', channel=2, note=28, velocity=0, time=1536),
    Message('note_on', channel=2, note=31, velocity=11, time=0),
    Message('note_off', channel=2, note=31, velocity=0, time=1536),
    Message('note_on', channel=2, note=26, velocity=11, time=0),
    Message('note_off', channel=2, note=26, velocity=0, time=1536),
    Message('note_on', channel=2, note=24, velocity=11, time=0),
    Message('note_off', channel=2, note=24, velocity=0, time=1536),
    Message('note_on', channel=2, note=28, velocity=11, time=0),
    Message('note_off', channel=2, note=28, velocity=0, time=1536),
    Message('note_on', channel=2, note=31, velocity=11, time=0),
    Message('note_off', channel=2, note=31, velocity=0, time=1536),
    Message('note_on', channel=2, note=26, velocity=11, time=0),
    Message('note_off', channel=2, note=26, velocity=0, time=1536),
    Message('note_on', channel=2, note=24, velocity=11, time=0),
    Message('note_off', channel=2, note=24, velocity=0, time=1536),
    Message('note_on', channel=2, note=28, velocity=11, time=0),
    Message('note_off', channel=2, note=28, velocity=0, time=1536),
    Message('note_on', channel=2, note=31, velocity=11, time=0),
    Message('note_off', channel=2, note=31, velocity=0, time=1536),
    Message('note_on', channel=2, note=26, velocity=11, time=0),
    Message('note_off', channel=2, note=26, velocity=0, time=1536),
    Message('note_on', channel=2, note=24, velocity=11, time=0),
    Message('note_off', channel=2, note=24, velocity=0, time=1536),
    Message('note_on', channel=2, note=28, velocity=11, time=0),
    Message('note_off', channel=2, note=28, velocity=0, time=1536),
    Message('note_on', channel=2, note=31, velocity=11, time=0),
    Message('note_off', channel=2, note=31, velocity=0, time=1536),
    Message('note_on', channel=2, note=26, velocity=11, time=0),
    Message('note_off', channel=2, note=26, velocity=0, time=1536),
    Message('note_on', channel=2, note=24, velocity=11, time=0),
    Message('note_off', channel=2, note=24, velocity=0, time=1536),
    MetaMessage('end_of_track', time=0)]),
  MidiTrack([
    MetaMessage('track_name', name='Smooth Synth (Classic)', time=0),
    Message('program_change', channel=3, program=80, time=0),
    Message('note_on', channel=3, note=28, velocity=35, time=116736),
    Message('note_on', channel=3, note=40, velocity=35, time=0),
    Message('note_off', channel=3, note=40, velocity=0, time=96),
    Message('note_off', channel=3, note=28, velocity=0, time=0),
    Message('note_on', channel=3, note=28, velocity=35, time=0),
    Message('note_on', channel=3, note=40, velocity=35, time=0),
    Message('note_off', channel=3, note=40, velocity=0, time=96),
    Message('note_off', channel=3, note=28, velocity=0, time=0),
    Message('note_on', channel=3, note=28, velocity=35, time=0),
    Message('note_on', channel=3, note=40, velocity=35, time=0),
    Message('note_off', channel=3, note=40, velocity=0, time=96),
    Message('note_off', channel=3, note=28, velocity=0, time=0),
    Message('note_on', channel=3, note=28, velocity=35, time=0),
    Message('note_on', channel=3, note=40, velocity=35, time=0),
    Message('note_off', channel=3, note=40, velocity=0, time=96),
    Message('note_off', channel=3, note=28, velocity=0, time=0),
    Message('note_on', channel=3, note=28, velocity=35, time=0),
    Message('note_on', channel=3, note=40, velocity=35, time=0),
    Message('note_off', channel=3, note=40, velocity=0, time=96),
    Message('note_off', channel=3, note=28, velocity=0, time=0),
    Message('note_on', channel=3, note=28, velocity=35, time=0),
    Message('note_on', channel=3, note=40, velocity=35, time=0),
    Message('note_off', channel=3, note=40, velocity=0, time=96),
    Message('note_off', channel=3, note=28, velocity=0, time=0),
    Message('note_on', channel=3, note=28, velocity=35, time=0),
    Message('note_on', channel=3, note=40, velocity=35, time=0),
    Message('note_off', channel=3, note=40, velocity=0, time=96),
    Message('note_off', channel=3, note=28, velocity=0, time=0),
    Message('note_on', channel=3, note=28, velocity=35, time=0),
    Message('note_on', channel=3, note=40, velocity=35, time=0),
    Message('note_off', channel=3, note=40, velocity=0, time=96),
    Message('note_off', channel=3, note=28, velocity=0, time=0),
    Message('note_on', channel=3, note=28, velocity=35, time=0),
    Message('note_on', channel=3, note=40, velocity=35, time=0),
    Message('note_off', channel=3, note=40, velocity=0, time=96),
    Message('note_off', channel=3, note=28, velocity=0, time=0),
    Message('note_on', channel=3, note=28, velocity=35, time=0),
    Message('note_on', channel=3, note=40, velocity=35, time=0),
    Message('note_off', channel=3, note=40, velocity=0, time=96),
    Message('note_off', channel=3, note=28, velocity=0, time=0),
    Message('note_on', channel=3, note=28, velocity=35, time=0),
    Message('note_on', channel=3, note=40, velocity=35, time=0),
    Message('note_off', channel=3, note=40, velocity=0, time=96),
    Message('note_off', channel=3, note=28, velocity=0, time=0),
    Message('note_on', channel=3, note=28, velocity=35, time=0),
    Message('note_on', channel=3, note=40, velocity=35, time=0),
    Message('note_off', channel=3, note=40, velocity=0, time=96),
    Message('note_off', channel=3, note=28, velocity=0, time=0),
    Message('note_on', channel=3, note=28, velocity=35, time=0),
    Message('note_on', channel=3, note=40, velocity=35, time=0),
    Message('note_off', channel=3, note=40, velocity=0, time=96),
    Message('note_off', channel=3, note=28, velocity=0, time=0),
    Message('note_on', channel=3, note=28, velocity=35, time=0),
    Message('note_on', channel=3, note=40, velocity=35, time=0),
    Message('note_off', channel=3, note=40, velocity=0, time=96),
    Message('note_off', channel=3, note=28, velocity=0, time=0),
    Message('note_on', channel=3, note=28, velocity=35, time=0),
    Message('note_on', channel=3, note=40, velocity=35, time=0),
    Message('note_off', channel=3, note=40, velocity=0, time=96),
    Message('note_off', channel=3, note=28, velocity=0, time=0),
    Message('note_on', channel=3, note=28, velocity=35, time=0),
    Message('note_on', channel=3, note=40, velocity=35, time=0),
    Message('note_off', channel=3, note=40, velocity=0, time=96),
    Message('note_off', channel=3, note=28, velocity=0, time=0),
    Message('note_on', channel=3, note=31, velocity=35, time=0),
    Message('note_on', channel=3, note=43, velocity=35, time=0),
    Message('note_off', channel=3, note=43, velocity=0, time=96),
    Message('note_off', channel=3, note=31, velocity=0, time=0),
    Message('note_on', channel=3, note=31, velocity=35, time=0),
    Message('note_on', channel=3, note=43, velocity=35, time=0),
    Message('note_off', channel=3, note=43, velocity=0, time=96),
    Message('note_off', channel=3, note=31, velocity=0, time=0),
    Message('note_on', channel=3, note=31, velocity=35, time=0),
    Message('note_on', channel=3, note=43, velocity=35, time=0),
    Message('note_off', channel=3, note=43, velocity=0, time=96),
    Message('note_off', channel=3, note=31, velocity=0, time=0),
    Message('note_on', channel=3, note=31, velocity=35, time=0),
    Message('note_on', channel=3, note=43, velocity=35, time=0),
    Message('note_off', channel=3, note=43, velocity=0, time=96),
    Message('note_off', channel=3, note=31, velocity=0, time=0),
    Message('note_on', channel=3, note=31, velocity=35, time=0),
    Message('note_on', channel=3, note=43, velocity=35, time=0),
    Message('note_off', channel=3, note=43, velocity=0, time=96),
    Message('note_off', channel=3, note=31, velocity=0, time=0),
    Message('note_on', channel=3, note=31, velocity=35, time=0),
    Message('note_on', channel=3, note=43, velocity=35, time=0),
    Message('note_off', channel=3, note=43, velocity=0, time=96),
    Message('note_off', channel=3, note=31, velocity=0, time=0),
    Message('note_on', channel=3, note=31, velocity=35, time=0),
    Message('note_on', channel=3, note=43, velocity=35, time=0),
    Message('note_off', channel=3, note=43, velocity=0, time=96),
    Message('note_off', channel=3, note=31, velocity=0, time=0),
    Message('note_on', channel=3, note=31, velocity=35, time=0),
    Message('note_on', channel=3, note=43, velocity=35, time=0),
    Message('note_off', channel=3, note=43, velocity=0, time=96),
    Message('note_off', channel=3, note=31, velocity=0, time=0),
    Message('note_on', channel=3, note=31, velocity=35, time=0),
    Message('note_on', channel=3, note=43, velocity=35, time=0),
    Message('note_off', channel=3, note=43, velocity=0, time=96),
    Message('note_off', channel=3, note=31, velocity=0, time=0),
    Message('note_on', channel=3, note=31, velocity=35, time=0),
    Message('note_on', channel=3, note=43, velocity=35, time=0),
    Message('note_off', channel=3, note=43, velocity=0, time=96),
    Message('note_off', channel=3, note=31, velocity=0, time=0),
    Message('note_on', channel=3, note=31, velocity=35, time=0),
    Message('note_on', channel=3, note=43, velocity=35, time=0),
    Message('note_off', channel=3, note=43, velocity=0, time=96),
    Message('note_off', channel=3, note=31, velocity=0, time=0),
    Message('note_on', channel=3, note=31, velocity=35, time=0),
    Message('note_on', channel=3, note=43, velocity=35, time=0),
    Message('note_off', channel=3, note=43, velocity=0, time=96),
    Message('note_off', channel=3, note=31, velocity=0, time=0),
    Message('note_on', channel=3, note=31, velocity=35, time=0),
    Message('note_on', channel=3, note=43, velocity=35, time=0),
    Message('note_off', channel=3, note=43, velocity=0, time=96),
    Message('note_off', channel=3, note=31, velocity=0, time=0),
    Message('note_on', channel=3, note=31, velocity=35, time=0),
    Message('note_on', channel=3, note=43, velocity=35, time=0),
    Message('note_off', channel=3, note=43, velocity=0, time=96),
    Message('note_off', channel=3, note=31, velocity=0, time=0),
    Message('note_on', channel=3, note=31, velocity=35, time=0),
    Message('note_on', channel=3, note=43, velocity=35, time=0),
    Message('note_off', channel=3, note=43, velocity=0, time=96),
    Message('note_off', channel=3, note=31, velocity=0, time=0),
    Message('note_on', channel=3, note=31, velocity=35, time=0),
    Message('note_on', channel=3, note=43, velocity=35, time=0),
    Message('note_off', channel=3, note=43, velocity=0, time=96),
    Message('note_off', channel=3, note=31, velocity=0, time=0),
    Message('note_on', channel=3, note=26, velocity=35, time=0),
    Message('note_on', channel=3, note=38, velocity=35, time=0),
    Message('note_off', channel=3, note=38, velocity=0, time=96),
    Message('note_off', channel=3, note=26, velocity=0, time=0),
    Message('note_on', channel=3, note=26, velocity=35, time=0),
    Message('note_on', channel=3, note=38, velocity=35, time=0),
    Message('note_off', channel=3, note=38, velocity=0, time=96),
    Message('note_off', channel=3, note=26, velocity=0, time=0),
    Message('note_on', channel=3, note=26, velocity=35, time=0),
    Message('note_on', channel=3, note=38, velocity=35, time=0),
    Message('note_off', channel=3, note=38, velocity=0, time=96),
    Message('note_off', channel=3, note=26, velocity=0, time=0),
    Message('note_on', channel=3, note=26, velocity=35, time=0),
    Message('note_on', channel=3, note=38, velocity=35, time=0),
    Message('note_off', channel=3, note=38, velocity=0, time=96),
    Message('note_off', channel=3, note=26, velocity=0, time=0),
    Message('note_on', channel=3, note=26, velocity=35, time=0),
    Message('note_on', channel=3, note=38, velocity=35, time=0),
    Message('note_off', channel=3, note=38, velocity=0, time=96),
    Message('note_off', channel=3, note=26, velocity=0, time=0),
    Message('note_on', channel=3, note=26, velocity=35, time=0),
    Message('note_on', channel=3, note=38, velocity=35, time=0),
    Message('note_off', channel=3, note=38, velocity=0, time=96),
    Message('note_off', channel=3, note=26, velocity=0, time=0),
    Message('note_on', channel=3, note=26, velocity=35, time=0),
    Message('note_on', channel=3, note=38, velocity=35, time=0),
    Message('note_off', channel=3, note=38, velocity=0, time=96),
    Message('note_off', channel=3, note=26, velocity=0, time=0),
    Message('note_on', channel=3, note=26, velocity=35, time=0),
    Message('note_on', channel=3, note=38, velocity=35, time=0),
    Message('note_off', channel=3, note=38, velocity=0, time=96),
    Message('note_off', channel=3, note=26, velocity=0, time=0),
    Message('note_on', channel=3, note=26, velocity=35, time=0),
    Message('note_on', channel=3, note=38, velocity=35, time=0),
    Message('note_off', channel=3, note=38, velocity=0, time=96),
    Message('note_off', channel=3, note=26, velocity=0, time=0),
    Message('note_on', channel=3, note=26, velocity=35, time=0),
    Message('note_on', channel=3, note=38, velocity=35, time=0),
    Message('note_off', channel=3, note=38, velocity=0, time=96),
    Message('note_off', channel=3, note=26, velocity=0, time=0),
    Message('note_on', channel=3, note=26, velocity=35, time=0),
    Message('note_on', channel=3, note=38, velocity=35, time=0),
    Message('note_off', channel=3, note=38, velocity=0, time=96),
    Message('note_off', channel=3, note=26, velocity=0, time=0),
    Message('note_on', channel=3, note=26, velocity=35, time=0),
    Message('note_on', channel=3, note=38, velocity=35, time=0),
    Message('note_off', channel=3, note=38, velocity=0, time=96),
    Message('note_off', channel=3, note=26, velocity=0, time=0),
    Message('note_on', channel=3, note=26, velocity=35, time=0),
    Message('note_on', channel=3, note=38, velocity=35, time=0),
    Message('note_off', channel=3, note=38, velocity=0, time=96),
    Message('note_off', channel=3, note=26, velocity=0, time=0),
    Message('note_on', channel=3, note=26, velocity=35, time=0),
    Message('note_on', channel=3, note=38, velocity=35, time=0),
    Message('note_off', channel=3, note=38, velocity=0, time=96),
    Message('note_off', channel=3, note=26, velocity=0, time=0),
    Message('note_on', channel=3, note=26, velocity=35, time=0),
    Message('note_on', channel=3, note=38, velocity=35, time=0),
    Message('note_off', channel=3, note=38, velocity=0, time=96),
    Message('note_off', channel=3, note=26, velocity=0, time=0),
    Message('note_on', channel=3, note=26, velocity=35, time=0),
    Message('note_on', channel=3, note=38, velocity=35, time=0),
    Message('note_off', channel=3, note=38, velocity=0, time=96),
    Message('note_off', channel=3, note=26, velocity=0, time=0),
    Message('note_on', channel=3, note=24, velocity=35, time=0),
    Message('note_on', channel=3, note=36, velocity=35, time=0),
    Message('note_off', channel=3, note=36, velocity=0, time=96),
    Message('note_off', channel=3, note=24, velocity=0, time=0),
    Message('note_on', channel=3, note=24, velocity=35, time=0),
    Message('note_on', channel=3, note=36, velocity=35, time=0),
    Message('note_off', channel=3, note=36, velocity=0, time=96),
    Message('note_off', channel=3, note=24, velocity=0, time=0),
    Message('note_on', channel=3, note=24, velocity=35, time=0),
    Message('note_on', channel=3, note=36, velocity=35, time=0),
    Message('note_off', channel=3, note=36, velocity=0, time=96),
    Message('note_off', channel=3, note=24, velocity=0, time=0),
    Message('note_on', channel=3, note=24, velocity=35, time=0),
    Message('note_on', channel=3, note=36, velocity=35, time=0),
    Message('note_off', channel=3, note=36, velocity=0, time=96),
    Message('note_off', channel=3, note=24, velocity=0, time=0),
    Message('note_on', channel=3, note=24, velocity=35, time=0),
    Message('note_on', channel=3, note=36, velocity=35, time=0),
    Message('note_off', channel=3, note=36, velocity=0, time=96),
    Message('note_off', channel=3, note=24, velocity=0, time=0),
    Message('note_on', channel=3, note=24, velocity=35, time=0),
    Message('note_on', channel=3, note=36, velocity=35, time=0),
    Message('note_off', channel=3, note=36, velocity=0, time=96),
    Message('note_off', channel=3, note=24, velocity=0, time=0),
    Message('note_on', channel=3, note=24, velocity=35, time=0),
    Message('note_on', channel=3, note=36, velocity=35, time=0),
    Message('note_off', channel=3, note=36, velocity=0, time=96),
    Message('note_off', channel=3, note=24, velocity=0, time=0),
    Message('note_on', channel=3, note=24, velocity=35, time=0),
    Message('note_on', channel=3, note=36, velocity=35, time=0),
    Message('note_off', channel=3, note=36, velocity=0, time=96),
    Message('note_off', channel=3, note=24, velocity=0, time=0),
    Message('note_on', channel=3, note=24, velocity=35, time=0),
    Message('note_on', channel=3, note=36, velocity=35, time=0),
    Message('note_off', channel=3, note=36, velocity=0, time=96),
    Message('note_off', channel=3, note=24, velocity=0, time=0),
    Message('note_on', channel=3, note=24, velocity=35, time=0),
    Message('note_on', channel=3, note=36, velocity=35, time=0),
    Message('note_off', channel=3, note=36, velocity=0, time=96),
    Message('note_off', channel=3, note=24, velocity=0, time=0),
    Message('note_on', channel=3, note=24, velocity=35, time=0),
    Message('note_on', channel=3, note=36, velocity=35, time=0),
    Message('note_off', channel=3, note=36, velocity=0, time=96),
    Message('note_off', channel=3, note=24, velocity=0, time=0),
    Message('note_on', channel=3, note=24, velocity=35, time=0),
    Message('note_on', channel=3, note=36, velocity=35, time=0),
    Message('note_off', channel=3, note=36, velocity=0, time=96),
    Message('note_off', channel=3, note=24, velocity=0, time=0),
    Message('note_on', channel=3, note=24, velocity=35, time=0),
    Message('note_on', channel=3, note=36, velocity=35, time=0),
    Message('note_off', channel=3, note=36, velocity=0, time=96),
    Message('note_off', channel=3, note=24, velocity=0, time=0),
    Message('note_on', channel=3, note=24, velocity=35, time=0),
    Message('note_on', channel=3, note=36, velocity=35, time=0),
    Message('note_off', channel=3, note=36, velocity=0, time=96),
    Message('note_off', channel=3, note=24, velocity=0, time=0),
    Message('note_on', channel=3, note=24, velocity=35, time=0),
    Message('note_on', channel=3, note=36, velocity=35, time=0),
    Message('note_off', channel=3, note=36, velocity=0, time=96),
    Message('note_off', channel=3, note=24, velocity=0, time=0),
    Message('note_on', channel=3, note=24, velocity=35, time=0),
    Message('note_on', channel=3, note=36, velocity=35, time=0),
    Message('note_off', channel=3, note=36, velocity=0, time=96),
    Message('note_off', channel=3, note=24, velocity=0, time=0),
    Message('note_on', channel=3, note=28, velocity=35, time=0),
    Message('note_on', channel=3, note=40, velocity=35, time=0),
    Message('note_off', channel=3, note=40, velocity=0, time=96),
    Message('note_off', channel=3, note=28, velocity=0, time=0),
    Message('note_on', channel=3, note=28, velocity=35, time=0),
    Message('note_on', channel=3, note=40, velocity=35, time=0),
    Message('note_off', channel=3, note=40, velocity=0, time=96),
    Message('note_off', channel=3, note=28, velocity=0, time=0),
    Message('note_on', channel=3, note=28, velocity=35, time=0),
    Message('note_on', channel=3, note=40, velocity=35, time=0),
    Message('note_off', channel=3, note=40, velocity=0, time=96),
    Message('note_off', channel=3, note=28, velocity=0, time=0),
    Message('note_on', channel=3, note=28, velocity=35, time=0),
    Message('note_on', channel=3, note=40, velocity=35, time=0),
    Message('note_off', channel=3, note=40, velocity=0, time=96),
    Message('note_off', channel=3, note=28, velocity=0, time=0),
    Message('note_on', channel=3, note=28, velocity=35, time=0),
    Message('note_on', channel=3, note=40, velocity=35, time=0),
    Message('note_off', channel=3, note=40, velocity=0, time=96),
    Message('note_off', channel=3, note=28, velocity=0, time=0),
    Message('note_on', channel=3, note=28, velocity=35, time=0),
    Message('note_on', channel=3, note=40, velocity=35, time=0),
    Message('note_off', channel=3, note=40, velocity=0, time=96),
    Message('note_off', channel=3, note=28, velocity=0, time=0),
    Message('note_on', channel=3, note=28, velocity=35, time=0),
    Message('note_on', channel=3, note=40, velocity=35, time=0),
    Message('note_off', channel=3, note=40, velocity=0, time=96),
    Message('note_off', channel=3, note=28, velocity=0, time=0),
    Message('note_on', channel=3, note=28, velocity=35, time=0),
    Message('note_on', channel=3, note=40, velocity=35, time=0),
    Message('note_off', channel=3, note=40, velocity=0, time=96),
    Message('note_off', channel=3, note=28, velocity=0, time=0),
    Message('note_on', channel=3, note=28, velocity=35, time=0),
    Message('note_on', channel=3, note=40, velocity=35, time=0),
    Message('note_off', channel=3, note=40, velocity=0, time=96),
    Message('note_off', channel=3, note=28, velocity=0, time=0),
    Message('note_on', channel=3, note=28, velocity=35, time=0),
    Message('note_on', channel=3, note=40, velocity=35, time=0),
    Message('note_off', channel=3, note=40, velocity=0, time=96),
    Message('note_off', channel=3, note=28, velocity=0, time=0),
    Message('note_on', channel=3, note=28, velocity=35, time=0),
    Message('note_on', channel=3, note=40, velocity=35, time=0),
    Message('note_off', channel=3, note=40, velocity=0, time=96),
    Message('note_off', channel=3, note=28, velocity=0, time=0),
    Message('note_on', channel=3, note=28, velocity=35, time=0),
    Message('note_on', channel=3, note=40, velocity=35, time=0),
    Message('note_off', channel=3, note=40, velocity=0, time=96),
    Message('note_off', channel=3, note=28, velocity=0, time=0),
    Message('note_on', channel=3, note=28, velocity=35, time=0),
    Message('note_on', channel=3, note=40, velocity=35, time=0),
    Message('note_off', channel=3, note=40, velocity=0, time=96),
    Message('note_off', channel=3, note=28, velocity=0, time=0),
    Message('note_on', channel=3, note=28, velocity=35, time=0),
    Message('note_on', channel=3, note=40, velocity=35, time=0),
    Message('note_off', channel=3, note=40, velocity=0, time=96),
    Message('note_off', channel=3, note=28, velocity=0, time=0),
    Message('note_on', channel=3, note=28, velocity=35, time=0),
    Message('note_on', channel=3, note=40, velocity=35, time=0),
    Message('note_off', channel=3, note=40, velocity=0, time=96),
    Message('note_off', channel=3, note=28, velocity=0, time=0),
    Message('note_on', channel=3, note=28, velocity=35, time=0),
    Message('note_on', channel=3, note=40, velocity=35, time=0),
    Message('note_off', channel=3, note=40, velocity=0, time=96),
    Message('note_off', channel=3, note=28, velocity=0, time=0),
    Message('note_on', channel=3, note=31, velocity=35, time=0),
    Message('note_on', channel=3, note=43, velocity=35, time=0),
    Message('note_off', channel=3, note=43, velocity=0, time=96),
    Message('note_off', channel=3, note=31, velocity=0, time=0),
    Message('note_on', channel=3, note=31, velocity=35, time=0),
    Message('note_on', channel=3, note=43, velocity=35, time=0),
    Message('note_off', channel=3, note=43, velocity=0, time=96),
    Message('note_off', channel=3, note=31, velocity=0, time=0),
    Message('note_on', channel=3, note=31, velocity=35, time=0),
    Message('note_on', channel=3, note=43, velocity=35, time=0),
    Message('note_off', channel=3, note=43, velocity=0, time=96),
    Message('note_off', channel=3, note=31, velocity=0, time=0),
    Message('note_on', channel=3, note=31, velocity=35, time=0),
    Message('note_on', channel=3, note=43, velocity=35, time=0),
    Message('note_off', channel=3, note=43, velocity=0, time=96),
    Message('note_off', channel=3, note=31, velocity=0, time=0),
    Message('note_on', channel=3, note=31, velocity=35, time=0),
    Message('note_on', channel=3, note=43, velocity=35, time=0),
    Message('note_off', channel=3, note=43, velocity=0, time=96),
    Message('note_off', channel=3, note=31, velocity=0, time=0),
    Message('note_on', channel=3, note=31, velocity=35, time=0),
    Message('note_on', channel=3, note=43, velocity=35, time=0),
    Message('note_off', channel=3, note=43, velocity=0, time=96),
    Message('note_off', channel=3, note=31, velocity=0, time=0),
    Message('note_on', channel=3, note=31, velocity=35, time=0),
    Message('note_on', channel=3, note=43, velocity=35, time=0),
    Message('note_off', channel=3, note=43, velocity=0, time=96),
    Message('note_off', channel=3, note=31, velocity=0, time=0),
    Message('note_on', channel=3, note=31, velocity=35, time=0),
    Message('note_on', channel=3, note=43, velocity=35, time=0),
    Message('note_off', channel=3, note=43, velocity=0, time=96),
    Message('note_off', channel=3, note=31, velocity=0, time=0),
    Message('note_on', channel=3, note=31, velocity=35, time=0),
    Message('note_on', channel=3, note=43, velocity=35, time=0),
    Message('note_off', channel=3, note=43, velocity=0, time=96),
    Message('note_off', channel=3, note=31, velocity=0, time=0),
    Message('note_on', channel=3, note=31, velocity=35, time=0),
    Message('note_on', channel=3, note=43, velocity=35, time=0),
    Message('note_off', channel=3, note=43, velocity=0, time=96),
    Message('note_off', channel=3, note=31, velocity=0, time=0),
    Message('note_on', channel=3, note=31, velocity=35, time=0),
    Message('note_on', channel=3, note=43, velocity=35, time=0),
    Message('note_off', channel=3, note=43, velocity=0, time=96),
    Message('note_off', channel=3, note=31, velocity=0, time=0),
    Message('note_on', channel=3, note=31, velocity=35, time=0),
    Message('note_on', channel=3, note=43, velocity=35, time=0),
    Message('note_off', channel=3, note=43, velocity=0, time=96),
    Message('note_off', channel=3, note=31, velocity=0, time=0),
    Message('note_on', channel=3, note=31, velocity=35, time=0),
    Message('note_on', channel=3, note=43, velocity=35, time=0),
    Message('note_off', channel=3, note=43, velocity=0, time=96),
    Message('note_off', channel=3, note=31, velocity=0, time=0),
    Message('note_on', channel=3, note=31, velocity=35, time=0),
    Message('note_on', channel=3, note=43, velocity=35, time=0),
    Message('note_off', channel=3, note=43, velocity=0, time=96),
    Message('note_off', channel=3, note=31, velocity=0, time=0),
    Message('note_on', channel=3, note=31, velocity=35, time=0),
    Message('note_on', channel=3, note=43, velocity=35, time=0),
    Message('note_off', channel=3, note=43, velocity=0, time=96),
    Message('note_off', channel=3, note=31, velocity=0, time=0),
    Message('note_on', channel=3, note=31, velocity=35, time=0),
    Message('note_on', channel=3, note=43, velocity=35, time=0),
    Message('note_off', channel=3, note=43, velocity=0, time=96),
    Message('note_off', channel=3, note=31, velocity=0, time=0),
    Message('note_on', channel=3, note=26, velocity=35, time=0),
    Message('note_on', channel=3, note=38, velocity=35, time=0),
    Message('note_off', channel=3, note=38, velocity=0, time=96),
    Message('note_off', channel=3, note=26, velocity=0, time=0),
    Message('note_on', channel=3, note=26, velocity=35, time=0),
    Message('note_on', channel=3, note=38, velocity=35, time=0),
    Message('note_off', channel=3, note=38, velocity=0, time=96),
    Message('note_off', channel=3, note=26, velocity=0, time=0),
    Message('note_on', channel=3, note=26, velocity=35, time=0),
    Message('note_on', channel=3, note=38, velocity=35, time=0),
    Message('note_off', channel=3, note=38, velocity=0, time=96),
    Message('note_off', channel=3, note=26, velocity=0, time=0),
    Message('note_on', channel=3, note=26, velocity=35, time=0),
    Message('note_on', channel=3, note=38, velocity=35, time=0),
    Message('note_off', channel=3, note=38, velocity=0, time=96),
    Message('note_off', channel=3, note=26, velocity=0, time=0),
    Message('note_on', channel=3, note=26, velocity=35, time=0),
    Message('note_on', channel=3, note=38, velocity=35, time=0),
    Message('note_off', channel=3, note=38, velocity=0, time=96),
    Message('note_off', channel=3, note=26, velocity=0, time=0),
    Message('note_on', channel=3, note=26, velocity=35, time=0),
    Message('note_on', channel=3, note=38, velocity=35, time=0),
    Message('note_off', channel=3, note=38, velocity=0, time=96),
    Message('note_off', channel=3, note=26, velocity=0, time=0),
    Message('note_on', channel=3, note=26, velocity=35, time=0),
    Message('note_on', channel=3, note=38, velocity=35, time=0),
    Message('note_off', channel=3, note=38, velocity=0, time=96),
    Message('note_off', channel=3, note=26, velocity=0, time=0),
    Message('note_on', channel=3, note=26, velocity=35, time=0),
    Message('note_on', channel=3, note=38, velocity=35, time=0),
    Message('note_off', channel=3, note=38, velocity=0, time=96),
    Message('note_off', channel=3, note=26, velocity=0, time=0),
    Message('note_on', channel=3, note=26, velocity=35, time=0),
    Message('note_on', channel=3, note=38, velocity=35, time=0),
    Message('note_off', channel=3, note=38, velocity=0, time=96),
    Message('note_off', channel=3, note=26, velocity=0, time=0),
    Message('note_on', channel=3, note=26, velocity=35, time=0),
    Message('note_on', channel=3, note=38, velocity=35, time=0),
    Message('note_off', channel=3, note=38, velocity=0, time=96),
    Message('note_off', channel=3, note=26, velocity=0, time=0),
    Message('note_on', channel=3, note=26, velocity=35, time=0),
    Message('note_on', channel=3, note=38, velocity=35, time=0),
    Message('note_off', channel=3, note=38, velocity=0, time=96),
    Message('note_off', channel=3, note=26, velocity=0, time=0),
    Message('note_on', channel=3, note=26, velocity=35, time=0),
    Message('note_on', channel=3, note=38, velocity=35, time=0),
    Message('note_off', channel=3, note=38, velocity=0, time=96),
    Message('note_off', channel=3, note=26, velocity=0, time=0),
    Message('note_on', channel=3, note=26, velocity=35, time=0),
    Message('note_on', channel=3, note=38, velocity=35, time=0),
    Message('note_off', channel=3, note=38, velocity=0, time=96),
    Message('note_off', channel=3, note=26, velocity=0, time=0),
    Message('note_on', channel=3, note=26, velocity=35, time=0),
    Message('note_on', channel=3, note=38, velocity=35, time=0),
    Message('note_off', channel=3, note=38, velocity=0, time=96),
    Message('note_off', channel=3, note=26, velocity=0, time=0),
    Message('note_on', channel=3, note=26, velocity=35, time=0),
    Message('note_on', channel=3, note=38, velocity=35, time=0),
    Message('note_off', channel=3, note=38, velocity=0, time=96),
    Message('note_off', channel=3, note=26, velocity=0, time=0),
    Message('note_on', channel=3, note=26, velocity=35, time=0),
    Message('note_on', channel=3, note=38, velocity=35, time=0),
    Message('note_off', channel=3, note=38, velocity=0, time=96),
    Message('note_off', channel=3, note=26, velocity=0, time=0),
    Message('note_on', channel=3, note=24, velocity=35, time=0),
    Message('note_on', channel=3, note=36, velocity=35, time=0),
    Message('note_off', channel=3, note=36, velocity=0, time=96),
    Message('note_off', channel=3, note=24, velocity=0, time=0),
    Message('note_on', channel=3, note=24, velocity=35, time=0),
    Message('note_on', channel=3, note=36, velocity=35, time=0),
    Message('note_off', channel=3, note=36, velocity=0, time=96),
    Message('note_off', channel=3, note=24, velocity=0, time=0),
    Message('note_on', channel=3, note=24, velocity=35, time=0),
    Message('note_on', channel=3, note=36, velocity=35, time=0),
    Message('note_off', channel=3, note=36, velocity=0, time=96),
    Message('note_off', channel=3, note=24, velocity=0, time=0),
    Message('note_on', channel=3, note=24, velocity=35, time=0),
    Message('note_on', channel=3, note=36, velocity=35, time=0),
    Message('note_off', channel=3, note=36, velocity=0, time=96),
    Message('note_off', channel=3, note=24, velocity=0, time=0),
    Message('note_on', channel=3, note=24, velocity=35, time=0),
    Message('note_on', channel=3, note=36, velocity=35, time=0),
    Message('note_off', channel=3, note=36, velocity=0, time=96),
    Message('note_off', channel=3, note=24, velocity=0, time=0),
    Message('note_on', channel=3, note=24, velocity=35, time=0),
    Message('note_on', channel=3, note=36, velocity=35, time=0),
    Message('note_off', channel=3, note=36, velocity=0, time=96),
    Message('note_off', channel=3, note=24, velocity=0, time=0),
    Message('note_on', channel=3, note=24, velocity=35, time=0),
    Message('note_on', channel=3, note=36, velocity=35, time=0),
    Message('note_off', channel=3, note=36, velocity=0, time=96),
    Message('note_off', channel=3, note=24, velocity=0, time=0),
    Message('note_on', channel=3, note=24, velocity=35, time=0),
    Message('note_on', channel=3, note=36, velocity=35, time=0),
    Message('note_off', channel=3, note=36, velocity=0, time=96),
    Message('note_off', channel=3, note=24, velocity=0, time=0),
    Message('note_on', channel=3, note=24, velocity=35, time=0),
    Message('note_on', channel=3, note=36, velocity=35, time=0),
    Message('note_off', channel=3, note=36, velocity=0, time=96),
    Message('note_off', channel=3, note=24, velocity=0, time=0),
    Message('note_on', channel=3, note=24, velocity=35, time=0),
    Message('note_on', channel=3, note=36, velocity=35, time=0),
    Message('note_off', channel=3, note=36, velocity=0, time=96),
    Message('note_off', channel=3, note=24, velocity=0, time=0),
    Message('note_on', channel=3, note=24, velocity=35, time=0),
    Message('note_on', channel=3, note=36, velocity=35, time=0),
    Message('note_off', channel=3, note=36, velocity=0, time=96),
    Message('note_off', channel=3, note=24, velocity=0, time=0),
    Message('note_on', channel=3, note=24, velocity=35, time=0),
    Message('note_on', channel=3, note=36, velocity=35, time=0),
    Message('note_off', channel=3, note=36, velocity=0, time=96),
    Message('note_off', channel=3, note=24, velocity=0, time=0),
    Message('note_on', channel=3, note=24, velocity=35, time=0),
    Message('note_on', channel=3, note=36, velocity=35, time=0),
    Message('note_off', channel=3, note=36, velocity=0, time=96),
    Message('note_off', channel=3, note=24, velocity=0, time=0),
    Message('note_on', channel=3, note=24, velocity=35, time=0),
    Message('note_on', channel=3, note=36, velocity=35, time=0),
    Message('note_off', channel=3, note=36, velocity=0, time=96),
    Message('note_off', channel=3, note=24, velocity=0, time=0),
    Message('note_on', channel=3, note=24, velocity=35, time=0),
    Message('note_on', channel=3, note=36, velocity=35, time=0),
    Message('note_off', channel=3, note=36, velocity=0, time=96),
    Message('note_off', channel=3, note=24, velocity=0, time=0),
    Message('note_on', channel=3, note=24, velocity=35, time=0),
    Message('note_on', channel=3, note=36, velocity=35, time=0),
    Message('note_off', channel=3, note=36, velocity=0, time=96),
    Message('note_off', channel=3, note=24, velocity=0, time=0),
    Message('note_on', channel=3, note=28, velocity=35, time=0),
    Message('note_on', channel=3, note=40, velocity=35, time=0),
    Message('note_off', channel=3, note=40, velocity=0, time=96),
    Message('note_off', channel=3, note=28, velocity=0, time=0),
    Message('note_on', channel=3, note=28, velocity=35, time=0),
    Message('note_on', channel=3, note=40, velocity=35, time=0),
    Message('note_off', channel=3, note=40, velocity=0, time=96),
    Message('note_off', channel=3, note=28, velocity=0, time=0),
    Message('note_on', channel=3, note=28, velocity=35, time=0),
    Message('note_on', channel=3, note=40, velocity=35, time=0),
    Message('note_off', channel=3, note=40, velocity=0, time=96),
    Message('note_off', channel=3, note=28, velocity=0, time=0),
    Message('note_on', channel=3, note=28, velocity=35, time=0),
    Message('note_on', channel=3, note=40, velocity=35, time=0),
    Message('note_off', channel=3, note=40, velocity=0, time=96),
    Message('note_off', channel=3, note=28, velocity=0, time=0),
    Message('note_on', channel=3, note=28, velocity=35, time=0),
    Message('note_on', channel=3, note=40, velocity=35, time=0),
    Message('note_off', channel=3, note=40, velocity=0, time=96),
    Message('note_off', channel=3, note=28, velocity=0, time=0),
    Message('note_on', channel=3, note=28, velocity=35, time=0),
    Message('note_on', channel=3, note=40, velocity=35, time=0),
    Message('note_off', channel=3, note=40, velocity=0, time=96),
    Message('note_off', channel=3, note=28, velocity=0, time=0),
    Message('note_on', channel=3, note=28, velocity=35, time=0),
    Message('note_on', channel=3, note=40, velocity=35, time=0),
    Message('note_off', channel=3, note=40, velocity=0, time=96),
    Message('note_off', channel=3, note=28, velocity=0, time=0),
    Message('note_on', channel=3, note=28, velocity=35, time=0),
    Message('note_on', channel=3, note=40, velocity=35, time=0),
    Message('note_off', channel=3, note=40, velocity=0, time=96),
    Message('note_off', channel=3, note=28, velocity=0, time=0),
    Message('note_on', channel=3, note=28, velocity=35, time=0),
    Message('note_on', channel=3, note=40, velocity=35, time=0),
    Message('note_off', channel=3, note=40, velocity=0, time=96),
    Message('note_off', channel=3, note=28, velocity=0, time=0),
    Message('note_on', channel=3, note=28, velocity=35, time=0),
    Message('note_on', channel=3, note=40, velocity=35, time=0),
    Message('note_off', channel=3, note=40, velocity=0, time=96),
    Message('note_off', channel=3, note=28, velocity=0, time=0),
    Message('note_on', channel=3, note=28, velocity=35, time=0),
    Message('note_on', channel=3, note=40, velocity=35, time=0),
    Message('note_off', channel=3, note=40, velocity=0, time=96),
    Message('note_off', channel=3, note=28, velocity=0, time=0),
    Message('note_on', channel=3, note=28, velocity=35, time=0),
    Message('note_on', channel=3, note=40, velocity=35, time=0),
    Message('note_off', channel=3, note=40, velocity=0, time=96),
    Message('note_off', channel=3, note=28, velocity=0, time=0),
    Message('note_on', channel=3, note=28, velocity=35, time=0),
    Message('note_on', channel=3, note=40, velocity=35, time=0),
    Message('note_off', channel=3, note=40, velocity=0, time=96),
    Message('note_off', channel=3, note=28, velocity=0, time=0),
    Message('note_on', channel=3, note=28, velocity=35, time=0),
    Message('note_on', channel=3, note=40, velocity=35, time=0),
    Message('note_off', channel=3, note=40, velocity=0, time=96),
    Message('note_off', channel=3, note=28, velocity=0, time=0),
    Message('note_on', channel=3, note=28, velocity=35, time=0),
    Message('note_on', channel=3, note=40, velocity=35, time=0),
    Message('note_off', channel=3, note=40, velocity=0, time=96),
    Message('note_off', channel=3, note=28, velocity=0, time=0),
    Message('note_on', channel=3, note=28, velocity=35, time=0),
    Message('note_on', channel=3, note=40, velocity=35, time=0),
    Message('note_off', channel=3, note=40, velocity=0, time=96),
    Message('note_off', channel=3, note=28, velocity=0, time=0),
    Message('note_on', channel=3, note=31, velocity=35, time=0),
    Message('note_on', channel=3, note=43, velocity=35, time=0),
    Message('note_off', channel=3, note=43, velocity=0, time=96),
    Message('note_off', channel=3, note=31, velocity=0, time=0),
    Message('note_on', channel=3, note=31, velocity=35, time=0),
    Message('note_on', channel=3, note=43, velocity=35, time=0),
    Message('note_off', channel=3, note=43, velocity=0, time=96),
    Message('note_off', channel=3, note=31, velocity=0, time=0),
    Message('note_on', channel=3, note=31, velocity=35, time=0),
    Message('note_on', channel=3, note=43, velocity=35, time=0),
    Message('note_off', channel=3, note=43, velocity=0, time=96),
    Message('note_off', channel=3, note=31, velocity=0, time=0),
    Message('note_on', channel=3, note=31, velocity=35, time=0),
    Message('note_on', channel=3, note=43, velocity=35, time=0),
    Message('note_off', channel=3, note=43, velocity=0, time=96),
    Message('note_off', channel=3, note=31, velocity=0, time=0),
    Message('note_on', channel=3, note=31, velocity=35, time=0),
    Message('note_on', channel=3, note=43, velocity=35, time=0),
    Message('note_off', channel=3, note=43, velocity=0, time=96),
    Message('note_off', channel=3, note=31, velocity=0, time=0),
    Message('note_on', channel=3, note=31, velocity=35, time=0),
    Message('note_on', channel=3, note=43, velocity=35, time=0),
    Message('note_off', channel=3, note=43, velocity=0, time=96),
    Message('note_off', channel=3, note=31, velocity=0, time=0),
    Message('note_on', channel=3, note=31, velocity=35, time=0),
    Message('note_on', channel=3, note=43, velocity=35, time=0),
    Message('note_off', channel=3, note=43, velocity=0, time=96),
    Message('note_off', channel=3, note=31, velocity=0, time=0),
    Message('note_on', channel=3, note=31, velocity=35, time=0),
    Message('note_on', channel=3, note=43, velocity=35, time=0),
    Message('note_off', channel=3, note=43, velocity=0, time=96),
    Message('note_off', channel=3, note=31, velocity=0, time=0),
    Message('note_on', channel=3, note=31, velocity=35, time=0),
    Message('note_on', channel=3, note=43, velocity=35, time=0),
    Message('note_off', channel=3, note=43, velocity=0, time=96),
    Message('note_off', channel=3, note=31, velocity=0, time=0),
    Message('note_on', channel=3, note=31, velocity=35, time=0),
    Message('note_on', channel=3, note=43, velocity=35, time=0),
    Message('note_off', channel=3, note=43, velocity=0, time=96),
    Message('note_off', channel=3, note=31, velocity=0, time=0),
    Message('note_on', channel=3, note=31, velocity=35, time=0),
    Message('note_on', channel=3, note=43, velocity=35, time=0),
    Message('note_off', channel=3, note=43, velocity=0, time=96),
    Message('note_off', channel=3, note=31, velocity=0, time=0),
    Message('note_on', channel=3, note=31, velocity=35, time=0),
    Message('note_on', channel=3, note=43, velocity=35, time=0),
    Message('note_off', channel=3, note=43, velocity=0, time=96),
    Message('note_off', channel=3, note=31, velocity=0, time=0),
    Message('note_on', channel=3, note=31, velocity=35, time=0),
    Message('note_on', channel=3, note=43, velocity=35, time=0),
    Message('note_off', channel=3, note=43, velocity=0, time=96),
    Message('note_off', channel=3, note=31, velocity=0, time=0),
    Message('note_on', channel=3, note=31, velocity=35, time=0),
    Message('note_on', channel=3, note=43, velocity=35, time=0),
    Message('note_off', channel=3, note=43, velocity=0, time=96),
    Message('note_off', channel=3, note=31, velocity=0, time=0),
    Message('note_on', channel=3, note=31, velocity=35, time=0),
    Message('note_on', channel=3, note=43, velocity=35, time=0),
    Message('note_off', channel=3, note=43, velocity=0, time=96),
    Message('note_off', channel=3, note=31, velocity=0, time=0),
    Message('note_on', channel=3, note=31, velocity=35, time=0),
    Message('note_on', channel=3, note=43, velocity=35, time=0),
    Message('note_off', channel=3, note=43, velocity=0, time=96),
    Message('note_off', channel=3, note=31, velocity=0, time=0),
    Message('note_on', channel=3, note=26, velocity=35, time=0),
    Message('note_on', channel=3, note=38, velocity=35, time=0),
    Message('note_off', channel=3, note=38, velocity=0, time=96),
    Message('note_off', channel=3, note=26, velocity=0, time=0),
    Message('note_on', channel=3, note=26, velocity=35, time=0),
    Message('note_on', channel=3, note=38, velocity=35, time=0),
    Message('note_off', channel=3, note=38, velocity=0, time=96),
    Message('note_off', channel=3, note=26, velocity=0, time=0),
    Message('note_on', channel=3, note=26, velocity=35, time=0),
    Message('note_on', channel=3, note=38, velocity=35, time=0),
    Message('note_off', channel=3, note=38, velocity=0, time=96),
    Message('note_off', channel=3, note=26, velocity=0, time=0),
    Message('note_on', channel=3, note=26, velocity=35, time=0),
    Message('note_on', channel=3, note=38, velocity=35, time=0),
    Message('note_off', channel=3, note=38, velocity=0, time=96),
    Message('note_off', channel=3, note=26, velocity=0, time=0),
    Message('note_on', channel=3, note=26, velocity=35, time=0),
    Message('note_on', channel=3, note=38, velocity=35, time=0),
    Message('note_off', channel=3, note=38, velocity=0, time=96),
    Message('note_off', channel=3, note=26, velocity=0, time=0),
    Message('note_on', channel=3, note=26, velocity=35, time=0),
    Message('note_on', channel=3, note=38, velocity=35, time=0),
    Message('note_off', channel=3, note=38, velocity=0, time=96),
    Message('note_off', channel=3, note=26, velocity=0, time=0),
    Message('note_on', channel=3, note=26, velocity=35, time=0),
    Message('note_on', channel=3, note=38, velocity=35, time=0),
    Message('note_off', channel=3, note=38, velocity=0, time=96),
    Message('note_off', channel=3, note=26, velocity=0, time=0),
    Message('note_on', channel=3, note=26, velocity=35, time=0),
    Message('note_on', channel=3, note=38, velocity=35, time=0),
    Message('note_off', channel=3, note=38, velocity=0, time=96),
    Message('note_off', channel=3, note=26, velocity=0, time=0),
    Message('note_on', channel=3, note=26, velocity=35, time=0),
    Message('note_on', channel=3, note=38, velocity=35, time=0),
    Message('note_off', channel=3, note=38, velocity=0, time=96),
    Message('note_off', channel=3, note=26, velocity=0, time=0),
    Message('note_on', channel=3, note=26, velocity=35, time=0),
    Message('note_on', channel=3, note=38, velocity=35, time=0),
    Message('note_off', channel=3, note=38, velocity=0, time=96),
    Message('note_off', channel=3, note=26, velocity=0, time=0),
    Message('note_on', channel=3, note=26, velocity=35, time=0),
    Message('note_on', channel=3, note=38, velocity=35, time=0),
    Message('note_off', channel=3, note=38, velocity=0, time=96),
    Message('note_off', channel=3, note=26, velocity=0, time=0),
    Message('note_on', channel=3, note=26, velocity=35, time=0),
    Message('note_on', channel=3, note=38, velocity=35, time=0),
    Message('note_off', channel=3, note=38, velocity=0, time=96),
    Message('note_off', channel=3, note=26, velocity=0, time=0),
    Message('note_on', channel=3, note=26, velocity=35, time=0),
    Message('note_on', channel=3, note=38, velocity=35, time=0),
    Message('note_off', channel=3, note=38, velocity=0, time=96),
    Message('note_off', channel=3, note=26, velocity=0, time=0),
    Message('note_on', channel=3, note=26, velocity=35, time=0),
    Message('note_on', channel=3, note=38, velocity=35, time=0),
    Message('note_off', channel=3, note=38, velocity=0, time=96),
    Message('note_off', channel=3, note=26, velocity=0, time=0),
    Message('note_on', channel=3, note=26, velocity=35, time=0),
    Message('note_on', channel=3, note=38, velocity=35, time=0),
    Message('note_off', channel=3, note=38, velocity=0, time=96),
    Message('note_off', channel=3, note=26, velocity=0, time=0),
    Message('note_on', channel=3, note=26, velocity=35, time=0),
    Message('note_on', channel=3, note=38, velocity=35, time=0),
    Message('note_off', channel=3, note=38, velocity=0, time=96),
    Message('note_off', channel=3, note=26, velocity=0, time=0),
    Message('note_on', channel=3, note=24, velocity=35, time=0),
    Message('note_on', channel=3, note=36, velocity=35, time=0),
    Message('note_off', channel=3, note=36, velocity=0, time=96),
    Message('note_off', channel=3, note=24, velocity=0, time=0),
    Message('note_on', channel=3, note=24, velocity=35, time=0),
    Message('note_on', channel=3, note=36, velocity=35, time=0),
    Message('note_off', channel=3, note=36, velocity=0, time=96),
    Message('note_off', channel=3, note=24, velocity=0, time=0),
    Message('note_on', channel=3, note=24, velocity=35, time=0),
    Message('note_on', channel=3, note=36, velocity=35, time=0),
    Message('note_off', channel=3, note=36, velocity=0, time=96),
    Message('note_off', channel=3, note=24, velocity=0, time=0),
    Message('note_on', channel=3, note=24, velocity=35, time=0),
    Message('note_on', channel=3, note=36, velocity=35, time=0),
    Message('note_off', channel=3, note=36, velocity=0, time=96),
    Message('note_off', channel=3, note=24, velocity=0, time=0),
    Message('note_on', channel=3, note=24, velocity=35, time=0),
    Message('note_on', channel=3, note=36, velocity=35, time=0),
    Message('note_off', channel=3, note=36, velocity=0, time=96),
    Message('note_off', channel=3, note=24, velocity=0, time=0),
    Message('note_on', channel=3, note=24, velocity=35, time=0),
    Message('note_on', channel=3, note=36, velocity=35, time=0),
    Message('note_off', channel=3, note=36, velocity=0, time=96),
    Message('note_off', channel=3, note=24, velocity=0, time=0),
    Message('note_on', channel=3, note=24, velocity=35, time=0),
    Message('note_on', channel=3, note=36, velocity=35, time=0),
    Message('note_off', channel=3, note=36, velocity=0, time=96),
    Message('note_off', channel=3, note=24, velocity=0, time=0),
    Message('note_on', channel=3, note=24, velocity=35, time=0),
    Message('note_on', channel=3, note=36, velocity=35, time=0),
    Message('note_off', channel=3, note=36, velocity=0, time=96),
    Message('note_off', channel=3, note=24, velocity=0, time=0),
    Message('note_on', channel=3, note=24, velocity=35, time=0),
    Message('note_on', channel=3, note=36, velocity=35, time=0),
    Message('note_off', channel=3, note=36, velocity=0, time=96),
    Message('note_off', channel=3, note=24, velocity=0, time=0),
    Message('note_on', channel=3, note=24, velocity=35, time=0),
    Message('note_on', channel=3, note=36, velocity=35, time=0),
    Message('note_off', channel=3, note=36, velocity=0, time=96),
    Message('note_off', channel=3, note=24, velocity=0, time=0),
    Message('note_on', channel=3, note=24, velocity=35, time=0),
    Message('note_on', channel=3, note=36, velocity=35, time=0),
    Message('note_off', channel=3, note=36, velocity=0, time=96),
    Message('note_off', channel=3, note=24, velocity=0, time=0),
    Message('note_on', channel=3, note=24, velocity=35, time=0),
    Message('note_on', channel=3, note=36, velocity=35, time=0),
    Message('note_off', channel=3, note=36, velocity=0, time=96),
    Message('note_off', channel=3, note=24, velocity=0, time=0),
    Message('note_on', channel=3, note=24, velocity=35, time=0),
    Message('note_on', channel=3, note=36, velocity=35, time=0),
    Message('note_off', channel=3, note=36, velocity=0, time=96),
    Message('note_off', channel=3, note=24, velocity=0, time=0),
    Message('note_on', channel=3, note=24, velocity=35, time=0),
    Message('note_on', channel=3, note=36, velocity=35, time=0),
    Message('note_off', channel=3, note=36, velocity=0, time=96),
    Message('note_off', channel=3, note=24, velocity=0, time=0),
    Message('note_on', channel=3, note=24, velocity=35, time=0),
    Message('note_on', channel=3, note=36, velocity=35, time=0),
    Message('note_off', channel=3, note=36, velocity=0, time=96),
    Message('note_off', channel=3, note=24, velocity=0, time=0),
    Message('note_on', channel=3, note=24, velocity=35, time=0),
    Message('note_on', channel=3, note=36, velocity=35, time=0),
    Message('note_off', channel=3, note=36, velocity=0, time=96),
    Message('note_off', channel=3, note=24, velocity=0, time=0),
    Message('note_on', channel=3, note=28, velocity=35, time=0),
    Message('note_on', channel=3, note=40, velocity=35, time=0),
    Message('note_off', channel=3, note=40, velocity=0, time=96),
    Message('note_off', channel=3, note=28, velocity=0, time=0),
    Message('note_on', channel=3, note=28, velocity=35, time=0),
    Message('note_on', channel=3, note=40, velocity=35, time=0),
    Message('note_off', channel=3, note=40, velocity=0, time=96),
    Message('note_off', channel=3, note=28, velocity=0, time=0),
    Message('note_on', channel=3, note=28, velocity=35, time=0),
    Message('note_on', channel=3, note=40, velocity=35, time=0),
    Message('note_off', channel=3, note=40, velocity=0, time=96),
    Message('note_off', channel=3, note=28, velocity=0, time=0),
    Message('note_on', channel=3, note=28, velocity=35, time=0),
    Message('note_on', channel=3, note=40, velocity=35, time=0),
    Message('note_off', channel=3, note=40, velocity=0, time=96),
    Message('note_off', channel=3, note=28, velocity=0, time=0),
    Message('note_on', channel=3, note=28, velocity=35, time=0),
    Message('note_on', channel=3, note=40, velocity=35, time=0),
    Message('note_off', channel=3, note=40, velocity=0, time=96),
    Message('note_off', channel=3, note=28, velocity=0, time=0),
    Message('note_on', channel=3, note=28, velocity=35, time=0),
    Message('note_on', channel=3, note=40, velocity=35, time=0),
    Message('note_off', channel=3, note=40, velocity=0, time=96),
    Message('note_off', channel=3, note=28, velocity=0, time=0),
    Message('note_on', channel=3, note=28, velocity=35, time=0),
    Message('note_on', channel=3, note=40, velocity=35, time=0),
    Message('note_off', channel=3, note=40, velocity=0, time=96),
    Message('note_off', channel=3, note=28, velocity=0, time=0),
    Message('note_on', channel=3, note=28, velocity=35, time=0),
    Message('note_on', channel=3, note=40, velocity=35, time=0),
    Message('note_off', channel=3, note=40, velocity=0, time=96),
    Message('note_off', channel=3, note=28, velocity=0, time=0),
    Message('note_on', channel=3, note=28, velocity=35, time=0),
    Message('note_on', channel=3, note=40, velocity=35, time=0),
    Message('note_off', channel=3, note=40, velocity=0, time=96),
    Message('note_off', channel=3, note=28, velocity=0, time=0),
    Message('note_on', channel=3, note=28, velocity=35, time=0),
    Message('note_on', channel=3, note=40, velocity=35, time=0),
    Message('note_off', channel=3, note=40, velocity=0, time=96),
    Message('note_off', channel=3, note=28, velocity=0, time=0),
    Message('note_on', channel=3, note=28, velocity=35, time=0),
    Message('note_on', channel=3, note=40, velocity=35, time=0),
    Message('note_off', channel=3, note=40, velocity=0, time=96),
    Message('note_off', channel=3, note=28, velocity=0, time=0),
    Message('note_on', channel=3, note=28, velocity=35, time=0),
    Message('note_on', channel=3, note=40, velocity=35, time=0),
    Message('note_off', channel=3, note=40, velocity=0, time=96),
    Message('note_off', channel=3, note=28, velocity=0, time=0),
    Message('note_on', channel=3, note=28, velocity=35, time=0),
    Message('note_on', channel=3, note=40, velocity=35, time=0),
    Message('note_off', channel=3, note=40, velocity=0, time=96),
    Message('note_off', channel=3, note=28, velocity=0, time=0),
    Message('note_on', channel=3, note=28, velocity=35, time=0),
    Message('note_on', channel=3, note=40, velocity=35, time=0),
    Message('note_off', channel=3, note=40, velocity=0, time=96),
    Message('note_off', channel=3, note=28, velocity=0, time=0),
    Message('note_on', channel=3, note=28, velocity=35, time=0),
    Message('note_on', channel=3, note=40, velocity=35, time=0),
    Message('note_off', channel=3, note=40, velocity=0, time=96),
    Message('note_off', channel=3, note=28, velocity=0, time=0),
    Message('note_on', channel=3, note=28, velocity=35, time=0),
    Message('note_on', channel=3, note=40, velocity=35, time=0),
    Message('note_off', channel=3, note=40, velocity=0, time=96),
    Message('note_off', channel=3, note=28, velocity=0, time=0),
    Message('note_on', channel=3, note=31, velocity=35, time=0),
    Message('note_on', channel=3, note=43, velocity=35, time=0),
    Message('note_off', channel=3, note=43, velocity=0, time=96),
    Message('note_off', channel=3, note=31, velocity=0, time=0),
    Message('note_on', channel=3, note=31, velocity=35, time=0),
    Message('note_on', channel=3, note=43, velocity=35, time=0),
    Message('note_off', channel=3, note=43, velocity=0, time=96),
    Message('note_off', channel=3, note=31, velocity=0, time=0),
    Message('note_on', channel=3, note=31, velocity=35, time=0),
    Message('note_on', channel=3, note=43, velocity=35, time=0),
    Message('note_off', channel=3, note=43, velocity=0, time=96),
    Message('note_off', channel=3, note=31, velocity=0, time=0),
    Message('note_on', channel=3, note=31, velocity=35, time=0),
    Message('note_on', channel=3, note=43, velocity=35, time=0),
    Message('note_off', channel=3, note=43, velocity=0, time=96),
    Message('note_off', channel=3, note=31, velocity=0, time=0),
    Message('note_on', channel=3, note=31, velocity=35, time=0),
    Message('note_on', channel=3, note=43, velocity=35, time=0),
    Message('note_off', channel=3, note=43, velocity=0, time=96),
    Message('note_off', channel=3, note=31, velocity=0, time=0),
    Message('note_on', channel=3, note=31, velocity=35, time=0),
    Message('note_on', channel=3, note=43, velocity=35, time=0),
    Message('note_off', channel=3, note=43, velocity=0, time=96),
    Message('note_off', channel=3, note=31, velocity=0, time=0),
    Message('note_on', channel=3, note=31, velocity=35, time=0),
    Message('note_on', channel=3, note=43, velocity=35, time=0),
    Message('note_off', channel=3, note=43, velocity=0, time=96),
    Message('note_off', channel=3, note=31, velocity=0, time=0),
    Message('note_on', channel=3, note=31, velocity=35, time=0),
    Message('note_on', channel=3, note=43, velocity=35, time=0),
    Message('note_off', channel=3, note=43, velocity=0, time=96),
    Message('note_off', channel=3, note=31, velocity=0, time=0),
    Message('note_on', channel=3, note=31, velocity=35, time=0),
    Message('note_on', channel=3, note=43, velocity=35, time=0),
    Message('note_off', channel=3, note=43, velocity=0, time=96),
    Message('note_off', channel=3, note=31, velocity=0, time=0),
    Message('note_on', channel=3, note=31, velocity=35, time=0),
    Message('note_on', channel=3, note=43, velocity=35, time=0),
    Message('note_off', channel=3, note=43, velocity=0, time=96),
    Message('note_off', channel=3, note=31, velocity=0, time=0),
    Message('note_on', channel=3, note=31, velocity=35, time=0),
    Message('note_on', channel=3, note=43, velocity=35, time=0),
    Message('note_off', channel=3, note=43, velocity=0, time=96),
    Message('note_off', channel=3, note=31, velocity=0, time=0),
    Message('note_on', channel=3, note=31, velocity=35, time=0),
    Message('note_on', channel=3, note=43, velocity=35, time=0),
    Message('note_off', channel=3, note=43, velocity=0, time=96),
    Message('note_off', channel=3, note=31, velocity=0, time=0),
    Message('note_on', channel=3, note=31, velocity=35, time=0),
    Message('note_on', channel=3, note=43, velocity=35, time=0),
    Message('note_off', channel=3, note=43, velocity=0, time=96),
    Message('note_off', channel=3, note=31, velocity=0, time=0),
    Message('note_on', channel=3, note=31, velocity=35, time=0),
    Message('note_on', channel=3, note=43, velocity=35, time=0),
    Message('note_off', channel=3, note=43, velocity=0, time=96),
    Message('note_off', channel=3, note=31, velocity=0, time=0),
    Message('note_on', channel=3, note=31, velocity=35, time=0),
    Message('note_on', channel=3, note=43, velocity=35, time=0),
    Message('note_off', channel=3, note=43, velocity=0, time=96),
    Message('note_off', channel=3, note=31, velocity=0, time=0),
    Message('note_on', channel=3, note=31, velocity=35, time=0),
    Message('note_on', channel=3, note=43, velocity=35, time=0),
    Message('note_off', channel=3, note=43, velocity=0, time=96),
    Message('note_off', channel=3, note=31, velocity=0, time=0),
    Message('note_on', channel=3, note=26, velocity=35, time=0),
    Message('note_on', channel=3, note=38, velocity=35, time=0),
    Message('note_off', channel=3, note=38, velocity=0, time=96),
    Message('note_off', channel=3, note=26, velocity=0, time=0),
    Message('note_on', channel=3, note=26, velocity=35, time=0),
    Message('note_on', channel=3, note=38, velocity=35, time=0),
    Message('note_off', channel=3, note=38, velocity=0, time=96),
    Message('note_off', channel=3, note=26, velocity=0, time=0),
    Message('note_on', channel=3, note=26, velocity=35, time=0),
    Message('note_on', channel=3, note=38, velocity=35, time=0),
    Message('note_off', channel=3, note=38, velocity=0, time=96),
    Message('note_off', channel=3, note=26, velocity=0, time=0),
    Message('note_on', channel=3, note=26, velocity=35, time=0),
    Message('note_on', channel=3, note=38, velocity=35, time=0),
    Message('note_off', channel=3, note=38, velocity=0, time=96),
    Message('note_off', channel=3, note=26, velocity=0, time=0),
    Message('note_on', channel=3, note=26, velocity=35, time=0),
    Message('note_on', channel=3, note=38, velocity=35, time=0),
    Message('note_off', channel=3, note=38, velocity=0, time=96),
    Message('note_off', channel=3, note=26, velocity=0, time=0),
    Message('note_on', channel=3, note=26, velocity=35, time=0),
    Message('note_on', channel=3, note=38, velocity=35, time=0),
    Message('note_off', channel=3, note=38, velocity=0, time=96),
    Message('note_off', channel=3, note=26, velocity=0, time=0),
    Message('note_on', channel=3, note=26, velocity=35, time=0),
    Message('note_on', channel=3, note=38, velocity=35, time=0),
    Message('note_off', channel=3, note=38, velocity=0, time=96),
    Message('note_off', channel=3, note=26, velocity=0, time=0),
    Message('note_on', channel=3, note=26, velocity=35, time=0),
    Message('note_on', channel=3, note=38, velocity=35, time=0),
    Message('note_off', channel=3, note=38, velocity=0, time=96),
    Message('note_off', channel=3, note=26, velocity=0, time=0),
    Message('note_on', channel=3, note=26, velocity=35, time=0),
    Message('note_on', channel=3, note=38, velocity=35, time=0),
    Message('note_off', channel=3, note=38, velocity=0, time=96),
    Message('note_off', channel=3, note=26, velocity=0, time=0),
    Message('note_on', channel=3, note=26, velocity=35, time=0),
    Message('note_on', channel=3, note=38, velocity=35, time=0),
    Message('note_off', channel=3, note=38, velocity=0, time=96),
    Message('note_off', channel=3, note=26, velocity=0, time=0),
    Message('note_on', channel=3, note=26, velocity=35, time=0),
    Message('note_on', channel=3, note=38, velocity=35, time=0),
    Message('note_off', channel=3, note=38, velocity=0, time=96),
    Message('note_off', channel=3, note=26, velocity=0, time=0),
    Message('note_on', channel=3, note=26, velocity=35, time=0),
    Message('note_on', channel=3, note=38, velocity=35, time=0),
    Message('note_off', channel=3, note=38, velocity=0, time=96),
    Message('note_off', channel=3, note=26, velocity=0, time=0),
    Message('note_on', channel=3, note=26, velocity=35, time=0),
    Message('note_on', channel=3, note=38, velocity=35, time=0),
    Message('note_off', channel=3, note=38, velocity=0, time=96),
    Message('note_off', channel=3, note=26, velocity=0, time=0),
    Message('note_on', channel=3, note=26, velocity=35, time=0),
    Message('note_on', channel=3, note=38, velocity=35, time=0),
    Message('note_off', channel=3, note=38, velocity=0, time=96),
    Message('note_off', channel=3, note=26, velocity=0, time=0),
    Message('note_on', channel=3, note=26, velocity=35, time=0),
    Message('note_on', channel=3, note=38, velocity=35, time=0),
    Message('note_off', channel=3, note=38, velocity=0, time=96),
    Message('note_off', channel=3, note=26, velocity=0, time=0),
    Message('note_on', channel=3, note=26, velocity=35, time=0),
    Message('note_on', channel=3, note=38, velocity=35, time=0),
    Message('note_off', channel=3, note=38, velocity=0, time=96),
    Message('note_off', channel=3, note=26, velocity=0, time=0),
    Message('note_on', channel=3, note=24, velocity=35, time=0),
    Message('note_on', channel=3, note=36, velocity=35, time=0),
    Message('note_off', channel=3, note=36, velocity=0, time=96),
    Message('note_off', channel=3, note=24, velocity=0, time=0),
    Message('note_on', channel=3, note=24, velocity=35, time=0),
    Message('note_on', channel=3, note=36, velocity=35, time=0),
    Message('note_off', channel=3, note=36, velocity=0, time=96),
    Message('note_off', channel=3, note=24, velocity=0, time=0),
    Message('note_on', channel=3, note=24, velocity=35, time=0),
    Message('note_on', channel=3, note=36, velocity=35, time=0),
    Message('note_off', channel=3, note=36, velocity=0, time=96),
    Message('note_off', channel=3, note=24, velocity=0, time=0),
    Message('note_on', channel=3, note=24, velocity=35, time=0),
    Message('note_on', channel=3, note=36, velocity=35, time=0),
    Message('note_off', channel=3, note=36, velocity=0, time=96),
    Message('note_off', channel=3, note=24, velocity=0, time=0),
    Message('note_on', channel=3, note=24, velocity=35, time=0),
    Message('note_on', channel=3, note=36, velocity=35, time=0),
    Message('note_off', channel=3, note=36, velocity=0, time=96),
    Message('note_off', channel=3, note=24, velocity=0, time=0),
    Message('note_on', channel=3, note=24, velocity=35, time=0),
    Message('note_on', channel=3, note=36, velocity=35, time=0),
    Message('note_off', channel=3, note=36, velocity=0, time=96),
    Message('note_off', channel=3, note=24, velocity=0, time=0),
    Message('note_on', channel=3, note=24, velocity=35, time=0),
    Message('note_on', channel=3, note=36, velocity=35, time=0),
    Message('note_off', channel=3, note=36, velocity=0, time=96),
    Message('note_off', channel=3, note=24, velocity=0, time=0),
    Message('note_on', channel=3, note=24, velocity=35, time=0),
    Message('note_on', channel=3, note=36, velocity=35, time=0),
    Message('note_off', channel=3, note=36, velocity=0, time=96),
    Message('note_off', channel=3, note=24, velocity=0, time=0),
    Message('note_on', channel=3, note=24, velocity=35, time=0),
    Message('note_on', channel=3, note=36, velocity=35, time=0),
    Message('note_off', channel=3, note=36, velocity=0, time=96),
    Message('note_off', channel=3, note=24, velocity=0, time=0),
    Message('note_on', channel=3, note=24, velocity=35, time=0),
    Message('note_on', channel=3, note=36, velocity=35, time=0),
    Message('note_off', channel=3, note=36, velocity=0, time=96),
    Message('note_off', channel=3, note=24, velocity=0, time=0),
    Message('note_on', channel=3, note=24, velocity=35, time=0),
    Message('note_on', channel=3, note=36, velocity=35, time=0),
    Message('note_off', channel=3, note=36, velocity=0, time=96),
    Message('note_off', channel=3, note=24, velocity=0, time=0),
    Message('note_on', channel=3, note=24, velocity=35, time=0),
    Message('note_on', channel=3, note=36, velocity=35, time=0),
    Message('note_off', channel=3, note=36, velocity=0, time=96),
    Message('note_off', channel=3, note=24, velocity=0, time=0),
    Message('note_on', channel=3, note=24, velocity=35, time=0),
    Message('note_on', channel=3, note=36, velocity=35, time=0),
    Message('note_off', channel=3, note=36, velocity=0, time=96),
    Message('note_off', channel=3, note=24, velocity=0, time=0),
    Message('note_on', channel=3, note=24, velocity=35, time=0),
    Message('note_on', channel=3, note=36, velocity=35, time=0),
    Message('note_off', channel=3, note=36, velocity=0, time=96),
    Message('note_off', channel=3, note=24, velocity=0, time=0),
    Message('note_on', channel=3, note=24, velocity=35, time=0),
    Message('note_on', channel=3, note=36, velocity=35, time=0),
    Message('note_off', channel=3, note=36, velocity=0, time=96),
    Message('note_off', channel=3, note=24, velocity=0, time=0),
    Message('note_on', channel=3, note=24, velocity=35, time=0),
    Message('note_on', channel=3, note=36, velocity=35, time=0),
    Message('note_off', channel=3, note=36, velocity=0, time=96),
    Message('note_off', channel=3, note=24, velocity=0, time=0),
    Message('note_on', channel=3, note=28, velocity=35, time=0),
    Message('note_on', channel=3, note=40, velocity=35, time=0),
    Message('note_off', channel=3, note=40, velocity=0, time=96),
    Message('note_off', channel=3, note=28, velocity=0, time=0),
    Message('note_on', channel=3, note=28, velocity=35, time=0),
    Message('note_on', channel=3, note=40, velocity=35, time=0),
    Message('note_off', channel=3, note=40, velocity=0, time=96),
    Message('note_off', channel=3, note=28, velocity=0, time=0),
    Message('note_on', channel=3, note=28, velocity=35, time=0),
    Message('note_on', channel=3, note=40, velocity=35, time=0),
    Message('note_off', channel=3, note=40, velocity=0, time=96),
    Message('note_off', channel=3, note=28, velocity=0, time=0),
    Message('note_on', channel=3, note=28, velocity=35, time=0),
    Message('note_on', channel=3, note=40, velocity=35, time=0),
    Message('note_off', channel=3, note=40, velocity=0, time=96),
    Message('note_off', channel=3, note=28, velocity=0, time=0),
    Message('note_on', channel=3, note=28, velocity=35, time=0),
    Message('note_on', channel=3, note=40, velocity=35, time=0),
    Message('note_off', channel=3, note=40, velocity=0, time=96),
    Message('note_off', channel=3, note=28, velocity=0, time=0),
    Message('note_on', channel=3, note=28, velocity=35, time=0),
    Message('note_on', channel=3, note=40, velocity=35, time=0),
    Message('note_off', channel=3, note=40, velocity=0, time=96),
    Message('note_off', channel=3, note=28, velocity=0, time=0),
    Message('note_on', channel=3, note=28, velocity=35, time=0),
    Message('note_on', channel=3, note=40, velocity=35, time=0),
    Message('note_off', channel=3, note=40, velocity=0, time=96),
    Message('note_off', channel=3, note=28, velocity=0, time=0),
    Message('note_on', channel=3, note=28, velocity=35, time=0),
    Message('note_on', channel=3, note=40, velocity=35, time=0),
    Message('note_off', channel=3, note=40, velocity=0, time=96),
    Message('note_off', channel=3, note=28, velocity=0, time=0),
    Message('note_on', channel=3, note=28, velocity=35, time=0),
    Message('note_on', channel=3, note=40, velocity=35, time=0),
    Message('note_off', channel=3, note=40, velocity=0, time=96),
    Message('note_off', channel=3, note=28, velocity=0, time=0),
    Message('note_on', channel=3, note=28, velocity=35, time=0),
    Message('note_on', channel=3, note=40, velocity=35, time=0),
    Message('note_off', channel=3, note=40, velocity=0, time=96),
    Message('note_off', channel=3, note=28, velocity=0, time=0),
    Message('note_on', channel=3, note=28, velocity=35, time=0),
    Message('note_on', channel=3, note=40, velocity=35, time=0),
    Message('note_off', channel=3, note=40, velocity=0, time=96),
    Message('note_off', channel=3, note=28, velocity=0, time=0),
    Message('note_on', channel=3, note=28, velocity=35, time=0),
    Message('note_on', channel=3, note=40, velocity=35, time=0),
    Message('note_off', channel=3, note=40, velocity=0, time=96),
    Message('note_off', channel=3, note=28, velocity=0, time=0),
    Message('note_on', channel=3, note=28, velocity=35, time=0),
    Message('note_on', channel=3, note=40, velocity=35, time=0),
    Message('note_off', channel=3, note=40, velocity=0, time=96),
    Message('note_off', channel=3, note=28, velocity=0, time=0),
    Message('note_on', channel=3, note=28, velocity=35, time=0),
    Message('note_on', channel=3, note=40, velocity=35, time=0),
    Message('note_off', channel=3, note=40, velocity=0, time=96),
    Message('note_off', channel=3, note=28, velocity=0, time=0),
    Message('note_on', channel=3, note=28, velocity=35, time=0),
    Message('note_on', channel=3, note=40, velocity=35, time=0),
    Message('note_off', channel=3, note=40, velocity=0, time=96),
    Message('note_off', channel=3, note=28, velocity=0, time=0),
    Message('note_on', channel=3, note=28, velocity=35, time=0),
    Message('note_on', channel=3, note=40, velocity=35, time=0),
    Message('note_off', channel=3, note=40, velocity=0, time=96),
    Message('note_off', channel=3, note=28, velocity=0, time=0),
    Message('note_on', channel=3, note=31, velocity=35, time=0),
    Message('note_on', channel=3, note=43, velocity=35, time=0),
    Message('note_off', channel=3, note=43, velocity=0, time=96),
    Message('note_off', channel=3, note=31, velocity=0, time=0),
    Message('note_on', channel=3, note=31, velocity=35, time=0),
    Message('note_on', channel=3, note=43, velocity=35, time=0),
    Message('note_off', channel=3, note=43, velocity=0, time=96),
    Message('note_off', channel=3, note=31, velocity=0, time=0),
    Message('note_on', channel=3, note=31, velocity=35, time=0),
    Message('note_on', channel=3, note=43, velocity=35, time=0),
    Message('note_off', channel=3, note=43, velocity=0, time=96),
    Message('note_off', channel=3, note=31, velocity=0, time=0),
    Message('note_on', channel=3, note=31, velocity=35, time=0),
    Message('note_on', channel=3, note=43, velocity=35, time=0),
    Message('note_off', channel=3, note=43, velocity=0, time=96),
    Message('note_off', channel=3, note=31, velocity=0, time=0),
    Message('note_on', channel=3, note=31, velocity=35, time=0),
    Message('note_on', channel=3, note=43, velocity=35, time=0),
    Message('note_off', channel=3, note=43, velocity=0, time=96),
    Message('note_off', channel=3, note=31, velocity=0, time=0),
    Message('note_on', channel=3, note=31, velocity=35, time=0),
    Message('note_on', channel=3, note=43, velocity=35, time=0),
    Message('note_off', channel=3, note=43, velocity=0, time=96),
    Message('note_off', channel=3, note=31, velocity=0, time=0),
    Message('note_on', channel=3, note=31, velocity=35, time=0),
    Message('note_on', channel=3, note=43, velocity=35, time=0),
    Message('note_off', channel=3, note=43, velocity=0, time=96),
    Message('note_off', channel=3, note=31, velocity=0, time=0),
    Message('note_on', channel=3, note=31, velocity=35, time=0),
    Message('note_on', channel=3, note=43, velocity=35, time=0),
    Message('note_off', channel=3, note=43, velocity=0, time=96),
    Message('note_off', channel=3, note=31, velocity=0, time=0),
    Message('note_on', channel=3, note=31, velocity=35, time=0),
    Message('note_on', channel=3, note=43, velocity=35, time=0),
    Message('note_off', channel=3, note=43, velocity=0, time=96),
    Message('note_off', channel=3, note=31, velocity=0, time=0),
    Message('note_on', channel=3, note=31, velocity=35, time=0),
    Message('note_on', channel=3, note=43, velocity=35, time=0),
    Message('note_off', channel=3, note=43, velocity=0, time=96),
    Message('note_off', channel=3, note=31, velocity=0, time=0),
    Message('note_on', channel=3, note=31, velocity=35, time=0),
    Message('note_on', channel=3, note=43, velocity=35, time=0),
    Message('note_off', channel=3, note=43, velocity=0, time=96),
    Message('note_off', channel=3, note=31, velocity=0, time=0),
    Message('note_on', channel=3, note=31, velocity=35, time=0),
    Message('note_on', channel=3, note=43, velocity=35, time=0),
    Message('note_off', channel=3, note=43, velocity=0, time=96),
    Message('note_off', channel=3, note=31, velocity=0, time=0),
    Message('note_on', channel=3, note=31, velocity=35, time=0),
    Message('note_on', channel=3, note=43, velocity=35, time=0),
    Message('note_off', channel=3, note=43, velocity=0, time=96),
    Message('note_off', channel=3, note=31, velocity=0, time=0),
    Message('note_on', channel=3, note=31, velocity=35, time=0),
    Message('note_on', channel=3, note=43, velocity=35, time=0),
    Message('note_off', channel=3, note=43, velocity=0, time=96),
    Message('note_off', channel=3, note=31, velocity=0, time=0),
    Message('note_on', channel=3, note=31, velocity=35, time=0),
    Message('note_on', channel=3, note=43, velocity=35, time=0),
    Message('note_off', channel=3, note=43, velocity=0, time=96),
    Message('note_off', channel=3, note=31, velocity=0, time=0),
    Message('note_on', channel=3, note=31, velocity=35, time=0),
    Message('note_on', channel=3, note=43, velocity=35, time=0),
    Message('note_off', channel=3, note=43, velocity=0, time=96),
    Message('note_off', channel=3, note=31, velocity=0, time=0),
    Message('note_on', channel=3, note=26, velocity=35, time=0),
    Message('note_on', channel=3, note=38, velocity=35, time=0),
    Message('note_off', channel=3, note=38, velocity=0, time=96),
    Message('note_off', channel=3, note=26, velocity=0, time=0),
    Message('note_on', channel=3, note=26, velocity=35, time=0),
    Message('note_on', channel=3, note=38, velocity=35, time=0),
    Message('note_off', channel=3, note=38, velocity=0, time=96),
    Message('note_off', channel=3, note=26, velocity=0, time=0),
    Message('note_on', channel=3, note=26, velocity=35, time=0),
    Message('note_on', channel=3, note=38, velocity=35, time=0),
    Message('note_off', channel=3, note=38, velocity=0, time=96),
    Message('note_off', channel=3, note=26, velocity=0, time=0),
    Message('note_on', channel=3, note=26, velocity=35, time=0),
    Message('note_on', channel=3, note=38, velocity=35, time=0),
    Message('note_off', channel=3, note=38, velocity=0, time=96),
    Message('note_off', channel=3, note=26, velocity=0, time=0),
    Message('note_on', channel=3, note=26, velocity=35, time=0),
    Message('note_on', channel=3, note=38, velocity=35, time=0),
    Message('note_off', channel=3, note=38, velocity=0, time=96),
    Message('note_off', channel=3, note=26, velocity=0, time=0),
    Message('note_on', channel=3, note=26, velocity=35, time=0),
    Message('note_on', channel=3, note=38, velocity=35, time=0),
    Message('note_off', channel=3, note=38, velocity=0, time=96),
    Message('note_off', channel=3, note=26, velocity=0, time=0),
    Message('note_on', channel=3, note=26, velocity=35, time=0),
    Message('note_on', channel=3, note=38, velocity=35, time=0),
    Message('note_off', channel=3, note=38, velocity=0, time=96),
    Message('note_off', channel=3, note=26, velocity=0, time=0),
    Message('note_on', channel=3, note=26, velocity=35, time=0),
    Message('note_on', channel=3, note=38, velocity=35, time=0),
    Message('note_off', channel=3, note=38, velocity=0, time=96),
    Message('note_off', channel=3, note=26, velocity=0, time=0),
    Message('note_on', channel=3, note=26, velocity=35, time=0),
    Message('note_on', channel=3, note=38, velocity=35, time=0),
    Message('note_off', channel=3, note=38, velocity=0, time=96),
    Message('note_off', channel=3, note=26, velocity=0, time=0),
    Message('note_on', channel=3, note=26, velocity=35, time=0),
    Message('note_on', channel=3, note=38, velocity=35, time=0),
    Message('note_off', channel=3, note=38, velocity=0, time=96),
    Message('note_off', channel=3, note=26, velocity=0, time=0),
    Message('note_on', channel=3, note=26, velocity=35, time=0),
    Message('note_on', channel=3, note=38, velocity=35, time=0),
    Message('note_off', channel=3, note=38, velocity=0, time=96),
    Message('note_off', channel=3, note=26, velocity=0, time=0),
    Message('note_on', channel=3, note=26, velocity=35, time=0),
    Message('note_on', channel=3, note=38, velocity=35, time=0),
    Message('note_off', channel=3, note=38, velocity=0, time=96),
    Message('note_off', channel=3, note=26, velocity=0, time=0),
    Message('note_on', channel=3, note=26, velocity=35, time=0),
    Message('note_on', channel=3, note=38, velocity=35, time=0),
    Message('note_off', channel=3, note=38, velocity=0, time=96),
    Message('note_off', channel=3, note=26, velocity=0, time=0),
    Message('note_on', channel=3, note=26, velocity=35, time=0),
    Message('note_on', channel=3, note=38, velocity=35, time=0),
    Message('note_off', channel=3, note=38, velocity=0, time=96),
    Message('note_off', channel=3, note=26, velocity=0, time=0),
    Message('note_on', channel=3, note=26, velocity=35, time=0),
    Message('note_on', channel=3, note=38, velocity=35, time=0),
    Message('note_off', channel=3, note=38, velocity=0, time=96),
    Message('note_off', channel=3, note=26, velocity=0, time=0),
    Message('note_on', channel=3, note=26, velocity=35, time=0),
    Message('note_on', channel=3, note=38, velocity=35, time=0),
    Message('note_off', channel=3, note=38, velocity=0, time=96),
    Message('note_off', channel=3, note=26, velocity=0, time=0),
    Message('note_on', channel=3, note=24, velocity=35, time=0),
    Message('note_on', channel=3, note=36, velocity=35, time=0),
    Message('note_off', channel=3, note=36, velocity=0, time=96),
    Message('note_off', channel=3, note=24, velocity=0, time=0),
    Message('note_on', channel=3, note=24, velocity=35, time=0),
    Message('note_on', channel=3, note=36, velocity=35, time=0),
    Message('note_off', channel=3, note=36, velocity=0, time=96),
    Message('note_off', channel=3, note=24, velocity=0, time=0),
    Message('note_on', channel=3, note=24, velocity=35, time=0),
    Message('note_on', channel=3, note=36, velocity=35, time=0),
    Message('note_off', channel=3, note=36, velocity=0, time=96),
    Message('note_off', channel=3, note=24, velocity=0, time=0),
    Message('note_on', channel=3, note=24, velocity=35, time=0),
    Message('note_on', channel=3, note=36, velocity=35, time=0),
    Message('note_off', channel=3, note=36, velocity=0, time=96),
    Message('note_off', channel=3, note=24, velocity=0, time=0),
    Message('note_on', channel=3, note=24, velocity=35, time=0),
    Message('note_on', channel=3, note=36, velocity=35, time=0),
    Message('note_off', channel=3, note=36, velocity=0, time=96),
    Message('note_off', channel=3, note=24, velocity=0, time=0),
    Message('note_on', channel=3, note=24, velocity=35, time=0),
    Message('note_on', channel=3, note=36, velocity=35, time=0),
    Message('note_off', channel=3, note=36, velocity=0, time=96),
    Message('note_off', channel=3, note=24, velocity=0, time=0),
    Message('note_on', channel=3, note=24, velocity=35, time=0),
    Message('note_on', channel=3, note=36, velocity=35, time=0),
    Message('note_off', channel=3, note=36, velocity=0, time=96),
    Message('note_off', channel=3, note=24, velocity=0, time=0),
    Message('note_on', channel=3, note=24, velocity=35, time=0),
    Message('note_on', channel=3, note=36, velocity=35, time=0),
    Message('note_off', channel=3, note=36, velocity=0, time=96),
    Message('note_off', channel=3, note=24, velocity=0, time=0),
    Message('note_on', channel=3, note=24, velocity=35, time=0),
    Message('note_on', channel=3, note=36, velocity=35, time=0),
    Message('note_off', channel=3, note=36, velocity=0, time=96),
    Message('note_off', channel=3, note=24, velocity=0, time=0),
    Message('note_on', channel=3, note=24, velocity=35, time=0),
    Message('note_on', channel=3, note=36, velocity=35, time=0),
    Message('note_off', channel=3, note=36, velocity=0, time=96),
    Message('note_off', channel=3, note=24, velocity=0, time=0),
    Message('note_on', channel=3, note=24, velocity=35, time=0),
    Message('note_on', channel=3, note=36, velocity=35, time=0),
    Message('note_off', channel=3, note=36, velocity=0, time=96),
    Message('note_off', channel=3, note=24, velocity=0, time=0),
    Message('note_on', channel=3, note=24, velocity=35, time=0),
    Message('note_on', channel=3, note=36, velocity=35, time=0),
    Message('note_off', channel=3, note=36, velocity=0, time=96),
    Message('note_off', channel=3, note=24, velocity=0, time=0),
    Message('note_on', channel=3, note=24, velocity=35, time=0),
    Message('note_on', channel=3, note=36, velocity=35, time=0),
    Message('note_off', channel=3, note=36, velocity=0, time=96),
    Message('note_off', channel=3, note=24, velocity=0, time=0),
    Message('note_on', channel=3, note=24, velocity=35, time=0),
    Message('note_on', channel=3, note=36, velocity=35, time=0),
    Message('note_off', channel=3, note=36, velocity=0, time=96),
    Message('note_off', channel=3, note=24, velocity=0, time=0),
    Message('note_on', channel=3, note=24, velocity=35, time=0),
    Message('note_on', channel=3, note=36, velocity=35, time=0),
    Message('note_off', channel=3, note=36, velocity=0, time=96),
    Message('note_off', channel=3, note=24, velocity=0, time=0),
    Message('note_on', channel=3, note=24, velocity=35, time=0),
    Message('note_on', channel=3, note=36, velocity=35, time=0),
    Message('note_off', channel=3, note=36, velocity=0, time=96),
    Message('note_off', channel=3, note=24, velocity=0, time=0),
    Message('note_on', channel=3, note=28, velocity=35, time=0),
    Message('note_on', channel=3, note=40, velocity=35, time=0),
    Message('note_off', channel=3, note=40, velocity=0, time=96),
    Message('note_off', channel=3, note=28, velocity=0, time=0),
    Message('note_on', channel=3, note=28, velocity=35, time=0),
    Message('note_on', channel=3, note=40, velocity=35, time=0),
    Message('note_off', channel=3, note=40, velocity=0, time=96),
    Message('note_off', channel=3, note=28, velocity=0, time=0),
    Message('note_on', channel=3, note=28, velocity=35, time=0),
    Message('note_on', channel=3, note=40, velocity=35, time=0),
    Message('note_off', channel=3, note=40, velocity=0, time=96),
    Message('note_off', channel=3, note=28, velocity=0, time=0),
    Message('note_on', channel=3, note=28, velocity=35, time=0),
    Message('note_on', channel=3, note=40, velocity=35, time=0),
    Message('note_off', channel=3, note=40, velocity=0, time=96),
    Message('note_off', channel=3, note=28, velocity=0, time=0),
    Message('note_on', channel=3, note=28, velocity=35, time=0),
    Message('note_on', channel=3, note=40, velocity=35, time=0),
    Message('note_off', channel=3, note=40, velocity=0, time=96),
    Message('note_off', channel=3, note=28, velocity=0, time=0),
    Message('note_on', channel=3, note=28, velocity=35, time=0),
    Message('note_on', channel=3, note=40, velocity=35, time=0),
    Message('note_off', channel=3, note=40, velocity=0, time=96),
    Message('note_off', channel=3, note=28, velocity=0, time=0),
    Message('note_on', channel=3, note=28, velocity=35, time=0),
    Message('note_on', channel=3, note=40, velocity=35, time=0),
    Message('note_off', channel=3, note=40, velocity=0, time=96),
    Message('note_off', channel=3, note=28, velocity=0, time=0),
    Message('note_on', channel=3, note=28, velocity=35, time=0),
    Message('note_on', channel=3, note=40, velocity=35, time=0),
    Message('note_off', channel=3, note=40, velocity=0, time=96),
    Message('note_off', channel=3, note=28, velocity=0, time=0),
    Message('note_on', channel=3, note=28, velocity=35, time=0),
    Message('note_on', channel=3, note=40, velocity=35, time=0),
    Message('note_off', channel=3, note=40, velocity=0, time=96),
    Message('note_off', channel=3, note=28, velocity=0, time=0),
    Message('note_on', channel=3, note=28, velocity=35, time=0),
    Message('note_on', channel=3, note=40, velocity=35, time=0),
    Message('note_off', channel=3, note=40, velocity=0, time=96),
    Message('note_off', channel=3, note=28, velocity=0, time=0),
    Message('note_on', channel=3, note=28, velocity=35, time=0),
    Message('note_on', channel=3, note=40, velocity=35, time=0),
    Message('note_off', channel=3, note=40, velocity=0, time=96),
    Message('note_off', channel=3, note=28, velocity=0, time=0),
    Message('note_on', channel=3, note=28, velocity=35, time=0),
    Message('note_on', channel=3, note=40, velocity=35, time=0),
    Message('note_off', channel=3, note=40, velocity=0, time=96),
    Message('note_off', channel=3, note=28, velocity=0, time=0),
    Message('note_on', channel=3, note=28, velocity=35, time=0),
    Message('note_on', channel=3, note=40, velocity=35, time=0),
    Message('note_off', channel=3, note=40, velocity=0, time=96),
    Message('note_off', channel=3, note=28, velocity=0, time=0),
    Message('note_on', channel=3, note=28, velocity=35, time=0),
    Message('note_on', channel=3, note=40, velocity=35, time=0),
    Message('note_off', channel=3, note=40, velocity=0, time=96),
    Message('note_off', channel=3, note=28, velocity=0, time=0),
    Message('note_on', channel=3, note=28, velocity=35, time=0),
    Message('note_on', channel=3, note=40, velocity=35, time=0),
    Message('note_off', channel=3, note=40, velocity=0, time=96),
    Message('note_off', channel=3, note=28, velocity=0, time=0),
    Message('note_on', channel=3, note=28, velocity=35, time=0),
    Message('note_on', channel=3, note=40, velocity=35, time=0),
    Message('note_off', channel=3, note=40, velocity=0, time=96),
    Message('note_off', channel=3, note=28, velocity=0, time=0),
    Message('note_on', channel=3, note=31, velocity=35, time=0),
    Message('note_on', channel=3, note=43, velocity=35, time=0),
    Message('note_off', channel=3, note=43, velocity=0, time=96),
    Message('note_off', channel=3, note=31, velocity=0, time=0),
    Message('note_on', channel=3, note=31, velocity=35, time=0),
    Message('note_on', channel=3, note=43, velocity=35, time=0),
    Message('note_off', channel=3, note=43, velocity=0, time=96),
    Message('note_off', channel=3, note=31, velocity=0, time=0),
    Message('note_on', channel=3, note=31, velocity=35, time=0),
    Message('note_on', channel=3, note=43, velocity=35, time=0),
    Message('note_off', channel=3, note=43, velocity=0, time=96),
    Message('note_off', channel=3, note=31, velocity=0, time=0),
    Message('note_on', channel=3, note=31, velocity=35, time=0),
    Message('note_on', channel=3, note=43, velocity=35, time=0),
    Message('note_off', channel=3, note=43, velocity=0, time=96),
    Message('note_off', channel=3, note=31, velocity=0, time=0),
    Message('note_on', channel=3, note=31, velocity=35, time=0),
    Message('note_on', channel=3, note=43, velocity=35, time=0),
    Message('note_off', channel=3, note=43, velocity=0, time=96),
    Message('note_off', channel=3, note=31, velocity=0, time=0),
    Message('note_on', channel=3, note=31, velocity=35, time=0),
    Message('note_on', channel=3, note=43, velocity=35, time=0),
    Message('note_off', channel=3, note=43, velocity=0, time=96),
    Message('note_off', channel=3, note=31, velocity=0, time=0),
    Message('note_on', channel=3, note=31, velocity=35, time=0),
    Message('note_on', channel=3, note=43, velocity=35, time=0),
    Message('note_off', channel=3, note=43, velocity=0, time=96),
    Message('note_off', channel=3, note=31, velocity=0, time=0),
    Message('note_on', channel=3, note=31, velocity=35, time=0),
    Message('note_on', channel=3, note=43, velocity=35, time=0),
    Message('note_off', channel=3, note=43, velocity=0, time=96),
    Message('note_off', channel=3, note=31, velocity=0, time=0),
    Message('note_on', channel=3, note=31, velocity=35, time=0),
    Message('note_on', channel=3, note=43, velocity=35, time=0),
    Message('note_off', channel=3, note=43, velocity=0, time=96),
    Message('note_off', channel=3, note=31, velocity=0, time=0),
    Message('note_on', channel=3, note=31, velocity=35, time=0),
    Message('note_on', channel=3, note=43, velocity=35, time=0),
    Message('note_off', channel=3, note=43, velocity=0, time=96),
    Message('note_off', channel=3, note=31, velocity=0, time=0),
    Message('note_on', channel=3, note=31, velocity=35, time=0),
    Message('note_on', channel=3, note=43, velocity=35, time=0),
    Message('note_off', channel=3, note=43, velocity=0, time=96),
    Message('note_off', channel=3, note=31, velocity=0, time=0),
    Message('note_on', channel=3, note=31, velocity=35, time=0),
    Message('note_on', channel=3, note=43, velocity=35, time=0),
    Message('note_off', channel=3, note=43, velocity=0, time=96),
    Message('note_off', channel=3, note=31, velocity=0, time=0),
    Message('note_on', channel=3, note=31, velocity=35, time=0),
    Message('note_on', channel=3, note=43, velocity=35, time=0),
    Message('note_off', channel=3, note=43, velocity=0, time=96),
    Message('note_off', channel=3, note=31, velocity=0, time=0),
    Message('note_on', channel=3, note=31, velocity=35, time=0),
    Message('note_on', channel=3, note=43, velocity=35, time=0),
    Message('note_off', channel=3, note=43, velocity=0, time=96),
    Message('note_off', channel=3, note=31, velocity=0, time=0),
    Message('note_on', channel=3, note=31, velocity=35, time=0),
    Message('note_on', channel=3, note=43, velocity=35, time=0),
    Message('note_off', channel=3, note=43, velocity=0, time=96),
    Message('note_off', channel=3, note=31, velocity=0, time=0),
    Message('note_on', channel=3, note=31, velocity=35, time=0),
    Message('note_on', channel=3, note=43, velocity=35, time=0),
    Message('note_off', channel=3, note=43, velocity=0, time=96),
    Message('note_off', channel=3, note=31, velocity=0, time=0),
    Message('note_on', channel=3, note=26, velocity=35, time=0),
    Message('note_on', channel=3, note=38, velocity=35, time=0),
    Message('note_off', channel=3, note=38, velocity=0, time=96),
    Message('note_off', channel=3, note=26, velocity=0, time=0),
    Message('note_on', channel=3, note=26, velocity=35, time=0),
    Message('note_on', channel=3, note=38, velocity=35, time=0),
    Message('note_off', channel=3, note=38, velocity=0, time=96),
    Message('note_off', channel=3, note=26, velocity=0, time=0),
    Message('note_on', channel=3, note=26, velocity=35, time=0),
    Message('note_on', channel=3, note=38, velocity=35, time=0),
    Message('note_off', channel=3, note=38, velocity=0, time=96),
    Message('note_off', channel=3, note=26, velocity=0, time=0),
    Message('note_on', channel=3, note=26, velocity=35, time=0),
    Message('note_on', channel=3, note=38, velocity=35, time=0),
    Message('note_off', channel=3, note=38, velocity=0, time=96),
    Message('note_off', channel=3, note=26, velocity=0, time=0),
    Message('note_on', channel=3, note=26, velocity=35, time=0),
    Message('note_on', channel=3, note=38, velocity=35, time=0),
    Message('note_off', channel=3, note=38, velocity=0, time=96),
    Message('note_off', channel=3, note=26, velocity=0, time=0),
    Message('note_on', channel=3, note=26, velocity=35, time=0),
    Message('note_on', channel=3, note=38, velocity=35, time=0),
    Message('note_off', channel=3, note=38, velocity=0, time=96),
    Message('note_off', channel=3, note=26, velocity=0, time=0),
    Message('note_on', channel=3, note=26, velocity=35, time=0),
    Message('note_on', channel=3, note=38, velocity=35, time=0),
    Message('note_off', channel=3, note=38, velocity=0, time=96),
    Message('note_off', channel=3, note=26, velocity=0, time=0),
    Message('note_on', channel=3, note=26, velocity=35, time=0),
    Message('note_on', channel=3, note=38, velocity=35, time=0),
    Message('note_off', channel=3, note=38, velocity=0, time=96),
    Message('note_off', channel=3, note=26, velocity=0, time=0),
    Message('note_on', channel=3, note=26, velocity=35, time=0),
    Message('note_on', channel=3, note=38, velocity=35, time=0),
    Message('note_off', channel=3, note=38, velocity=0, time=96),
    Message('note_off', channel=3, note=26, velocity=0, time=0),
    Message('note_on', channel=3, note=26, velocity=35, time=0),
    Message('note_on', channel=3, note=38, velocity=35, time=0),
    Message('note_off', channel=3, note=38, velocity=0, time=96),
    Message('note_off', channel=3, note=26, velocity=0, time=0),
    Message('note_on', channel=3, note=26, velocity=35, time=0),
    Message('note_on', channel=3, note=38, velocity=35, time=0),
    Message('note_off', channel=3, note=38, velocity=0, time=96),
    Message('note_off', channel=3, note=26, velocity=0, time=0),
    Message('note_on', channel=3, note=26, velocity=35, time=0),
    Message('note_on', channel=3, note=38, velocity=35, time=0),
    Message('note_off', channel=3, note=38, velocity=0, time=96),
    Message('note_off', channel=3, note=26, velocity=0, time=0),
    Message('note_on', channel=3, note=26, velocity=35, time=0),
    Message('note_on', channel=3, note=38, velocity=35, time=0),
    Message('note_off', channel=3, note=38, velocity=0, time=96),
    Message('note_off', channel=3, note=26, velocity=0, time=0),
    Message('note_on', channel=3, note=26, velocity=35, time=0),
    Message('note_on', channel=3, note=38, velocity=35, time=0),
    Message('note_off', channel=3, note=38, velocity=0, time=96),
    Message('note_off', channel=3, note=26, velocity=0, time=0),
    Message('note_on', channel=3, note=26, velocity=35, time=0),
    Message('note_on', channel=3, note=38, velocity=35, time=0),
    Message('note_off', channel=3, note=38, velocity=0, time=96),
    Message('note_off', channel=3, note=26, velocity=0, time=0),
    Message('note_on', channel=3, note=26, velocity=35, time=0),
    Message('note_on', channel=3, note=38, velocity=35, time=0),
    Message('note_off', channel=3, note=38, velocity=0, time=96),
    Message('note_off', channel=3, note=26, velocity=0, time=0),
    Message('note_on', channel=3, note=24, velocity=35, time=0),
    Message('note_on', channel=3, note=36, velocity=35, time=0),
    Message('note_off', channel=3, note=36, velocity=0, time=96),
    Message('note_off', channel=3, note=24, velocity=0, time=0),
    Message('note_on', channel=3, note=24, velocity=35, time=0),
    Message('note_on', channel=3, note=36, velocity=35, time=0),
    Message('note_off', channel=3, note=36, velocity=0, time=96),
    Message('note_off', channel=3, note=24, velocity=0, time=0),
    Message('note_on', channel=3, note=24, velocity=35, time=0),
    Message('note_on', channel=3, note=36, velocity=35, time=0),
    Message('note_off', channel=3, note=36, velocity=0, time=96),
    Message('note_off', channel=3, note=24, velocity=0, time=0),
    Message('note_on', channel=3, note=24, velocity=35, time=0),
    Message('note_on', channel=3, note=36, velocity=35, time=0),
    Message('note_off', channel=3, note=36, velocity=0, time=96),
    Message('note_off', channel=3, note=24, velocity=0, time=0),
    Message('note_on', channel=3, note=24, velocity=35, time=0),
    Message('note_on', channel=3, note=36, velocity=35, time=0),
    Message('note_off', channel=3, note=36, velocity=0, time=96),
    Message('note_off', channel=3, note=24, velocity=0, time=0),
    Message('note_on', channel=3, note=24, velocity=35, time=0),
    Message('note_on', channel=3, note=36, velocity=35, time=0),
    Message('note_off', channel=3, note=36, velocity=0, time=96),
    Message('note_off', channel=3, note=24, velocity=0, time=0),
    Message('note_on', channel=3, note=24, velocity=35, time=0),
    Message('note_on', channel=3, note=36, velocity=35, time=0),
    Message('note_off', channel=3, note=36, velocity=0, time=96),
    Message('note_off', channel=3, note=24, velocity=0, time=0),
    Message('note_on', channel=3, note=24, velocity=35, time=0),
    Message('note_on', channel=3, note=36, velocity=35, time=0),
    Message('note_off', channel=3, note=36, velocity=0, time=96),
    Message('note_off', channel=3, note=24, velocity=0, time=0),
    Message('note_on', channel=3, note=24, velocity=35, time=0),
    Message('note_on', channel=3, note=36, velocity=35, time=0),
    Message('note_off', channel=3, note=36, velocity=0, time=96),
    Message('note_off', channel=3, note=24, velocity=0, time=0),
    Message('note_on', channel=3, note=24, velocity=35, time=0),
    Message('note_on', channel=3, note=36, velocity=35, time=0),
    Message('note_off', channel=3, note=36, velocity=0, time=96),
    Message('note_off', channel=3, note=24, velocity=0, time=0),
    Message('note_on', channel=3, note=24, velocity=35, time=0),
    Message('note_on', channel=3, note=36, velocity=35, time=0),
    Message('note_off', channel=3, note=36, velocity=0, time=96),
    Message('note_off', channel=3, note=24, velocity=0, time=0),
    Message('note_on', channel=3, note=24, velocity=35, time=0),
    Message('note_on', channel=3, note=36, velocity=35, time=0),
    Message('note_off', channel=3, note=36, velocity=0, time=96),
    Message('note_off', channel=3, note=24, velocity=0, time=0),
    Message('note_on', channel=3, note=24, velocity=35, time=0),
    Message('note_on', channel=3, note=36, velocity=35, time=0),
    Message('note_off', channel=3, note=36, velocity=0, time=96),
    Message('note_off', channel=3, note=24, velocity=0, time=0),
    Message('note_on', channel=3, note=24, velocity=35, time=0),
    Message('note_on', channel=3, note=36, velocity=35, time=0),
    Message('note_off', channel=3, note=36, velocity=0, time=96),
    Message('note_off', channel=3, note=24, velocity=0, time=0),
    Message('note_on', channel=3, note=24, velocity=35, time=0),
    Message('note_on', channel=3, note=36, velocity=35, time=0),
    Message('note_off', channel=3, note=36, velocity=0, time=96),
    Message('note_off', channel=3, note=24, velocity=0, time=0),
    Message('note_on', channel=3, note=24, velocity=35, time=0),
    Message('note_on', channel=3, note=36, velocity=35, time=0),
    Message('note_off', channel=3, note=36, velocity=0, time=96),
    Message('note_off', channel=3, note=24, velocity=0, time=0),
    MetaMessage('end_of_track', time=0)])
])
